G75*
%MOIN*%
%OFA0B0*%
%FSLAX25Y25*%
%IPPOS*%
%LPD*%
%AMOC8*
5,1,8,0,0,1.08239X$1,22.5*
%
%ADD10C,0.04500*%
%ADD11C,0.06000*%
%ADD12C,0.04000*%
%ADD13R,0.07000X0.07000*%
%ADD14C,0.07000*%
%ADD15C,0.00800*%
%ADD16C,0.03569*%
%ADD17C,0.03200*%
%ADD18C,0.01200*%
%ADD19R,0.03962X0.03962*%
%ADD20C,0.01600*%
%ADD21C,0.02400*%
D10*
X0250000Y0037333D03*
X0249500Y0048833D03*
D11*
X0248500Y0019333D02*
X0248500Y0013333D01*
X0238500Y0013333D02*
X0238500Y0019333D01*
X0228500Y0019333D02*
X0228500Y0013333D01*
X0218500Y0013333D02*
X0218500Y0019333D01*
X0208500Y0019333D02*
X0208500Y0013333D01*
X0198500Y0013333D02*
X0198500Y0019333D01*
X0188500Y0019333D02*
X0188500Y0013333D01*
X0178500Y0013333D02*
X0178500Y0019333D01*
X0168500Y0019333D02*
X0168500Y0013333D01*
X0158500Y0013333D02*
X0158500Y0019333D01*
D12*
X0017500Y0016633D02*
X0013500Y0016633D01*
X0013500Y0042033D02*
X0017500Y0042033D01*
D13*
X0232047Y0082003D03*
D14*
X0222047Y0082003D03*
X0212047Y0082003D03*
X0202047Y0082003D03*
X0192047Y0082003D03*
X0182047Y0082003D03*
X0172047Y0082003D03*
X0162047Y0082003D03*
X0152047Y0082003D03*
X0142047Y0082003D03*
X0132047Y0082003D03*
X0122047Y0082003D03*
X0112047Y0082003D03*
X0102047Y0082003D03*
X0092047Y0082003D03*
X0082047Y0082003D03*
X0072047Y0082003D03*
X0062047Y0082003D03*
X0052047Y0082003D03*
X0042047Y0082003D03*
X0042047Y0072003D03*
X0052047Y0072003D03*
X0062047Y0072003D03*
X0072047Y0072003D03*
X0082047Y0072003D03*
X0092047Y0072003D03*
X0102047Y0072003D03*
X0112047Y0072003D03*
X0122047Y0072003D03*
X0132047Y0072003D03*
X0142047Y0072003D03*
X0152047Y0072003D03*
X0162047Y0072003D03*
X0172047Y0072003D03*
X0182047Y0072003D03*
X0192047Y0072003D03*
X0202047Y0072003D03*
X0212047Y0072003D03*
X0222047Y0072003D03*
X0232047Y0072003D03*
D15*
X0013600Y0013233D02*
X0013600Y0010933D01*
X0154805Y0010933D01*
X0154737Y0011027D01*
X0154422Y0011644D01*
X0154208Y0012303D01*
X0154100Y0012987D01*
X0154100Y0015933D01*
X0158100Y0015933D01*
X0158100Y0016733D01*
X0154100Y0016733D01*
X0154100Y0019680D01*
X0154208Y0020364D01*
X0154422Y0021022D01*
X0154737Y0021639D01*
X0155144Y0022200D01*
X0155634Y0022689D01*
X0156194Y0023097D01*
X0156811Y0023411D01*
X0157470Y0023625D01*
X0158100Y0023725D01*
X0158100Y0016733D01*
X0158900Y0016733D01*
X0162900Y0016733D01*
X0162900Y0019680D01*
X0162792Y0020364D01*
X0162578Y0021022D01*
X0162263Y0021639D01*
X0161856Y0022200D01*
X0161366Y0022689D01*
X0160806Y0023097D01*
X0160189Y0023411D01*
X0159530Y0023625D01*
X0158900Y0023725D01*
X0158900Y0016733D01*
X0158900Y0015933D01*
X0162900Y0015933D01*
X0162900Y0012987D01*
X0162792Y0012303D01*
X0162578Y0011644D01*
X0162263Y0011027D01*
X0162195Y0010933D01*
X0164732Y0010933D01*
X0164100Y0012458D01*
X0164100Y0020209D01*
X0164770Y0021826D01*
X0166008Y0023063D01*
X0166500Y0023267D01*
X0166500Y0038330D01*
X0166304Y0038134D01*
X0165133Y0037649D01*
X0163867Y0037649D01*
X0163555Y0037778D01*
X0163684Y0037467D01*
X0163684Y0036200D01*
X0163199Y0035030D01*
X0162304Y0034134D01*
X0161133Y0033649D01*
X0160427Y0033649D01*
X0158600Y0031822D01*
X0158600Y0031816D01*
X0158204Y0030861D01*
X0157473Y0030129D01*
X0156517Y0029733D01*
X0040903Y0029733D01*
X0040804Y0029634D01*
X0039633Y0029149D01*
X0038367Y0029149D01*
X0037196Y0029634D01*
X0036301Y0030530D01*
X0035816Y0031700D01*
X0035816Y0032967D01*
X0036301Y0034137D01*
X0037196Y0035033D01*
X0038367Y0035518D01*
X0039633Y0035518D01*
X0040804Y0035033D01*
X0040903Y0034933D01*
X0155489Y0034933D01*
X0157316Y0036760D01*
X0157316Y0037467D01*
X0157801Y0038637D01*
X0157997Y0038833D01*
X0091003Y0038833D01*
X0090804Y0038634D01*
X0089633Y0038149D01*
X0088367Y0038149D01*
X0087196Y0038634D01*
X0086301Y0039530D01*
X0085816Y0040700D01*
X0085816Y0041967D01*
X0086301Y0043137D01*
X0087196Y0044033D01*
X0088367Y0044518D01*
X0088507Y0044518D01*
X0094527Y0050537D01*
X0095483Y0050933D01*
X0112597Y0050933D01*
X0112696Y0051033D01*
X0113867Y0051518D01*
X0115133Y0051518D01*
X0116304Y0051033D01*
X0117199Y0050137D01*
X0117684Y0048967D01*
X0117684Y0047700D01*
X0117199Y0046530D01*
X0116304Y0045634D01*
X0115133Y0045149D01*
X0113867Y0045149D01*
X0112696Y0045634D01*
X0112597Y0045733D01*
X0097077Y0045733D01*
X0094177Y0042833D01*
X0161997Y0042833D01*
X0162696Y0043533D01*
X0163867Y0044018D01*
X0163987Y0044018D01*
X0163672Y0044333D01*
X0150672Y0044333D01*
X0149500Y0045505D01*
X0134172Y0060833D01*
X0088172Y0060833D01*
X0085000Y0064005D01*
X0085000Y0068026D01*
X0084823Y0067849D01*
X0083022Y0067103D01*
X0081073Y0067103D01*
X0079272Y0067849D01*
X0077893Y0069227D01*
X0077147Y0071028D01*
X0077147Y0072977D01*
X0077893Y0074778D01*
X0079272Y0076157D01*
X0081073Y0076903D01*
X0083022Y0076903D01*
X0084823Y0076157D01*
X0085000Y0075979D01*
X0085000Y0076221D01*
X0083798Y0077424D01*
X0083797Y0077424D01*
X0083798Y0077424D02*
X0083022Y0077103D01*
X0081073Y0077103D01*
X0079272Y0077849D01*
X0077893Y0079227D01*
X0077147Y0081028D01*
X0077147Y0082977D01*
X0077893Y0084778D01*
X0079272Y0086157D01*
X0081073Y0086903D01*
X0083022Y0086903D01*
X0084823Y0086157D01*
X0086201Y0084778D01*
X0086947Y0082977D01*
X0086947Y0081028D01*
X0086626Y0080252D01*
X0087828Y0079050D01*
X0087828Y0079050D01*
X0089000Y0077878D01*
X0089000Y0075845D01*
X0089479Y0076193D01*
X0090166Y0076544D01*
X0090900Y0076782D01*
X0091647Y0076900D01*
X0091647Y0072403D01*
X0092447Y0072403D01*
X0092447Y0076900D01*
X0093195Y0076782D01*
X0093928Y0076544D01*
X0094615Y0076193D01*
X0095000Y0075914D01*
X0095000Y0076221D01*
X0093798Y0077424D01*
X0093797Y0077424D01*
X0093798Y0077424D02*
X0093022Y0077103D01*
X0091073Y0077103D01*
X0089272Y0077849D01*
X0087893Y0079227D01*
X0087147Y0081028D01*
X0087147Y0082977D01*
X0087893Y0084778D01*
X0089272Y0086157D01*
X0091073Y0086903D01*
X0093022Y0086903D01*
X0094823Y0086157D01*
X0096201Y0084778D01*
X0096947Y0082977D01*
X0096947Y0081028D01*
X0096626Y0080252D01*
X0097828Y0079050D01*
X0099000Y0077878D01*
X0099000Y0075885D01*
X0099272Y0076157D01*
X0101073Y0076903D01*
X0103022Y0076903D01*
X0104823Y0076157D01*
X0106201Y0074778D01*
X0106947Y0072977D01*
X0106947Y0071028D01*
X0106201Y0069227D01*
X0104823Y0067849D01*
X0103579Y0067333D01*
X0110516Y0067333D01*
X0109272Y0067849D01*
X0107893Y0069227D01*
X0107147Y0071028D01*
X0107147Y0072977D01*
X0107893Y0074778D01*
X0109272Y0076157D01*
X0111073Y0076903D01*
X0113022Y0076903D01*
X0114823Y0076157D01*
X0116201Y0074778D01*
X0116947Y0072977D01*
X0116947Y0071028D01*
X0116201Y0069227D01*
X0114823Y0067849D01*
X0113579Y0067333D01*
X0120516Y0067333D01*
X0119272Y0067849D01*
X0117893Y0069227D01*
X0117147Y0071028D01*
X0117147Y0072977D01*
X0117893Y0074778D01*
X0119272Y0076157D01*
X0121073Y0076903D01*
X0123022Y0076903D01*
X0124823Y0076157D01*
X0126201Y0074778D01*
X0126947Y0072977D01*
X0126947Y0071028D01*
X0126201Y0069227D01*
X0124823Y0067849D01*
X0123579Y0067333D01*
X0130516Y0067333D01*
X0129272Y0067849D01*
X0127893Y0069227D01*
X0127147Y0071028D01*
X0127147Y0072977D01*
X0127893Y0074778D01*
X0129272Y0076157D01*
X0131073Y0076903D01*
X0133022Y0076903D01*
X0134013Y0076492D01*
X0133291Y0077214D01*
X0133022Y0077103D01*
X0131073Y0077103D01*
X0129272Y0077849D01*
X0127893Y0079227D01*
X0127147Y0081028D01*
X0127147Y0082977D01*
X0127893Y0084778D01*
X0128448Y0085333D01*
X0127328Y0085333D01*
X0126369Y0084374D01*
X0126947Y0082977D01*
X0126947Y0081028D01*
X0126201Y0079227D01*
X0124823Y0077849D01*
X0123022Y0077103D01*
X0121073Y0077103D01*
X0119272Y0077849D01*
X0117893Y0079227D01*
X0117147Y0081028D01*
X0117147Y0082977D01*
X0117893Y0084778D01*
X0119272Y0086157D01*
X0121073Y0086903D01*
X0123022Y0086903D01*
X0123177Y0086838D01*
X0124500Y0088162D01*
X0125672Y0089333D01*
X0154328Y0089333D01*
X0157828Y0085833D01*
X0158388Y0085273D01*
X0159272Y0086157D01*
X0161073Y0086903D01*
X0163022Y0086903D01*
X0164823Y0086157D01*
X0166201Y0084778D01*
X0166947Y0082977D01*
X0166947Y0081028D01*
X0166201Y0079227D01*
X0164823Y0077849D01*
X0163022Y0077103D01*
X0161073Y0077103D01*
X0159272Y0077849D01*
X0159000Y0078120D01*
X0159000Y0075885D01*
X0159272Y0076157D01*
X0161073Y0076903D01*
X0163022Y0076903D01*
X0164823Y0076157D01*
X0166201Y0074778D01*
X0166947Y0072977D01*
X0166947Y0071028D01*
X0166201Y0069227D01*
X0164823Y0067849D01*
X0163022Y0067103D01*
X0161073Y0067103D01*
X0159342Y0067819D01*
X0167328Y0059833D01*
X0185328Y0059833D01*
X0217828Y0027333D01*
X0218422Y0027333D01*
X0217696Y0027634D01*
X0216801Y0028530D01*
X0216316Y0029700D01*
X0216316Y0030967D01*
X0216801Y0032137D01*
X0217696Y0033033D01*
X0218867Y0033518D01*
X0219856Y0033518D01*
X0225000Y0038662D01*
X0225000Y0068026D01*
X0224823Y0067849D01*
X0223022Y0067103D01*
X0221073Y0067103D01*
X0219272Y0067849D01*
X0217893Y0069227D01*
X0217147Y0071028D01*
X0217147Y0072977D01*
X0217893Y0074778D01*
X0219272Y0076157D01*
X0221073Y0076903D01*
X0223022Y0076903D01*
X0224823Y0076157D01*
X0225000Y0075979D01*
X0225000Y0076662D01*
X0226172Y0077833D01*
X0227147Y0078809D01*
X0227147Y0086083D01*
X0227967Y0086903D01*
X0236127Y0086903D01*
X0236947Y0086083D01*
X0236947Y0077923D01*
X0236127Y0077103D01*
X0231098Y0077103D01*
X0230774Y0076779D01*
X0231073Y0076903D01*
X0233022Y0076903D01*
X0234823Y0076157D01*
X0236201Y0074778D01*
X0236947Y0072977D01*
X0236947Y0071028D01*
X0236626Y0070252D01*
X0242545Y0064333D01*
X0251828Y0064333D01*
X0257500Y0058662D01*
X0257500Y0011505D01*
X0256928Y0010933D01*
X0260900Y0010933D01*
X0260900Y0074727D01*
X0259540Y0071444D01*
X0256779Y0068683D01*
X0253172Y0067189D01*
X0249268Y0067189D01*
X0245662Y0068683D01*
X0242901Y0071444D01*
X0241407Y0075051D01*
X0241407Y0078955D01*
X0242901Y0082561D01*
X0245662Y0085322D01*
X0249268Y0086816D01*
X0253172Y0086816D01*
X0256779Y0085322D01*
X0259540Y0082561D01*
X0260900Y0079278D01*
X0260900Y0091233D01*
X0013600Y0091233D01*
X0013600Y0080257D01*
X0014555Y0082561D01*
X0017315Y0085322D01*
X0020922Y0086816D01*
X0024826Y0086816D01*
X0028433Y0085322D01*
X0031193Y0082561D01*
X0032687Y0078955D01*
X0032687Y0075051D01*
X0031193Y0071444D01*
X0028433Y0068683D01*
X0024826Y0067189D01*
X0020922Y0067189D01*
X0017315Y0068683D01*
X0014555Y0071444D01*
X0013600Y0073748D01*
X0013600Y0045433D01*
X0015400Y0045433D01*
X0015400Y0042133D01*
X0015600Y0042133D01*
X0020900Y0042133D01*
X0020900Y0042368D01*
X0020769Y0043025D01*
X0020513Y0043644D01*
X0020141Y0044201D01*
X0019667Y0044674D01*
X0019110Y0045046D01*
X0018492Y0045303D01*
X0017835Y0045433D01*
X0015600Y0045433D01*
X0015600Y0042133D01*
X0015600Y0041933D01*
X0015600Y0038633D01*
X0017835Y0038633D01*
X0018492Y0038764D01*
X0019110Y0039020D01*
X0019667Y0039392D01*
X0020141Y0039866D01*
X0020513Y0040423D01*
X0020769Y0041042D01*
X0020900Y0041698D01*
X0020900Y0041933D01*
X0015600Y0041933D01*
X0015400Y0041933D01*
X0015400Y0038633D01*
X0013600Y0038633D01*
X0013600Y0020033D01*
X0015400Y0020033D01*
X0015400Y0016733D01*
X0015600Y0016733D01*
X0020900Y0016733D01*
X0020900Y0016968D01*
X0020769Y0017625D01*
X0020513Y0018244D01*
X0020141Y0018801D01*
X0019667Y0019274D01*
X0019110Y0019646D01*
X0018492Y0019903D01*
X0017835Y0020033D01*
X0015600Y0020033D01*
X0015600Y0016733D01*
X0015600Y0016533D01*
X0015600Y0013233D01*
X0017835Y0013233D01*
X0018492Y0013364D01*
X0019110Y0013620D01*
X0019667Y0013992D01*
X0020141Y0014466D01*
X0020513Y0015023D01*
X0020769Y0015642D01*
X0020900Y0016298D01*
X0020900Y0016533D01*
X0015600Y0016533D01*
X0015400Y0016533D01*
X0015400Y0013233D01*
X0013600Y0013233D01*
X0013600Y0012744D02*
X0154138Y0012744D01*
X0154100Y0013543D02*
X0018923Y0013543D01*
X0020016Y0014341D02*
X0154100Y0014341D01*
X0154100Y0015140D02*
X0020561Y0015140D01*
X0020828Y0015938D02*
X0024006Y0015938D01*
X0024317Y0015809D02*
X0022240Y0016669D01*
X0020651Y0018259D01*
X0019791Y0020335D01*
X0019791Y0022583D01*
X0020651Y0024660D01*
X0022240Y0026249D01*
X0024317Y0027109D01*
X0026565Y0027109D01*
X0028641Y0026249D01*
X0030231Y0024660D01*
X0031091Y0022583D01*
X0031091Y0020335D01*
X0030231Y0018259D01*
X0028641Y0016669D01*
X0026565Y0015809D01*
X0024317Y0015809D01*
X0022173Y0016737D02*
X0020900Y0016737D01*
X0020787Y0017535D02*
X0021375Y0017535D01*
X0020620Y0018334D02*
X0020453Y0018334D01*
X0020289Y0019132D02*
X0019809Y0019132D01*
X0019959Y0019931D02*
X0018350Y0019931D01*
X0019791Y0020729D02*
X0013600Y0020729D01*
X0013600Y0021528D02*
X0019791Y0021528D01*
X0019791Y0022326D02*
X0013600Y0022326D01*
X0013600Y0023125D02*
X0020015Y0023125D01*
X0020346Y0023923D02*
X0013600Y0023923D01*
X0013600Y0024722D02*
X0020713Y0024722D01*
X0021512Y0025520D02*
X0013600Y0025520D01*
X0013600Y0026319D02*
X0022409Y0026319D01*
X0024317Y0031557D02*
X0026565Y0031557D01*
X0028641Y0032418D01*
X0030231Y0034007D01*
X0031091Y0036083D01*
X0031091Y0038331D01*
X0030231Y0040408D01*
X0028641Y0041997D01*
X0026565Y0042857D01*
X0024317Y0042857D01*
X0022240Y0041997D01*
X0020651Y0040408D01*
X0019791Y0038331D01*
X0019791Y0036083D01*
X0020651Y0034007D01*
X0022240Y0032418D01*
X0024317Y0031557D01*
X0023469Y0031909D02*
X0013600Y0031909D01*
X0013600Y0032707D02*
X0021951Y0032707D01*
X0021152Y0033506D02*
X0013600Y0033506D01*
X0013600Y0034304D02*
X0020528Y0034304D01*
X0020197Y0035103D02*
X0013600Y0035103D01*
X0013600Y0035901D02*
X0019866Y0035901D01*
X0019791Y0036700D02*
X0013600Y0036700D01*
X0013600Y0037498D02*
X0019791Y0037498D01*
X0019791Y0038297D02*
X0013600Y0038297D01*
X0015400Y0039095D02*
X0015600Y0039095D01*
X0015600Y0039894D02*
X0015400Y0039894D01*
X0015400Y0040692D02*
X0015600Y0040692D01*
X0015600Y0041491D02*
X0015400Y0041491D01*
X0015400Y0042289D02*
X0015600Y0042289D01*
X0015600Y0043088D02*
X0015400Y0043088D01*
X0015400Y0043886D02*
X0015600Y0043886D01*
X0015600Y0044685D02*
X0015400Y0044685D01*
X0013600Y0045483D02*
X0042847Y0045483D01*
X0042801Y0045530D02*
X0043696Y0044634D01*
X0044867Y0044149D01*
X0046133Y0044149D01*
X0047304Y0044634D01*
X0048199Y0045530D01*
X0048684Y0046700D01*
X0048684Y0047689D01*
X0051328Y0050333D01*
X0072997Y0050333D01*
X0073696Y0049634D01*
X0074867Y0049149D01*
X0076133Y0049149D01*
X0077304Y0049634D01*
X0078199Y0050530D01*
X0078684Y0051700D01*
X0078684Y0052967D01*
X0078199Y0054137D01*
X0077304Y0055033D01*
X0076133Y0055518D01*
X0074867Y0055518D01*
X0073696Y0055033D01*
X0072997Y0054333D01*
X0049672Y0054333D01*
X0045856Y0050518D01*
X0044867Y0050518D01*
X0043696Y0050033D01*
X0042801Y0049137D01*
X0042316Y0047967D01*
X0042316Y0046700D01*
X0042801Y0045530D01*
X0042489Y0046282D02*
X0013600Y0046282D01*
X0013600Y0047080D02*
X0042316Y0047080D01*
X0042316Y0047879D02*
X0013600Y0047879D01*
X0013600Y0048677D02*
X0042610Y0048677D01*
X0043139Y0049476D02*
X0013600Y0049476D01*
X0013600Y0050274D02*
X0044279Y0050274D01*
X0046411Y0051073D02*
X0013600Y0051073D01*
X0013600Y0051871D02*
X0047210Y0051871D01*
X0048008Y0052670D02*
X0013600Y0052670D01*
X0013600Y0053468D02*
X0048807Y0053468D01*
X0049605Y0054267D02*
X0013600Y0054267D01*
X0013600Y0055065D02*
X0073775Y0055065D01*
X0077225Y0055065D02*
X0139940Y0055065D01*
X0140738Y0054267D02*
X0078070Y0054267D01*
X0078476Y0053468D02*
X0141537Y0053468D01*
X0142335Y0052670D02*
X0078684Y0052670D01*
X0078684Y0051871D02*
X0143134Y0051871D01*
X0143932Y0051073D02*
X0116207Y0051073D01*
X0117062Y0050274D02*
X0144731Y0050274D01*
X0145529Y0049476D02*
X0117473Y0049476D01*
X0117684Y0048677D02*
X0146328Y0048677D01*
X0147126Y0047879D02*
X0117684Y0047879D01*
X0117428Y0047080D02*
X0147925Y0047080D01*
X0148723Y0046282D02*
X0116952Y0046282D01*
X0115940Y0045483D02*
X0149522Y0045483D01*
X0150320Y0044685D02*
X0096028Y0044685D01*
X0095230Y0043886D02*
X0163549Y0043886D01*
X0162251Y0043088D02*
X0094431Y0043088D01*
X0096827Y0045483D02*
X0113060Y0045483D01*
X0112793Y0051073D02*
X0078424Y0051073D01*
X0077944Y0050274D02*
X0094264Y0050274D01*
X0093466Y0049476D02*
X0076922Y0049476D01*
X0074078Y0049476D02*
X0050471Y0049476D01*
X0051269Y0050274D02*
X0073056Y0050274D01*
X0086280Y0043088D02*
X0020743Y0043088D01*
X0020900Y0042289D02*
X0022945Y0042289D01*
X0021734Y0041491D02*
X0020859Y0041491D01*
X0020935Y0040692D02*
X0020625Y0040692D01*
X0020438Y0039894D02*
X0020159Y0039894D01*
X0020107Y0039095D02*
X0019223Y0039095D01*
X0020351Y0043886D02*
X0087050Y0043886D01*
X0088674Y0044685D02*
X0047355Y0044685D01*
X0048153Y0045483D02*
X0089473Y0045483D01*
X0090271Y0046282D02*
X0048511Y0046282D01*
X0048684Y0047080D02*
X0091070Y0047080D01*
X0091868Y0047879D02*
X0048874Y0047879D01*
X0049672Y0048677D02*
X0092667Y0048677D01*
X0085949Y0042289D02*
X0027936Y0042289D01*
X0029148Y0041491D02*
X0085816Y0041491D01*
X0085819Y0040692D02*
X0029946Y0040692D01*
X0030444Y0039894D02*
X0086150Y0039894D01*
X0086735Y0039095D02*
X0030775Y0039095D01*
X0031091Y0038297D02*
X0088010Y0038297D01*
X0089990Y0038297D02*
X0157660Y0038297D01*
X0157329Y0037498D02*
X0031091Y0037498D01*
X0031091Y0036700D02*
X0157255Y0036700D01*
X0156456Y0035901D02*
X0031015Y0035901D01*
X0030685Y0035103D02*
X0037365Y0035103D01*
X0036468Y0034304D02*
X0030354Y0034304D01*
X0029729Y0033506D02*
X0036039Y0033506D01*
X0035816Y0032707D02*
X0028931Y0032707D01*
X0027413Y0031909D02*
X0035816Y0031909D01*
X0036060Y0031110D02*
X0013600Y0031110D01*
X0013600Y0030312D02*
X0036519Y0030312D01*
X0037488Y0029513D02*
X0013600Y0029513D01*
X0013600Y0028714D02*
X0166500Y0028714D01*
X0166500Y0027916D02*
X0013600Y0027916D01*
X0013600Y0027117D02*
X0166500Y0027117D01*
X0166500Y0026319D02*
X0028473Y0026319D01*
X0029370Y0025520D02*
X0166500Y0025520D01*
X0166500Y0024722D02*
X0030169Y0024722D01*
X0030536Y0023923D02*
X0166500Y0023923D01*
X0166156Y0023125D02*
X0160750Y0023125D01*
X0161729Y0022326D02*
X0165271Y0022326D01*
X0164646Y0021528D02*
X0162320Y0021528D01*
X0162673Y0020729D02*
X0164316Y0020729D01*
X0164100Y0019931D02*
X0162860Y0019931D01*
X0162900Y0019132D02*
X0164100Y0019132D01*
X0164100Y0018334D02*
X0162900Y0018334D01*
X0162900Y0017535D02*
X0164100Y0017535D01*
X0164100Y0016737D02*
X0162900Y0016737D01*
X0164100Y0015938D02*
X0158900Y0015938D01*
X0158900Y0016737D02*
X0158100Y0016737D01*
X0158100Y0017535D02*
X0158900Y0017535D01*
X0158900Y0018334D02*
X0158100Y0018334D01*
X0158100Y0019132D02*
X0158900Y0019132D01*
X0158900Y0019931D02*
X0158100Y0019931D01*
X0158100Y0020729D02*
X0158900Y0020729D01*
X0158900Y0021528D02*
X0158100Y0021528D01*
X0158100Y0022326D02*
X0158900Y0022326D01*
X0158900Y0023125D02*
X0158100Y0023125D01*
X0156250Y0023125D02*
X0030867Y0023125D01*
X0031091Y0022326D02*
X0155271Y0022326D01*
X0154680Y0021528D02*
X0031091Y0021528D01*
X0031091Y0020729D02*
X0154327Y0020729D01*
X0154140Y0019931D02*
X0030923Y0019931D01*
X0030593Y0019132D02*
X0154100Y0019132D01*
X0154100Y0018334D02*
X0030262Y0018334D01*
X0029507Y0017535D02*
X0154100Y0017535D01*
X0154100Y0016737D02*
X0028709Y0016737D01*
X0026876Y0015938D02*
X0158100Y0015938D01*
X0162900Y0015140D02*
X0164100Y0015140D01*
X0164100Y0014341D02*
X0162900Y0014341D01*
X0162900Y0013543D02*
X0164100Y0013543D01*
X0164100Y0012744D02*
X0162862Y0012744D01*
X0162676Y0011946D02*
X0164312Y0011946D01*
X0164643Y0011147D02*
X0162324Y0011147D01*
X0154676Y0011147D02*
X0013600Y0011147D01*
X0013600Y0011946D02*
X0154324Y0011946D01*
X0166500Y0029513D02*
X0040512Y0029513D01*
X0040635Y0035103D02*
X0155658Y0035103D01*
X0158686Y0031909D02*
X0166500Y0031909D01*
X0166500Y0032707D02*
X0159485Y0032707D01*
X0160284Y0033506D02*
X0166500Y0033506D01*
X0166500Y0034304D02*
X0162474Y0034304D01*
X0163230Y0035103D02*
X0166500Y0035103D01*
X0166500Y0035901D02*
X0163560Y0035901D01*
X0163684Y0036700D02*
X0166500Y0036700D01*
X0166500Y0037498D02*
X0163671Y0037498D01*
X0166466Y0038297D02*
X0166500Y0038297D01*
X0166500Y0031110D02*
X0158307Y0031110D01*
X0157655Y0030312D02*
X0166500Y0030312D01*
X0193290Y0051871D02*
X0225000Y0051871D01*
X0225000Y0051073D02*
X0194089Y0051073D01*
X0194887Y0050274D02*
X0225000Y0050274D01*
X0225000Y0049476D02*
X0195686Y0049476D01*
X0196484Y0048677D02*
X0225000Y0048677D01*
X0225000Y0047879D02*
X0197283Y0047879D01*
X0198081Y0047080D02*
X0225000Y0047080D01*
X0225000Y0046282D02*
X0198880Y0046282D01*
X0199679Y0045483D02*
X0225000Y0045483D01*
X0225000Y0044685D02*
X0200477Y0044685D01*
X0201276Y0043886D02*
X0225000Y0043886D01*
X0225000Y0043088D02*
X0202074Y0043088D01*
X0202873Y0042289D02*
X0225000Y0042289D01*
X0225000Y0041491D02*
X0203671Y0041491D01*
X0204470Y0040692D02*
X0225000Y0040692D01*
X0225000Y0039894D02*
X0205268Y0039894D01*
X0206067Y0039095D02*
X0225000Y0039095D01*
X0224635Y0038297D02*
X0206865Y0038297D01*
X0207664Y0037498D02*
X0223836Y0037498D01*
X0223038Y0036700D02*
X0208462Y0036700D01*
X0209261Y0035901D02*
X0222239Y0035901D01*
X0221441Y0035103D02*
X0210059Y0035103D01*
X0210858Y0034304D02*
X0220642Y0034304D01*
X0218838Y0033506D02*
X0211656Y0033506D01*
X0212455Y0032707D02*
X0217371Y0032707D01*
X0216706Y0031909D02*
X0213253Y0031909D01*
X0214052Y0031110D02*
X0216375Y0031110D01*
X0216316Y0030312D02*
X0214850Y0030312D01*
X0215649Y0029513D02*
X0216393Y0029513D01*
X0216447Y0028714D02*
X0216724Y0028714D01*
X0217246Y0027916D02*
X0217414Y0027916D01*
X0220578Y0027333D02*
X0221304Y0027634D01*
X0222199Y0028530D01*
X0222684Y0029700D01*
X0222684Y0030689D01*
X0229000Y0037005D01*
X0229000Y0068120D01*
X0229272Y0067849D01*
X0231073Y0067103D01*
X0233022Y0067103D01*
X0233798Y0067424D01*
X0240888Y0060333D01*
X0250172Y0060333D01*
X0253500Y0057005D01*
X0253500Y0038421D01*
X0253094Y0039401D01*
X0252068Y0040428D01*
X0250726Y0040983D01*
X0250593Y0040983D01*
X0249199Y0042377D01*
X0248097Y0042833D01*
X0242578Y0042833D01*
X0242133Y0043018D01*
X0240867Y0043018D01*
X0239696Y0042533D01*
X0238801Y0041637D01*
X0238316Y0040467D01*
X0238316Y0039200D01*
X0238801Y0038030D01*
X0239696Y0037134D01*
X0240867Y0036649D01*
X0242133Y0036649D01*
X0242578Y0036833D01*
X0246257Y0036833D01*
X0246350Y0036741D01*
X0246350Y0036607D01*
X0246906Y0035266D01*
X0247932Y0034239D01*
X0249274Y0033683D01*
X0250726Y0033683D01*
X0252068Y0034239D01*
X0253094Y0035266D01*
X0253500Y0036245D01*
X0253500Y0013162D01*
X0252820Y0012482D01*
X0252900Y0012987D01*
X0252900Y0015933D01*
X0248900Y0015933D01*
X0248900Y0016733D01*
X0252900Y0016733D01*
X0252900Y0019680D01*
X0252792Y0020364D01*
X0252578Y0021022D01*
X0252263Y0021639D01*
X0251856Y0022200D01*
X0251366Y0022689D01*
X0250806Y0023097D01*
X0250189Y0023411D01*
X0249530Y0023625D01*
X0248900Y0023725D01*
X0248900Y0016733D01*
X0248100Y0016733D01*
X0248100Y0015933D01*
X0244100Y0015933D01*
X0244100Y0012987D01*
X0244208Y0012303D01*
X0244422Y0011644D01*
X0244737Y0011027D01*
X0244805Y0010933D01*
X0242268Y0010933D01*
X0242900Y0012458D01*
X0242900Y0020209D01*
X0242230Y0021826D01*
X0240992Y0023063D01*
X0240500Y0023267D01*
X0240500Y0024162D01*
X0239328Y0025333D01*
X0237328Y0027333D01*
X0220578Y0027333D01*
X0221586Y0027916D02*
X0253500Y0027916D01*
X0253500Y0028714D02*
X0222276Y0028714D01*
X0222607Y0029513D02*
X0253500Y0029513D01*
X0253500Y0030312D02*
X0222684Y0030312D01*
X0223105Y0031110D02*
X0253500Y0031110D01*
X0253500Y0031909D02*
X0223904Y0031909D01*
X0224702Y0032707D02*
X0253500Y0032707D01*
X0253500Y0033506D02*
X0225501Y0033506D01*
X0226299Y0034304D02*
X0247867Y0034304D01*
X0247069Y0035103D02*
X0227098Y0035103D01*
X0227896Y0035901D02*
X0246643Y0035901D01*
X0246350Y0036700D02*
X0242255Y0036700D01*
X0240745Y0036700D02*
X0228695Y0036700D01*
X0229000Y0037498D02*
X0239332Y0037498D01*
X0238690Y0038297D02*
X0229000Y0038297D01*
X0229000Y0039095D02*
X0238359Y0039095D01*
X0238316Y0039894D02*
X0229000Y0039894D01*
X0229000Y0040692D02*
X0238409Y0040692D01*
X0238740Y0041491D02*
X0229000Y0041491D01*
X0229000Y0042289D02*
X0239453Y0042289D01*
X0249287Y0042289D02*
X0253500Y0042289D01*
X0253500Y0041491D02*
X0250085Y0041491D01*
X0251429Y0040692D02*
X0253500Y0040692D01*
X0253500Y0039894D02*
X0252602Y0039894D01*
X0253221Y0039095D02*
X0253500Y0039095D01*
X0253500Y0035901D02*
X0253357Y0035901D01*
X0253500Y0035103D02*
X0252931Y0035103D01*
X0253500Y0034304D02*
X0252133Y0034304D01*
X0257500Y0034304D02*
X0260900Y0034304D01*
X0260900Y0033506D02*
X0257500Y0033506D01*
X0257500Y0032707D02*
X0260900Y0032707D01*
X0260900Y0031909D02*
X0257500Y0031909D01*
X0257500Y0031110D02*
X0260900Y0031110D01*
X0260900Y0030312D02*
X0257500Y0030312D01*
X0257500Y0029513D02*
X0260900Y0029513D01*
X0260900Y0028714D02*
X0257500Y0028714D01*
X0257500Y0027916D02*
X0260900Y0027916D01*
X0260900Y0027117D02*
X0257500Y0027117D01*
X0257500Y0026319D02*
X0260900Y0026319D01*
X0260900Y0025520D02*
X0257500Y0025520D01*
X0257500Y0024722D02*
X0260900Y0024722D01*
X0260900Y0023923D02*
X0257500Y0023923D01*
X0257500Y0023125D02*
X0260900Y0023125D01*
X0260900Y0022326D02*
X0257500Y0022326D01*
X0257500Y0021528D02*
X0260900Y0021528D01*
X0260900Y0020729D02*
X0257500Y0020729D01*
X0257500Y0019931D02*
X0260900Y0019931D01*
X0260900Y0019132D02*
X0257500Y0019132D01*
X0257500Y0018334D02*
X0260900Y0018334D01*
X0260900Y0017535D02*
X0257500Y0017535D01*
X0257500Y0016737D02*
X0260900Y0016737D01*
X0260900Y0015938D02*
X0257500Y0015938D01*
X0257500Y0015140D02*
X0260900Y0015140D01*
X0260900Y0014341D02*
X0257500Y0014341D01*
X0257500Y0013543D02*
X0260900Y0013543D01*
X0260900Y0012744D02*
X0257500Y0012744D01*
X0257500Y0011946D02*
X0260900Y0011946D01*
X0260900Y0011147D02*
X0257142Y0011147D01*
X0253500Y0013543D02*
X0252900Y0013543D01*
X0252900Y0014341D02*
X0253500Y0014341D01*
X0253500Y0015140D02*
X0252900Y0015140D01*
X0253500Y0015938D02*
X0248900Y0015938D01*
X0248900Y0016737D02*
X0248100Y0016737D01*
X0248100Y0016733D02*
X0248100Y0023725D01*
X0247470Y0023625D01*
X0246811Y0023411D01*
X0246194Y0023097D01*
X0245634Y0022689D01*
X0245144Y0022200D01*
X0244737Y0021639D01*
X0244422Y0021022D01*
X0244208Y0020364D01*
X0244100Y0019680D01*
X0244100Y0016733D01*
X0248100Y0016733D01*
X0248100Y0015938D02*
X0242900Y0015938D01*
X0242900Y0015140D02*
X0244100Y0015140D01*
X0244100Y0014341D02*
X0242900Y0014341D01*
X0242900Y0013543D02*
X0244100Y0013543D01*
X0244138Y0012744D02*
X0242900Y0012744D01*
X0242688Y0011946D02*
X0244324Y0011946D01*
X0244676Y0011147D02*
X0242357Y0011147D01*
X0242900Y0016737D02*
X0244100Y0016737D01*
X0244100Y0017535D02*
X0242900Y0017535D01*
X0242900Y0018334D02*
X0244100Y0018334D01*
X0244100Y0019132D02*
X0242900Y0019132D01*
X0242900Y0019931D02*
X0244140Y0019931D01*
X0244327Y0020729D02*
X0242684Y0020729D01*
X0242354Y0021528D02*
X0244680Y0021528D01*
X0245271Y0022326D02*
X0241729Y0022326D01*
X0240844Y0023125D02*
X0246250Y0023125D01*
X0248100Y0023125D02*
X0248900Y0023125D01*
X0248900Y0022326D02*
X0248100Y0022326D01*
X0248100Y0021528D02*
X0248900Y0021528D01*
X0248900Y0020729D02*
X0248100Y0020729D01*
X0248100Y0019931D02*
X0248900Y0019931D01*
X0248900Y0019132D02*
X0248100Y0019132D01*
X0248100Y0018334D02*
X0248900Y0018334D01*
X0248900Y0017535D02*
X0248100Y0017535D01*
X0252900Y0017535D02*
X0253500Y0017535D01*
X0253500Y0016737D02*
X0252900Y0016737D01*
X0252900Y0018334D02*
X0253500Y0018334D01*
X0253500Y0019132D02*
X0252900Y0019132D01*
X0252860Y0019931D02*
X0253500Y0019931D01*
X0253500Y0020729D02*
X0252673Y0020729D01*
X0252320Y0021528D02*
X0253500Y0021528D01*
X0253500Y0022326D02*
X0251729Y0022326D01*
X0250750Y0023125D02*
X0253500Y0023125D01*
X0253500Y0023923D02*
X0240500Y0023923D01*
X0239940Y0024722D02*
X0253500Y0024722D01*
X0253500Y0025520D02*
X0239141Y0025520D01*
X0238343Y0026319D02*
X0253500Y0026319D01*
X0253500Y0027117D02*
X0237544Y0027117D01*
X0252862Y0012744D02*
X0253083Y0012744D01*
X0257500Y0035103D02*
X0260900Y0035103D01*
X0260900Y0035901D02*
X0257500Y0035901D01*
X0257500Y0036700D02*
X0260900Y0036700D01*
X0260900Y0037498D02*
X0257500Y0037498D01*
X0257500Y0038297D02*
X0260900Y0038297D01*
X0260900Y0039095D02*
X0257500Y0039095D01*
X0257500Y0039894D02*
X0260900Y0039894D01*
X0260900Y0040692D02*
X0257500Y0040692D01*
X0257500Y0041491D02*
X0260900Y0041491D01*
X0260900Y0042289D02*
X0257500Y0042289D01*
X0257500Y0043088D02*
X0260900Y0043088D01*
X0260900Y0043886D02*
X0257500Y0043886D01*
X0257500Y0044685D02*
X0260900Y0044685D01*
X0260900Y0045483D02*
X0257500Y0045483D01*
X0257500Y0046282D02*
X0260900Y0046282D01*
X0260900Y0047080D02*
X0257500Y0047080D01*
X0257500Y0047879D02*
X0260900Y0047879D01*
X0260900Y0048677D02*
X0257500Y0048677D01*
X0257500Y0049476D02*
X0260900Y0049476D01*
X0260900Y0050274D02*
X0257500Y0050274D01*
X0257500Y0051073D02*
X0260900Y0051073D01*
X0260900Y0051871D02*
X0257500Y0051871D01*
X0257500Y0052670D02*
X0260900Y0052670D01*
X0260900Y0053468D02*
X0257500Y0053468D01*
X0257500Y0054267D02*
X0260900Y0054267D01*
X0260900Y0055065D02*
X0257500Y0055065D01*
X0257500Y0055864D02*
X0260900Y0055864D01*
X0260900Y0056662D02*
X0257500Y0056662D01*
X0257500Y0057461D02*
X0260900Y0057461D01*
X0260900Y0058259D02*
X0257500Y0058259D01*
X0257104Y0059058D02*
X0260900Y0059058D01*
X0260900Y0059856D02*
X0256305Y0059856D01*
X0255507Y0060655D02*
X0260900Y0060655D01*
X0260900Y0061453D02*
X0254708Y0061453D01*
X0253910Y0062252D02*
X0260900Y0062252D01*
X0260900Y0063050D02*
X0253111Y0063050D01*
X0252313Y0063849D02*
X0260900Y0063849D01*
X0260900Y0064648D02*
X0242231Y0064648D01*
X0241432Y0065446D02*
X0260900Y0065446D01*
X0260900Y0066245D02*
X0240634Y0066245D01*
X0239835Y0067043D02*
X0260900Y0067043D01*
X0260900Y0067842D02*
X0254747Y0067842D01*
X0256675Y0068640D02*
X0260900Y0068640D01*
X0260900Y0069439D02*
X0257535Y0069439D01*
X0258333Y0070237D02*
X0260900Y0070237D01*
X0260900Y0071036D02*
X0259132Y0071036D01*
X0259702Y0071834D02*
X0260900Y0071834D01*
X0260900Y0072633D02*
X0260032Y0072633D01*
X0260363Y0073431D02*
X0260900Y0073431D01*
X0260900Y0074230D02*
X0260694Y0074230D01*
X0260676Y0079819D02*
X0260900Y0079819D01*
X0260900Y0080618D02*
X0260345Y0080618D01*
X0260014Y0081416D02*
X0260900Y0081416D01*
X0260900Y0082215D02*
X0259683Y0082215D01*
X0259088Y0083013D02*
X0260900Y0083013D01*
X0260900Y0083812D02*
X0258290Y0083812D01*
X0257491Y0084610D02*
X0260900Y0084610D01*
X0260900Y0085409D02*
X0256570Y0085409D01*
X0254642Y0086207D02*
X0260900Y0086207D01*
X0260900Y0087006D02*
X0156656Y0087006D01*
X0155857Y0087804D02*
X0260900Y0087804D01*
X0260900Y0088603D02*
X0155059Y0088603D01*
X0157454Y0086207D02*
X0159394Y0086207D01*
X0158524Y0085409D02*
X0158253Y0085409D01*
X0164701Y0086207D02*
X0169394Y0086207D01*
X0169272Y0086157D02*
X0167893Y0084778D01*
X0167147Y0082977D01*
X0167147Y0081028D01*
X0167893Y0079227D01*
X0169272Y0077849D01*
X0171073Y0077103D01*
X0173022Y0077103D01*
X0174823Y0077849D01*
X0176201Y0079227D01*
X0176947Y0081028D01*
X0176947Y0082977D01*
X0176201Y0084778D01*
X0174823Y0086157D01*
X0173022Y0086903D01*
X0171073Y0086903D01*
X0169272Y0086157D01*
X0168524Y0085409D02*
X0165571Y0085409D01*
X0166271Y0084610D02*
X0167824Y0084610D01*
X0167493Y0083812D02*
X0166602Y0083812D01*
X0166932Y0083013D02*
X0167162Y0083013D01*
X0167147Y0082215D02*
X0166947Y0082215D01*
X0166947Y0081416D02*
X0167147Y0081416D01*
X0167317Y0080618D02*
X0166777Y0080618D01*
X0166447Y0079819D02*
X0167648Y0079819D01*
X0168100Y0079021D02*
X0165995Y0079021D01*
X0165196Y0078222D02*
X0168898Y0078222D01*
X0170297Y0077424D02*
X0163797Y0077424D01*
X0163692Y0076625D02*
X0170403Y0076625D01*
X0171073Y0076903D02*
X0169272Y0076157D01*
X0167893Y0074778D01*
X0167147Y0072977D01*
X0167147Y0071028D01*
X0167893Y0069227D01*
X0169272Y0067849D01*
X0171073Y0067103D01*
X0173022Y0067103D01*
X0174823Y0067849D01*
X0176201Y0069227D01*
X0176947Y0071028D01*
X0176947Y0072977D01*
X0176201Y0074778D01*
X0174823Y0076157D01*
X0173022Y0076903D01*
X0171073Y0076903D01*
X0168942Y0075827D02*
X0165153Y0075827D01*
X0165951Y0075028D02*
X0168143Y0075028D01*
X0167666Y0074230D02*
X0166428Y0074230D01*
X0166759Y0073431D02*
X0167335Y0073431D01*
X0167147Y0072633D02*
X0166947Y0072633D01*
X0166947Y0071834D02*
X0167147Y0071834D01*
X0167147Y0071036D02*
X0166947Y0071036D01*
X0166620Y0070237D02*
X0167475Y0070237D01*
X0167806Y0069439D02*
X0166289Y0069439D01*
X0165614Y0068640D02*
X0168480Y0068640D01*
X0169289Y0067842D02*
X0164806Y0067842D01*
X0161716Y0065446D02*
X0184316Y0065446D01*
X0184316Y0065200D02*
X0184316Y0066467D01*
X0184801Y0067637D01*
X0185696Y0068533D01*
X0186867Y0069018D01*
X0188103Y0069018D01*
X0187893Y0069227D01*
X0187147Y0071028D01*
X0187147Y0072977D01*
X0187893Y0074778D01*
X0189272Y0076157D01*
X0191073Y0076903D01*
X0193022Y0076903D01*
X0194823Y0076157D01*
X0196201Y0074778D01*
X0196947Y0072977D01*
X0196947Y0071028D01*
X0196201Y0069227D01*
X0194823Y0067849D01*
X0193022Y0067103D01*
X0191073Y0067103D01*
X0190286Y0067428D01*
X0190684Y0066467D01*
X0190684Y0066326D01*
X0197993Y0059018D01*
X0199133Y0059018D01*
X0200304Y0058533D01*
X0201199Y0057637D01*
X0201684Y0056467D01*
X0201684Y0055200D01*
X0201199Y0054030D01*
X0200304Y0053134D01*
X0199133Y0052649D01*
X0197867Y0052649D01*
X0196696Y0053134D01*
X0196324Y0053506D01*
X0196027Y0053629D01*
X0187007Y0062649D01*
X0186867Y0062649D01*
X0185696Y0063134D01*
X0184801Y0064030D01*
X0184316Y0065200D01*
X0184545Y0064648D02*
X0162514Y0064648D01*
X0163313Y0063849D02*
X0184981Y0063849D01*
X0185898Y0063050D02*
X0164111Y0063050D01*
X0164910Y0062252D02*
X0187404Y0062252D01*
X0188203Y0061453D02*
X0165708Y0061453D01*
X0166507Y0060655D02*
X0189001Y0060655D01*
X0189800Y0059856D02*
X0167305Y0059856D01*
X0160917Y0066245D02*
X0184316Y0066245D01*
X0184554Y0067043D02*
X0160119Y0067043D01*
X0174806Y0067842D02*
X0179289Y0067842D01*
X0179272Y0067849D02*
X0181073Y0067103D01*
X0183022Y0067103D01*
X0184823Y0067849D01*
X0186201Y0069227D01*
X0186947Y0071028D01*
X0186947Y0072977D01*
X0186201Y0074778D01*
X0184823Y0076157D01*
X0183022Y0076903D01*
X0181073Y0076903D01*
X0179272Y0076157D01*
X0177893Y0074778D01*
X0177147Y0072977D01*
X0177147Y0071028D01*
X0177893Y0069227D01*
X0179272Y0067849D01*
X0178480Y0068640D02*
X0175614Y0068640D01*
X0176289Y0069439D02*
X0177806Y0069439D01*
X0177475Y0070237D02*
X0176620Y0070237D01*
X0176947Y0071036D02*
X0177147Y0071036D01*
X0177147Y0071834D02*
X0176947Y0071834D01*
X0176947Y0072633D02*
X0177147Y0072633D01*
X0177335Y0073431D02*
X0176759Y0073431D01*
X0176428Y0074230D02*
X0177666Y0074230D01*
X0178143Y0075028D02*
X0175951Y0075028D01*
X0175153Y0075827D02*
X0178942Y0075827D01*
X0180403Y0076625D02*
X0173692Y0076625D01*
X0173797Y0077424D02*
X0180297Y0077424D01*
X0181073Y0077103D02*
X0179272Y0077849D01*
X0177893Y0079227D01*
X0177147Y0081028D01*
X0177147Y0082977D01*
X0177893Y0084778D01*
X0179272Y0086157D01*
X0181073Y0086903D01*
X0183022Y0086903D01*
X0184823Y0086157D01*
X0186201Y0084778D01*
X0186947Y0082977D01*
X0186947Y0081028D01*
X0186201Y0079227D01*
X0184823Y0077849D01*
X0183022Y0077103D01*
X0181073Y0077103D01*
X0178898Y0078222D02*
X0175196Y0078222D01*
X0175995Y0079021D02*
X0178100Y0079021D01*
X0177648Y0079819D02*
X0176447Y0079819D01*
X0176777Y0080618D02*
X0177317Y0080618D01*
X0177147Y0081416D02*
X0176947Y0081416D01*
X0176947Y0082215D02*
X0177147Y0082215D01*
X0177162Y0083013D02*
X0176932Y0083013D01*
X0176602Y0083812D02*
X0177493Y0083812D01*
X0177824Y0084610D02*
X0176271Y0084610D01*
X0175571Y0085409D02*
X0178524Y0085409D01*
X0179394Y0086207D02*
X0174701Y0086207D01*
X0184701Y0086207D02*
X0189394Y0086207D01*
X0189272Y0086157D02*
X0187893Y0084778D01*
X0187147Y0082977D01*
X0187147Y0081028D01*
X0187893Y0079227D01*
X0189272Y0077849D01*
X0191073Y0077103D01*
X0193022Y0077103D01*
X0194823Y0077849D01*
X0196201Y0079227D01*
X0196947Y0081028D01*
X0196947Y0082977D01*
X0196201Y0084778D01*
X0194823Y0086157D01*
X0193022Y0086903D01*
X0191073Y0086903D01*
X0189272Y0086157D01*
X0188524Y0085409D02*
X0185571Y0085409D01*
X0186271Y0084610D02*
X0187824Y0084610D01*
X0187493Y0083812D02*
X0186602Y0083812D01*
X0186932Y0083013D02*
X0187162Y0083013D01*
X0187147Y0082215D02*
X0186947Y0082215D01*
X0186947Y0081416D02*
X0187147Y0081416D01*
X0187317Y0080618D02*
X0186777Y0080618D01*
X0186447Y0079819D02*
X0187648Y0079819D01*
X0188100Y0079021D02*
X0185995Y0079021D01*
X0185196Y0078222D02*
X0188898Y0078222D01*
X0190297Y0077424D02*
X0183797Y0077424D01*
X0183692Y0076625D02*
X0190403Y0076625D01*
X0188942Y0075827D02*
X0185153Y0075827D01*
X0185951Y0075028D02*
X0188143Y0075028D01*
X0187666Y0074230D02*
X0186428Y0074230D01*
X0186759Y0073431D02*
X0187335Y0073431D01*
X0187147Y0072633D02*
X0186947Y0072633D01*
X0186947Y0071834D02*
X0187147Y0071834D01*
X0187147Y0071036D02*
X0186947Y0071036D01*
X0186620Y0070237D02*
X0187475Y0070237D01*
X0187806Y0069439D02*
X0186289Y0069439D01*
X0185955Y0068640D02*
X0185614Y0068640D01*
X0185005Y0067842D02*
X0184806Y0067842D01*
X0190446Y0067043D02*
X0225000Y0067043D01*
X0225000Y0066245D02*
X0190766Y0066245D01*
X0191564Y0065446D02*
X0225000Y0065446D01*
X0225000Y0064648D02*
X0192363Y0064648D01*
X0193161Y0063849D02*
X0225000Y0063849D01*
X0225000Y0063050D02*
X0193960Y0063050D01*
X0194758Y0062252D02*
X0225000Y0062252D01*
X0225000Y0061453D02*
X0195557Y0061453D01*
X0196355Y0060655D02*
X0225000Y0060655D01*
X0225000Y0059856D02*
X0197154Y0059856D01*
X0197952Y0059058D02*
X0225000Y0059058D01*
X0225000Y0058259D02*
X0200577Y0058259D01*
X0201272Y0057461D02*
X0225000Y0057461D01*
X0225000Y0056662D02*
X0201603Y0056662D01*
X0201684Y0055864D02*
X0225000Y0055864D01*
X0225000Y0055065D02*
X0201628Y0055065D01*
X0201298Y0054267D02*
X0225000Y0054267D01*
X0225000Y0053468D02*
X0200638Y0053468D01*
X0199183Y0052670D02*
X0225000Y0052670D01*
X0229000Y0052670D02*
X0253500Y0052670D01*
X0253500Y0053468D02*
X0229000Y0053468D01*
X0229000Y0054267D02*
X0253500Y0054267D01*
X0253500Y0055065D02*
X0229000Y0055065D01*
X0229000Y0055864D02*
X0253500Y0055864D01*
X0253500Y0056662D02*
X0229000Y0056662D01*
X0229000Y0057461D02*
X0253044Y0057461D01*
X0252245Y0058259D02*
X0229000Y0058259D01*
X0229000Y0059058D02*
X0251447Y0059058D01*
X0250648Y0059856D02*
X0229000Y0059856D01*
X0229000Y0060655D02*
X0240566Y0060655D01*
X0239768Y0061453D02*
X0229000Y0061453D01*
X0229000Y0062252D02*
X0238969Y0062252D01*
X0238171Y0063050D02*
X0229000Y0063050D01*
X0229000Y0063849D02*
X0237372Y0063849D01*
X0236574Y0064648D02*
X0229000Y0064648D01*
X0229000Y0065446D02*
X0235775Y0065446D01*
X0234977Y0066245D02*
X0229000Y0066245D01*
X0229000Y0067043D02*
X0234178Y0067043D01*
X0236641Y0070237D02*
X0244108Y0070237D01*
X0244906Y0069439D02*
X0237440Y0069439D01*
X0238238Y0068640D02*
X0245766Y0068640D01*
X0247694Y0067842D02*
X0239037Y0067842D01*
X0236947Y0071036D02*
X0243309Y0071036D01*
X0242739Y0071834D02*
X0236947Y0071834D01*
X0236947Y0072633D02*
X0242409Y0072633D01*
X0242078Y0073431D02*
X0236759Y0073431D01*
X0236428Y0074230D02*
X0241747Y0074230D01*
X0241416Y0075028D02*
X0235951Y0075028D01*
X0235153Y0075827D02*
X0241407Y0075827D01*
X0241407Y0076625D02*
X0233692Y0076625D01*
X0236448Y0077424D02*
X0241407Y0077424D01*
X0241407Y0078222D02*
X0236947Y0078222D01*
X0236947Y0079021D02*
X0241434Y0079021D01*
X0241765Y0079819D02*
X0236947Y0079819D01*
X0236947Y0080618D02*
X0242096Y0080618D01*
X0242427Y0081416D02*
X0236947Y0081416D01*
X0236947Y0082215D02*
X0242757Y0082215D01*
X0243353Y0083013D02*
X0236947Y0083013D01*
X0236947Y0083812D02*
X0244151Y0083812D01*
X0244950Y0084610D02*
X0236947Y0084610D01*
X0236947Y0085409D02*
X0245871Y0085409D01*
X0247799Y0086207D02*
X0236822Y0086207D01*
X0227272Y0086207D02*
X0224701Y0086207D01*
X0224823Y0086157D02*
X0223022Y0086903D01*
X0221073Y0086903D01*
X0219272Y0086157D01*
X0217893Y0084778D01*
X0217147Y0082977D01*
X0217147Y0081028D01*
X0217893Y0079227D01*
X0219272Y0077849D01*
X0221073Y0077103D01*
X0223022Y0077103D01*
X0224823Y0077849D01*
X0226201Y0079227D01*
X0226947Y0081028D01*
X0226947Y0082977D01*
X0226201Y0084778D01*
X0224823Y0086157D01*
X0225571Y0085409D02*
X0227147Y0085409D01*
X0227147Y0084610D02*
X0226271Y0084610D01*
X0226602Y0083812D02*
X0227147Y0083812D01*
X0227147Y0083013D02*
X0226932Y0083013D01*
X0226947Y0082215D02*
X0227147Y0082215D01*
X0227147Y0081416D02*
X0226947Y0081416D01*
X0226777Y0080618D02*
X0227147Y0080618D01*
X0227147Y0079819D02*
X0226447Y0079819D01*
X0225995Y0079021D02*
X0227147Y0079021D01*
X0226560Y0078222D02*
X0225196Y0078222D01*
X0225762Y0077424D02*
X0223797Y0077424D01*
X0223692Y0076625D02*
X0225000Y0076625D01*
X0220403Y0076625D02*
X0213677Y0076625D01*
X0213928Y0076544D02*
X0213195Y0076782D01*
X0212447Y0076900D01*
X0212447Y0072403D01*
X0211647Y0072403D01*
X0211647Y0076900D01*
X0210900Y0076782D01*
X0210166Y0076544D01*
X0209479Y0076193D01*
X0208855Y0075740D01*
X0208310Y0075195D01*
X0207856Y0074571D01*
X0207506Y0073884D01*
X0207268Y0073150D01*
X0207150Y0072403D01*
X0211647Y0072403D01*
X0211647Y0071603D01*
X0207150Y0071603D01*
X0207268Y0070855D01*
X0207506Y0070122D01*
X0207856Y0069434D01*
X0208310Y0068810D01*
X0208855Y0068265D01*
X0209479Y0067812D01*
X0210166Y0067462D01*
X0210900Y0067223D01*
X0211647Y0067105D01*
X0211647Y0071603D01*
X0212447Y0071603D01*
X0212447Y0072403D01*
X0216945Y0072403D01*
X0216827Y0073150D01*
X0216588Y0073884D01*
X0216238Y0074571D01*
X0215785Y0075195D01*
X0215239Y0075740D01*
X0214615Y0076193D01*
X0213928Y0076544D01*
X0213797Y0077424D02*
X0220297Y0077424D01*
X0218898Y0078222D02*
X0215196Y0078222D01*
X0214823Y0077849D02*
X0216201Y0079227D01*
X0216947Y0081028D01*
X0216947Y0082977D01*
X0216201Y0084778D01*
X0214823Y0086157D01*
X0213022Y0086903D01*
X0211073Y0086903D01*
X0209272Y0086157D01*
X0207893Y0084778D01*
X0207147Y0082977D01*
X0207147Y0081028D01*
X0207893Y0079227D01*
X0209272Y0077849D01*
X0211073Y0077103D01*
X0213022Y0077103D01*
X0214823Y0077849D01*
X0215995Y0079021D02*
X0218100Y0079021D01*
X0217648Y0079819D02*
X0216447Y0079819D01*
X0216777Y0080618D02*
X0217317Y0080618D01*
X0217147Y0081416D02*
X0216947Y0081416D01*
X0216947Y0082215D02*
X0217147Y0082215D01*
X0217162Y0083013D02*
X0216932Y0083013D01*
X0216602Y0083812D02*
X0217493Y0083812D01*
X0217824Y0084610D02*
X0216271Y0084610D01*
X0215571Y0085409D02*
X0218524Y0085409D01*
X0219394Y0086207D02*
X0214701Y0086207D01*
X0209394Y0086207D02*
X0204701Y0086207D01*
X0204823Y0086157D02*
X0203022Y0086903D01*
X0201073Y0086903D01*
X0199272Y0086157D01*
X0197893Y0084778D01*
X0197147Y0082977D01*
X0197147Y0081028D01*
X0197893Y0079227D01*
X0199272Y0077849D01*
X0201073Y0077103D01*
X0203022Y0077103D01*
X0204823Y0077849D01*
X0206201Y0079227D01*
X0206947Y0081028D01*
X0206947Y0082977D01*
X0206201Y0084778D01*
X0204823Y0086157D01*
X0205571Y0085409D02*
X0208524Y0085409D01*
X0207824Y0084610D02*
X0206271Y0084610D01*
X0206602Y0083812D02*
X0207493Y0083812D01*
X0207162Y0083013D02*
X0206932Y0083013D01*
X0206947Y0082215D02*
X0207147Y0082215D01*
X0207147Y0081416D02*
X0206947Y0081416D01*
X0206777Y0080618D02*
X0207317Y0080618D01*
X0207648Y0079819D02*
X0206447Y0079819D01*
X0205995Y0079021D02*
X0208100Y0079021D01*
X0208898Y0078222D02*
X0205196Y0078222D01*
X0203797Y0077424D02*
X0210297Y0077424D01*
X0210417Y0076625D02*
X0203692Y0076625D01*
X0203022Y0076903D02*
X0201073Y0076903D01*
X0199272Y0076157D01*
X0197893Y0074778D01*
X0197147Y0072977D01*
X0197147Y0071028D01*
X0197893Y0069227D01*
X0199272Y0067849D01*
X0201073Y0067103D01*
X0203022Y0067103D01*
X0204823Y0067849D01*
X0206201Y0069227D01*
X0206947Y0071028D01*
X0206947Y0072977D01*
X0206201Y0074778D01*
X0204823Y0076157D01*
X0203022Y0076903D01*
X0205153Y0075827D02*
X0208974Y0075827D01*
X0208189Y0075028D02*
X0205951Y0075028D01*
X0206428Y0074230D02*
X0207683Y0074230D01*
X0207359Y0073431D02*
X0206759Y0073431D01*
X0206947Y0072633D02*
X0207186Y0072633D01*
X0206947Y0071834D02*
X0211647Y0071834D01*
X0211647Y0071036D02*
X0212447Y0071036D01*
X0212447Y0071603D02*
X0212447Y0067105D01*
X0213195Y0067223D01*
X0213928Y0067462D01*
X0214615Y0067812D01*
X0215239Y0068265D01*
X0215785Y0068810D01*
X0216238Y0069434D01*
X0216588Y0070122D01*
X0216827Y0070855D01*
X0216945Y0071603D01*
X0212447Y0071603D01*
X0212447Y0071834D02*
X0217147Y0071834D01*
X0217147Y0071036D02*
X0216855Y0071036D01*
X0216626Y0070237D02*
X0217475Y0070237D01*
X0217806Y0069439D02*
X0216240Y0069439D01*
X0215614Y0068640D02*
X0218480Y0068640D01*
X0219289Y0067842D02*
X0214656Y0067842D01*
X0212447Y0067842D02*
X0211647Y0067842D01*
X0211647Y0068640D02*
X0212447Y0068640D01*
X0212447Y0069439D02*
X0211647Y0069439D01*
X0211647Y0070237D02*
X0212447Y0070237D01*
X0212447Y0072633D02*
X0211647Y0072633D01*
X0211647Y0073431D02*
X0212447Y0073431D01*
X0212447Y0074230D02*
X0211647Y0074230D01*
X0211647Y0075028D02*
X0212447Y0075028D01*
X0212447Y0075827D02*
X0211647Y0075827D01*
X0211647Y0076625D02*
X0212447Y0076625D01*
X0215120Y0075827D02*
X0218942Y0075827D01*
X0218143Y0075028D02*
X0215906Y0075028D01*
X0216412Y0074230D02*
X0217666Y0074230D01*
X0217335Y0073431D02*
X0216735Y0073431D01*
X0216909Y0072633D02*
X0217147Y0072633D01*
X0224806Y0067842D02*
X0225000Y0067842D01*
X0229000Y0067842D02*
X0229289Y0067842D01*
X0209438Y0067842D02*
X0204806Y0067842D01*
X0205614Y0068640D02*
X0208480Y0068640D01*
X0207854Y0069439D02*
X0206289Y0069439D01*
X0206620Y0070237D02*
X0207469Y0070237D01*
X0207239Y0071036D02*
X0206947Y0071036D01*
X0199289Y0067842D02*
X0194806Y0067842D01*
X0195614Y0068640D02*
X0198480Y0068640D01*
X0197806Y0069439D02*
X0196289Y0069439D01*
X0196620Y0070237D02*
X0197475Y0070237D01*
X0197147Y0071036D02*
X0196947Y0071036D01*
X0196947Y0071834D02*
X0197147Y0071834D01*
X0197147Y0072633D02*
X0196947Y0072633D01*
X0196759Y0073431D02*
X0197335Y0073431D01*
X0197666Y0074230D02*
X0196428Y0074230D01*
X0195951Y0075028D02*
X0198143Y0075028D01*
X0198942Y0075827D02*
X0195153Y0075827D01*
X0193692Y0076625D02*
X0200403Y0076625D01*
X0200297Y0077424D02*
X0193797Y0077424D01*
X0195196Y0078222D02*
X0198898Y0078222D01*
X0198100Y0079021D02*
X0195995Y0079021D01*
X0196447Y0079819D02*
X0197648Y0079819D01*
X0197317Y0080618D02*
X0196777Y0080618D01*
X0196947Y0081416D02*
X0197147Y0081416D01*
X0197147Y0082215D02*
X0196947Y0082215D01*
X0196932Y0083013D02*
X0197162Y0083013D01*
X0197493Y0083812D02*
X0196602Y0083812D01*
X0196271Y0084610D02*
X0197824Y0084610D01*
X0198524Y0085409D02*
X0195571Y0085409D01*
X0194701Y0086207D02*
X0199394Y0086207D01*
X0160297Y0077424D02*
X0159000Y0077424D01*
X0159000Y0076625D02*
X0160403Y0076625D01*
X0135148Y0059856D02*
X0013600Y0059856D01*
X0013600Y0059058D02*
X0135947Y0059058D01*
X0136745Y0058259D02*
X0013600Y0058259D01*
X0013600Y0057461D02*
X0137544Y0057461D01*
X0138343Y0056662D02*
X0013600Y0056662D01*
X0013600Y0055864D02*
X0139141Y0055864D01*
X0134350Y0060655D02*
X0013600Y0060655D01*
X0013600Y0061453D02*
X0087551Y0061453D01*
X0086753Y0062252D02*
X0013600Y0062252D01*
X0013600Y0063050D02*
X0085954Y0063050D01*
X0085156Y0063849D02*
X0013600Y0063849D01*
X0013600Y0064648D02*
X0085000Y0064648D01*
X0085000Y0065446D02*
X0013600Y0065446D01*
X0013600Y0066245D02*
X0085000Y0066245D01*
X0085000Y0067043D02*
X0013600Y0067043D01*
X0013600Y0067842D02*
X0019347Y0067842D01*
X0017419Y0068640D02*
X0013600Y0068640D01*
X0013600Y0069439D02*
X0016560Y0069439D01*
X0015761Y0070237D02*
X0013600Y0070237D01*
X0013600Y0071036D02*
X0014963Y0071036D01*
X0014393Y0071834D02*
X0013600Y0071834D01*
X0013600Y0072633D02*
X0014062Y0072633D01*
X0013731Y0073431D02*
X0013600Y0073431D01*
X0013600Y0080618D02*
X0013750Y0080618D01*
X0013600Y0081416D02*
X0014080Y0081416D01*
X0014411Y0082215D02*
X0013600Y0082215D01*
X0013600Y0083013D02*
X0015006Y0083013D01*
X0015805Y0083812D02*
X0013600Y0083812D01*
X0013600Y0084610D02*
X0016603Y0084610D01*
X0017525Y0085409D02*
X0013600Y0085409D01*
X0013600Y0086207D02*
X0019453Y0086207D01*
X0013600Y0087006D02*
X0123344Y0087006D01*
X0124143Y0087804D02*
X0013600Y0087804D01*
X0013600Y0088603D02*
X0124941Y0088603D01*
X0126605Y0084610D02*
X0127824Y0084610D01*
X0127493Y0083812D02*
X0126602Y0083812D01*
X0126932Y0083013D02*
X0127162Y0083013D01*
X0127147Y0082215D02*
X0126947Y0082215D01*
X0126947Y0081416D02*
X0127147Y0081416D01*
X0127317Y0080618D02*
X0126777Y0080618D01*
X0126447Y0079819D02*
X0127648Y0079819D01*
X0128100Y0079021D02*
X0125995Y0079021D01*
X0125196Y0078222D02*
X0128898Y0078222D01*
X0130297Y0077424D02*
X0123797Y0077424D01*
X0123692Y0076625D02*
X0130403Y0076625D01*
X0128942Y0075827D02*
X0125153Y0075827D01*
X0125951Y0075028D02*
X0128143Y0075028D01*
X0127666Y0074230D02*
X0126428Y0074230D01*
X0126759Y0073431D02*
X0127335Y0073431D01*
X0127147Y0072633D02*
X0126947Y0072633D01*
X0126947Y0071834D02*
X0127147Y0071834D01*
X0127147Y0071036D02*
X0126947Y0071036D01*
X0126620Y0070237D02*
X0127475Y0070237D01*
X0127806Y0069439D02*
X0126289Y0069439D01*
X0125614Y0068640D02*
X0128480Y0068640D01*
X0129289Y0067842D02*
X0124806Y0067842D01*
X0119289Y0067842D02*
X0114806Y0067842D01*
X0115614Y0068640D02*
X0118480Y0068640D01*
X0117806Y0069439D02*
X0116289Y0069439D01*
X0116620Y0070237D02*
X0117475Y0070237D01*
X0117147Y0071036D02*
X0116947Y0071036D01*
X0116947Y0071834D02*
X0117147Y0071834D01*
X0117147Y0072633D02*
X0116947Y0072633D01*
X0116759Y0073431D02*
X0117335Y0073431D01*
X0117666Y0074230D02*
X0116428Y0074230D01*
X0115951Y0075028D02*
X0118143Y0075028D01*
X0118942Y0075827D02*
X0115153Y0075827D01*
X0113692Y0076625D02*
X0120403Y0076625D01*
X0120297Y0077424D02*
X0113797Y0077424D01*
X0113022Y0077103D02*
X0114823Y0077849D01*
X0116201Y0079227D01*
X0116947Y0081028D01*
X0116947Y0082977D01*
X0116201Y0084778D01*
X0114823Y0086157D01*
X0113022Y0086903D01*
X0111073Y0086903D01*
X0109272Y0086157D01*
X0107893Y0084778D01*
X0107147Y0082977D01*
X0107147Y0081028D01*
X0107893Y0079227D01*
X0109272Y0077849D01*
X0111073Y0077103D01*
X0113022Y0077103D01*
X0115196Y0078222D02*
X0118898Y0078222D01*
X0118100Y0079021D02*
X0115995Y0079021D01*
X0116447Y0079819D02*
X0117648Y0079819D01*
X0117317Y0080618D02*
X0116777Y0080618D01*
X0116947Y0081416D02*
X0117147Y0081416D01*
X0117147Y0082215D02*
X0116947Y0082215D01*
X0116932Y0083013D02*
X0117162Y0083013D01*
X0117493Y0083812D02*
X0116602Y0083812D01*
X0116271Y0084610D02*
X0117824Y0084610D01*
X0118524Y0085409D02*
X0115571Y0085409D01*
X0114701Y0086207D02*
X0119394Y0086207D01*
X0109394Y0086207D02*
X0104701Y0086207D01*
X0104823Y0086157D02*
X0103022Y0086903D01*
X0101073Y0086903D01*
X0099272Y0086157D01*
X0097893Y0084778D01*
X0097147Y0082977D01*
X0097147Y0081028D01*
X0097893Y0079227D01*
X0099272Y0077849D01*
X0101073Y0077103D01*
X0103022Y0077103D01*
X0104823Y0077849D01*
X0106201Y0079227D01*
X0106947Y0081028D01*
X0106947Y0082977D01*
X0106201Y0084778D01*
X0104823Y0086157D01*
X0105571Y0085409D02*
X0108524Y0085409D01*
X0107824Y0084610D02*
X0106271Y0084610D01*
X0106602Y0083812D02*
X0107493Y0083812D01*
X0107162Y0083013D02*
X0106932Y0083013D01*
X0106947Y0082215D02*
X0107147Y0082215D01*
X0107147Y0081416D02*
X0106947Y0081416D01*
X0106777Y0080618D02*
X0107317Y0080618D01*
X0107648Y0079819D02*
X0106447Y0079819D01*
X0105995Y0079021D02*
X0108100Y0079021D01*
X0108898Y0078222D02*
X0105196Y0078222D01*
X0103797Y0077424D02*
X0110297Y0077424D01*
X0110403Y0076625D02*
X0103692Y0076625D01*
X0105153Y0075827D02*
X0108942Y0075827D01*
X0108143Y0075028D02*
X0105951Y0075028D01*
X0106428Y0074230D02*
X0107666Y0074230D01*
X0107335Y0073431D02*
X0106759Y0073431D01*
X0106947Y0072633D02*
X0107147Y0072633D01*
X0107147Y0071834D02*
X0106947Y0071834D01*
X0106947Y0071036D02*
X0107147Y0071036D01*
X0107475Y0070237D02*
X0106620Y0070237D01*
X0106289Y0069439D02*
X0107806Y0069439D01*
X0108480Y0068640D02*
X0105614Y0068640D01*
X0104806Y0067842D02*
X0109289Y0067842D01*
X0097172Y0064833D02*
X0089828Y0064833D01*
X0089000Y0065662D01*
X0089000Y0068160D01*
X0089479Y0067812D01*
X0090166Y0067462D01*
X0090900Y0067223D01*
X0091647Y0067105D01*
X0091647Y0071603D01*
X0092447Y0071603D01*
X0092447Y0067105D01*
X0093195Y0067223D01*
X0093928Y0067462D01*
X0094615Y0067812D01*
X0095000Y0068091D01*
X0095000Y0067005D01*
X0097172Y0064833D01*
X0096559Y0065446D02*
X0089216Y0065446D01*
X0089000Y0066245D02*
X0095760Y0066245D01*
X0095000Y0067043D02*
X0089000Y0067043D01*
X0089000Y0067842D02*
X0089438Y0067842D01*
X0091647Y0067842D02*
X0092447Y0067842D01*
X0092447Y0068640D02*
X0091647Y0068640D01*
X0091647Y0069439D02*
X0092447Y0069439D01*
X0092447Y0070237D02*
X0091647Y0070237D01*
X0091647Y0071036D02*
X0092447Y0071036D01*
X0092447Y0072633D02*
X0091647Y0072633D01*
X0091647Y0073431D02*
X0092447Y0073431D01*
X0092447Y0074230D02*
X0091647Y0074230D01*
X0091647Y0075028D02*
X0092447Y0075028D01*
X0092447Y0075827D02*
X0091647Y0075827D01*
X0091647Y0076625D02*
X0092447Y0076625D01*
X0093677Y0076625D02*
X0094596Y0076625D01*
X0097059Y0079819D02*
X0097648Y0079819D01*
X0097858Y0079021D02*
X0098100Y0079021D01*
X0098656Y0078222D02*
X0098898Y0078222D01*
X0099000Y0077424D02*
X0100297Y0077424D01*
X0100403Y0076625D02*
X0099000Y0076625D01*
X0097317Y0080618D02*
X0096777Y0080618D01*
X0096947Y0081416D02*
X0097147Y0081416D01*
X0097147Y0082215D02*
X0096947Y0082215D01*
X0096932Y0083013D02*
X0097162Y0083013D01*
X0097493Y0083812D02*
X0096602Y0083812D01*
X0096271Y0084610D02*
X0097824Y0084610D01*
X0098524Y0085409D02*
X0095571Y0085409D01*
X0094701Y0086207D02*
X0099394Y0086207D01*
X0089394Y0086207D02*
X0084701Y0086207D01*
X0085571Y0085409D02*
X0088524Y0085409D01*
X0087824Y0084610D02*
X0086271Y0084610D01*
X0086602Y0083812D02*
X0087493Y0083812D01*
X0087162Y0083013D02*
X0086932Y0083013D01*
X0086947Y0082215D02*
X0087147Y0082215D01*
X0087147Y0081416D02*
X0086947Y0081416D01*
X0086777Y0080618D02*
X0087317Y0080618D01*
X0087059Y0079819D02*
X0087648Y0079819D01*
X0087858Y0079021D02*
X0088100Y0079021D01*
X0088656Y0078222D02*
X0088898Y0078222D01*
X0089000Y0077424D02*
X0090297Y0077424D01*
X0090417Y0076625D02*
X0089000Y0076625D01*
X0084596Y0076625D02*
X0083692Y0076625D01*
X0080403Y0076625D02*
X0073677Y0076625D01*
X0073928Y0076544D02*
X0073195Y0076782D01*
X0072447Y0076900D01*
X0072447Y0072403D01*
X0071647Y0072403D01*
X0071647Y0076900D01*
X0070900Y0076782D01*
X0070166Y0076544D01*
X0069479Y0076193D01*
X0068855Y0075740D01*
X0068310Y0075195D01*
X0067856Y0074571D01*
X0067506Y0073884D01*
X0067268Y0073150D01*
X0067150Y0072403D01*
X0071647Y0072403D01*
X0071647Y0071603D01*
X0067150Y0071603D01*
X0067268Y0070855D01*
X0067506Y0070122D01*
X0067856Y0069434D01*
X0068310Y0068810D01*
X0068855Y0068265D01*
X0069479Y0067812D01*
X0070166Y0067462D01*
X0070900Y0067223D01*
X0071647Y0067105D01*
X0071647Y0071603D01*
X0072447Y0071603D01*
X0072447Y0072403D01*
X0076945Y0072403D01*
X0076827Y0073150D01*
X0076588Y0073884D01*
X0076238Y0074571D01*
X0075785Y0075195D01*
X0075239Y0075740D01*
X0074615Y0076193D01*
X0073928Y0076544D01*
X0073797Y0077424D02*
X0080297Y0077424D01*
X0078898Y0078222D02*
X0075196Y0078222D01*
X0074823Y0077849D02*
X0076201Y0079227D01*
X0076947Y0081028D01*
X0076947Y0082977D01*
X0076201Y0084778D01*
X0074823Y0086157D01*
X0073022Y0086903D01*
X0071073Y0086903D01*
X0069272Y0086157D01*
X0067893Y0084778D01*
X0067147Y0082977D01*
X0067147Y0081028D01*
X0067893Y0079227D01*
X0069272Y0077849D01*
X0071073Y0077103D01*
X0073022Y0077103D01*
X0074823Y0077849D01*
X0075995Y0079021D02*
X0078100Y0079021D01*
X0077648Y0079819D02*
X0076447Y0079819D01*
X0076777Y0080618D02*
X0077317Y0080618D01*
X0077147Y0081416D02*
X0076947Y0081416D01*
X0076947Y0082215D02*
X0077147Y0082215D01*
X0077162Y0083013D02*
X0076932Y0083013D01*
X0076602Y0083812D02*
X0077493Y0083812D01*
X0077824Y0084610D02*
X0076271Y0084610D01*
X0075571Y0085409D02*
X0078524Y0085409D01*
X0079394Y0086207D02*
X0074701Y0086207D01*
X0069394Y0086207D02*
X0064701Y0086207D01*
X0064823Y0086157D02*
X0063022Y0086903D01*
X0061073Y0086903D01*
X0059272Y0086157D01*
X0057893Y0084778D01*
X0057147Y0082977D01*
X0057147Y0081028D01*
X0057893Y0079227D01*
X0059272Y0077849D01*
X0061073Y0077103D01*
X0063022Y0077103D01*
X0064823Y0077849D01*
X0066201Y0079227D01*
X0066947Y0081028D01*
X0066947Y0082977D01*
X0066201Y0084778D01*
X0064823Y0086157D01*
X0065571Y0085409D02*
X0068524Y0085409D01*
X0067824Y0084610D02*
X0066271Y0084610D01*
X0066602Y0083812D02*
X0067493Y0083812D01*
X0067162Y0083013D02*
X0066932Y0083013D01*
X0066947Y0082215D02*
X0067147Y0082215D01*
X0067147Y0081416D02*
X0066947Y0081416D01*
X0066777Y0080618D02*
X0067317Y0080618D01*
X0067648Y0079819D02*
X0066447Y0079819D01*
X0065995Y0079021D02*
X0068100Y0079021D01*
X0068898Y0078222D02*
X0065196Y0078222D01*
X0063797Y0077424D02*
X0070297Y0077424D01*
X0070417Y0076625D02*
X0063692Y0076625D01*
X0063022Y0076903D02*
X0061073Y0076903D01*
X0059272Y0076157D01*
X0057893Y0074778D01*
X0057147Y0072977D01*
X0057147Y0071028D01*
X0057893Y0069227D01*
X0059272Y0067849D01*
X0061073Y0067103D01*
X0063022Y0067103D01*
X0064823Y0067849D01*
X0066201Y0069227D01*
X0066947Y0071028D01*
X0066947Y0072977D01*
X0066201Y0074778D01*
X0064823Y0076157D01*
X0063022Y0076903D01*
X0065153Y0075827D02*
X0068974Y0075827D01*
X0068189Y0075028D02*
X0065951Y0075028D01*
X0066428Y0074230D02*
X0067683Y0074230D01*
X0067359Y0073431D02*
X0066759Y0073431D01*
X0066947Y0072633D02*
X0067186Y0072633D01*
X0066947Y0071834D02*
X0071647Y0071834D01*
X0071647Y0071036D02*
X0072447Y0071036D01*
X0072447Y0071603D02*
X0072447Y0067105D01*
X0073195Y0067223D01*
X0073928Y0067462D01*
X0074615Y0067812D01*
X0075239Y0068265D01*
X0075785Y0068810D01*
X0076238Y0069434D01*
X0076588Y0070122D01*
X0076827Y0070855D01*
X0076945Y0071603D01*
X0072447Y0071603D01*
X0072447Y0071834D02*
X0077147Y0071834D01*
X0077147Y0071036D02*
X0076855Y0071036D01*
X0076626Y0070237D02*
X0077475Y0070237D01*
X0077806Y0069439D02*
X0076240Y0069439D01*
X0075614Y0068640D02*
X0078480Y0068640D01*
X0079289Y0067842D02*
X0074656Y0067842D01*
X0072447Y0067842D02*
X0071647Y0067842D01*
X0071647Y0068640D02*
X0072447Y0068640D01*
X0072447Y0069439D02*
X0071647Y0069439D01*
X0071647Y0070237D02*
X0072447Y0070237D01*
X0072447Y0072633D02*
X0071647Y0072633D01*
X0071647Y0073431D02*
X0072447Y0073431D01*
X0072447Y0074230D02*
X0071647Y0074230D01*
X0071647Y0075028D02*
X0072447Y0075028D01*
X0072447Y0075827D02*
X0071647Y0075827D01*
X0071647Y0076625D02*
X0072447Y0076625D01*
X0075120Y0075827D02*
X0078942Y0075827D01*
X0078143Y0075028D02*
X0075906Y0075028D01*
X0076412Y0074230D02*
X0077666Y0074230D01*
X0077335Y0073431D02*
X0076735Y0073431D01*
X0076909Y0072633D02*
X0077147Y0072633D01*
X0084806Y0067842D02*
X0085000Y0067842D01*
X0094656Y0067842D02*
X0095000Y0067842D01*
X0069438Y0067842D02*
X0064806Y0067842D01*
X0065614Y0068640D02*
X0068480Y0068640D01*
X0067854Y0069439D02*
X0066289Y0069439D01*
X0066620Y0070237D02*
X0067469Y0070237D01*
X0067239Y0071036D02*
X0066947Y0071036D01*
X0059289Y0067842D02*
X0054806Y0067842D01*
X0054823Y0067849D02*
X0056201Y0069227D01*
X0056947Y0071028D01*
X0056947Y0072977D01*
X0056201Y0074778D01*
X0054823Y0076157D01*
X0053022Y0076903D01*
X0051073Y0076903D01*
X0049272Y0076157D01*
X0047893Y0074778D01*
X0047147Y0072977D01*
X0047147Y0071028D01*
X0047893Y0069227D01*
X0049272Y0067849D01*
X0051073Y0067103D01*
X0053022Y0067103D01*
X0054823Y0067849D01*
X0055614Y0068640D02*
X0058480Y0068640D01*
X0057806Y0069439D02*
X0056289Y0069439D01*
X0056620Y0070237D02*
X0057475Y0070237D01*
X0057147Y0071036D02*
X0056947Y0071036D01*
X0056947Y0071834D02*
X0057147Y0071834D01*
X0057147Y0072633D02*
X0056947Y0072633D01*
X0056759Y0073431D02*
X0057335Y0073431D01*
X0057666Y0074230D02*
X0056428Y0074230D01*
X0055951Y0075028D02*
X0058143Y0075028D01*
X0058942Y0075827D02*
X0055153Y0075827D01*
X0053692Y0076625D02*
X0060403Y0076625D01*
X0060297Y0077424D02*
X0053797Y0077424D01*
X0053022Y0077103D02*
X0054823Y0077849D01*
X0056201Y0079227D01*
X0056947Y0081028D01*
X0056947Y0082977D01*
X0056201Y0084778D01*
X0054823Y0086157D01*
X0053022Y0086903D01*
X0051073Y0086903D01*
X0049272Y0086157D01*
X0047893Y0084778D01*
X0047147Y0082977D01*
X0047147Y0081028D01*
X0047893Y0079227D01*
X0049272Y0077849D01*
X0051073Y0077103D01*
X0053022Y0077103D01*
X0055196Y0078222D02*
X0058898Y0078222D01*
X0058100Y0079021D02*
X0055995Y0079021D01*
X0056447Y0079819D02*
X0057648Y0079819D01*
X0057317Y0080618D02*
X0056777Y0080618D01*
X0056947Y0081416D02*
X0057147Y0081416D01*
X0057147Y0082215D02*
X0056947Y0082215D01*
X0056932Y0083013D02*
X0057162Y0083013D01*
X0057493Y0083812D02*
X0056602Y0083812D01*
X0056271Y0084610D02*
X0057824Y0084610D01*
X0058524Y0085409D02*
X0055571Y0085409D01*
X0054701Y0086207D02*
X0059394Y0086207D01*
X0049394Y0086207D02*
X0044588Y0086207D01*
X0044615Y0086193D02*
X0043928Y0086544D01*
X0043195Y0086782D01*
X0042447Y0086900D01*
X0042447Y0082403D01*
X0041647Y0082403D01*
X0041647Y0086900D01*
X0040900Y0086782D01*
X0040166Y0086544D01*
X0039479Y0086193D01*
X0038855Y0085740D01*
X0038310Y0085195D01*
X0037856Y0084571D01*
X0037506Y0083884D01*
X0037268Y0083150D01*
X0037150Y0082403D01*
X0041647Y0082403D01*
X0041647Y0081603D01*
X0037150Y0081603D01*
X0037268Y0080855D01*
X0037506Y0080122D01*
X0037856Y0079434D01*
X0038310Y0078810D01*
X0038855Y0078265D01*
X0039479Y0077812D01*
X0040166Y0077462D01*
X0040900Y0077223D01*
X0041647Y0077105D01*
X0041647Y0081603D01*
X0042447Y0081603D01*
X0042447Y0082403D01*
X0046945Y0082403D01*
X0046827Y0083150D01*
X0046588Y0083884D01*
X0046238Y0084571D01*
X0045785Y0085195D01*
X0045239Y0085740D01*
X0044615Y0086193D01*
X0045571Y0085409D02*
X0048524Y0085409D01*
X0047824Y0084610D02*
X0046209Y0084610D01*
X0046612Y0083812D02*
X0047493Y0083812D01*
X0047162Y0083013D02*
X0046848Y0083013D01*
X0047147Y0082215D02*
X0042447Y0082215D01*
X0042447Y0081603D02*
X0046945Y0081603D01*
X0046827Y0080855D01*
X0046588Y0080122D01*
X0046238Y0079434D01*
X0045785Y0078810D01*
X0045239Y0078265D01*
X0044615Y0077812D01*
X0043928Y0077462D01*
X0043195Y0077223D01*
X0042447Y0077105D01*
X0042447Y0081603D01*
X0042447Y0081416D02*
X0041647Y0081416D01*
X0041647Y0080618D02*
X0042447Y0080618D01*
X0042447Y0079819D02*
X0041647Y0079819D01*
X0041647Y0079021D02*
X0042447Y0079021D01*
X0042447Y0078222D02*
X0041647Y0078222D01*
X0041647Y0077424D02*
X0042447Y0077424D01*
X0043022Y0076903D02*
X0041073Y0076903D01*
X0039272Y0076157D01*
X0037893Y0074778D01*
X0037147Y0072977D01*
X0037147Y0071028D01*
X0037893Y0069227D01*
X0039272Y0067849D01*
X0041073Y0067103D01*
X0043022Y0067103D01*
X0044823Y0067849D01*
X0046201Y0069227D01*
X0046947Y0071028D01*
X0046947Y0072977D01*
X0046201Y0074778D01*
X0044823Y0076157D01*
X0043022Y0076903D01*
X0043692Y0076625D02*
X0050403Y0076625D01*
X0050297Y0077424D02*
X0043811Y0077424D01*
X0045180Y0078222D02*
X0048898Y0078222D01*
X0048100Y0079021D02*
X0045937Y0079021D01*
X0046434Y0079819D02*
X0047648Y0079819D01*
X0047317Y0080618D02*
X0046749Y0080618D01*
X0046915Y0081416D02*
X0047147Y0081416D01*
X0042447Y0083013D02*
X0041647Y0083013D01*
X0041647Y0082215D02*
X0031337Y0082215D01*
X0031668Y0081416D02*
X0037179Y0081416D01*
X0037345Y0080618D02*
X0031999Y0080618D01*
X0032329Y0079819D02*
X0037660Y0079819D01*
X0038157Y0079021D02*
X0032660Y0079021D01*
X0032687Y0078222D02*
X0038914Y0078222D01*
X0040283Y0077424D02*
X0032687Y0077424D01*
X0032687Y0076625D02*
X0040403Y0076625D01*
X0038942Y0075827D02*
X0032687Y0075827D01*
X0032678Y0075028D02*
X0038143Y0075028D01*
X0037666Y0074230D02*
X0032347Y0074230D01*
X0032017Y0073431D02*
X0037335Y0073431D01*
X0037147Y0072633D02*
X0031686Y0072633D01*
X0031355Y0071834D02*
X0037147Y0071834D01*
X0037147Y0071036D02*
X0030785Y0071036D01*
X0029987Y0070237D02*
X0037475Y0070237D01*
X0037806Y0069439D02*
X0029188Y0069439D01*
X0028329Y0068640D02*
X0038480Y0068640D01*
X0039289Y0067842D02*
X0026401Y0067842D01*
X0044806Y0067842D02*
X0049289Y0067842D01*
X0048480Y0068640D02*
X0045614Y0068640D01*
X0046289Y0069439D02*
X0047806Y0069439D01*
X0047475Y0070237D02*
X0046620Y0070237D01*
X0046947Y0071036D02*
X0047147Y0071036D01*
X0047147Y0071834D02*
X0046947Y0071834D01*
X0046947Y0072633D02*
X0047147Y0072633D01*
X0047335Y0073431D02*
X0046759Y0073431D01*
X0046428Y0074230D02*
X0047666Y0074230D01*
X0048143Y0075028D02*
X0045951Y0075028D01*
X0045153Y0075827D02*
X0048942Y0075827D01*
X0042447Y0083812D02*
X0041647Y0083812D01*
X0041647Y0084610D02*
X0042447Y0084610D01*
X0042447Y0085409D02*
X0041647Y0085409D01*
X0041647Y0086207D02*
X0042447Y0086207D01*
X0039506Y0086207D02*
X0026296Y0086207D01*
X0028223Y0085409D02*
X0038524Y0085409D01*
X0037885Y0084610D02*
X0029145Y0084610D01*
X0029943Y0083812D02*
X0037483Y0083812D01*
X0037246Y0083013D02*
X0030742Y0083013D01*
X0013600Y0089401D02*
X0260900Y0089401D01*
X0260900Y0090200D02*
X0013600Y0090200D01*
X0013600Y0090998D02*
X0260900Y0090998D01*
X0253500Y0051871D02*
X0229000Y0051871D01*
X0229000Y0051073D02*
X0253500Y0051073D01*
X0253500Y0050274D02*
X0229000Y0050274D01*
X0229000Y0049476D02*
X0253500Y0049476D01*
X0253500Y0048677D02*
X0229000Y0048677D01*
X0229000Y0047879D02*
X0253500Y0047879D01*
X0253500Y0047080D02*
X0229000Y0047080D01*
X0229000Y0046282D02*
X0253500Y0046282D01*
X0253500Y0045483D02*
X0229000Y0045483D01*
X0229000Y0044685D02*
X0253500Y0044685D01*
X0253500Y0043886D02*
X0229000Y0043886D01*
X0229000Y0043088D02*
X0253500Y0043088D01*
X0197816Y0052670D02*
X0192492Y0052670D01*
X0191693Y0053468D02*
X0196362Y0053468D01*
X0195390Y0054267D02*
X0190895Y0054267D01*
X0190096Y0055065D02*
X0194591Y0055065D01*
X0193792Y0055864D02*
X0189298Y0055864D01*
X0188499Y0056662D02*
X0192994Y0056662D01*
X0192195Y0057461D02*
X0187701Y0057461D01*
X0186902Y0058259D02*
X0191397Y0058259D01*
X0190598Y0059058D02*
X0186104Y0059058D01*
X0133880Y0076625D02*
X0133692Y0076625D01*
X0043645Y0044685D02*
X0019652Y0044685D01*
X0015600Y0019931D02*
X0015400Y0019931D01*
X0015400Y0019132D02*
X0015600Y0019132D01*
X0015600Y0018334D02*
X0015400Y0018334D01*
X0015400Y0017535D02*
X0015600Y0017535D01*
X0015600Y0016737D02*
X0015400Y0016737D01*
X0015400Y0015938D02*
X0015600Y0015938D01*
X0015600Y0015140D02*
X0015400Y0015140D01*
X0015400Y0014341D02*
X0015600Y0014341D01*
X0015600Y0013543D02*
X0015400Y0013543D01*
D16*
X0039000Y0032333D03*
X0045500Y0047333D03*
X0075500Y0052333D03*
X0089000Y0041333D03*
X0114500Y0048333D03*
X0135500Y0047333D03*
X0160500Y0036833D03*
X0164500Y0040833D03*
X0193500Y0030333D03*
X0219500Y0030333D03*
X0241500Y0039833D03*
X0241000Y0047833D03*
X0224000Y0059333D03*
X0198500Y0055833D03*
X0187500Y0065833D03*
D17*
X0241000Y0047833D02*
X0248500Y0047833D01*
X0249500Y0048833D01*
X0247500Y0039833D02*
X0241500Y0039833D01*
X0247500Y0039833D02*
X0250000Y0037333D01*
D18*
X0236500Y0025333D02*
X0238500Y0023333D01*
X0238500Y0016333D01*
X0236500Y0025333D02*
X0217000Y0025333D01*
X0184500Y0057833D01*
X0166500Y0057833D01*
X0157000Y0067333D01*
X0157000Y0083833D01*
X0153500Y0087333D01*
X0126500Y0087333D01*
X0122047Y0082881D01*
X0122047Y0082003D01*
X0132047Y0082003D02*
X0132047Y0081286D01*
X0137000Y0076333D01*
X0137000Y0069833D01*
X0154500Y0052333D01*
X0182500Y0052333D01*
X0208000Y0026833D01*
X0208000Y0016833D01*
X0208500Y0016333D01*
X0218500Y0016333D02*
X0218500Y0019833D01*
X0182500Y0055833D01*
X0155500Y0055833D01*
X0147000Y0064333D01*
X0147000Y0077333D01*
X0142331Y0082003D01*
X0142047Y0082003D01*
X0137000Y0065333D02*
X0099500Y0065333D01*
X0097000Y0067833D01*
X0097000Y0077050D01*
X0092047Y0082003D01*
X0087000Y0077050D02*
X0087000Y0064833D01*
X0089000Y0062833D01*
X0135000Y0062833D01*
X0151500Y0046333D01*
X0164500Y0046333D01*
X0168500Y0042333D01*
X0168500Y0016333D01*
X0178000Y0016833D02*
X0178000Y0021833D01*
X0186500Y0030333D01*
X0193500Y0030333D01*
X0198500Y0032333D02*
X0198500Y0016333D01*
X0192000Y0008833D02*
X0252000Y0008833D01*
X0255500Y0012333D01*
X0255500Y0057833D01*
X0251000Y0062333D01*
X0241717Y0062333D01*
X0232047Y0072003D01*
X0227000Y0075833D02*
X0227000Y0037833D01*
X0219500Y0030333D01*
X0198500Y0032333D02*
X0181500Y0049333D01*
X0153000Y0049333D01*
X0137000Y0065333D01*
X0135500Y0047333D02*
X0135500Y0043833D01*
X0164500Y0040833D02*
X0089500Y0040833D01*
X0089000Y0041333D01*
X0075500Y0052333D02*
X0050500Y0052333D01*
X0045500Y0047333D01*
X0082047Y0082003D02*
X0087000Y0077050D01*
X0178000Y0016833D02*
X0178500Y0016333D01*
X0188500Y0016333D02*
X0188500Y0012333D01*
X0192000Y0008833D01*
X0224000Y0059333D02*
X0212047Y0071286D01*
X0212047Y0072003D01*
X0227000Y0075833D02*
X0232047Y0080881D01*
X0232047Y0082003D01*
D19*
X0039000Y0059833D03*
X0033000Y0039333D03*
D20*
X0033000Y0053833D01*
X0039000Y0059833D01*
X0156000Y0032333D02*
X0160500Y0036833D01*
D21*
X0156000Y0032333D02*
X0039000Y0032333D01*
X0089000Y0041333D02*
X0096000Y0048333D01*
X0114500Y0048333D01*
X0187500Y0065833D02*
X0197500Y0055833D01*
X0198500Y0055833D01*
M02*
