G75*
%MOIN*%
%OFA0B0*%
%FSLAX25Y25*%
%IPPOS*%
%LPD*%
%AMOC8*
5,1,8,0,0,1.08239X$1,22.5*
%
%ADD10R,0.05800X0.05800*%
%ADD11R,0.05300X0.06800*%
%ADD12C,0.01075*%
%ADD13C,0.01200*%
%ADD14C,0.00950*%
%ADD15R,0.06800X0.08800*%
%ADD16C,0.06800*%
%ADD17C,0.02369*%
%ADD18C,0.04337*%
%ADD19C,0.04800*%
%ADD20C,0.01150*%
%ADD21C,0.03150*%
%ADD22C,0.03353*%
%ADD23C,0.03300*%
%ADD24R,0.13398X0.10643*%
%ADD25R,0.04800X0.05300*%
%ADD26R,0.03662X0.01981*%
%ADD27R,0.05524X0.03517*%
%ADD28R,0.07800X0.07800*%
%ADD29C,0.07800*%
%ADD30C,0.11627*%
%ADD31C,0.04369*%
%ADD32R,0.04762X0.04762*%
D10*
X0058250Y0052833D03*
X0068250Y0052833D03*
X0028000Y0054833D03*
X0018000Y0054833D03*
X0162500Y0027333D03*
X0172500Y0027333D03*
D11*
X0148500Y0028333D03*
X0140500Y0028333D03*
D12*
X0139887Y0041720D02*
X0143113Y0041720D01*
X0139887Y0041720D02*
X0139887Y0044946D01*
X0143113Y0044946D01*
X0143113Y0041720D01*
X0143113Y0042794D02*
X0139887Y0042794D01*
X0139887Y0043868D02*
X0143113Y0043868D01*
X0143113Y0044942D02*
X0139887Y0044942D01*
X0139887Y0050220D02*
X0143113Y0050220D01*
X0139887Y0050220D02*
X0139887Y0053446D01*
X0143113Y0053446D01*
X0143113Y0050220D01*
X0143113Y0051294D02*
X0139887Y0051294D01*
X0139887Y0052368D02*
X0143113Y0052368D01*
X0143113Y0053442D02*
X0139887Y0053442D01*
X0145887Y0050220D02*
X0149113Y0050220D01*
X0145887Y0050220D02*
X0145887Y0053446D01*
X0149113Y0053446D01*
X0149113Y0050220D01*
X0149113Y0051294D02*
X0145887Y0051294D01*
X0145887Y0052368D02*
X0149113Y0052368D01*
X0149113Y0053442D02*
X0145887Y0053442D01*
X0145887Y0041720D02*
X0149113Y0041720D01*
X0145887Y0041720D02*
X0145887Y0044946D01*
X0149113Y0044946D01*
X0149113Y0041720D01*
X0149113Y0042794D02*
X0145887Y0042794D01*
X0145887Y0043868D02*
X0149113Y0043868D01*
X0149113Y0044942D02*
X0145887Y0044942D01*
X0127613Y0042220D02*
X0124387Y0042220D01*
X0124387Y0045446D01*
X0127613Y0045446D01*
X0127613Y0042220D01*
X0127613Y0043294D02*
X0124387Y0043294D01*
X0124387Y0044368D02*
X0127613Y0044368D01*
X0127613Y0045442D02*
X0124387Y0045442D01*
X0121613Y0042220D02*
X0118387Y0042220D01*
X0118387Y0045446D01*
X0121613Y0045446D01*
X0121613Y0042220D01*
X0121613Y0043294D02*
X0118387Y0043294D01*
X0118387Y0044368D02*
X0121613Y0044368D01*
X0121613Y0045442D02*
X0118387Y0045442D01*
X0118387Y0050220D02*
X0121613Y0050220D01*
X0118387Y0050220D02*
X0118387Y0053446D01*
X0121613Y0053446D01*
X0121613Y0050220D01*
X0121613Y0051294D02*
X0118387Y0051294D01*
X0118387Y0052368D02*
X0121613Y0052368D01*
X0121613Y0053442D02*
X0118387Y0053442D01*
X0124387Y0050220D02*
X0127613Y0050220D01*
X0124387Y0050220D02*
X0124387Y0053446D01*
X0127613Y0053446D01*
X0127613Y0050220D01*
X0127613Y0051294D02*
X0124387Y0051294D01*
X0124387Y0052368D02*
X0127613Y0052368D01*
X0127613Y0053442D02*
X0124387Y0053442D01*
X0117613Y0015720D02*
X0114387Y0015720D01*
X0114387Y0018946D01*
X0117613Y0018946D01*
X0117613Y0015720D01*
X0117613Y0016794D02*
X0114387Y0016794D01*
X0114387Y0017868D02*
X0117613Y0017868D01*
X0117613Y0018942D02*
X0114387Y0018942D01*
X0111613Y0015720D02*
X0108387Y0015720D01*
X0108387Y0018946D01*
X0111613Y0018946D01*
X0111613Y0015720D01*
X0111613Y0016794D02*
X0108387Y0016794D01*
X0108387Y0017868D02*
X0111613Y0017868D01*
X0111613Y0018942D02*
X0108387Y0018942D01*
X0048613Y0052220D02*
X0045387Y0052220D01*
X0045387Y0055446D01*
X0048613Y0055446D01*
X0048613Y0052220D01*
X0048613Y0053294D02*
X0045387Y0053294D01*
X0045387Y0054368D02*
X0048613Y0054368D01*
X0048613Y0055442D02*
X0045387Y0055442D01*
X0042613Y0052220D02*
X0039387Y0052220D01*
X0039387Y0055446D01*
X0042613Y0055446D01*
X0042613Y0052220D01*
X0042613Y0053294D02*
X0039387Y0053294D01*
X0039387Y0054368D02*
X0042613Y0054368D01*
X0042613Y0055442D02*
X0039387Y0055442D01*
D13*
X0093950Y0035133D02*
X0093950Y0031533D01*
X0093950Y0035133D02*
X0099050Y0035133D01*
X0099050Y0031533D01*
X0093950Y0031533D01*
X0093950Y0032732D02*
X0099050Y0032732D01*
X0099050Y0033931D02*
X0093950Y0033931D01*
X0093950Y0035130D02*
X0099050Y0035130D01*
X0093950Y0028133D02*
X0093950Y0024533D01*
X0093950Y0028133D02*
X0099050Y0028133D01*
X0099050Y0024533D01*
X0093950Y0024533D01*
X0093950Y0025732D02*
X0099050Y0025732D01*
X0099050Y0026931D02*
X0093950Y0026931D01*
X0093950Y0028130D02*
X0099050Y0028130D01*
X0132050Y0029533D02*
X0132050Y0033133D01*
X0132050Y0029533D02*
X0126950Y0029533D01*
X0126950Y0033133D01*
X0132050Y0033133D01*
X0132050Y0030732D02*
X0126950Y0030732D01*
X0126950Y0031931D02*
X0132050Y0031931D01*
X0132050Y0033130D02*
X0126950Y0033130D01*
X0132050Y0026133D02*
X0132050Y0022533D01*
X0126950Y0022533D01*
X0126950Y0026133D01*
X0132050Y0026133D01*
X0132050Y0023732D02*
X0126950Y0023732D01*
X0126950Y0024931D02*
X0132050Y0024931D01*
X0132050Y0026130D02*
X0126950Y0026130D01*
X0139200Y0016283D02*
X0142800Y0016283D01*
X0139200Y0016283D02*
X0139200Y0021383D01*
X0142800Y0021383D01*
X0142800Y0016283D01*
X0142800Y0017482D02*
X0139200Y0017482D01*
X0139200Y0018681D02*
X0142800Y0018681D01*
X0142800Y0019880D02*
X0139200Y0019880D01*
X0139200Y0021079D02*
X0142800Y0021079D01*
X0146200Y0016283D02*
X0149800Y0016283D01*
X0146200Y0016283D02*
X0146200Y0021383D01*
X0149800Y0021383D01*
X0149800Y0016283D01*
X0149800Y0017482D02*
X0146200Y0017482D01*
X0146200Y0018681D02*
X0149800Y0018681D01*
X0149800Y0019880D02*
X0146200Y0019880D01*
X0146200Y0021079D02*
X0149800Y0021079D01*
D14*
X0110425Y0046008D02*
X0107575Y0046008D01*
X0110425Y0046008D02*
X0110425Y0042658D01*
X0107575Y0042658D01*
X0107575Y0046008D01*
X0107575Y0043607D02*
X0110425Y0043607D01*
X0110425Y0044556D02*
X0107575Y0044556D01*
X0107575Y0045505D02*
X0110425Y0045505D01*
X0104425Y0046008D02*
X0101575Y0046008D01*
X0104425Y0046008D02*
X0104425Y0042658D01*
X0101575Y0042658D01*
X0101575Y0046008D01*
X0101575Y0043607D02*
X0104425Y0043607D01*
X0104425Y0044556D02*
X0101575Y0044556D01*
X0101575Y0045505D02*
X0104425Y0045505D01*
X0104425Y0053508D02*
X0101575Y0053508D01*
X0104425Y0053508D02*
X0104425Y0050158D01*
X0101575Y0050158D01*
X0101575Y0053508D01*
X0101575Y0051107D02*
X0104425Y0051107D01*
X0104425Y0052056D02*
X0101575Y0052056D01*
X0101575Y0053005D02*
X0104425Y0053005D01*
X0107575Y0053508D02*
X0110425Y0053508D01*
X0110425Y0050158D01*
X0107575Y0050158D01*
X0107575Y0053508D01*
X0107575Y0051107D02*
X0110425Y0051107D01*
X0110425Y0052056D02*
X0107575Y0052056D01*
X0107575Y0053005D02*
X0110425Y0053005D01*
D15*
X0172500Y0050333D03*
X0172500Y0039333D03*
X0189500Y0039333D03*
X0189500Y0050333D03*
D16*
X0188500Y0019333D02*
X0188500Y0013333D01*
X0178500Y0013333D02*
X0178500Y0019333D01*
X0168500Y0019333D02*
X0168500Y0013333D01*
X0158500Y0013333D02*
X0158500Y0019333D01*
X0198500Y0019333D02*
X0198500Y0013333D01*
X0208500Y0013333D02*
X0208500Y0019333D01*
X0218500Y0019333D02*
X0218500Y0013333D01*
X0228500Y0013333D02*
X0228500Y0019333D01*
X0238500Y0019333D02*
X0238500Y0013333D01*
X0248500Y0013333D02*
X0248500Y0019333D01*
D17*
X0235302Y0041080D02*
X0222698Y0041080D01*
X0235302Y0041080D02*
X0235302Y0038712D01*
X0222698Y0038712D01*
X0222698Y0041080D01*
X0235302Y0041080D01*
X0235302Y0048954D02*
X0222698Y0048954D01*
X0235302Y0048954D02*
X0235302Y0046586D01*
X0222698Y0046586D01*
X0222698Y0048954D01*
X0235302Y0048954D01*
D18*
X0254131Y0059388D02*
X0260043Y0059388D01*
X0260043Y0055050D01*
X0254131Y0055050D01*
X0254131Y0059388D01*
X0254131Y0059386D02*
X0260043Y0059386D01*
X0260043Y0032617D02*
X0254131Y0032617D01*
X0260043Y0032617D02*
X0260043Y0028279D01*
X0254131Y0028279D01*
X0254131Y0032617D01*
X0254131Y0032615D02*
X0260043Y0032615D01*
D19*
X0017500Y0016633D02*
X0013500Y0016633D01*
X0013500Y0042033D02*
X0017500Y0042033D01*
D20*
X0029841Y0035026D02*
X0029841Y0033876D01*
X0024191Y0033876D01*
X0024191Y0035026D01*
X0029841Y0035026D01*
X0029841Y0035025D02*
X0024191Y0035025D01*
X0029841Y0032467D02*
X0029841Y0031317D01*
X0024191Y0031317D01*
X0024191Y0032467D01*
X0029841Y0032467D01*
X0029841Y0032466D02*
X0024191Y0032466D01*
X0029841Y0029908D02*
X0029841Y0028758D01*
X0024191Y0028758D01*
X0024191Y0029908D01*
X0029841Y0029908D01*
X0029841Y0029907D02*
X0024191Y0029907D01*
X0029841Y0027349D02*
X0029841Y0026199D01*
X0024191Y0026199D01*
X0024191Y0027349D01*
X0029841Y0027349D01*
X0029841Y0027348D02*
X0024191Y0027348D01*
X0029841Y0024790D02*
X0029841Y0023640D01*
X0024191Y0023640D01*
X0024191Y0024790D01*
X0029841Y0024790D01*
X0029841Y0024789D02*
X0024191Y0024789D01*
D21*
X0024744Y0013974D02*
X0027894Y0013974D01*
X0024744Y0013974D02*
X0024744Y0017922D01*
X0027894Y0017922D01*
X0027894Y0013974D01*
X0027894Y0017123D02*
X0024744Y0017123D01*
X0024744Y0040745D02*
X0027894Y0040745D01*
X0024744Y0040745D02*
X0024744Y0044693D01*
X0027894Y0044693D01*
X0027894Y0040745D01*
X0027894Y0043894D02*
X0024744Y0043894D01*
X0083925Y0047758D02*
X0083925Y0054908D01*
X0087075Y0054908D01*
X0087075Y0047758D01*
X0083925Y0047758D01*
X0083925Y0050907D02*
X0087075Y0050907D01*
X0087075Y0054056D02*
X0083925Y0054056D01*
D22*
X0012543Y0034947D02*
X0012543Y0031593D01*
X0012543Y0034947D02*
X0015897Y0034947D01*
X0015897Y0031593D01*
X0012543Y0031593D01*
X0012543Y0034945D02*
X0015897Y0034945D01*
X0012543Y0027073D02*
X0012543Y0023719D01*
X0012543Y0027073D02*
X0015897Y0027073D01*
X0015897Y0023719D01*
X0012543Y0023719D01*
X0012543Y0027071D02*
X0015897Y0027071D01*
D23*
X0025441Y0021459D03*
X0025441Y0037207D03*
D24*
X0058500Y0041054D03*
X0058500Y0018613D03*
D25*
X0204500Y0047833D03*
X0211500Y0047833D03*
X0208000Y0055833D03*
D26*
X0091065Y0054286D03*
X0091065Y0052318D03*
X0091065Y0050349D03*
X0091065Y0048381D03*
X0079935Y0048381D03*
X0079935Y0050349D03*
X0079935Y0052318D03*
X0079935Y0054286D03*
D27*
X0107881Y0034073D03*
X0107881Y0026593D03*
X0118119Y0026593D03*
X0118119Y0030333D03*
X0118119Y0034073D03*
D28*
X0232047Y0082003D03*
D29*
X0222047Y0082003D03*
X0212047Y0082003D03*
X0202047Y0082003D03*
X0192047Y0082003D03*
X0182047Y0082003D03*
X0172047Y0082003D03*
X0162047Y0082003D03*
X0152047Y0082003D03*
X0142047Y0082003D03*
X0132047Y0082003D03*
X0122047Y0082003D03*
X0112047Y0082003D03*
X0102047Y0082003D03*
X0092047Y0082003D03*
X0082047Y0082003D03*
X0072047Y0082003D03*
X0062047Y0082003D03*
X0052047Y0082003D03*
X0042047Y0082003D03*
X0042047Y0072003D03*
X0052047Y0072003D03*
X0062047Y0072003D03*
X0072047Y0072003D03*
X0082047Y0072003D03*
X0092047Y0072003D03*
X0102047Y0072003D03*
X0112047Y0072003D03*
X0122047Y0072003D03*
X0132047Y0072003D03*
X0142047Y0072003D03*
X0152047Y0072003D03*
X0162047Y0072003D03*
X0172047Y0072003D03*
X0182047Y0072003D03*
X0192047Y0072003D03*
X0202047Y0072003D03*
X0212047Y0072003D03*
X0222047Y0072003D03*
X0232047Y0072003D03*
D30*
X0251220Y0077003D03*
X0251220Y0167554D03*
X0022874Y0167554D03*
X0022874Y0077003D03*
D31*
X0045500Y0047333D03*
X0039000Y0032333D03*
X0075500Y0052333D03*
X0089000Y0041333D03*
X0114500Y0048333D03*
X0135500Y0047333D03*
X0160500Y0036833D03*
X0164500Y0040833D03*
X0193500Y0030333D03*
X0219500Y0030333D03*
X0241500Y0039833D03*
X0241000Y0047833D03*
X0224000Y0059333D03*
X0198500Y0055833D03*
X0187500Y0065833D03*
D32*
X0039000Y0059833D03*
X0033000Y0039333D03*
M02*
