G75*
%MOIN*%
%OFA0B0*%
%FSLAX25Y25*%
%IPPOS*%
%LPD*%
%AMOC8*
5,1,8,0,0,1.08239X$1,22.5*
%
%ADD10C,0.00100*%
D10*
X0011600Y0016633D02*
X0011602Y0016757D01*
X0011608Y0016882D01*
X0011618Y0017006D01*
X0011632Y0017129D01*
X0011649Y0017252D01*
X0011671Y0017375D01*
X0011697Y0017497D01*
X0011726Y0017617D01*
X0011760Y0017737D01*
X0011797Y0017856D01*
X0011838Y0017973D01*
X0011882Y0018089D01*
X0011930Y0018204D01*
X0011982Y0018317D01*
X0012038Y0018428D01*
X0012097Y0018538D01*
X0012159Y0018645D01*
X0012225Y0018751D01*
X0012294Y0018854D01*
X0012367Y0018955D01*
X0012443Y0019054D01*
X0012521Y0019150D01*
X0012603Y0019244D01*
X0012688Y0019335D01*
X0012775Y0019424D01*
X0012866Y0019509D01*
X0012959Y0019592D01*
X0013055Y0019671D01*
X0013153Y0019747D01*
X0013253Y0019821D01*
X0013356Y0019891D01*
X0013461Y0019957D01*
X0013568Y0020021D01*
X0013677Y0020081D01*
X0013788Y0020137D01*
X0013900Y0020190D01*
X0014015Y0020239D01*
X0014130Y0020285D01*
X0014248Y0020326D01*
X0014366Y0020365D01*
X0014486Y0020399D01*
X0014606Y0020429D01*
X0014728Y0020456D01*
X0014850Y0020478D01*
X0014973Y0020497D01*
X0015096Y0020512D01*
X0015220Y0020523D01*
X0015345Y0020530D01*
X0015469Y0020533D01*
X0015593Y0020532D01*
X0015718Y0020527D01*
X0015842Y0020518D01*
X0015965Y0020505D01*
X0016089Y0020488D01*
X0016211Y0020468D01*
X0016333Y0020443D01*
X0016454Y0020414D01*
X0016574Y0020382D01*
X0016693Y0020346D01*
X0016811Y0020306D01*
X0016928Y0020262D01*
X0017043Y0020215D01*
X0017156Y0020164D01*
X0017268Y0020109D01*
X0017378Y0020051D01*
X0017486Y0019990D01*
X0017592Y0019925D01*
X0017696Y0019856D01*
X0017797Y0019785D01*
X0017897Y0019710D01*
X0017994Y0019632D01*
X0018088Y0019551D01*
X0018180Y0019467D01*
X0018269Y0019380D01*
X0018355Y0019290D01*
X0018438Y0019198D01*
X0018518Y0019103D01*
X0018596Y0019005D01*
X0018670Y0018905D01*
X0018741Y0018803D01*
X0018808Y0018699D01*
X0018872Y0018592D01*
X0018933Y0018483D01*
X0018990Y0018373D01*
X0019044Y0018261D01*
X0019094Y0018147D01*
X0019141Y0018032D01*
X0019183Y0017915D01*
X0019222Y0017797D01*
X0019258Y0017677D01*
X0019289Y0017557D01*
X0019316Y0017436D01*
X0019340Y0017314D01*
X0019360Y0017191D01*
X0019376Y0017067D01*
X0019388Y0016944D01*
X0019396Y0016820D01*
X0019400Y0016695D01*
X0019400Y0016571D01*
X0019396Y0016446D01*
X0019388Y0016322D01*
X0019376Y0016199D01*
X0019360Y0016075D01*
X0019340Y0015952D01*
X0019316Y0015830D01*
X0019289Y0015709D01*
X0019258Y0015589D01*
X0019222Y0015469D01*
X0019183Y0015351D01*
X0019141Y0015234D01*
X0019094Y0015119D01*
X0019044Y0015005D01*
X0018990Y0014893D01*
X0018933Y0014783D01*
X0018872Y0014674D01*
X0018808Y0014567D01*
X0018741Y0014463D01*
X0018670Y0014361D01*
X0018596Y0014261D01*
X0018518Y0014163D01*
X0018438Y0014068D01*
X0018355Y0013976D01*
X0018269Y0013886D01*
X0018180Y0013799D01*
X0018088Y0013715D01*
X0017994Y0013634D01*
X0017897Y0013556D01*
X0017797Y0013481D01*
X0017696Y0013410D01*
X0017592Y0013341D01*
X0017486Y0013276D01*
X0017378Y0013215D01*
X0017268Y0013157D01*
X0017156Y0013102D01*
X0017043Y0013051D01*
X0016928Y0013004D01*
X0016811Y0012960D01*
X0016693Y0012920D01*
X0016574Y0012884D01*
X0016454Y0012852D01*
X0016333Y0012823D01*
X0016211Y0012798D01*
X0016089Y0012778D01*
X0015965Y0012761D01*
X0015842Y0012748D01*
X0015718Y0012739D01*
X0015593Y0012734D01*
X0015469Y0012733D01*
X0015345Y0012736D01*
X0015220Y0012743D01*
X0015096Y0012754D01*
X0014973Y0012769D01*
X0014850Y0012788D01*
X0014728Y0012810D01*
X0014606Y0012837D01*
X0014486Y0012867D01*
X0014366Y0012901D01*
X0014248Y0012940D01*
X0014130Y0012981D01*
X0014015Y0013027D01*
X0013900Y0013076D01*
X0013788Y0013129D01*
X0013677Y0013185D01*
X0013568Y0013245D01*
X0013461Y0013309D01*
X0013356Y0013375D01*
X0013253Y0013445D01*
X0013153Y0013519D01*
X0013055Y0013595D01*
X0012959Y0013674D01*
X0012866Y0013757D01*
X0012775Y0013842D01*
X0012688Y0013931D01*
X0012603Y0014022D01*
X0012521Y0014116D01*
X0012443Y0014212D01*
X0012367Y0014311D01*
X0012294Y0014412D01*
X0012225Y0014515D01*
X0012159Y0014621D01*
X0012097Y0014728D01*
X0012038Y0014838D01*
X0011982Y0014949D01*
X0011930Y0015062D01*
X0011882Y0015177D01*
X0011838Y0015293D01*
X0011797Y0015410D01*
X0011760Y0015529D01*
X0011726Y0015649D01*
X0011697Y0015769D01*
X0011671Y0015891D01*
X0011649Y0016014D01*
X0011632Y0016137D01*
X0011618Y0016260D01*
X0011608Y0016384D01*
X0011602Y0016509D01*
X0011600Y0016633D01*
X0011500Y0012633D02*
X0019500Y0020633D01*
X0021541Y0021459D02*
X0021543Y0021583D01*
X0021549Y0021708D01*
X0021559Y0021832D01*
X0021573Y0021955D01*
X0021590Y0022078D01*
X0021612Y0022201D01*
X0021638Y0022323D01*
X0021667Y0022443D01*
X0021701Y0022563D01*
X0021738Y0022682D01*
X0021779Y0022799D01*
X0021823Y0022915D01*
X0021871Y0023030D01*
X0021923Y0023143D01*
X0021979Y0023254D01*
X0022038Y0023364D01*
X0022100Y0023471D01*
X0022166Y0023577D01*
X0022235Y0023680D01*
X0022308Y0023781D01*
X0022384Y0023880D01*
X0022462Y0023976D01*
X0022544Y0024070D01*
X0022629Y0024161D01*
X0022716Y0024250D01*
X0022807Y0024335D01*
X0022900Y0024418D01*
X0022996Y0024497D01*
X0023094Y0024573D01*
X0023194Y0024647D01*
X0023297Y0024717D01*
X0023402Y0024783D01*
X0023509Y0024847D01*
X0023618Y0024907D01*
X0023729Y0024963D01*
X0023841Y0025016D01*
X0023956Y0025065D01*
X0024071Y0025111D01*
X0024189Y0025152D01*
X0024307Y0025191D01*
X0024427Y0025225D01*
X0024547Y0025255D01*
X0024669Y0025282D01*
X0024791Y0025304D01*
X0024914Y0025323D01*
X0025037Y0025338D01*
X0025161Y0025349D01*
X0025286Y0025356D01*
X0025410Y0025359D01*
X0025534Y0025358D01*
X0025659Y0025353D01*
X0025783Y0025344D01*
X0025906Y0025331D01*
X0026030Y0025314D01*
X0026152Y0025294D01*
X0026274Y0025269D01*
X0026395Y0025240D01*
X0026515Y0025208D01*
X0026634Y0025172D01*
X0026752Y0025132D01*
X0026869Y0025088D01*
X0026984Y0025041D01*
X0027097Y0024990D01*
X0027209Y0024935D01*
X0027319Y0024877D01*
X0027427Y0024816D01*
X0027533Y0024751D01*
X0027637Y0024682D01*
X0027738Y0024611D01*
X0027838Y0024536D01*
X0027935Y0024458D01*
X0028029Y0024377D01*
X0028121Y0024293D01*
X0028210Y0024206D01*
X0028296Y0024116D01*
X0028379Y0024024D01*
X0028459Y0023929D01*
X0028537Y0023831D01*
X0028611Y0023731D01*
X0028682Y0023629D01*
X0028749Y0023525D01*
X0028813Y0023418D01*
X0028874Y0023309D01*
X0028931Y0023199D01*
X0028985Y0023087D01*
X0029035Y0022973D01*
X0029082Y0022858D01*
X0029124Y0022741D01*
X0029163Y0022623D01*
X0029199Y0022503D01*
X0029230Y0022383D01*
X0029257Y0022262D01*
X0029281Y0022140D01*
X0029301Y0022017D01*
X0029317Y0021893D01*
X0029329Y0021770D01*
X0029337Y0021646D01*
X0029341Y0021521D01*
X0029341Y0021397D01*
X0029337Y0021272D01*
X0029329Y0021148D01*
X0029317Y0021025D01*
X0029301Y0020901D01*
X0029281Y0020778D01*
X0029257Y0020656D01*
X0029230Y0020535D01*
X0029199Y0020415D01*
X0029163Y0020295D01*
X0029124Y0020177D01*
X0029082Y0020060D01*
X0029035Y0019945D01*
X0028985Y0019831D01*
X0028931Y0019719D01*
X0028874Y0019609D01*
X0028813Y0019500D01*
X0028749Y0019393D01*
X0028682Y0019289D01*
X0028611Y0019187D01*
X0028537Y0019087D01*
X0028459Y0018989D01*
X0028379Y0018894D01*
X0028296Y0018802D01*
X0028210Y0018712D01*
X0028121Y0018625D01*
X0028029Y0018541D01*
X0027935Y0018460D01*
X0027838Y0018382D01*
X0027738Y0018307D01*
X0027637Y0018236D01*
X0027533Y0018167D01*
X0027427Y0018102D01*
X0027319Y0018041D01*
X0027209Y0017983D01*
X0027097Y0017928D01*
X0026984Y0017877D01*
X0026869Y0017830D01*
X0026752Y0017786D01*
X0026634Y0017746D01*
X0026515Y0017710D01*
X0026395Y0017678D01*
X0026274Y0017649D01*
X0026152Y0017624D01*
X0026030Y0017604D01*
X0025906Y0017587D01*
X0025783Y0017574D01*
X0025659Y0017565D01*
X0025534Y0017560D01*
X0025410Y0017559D01*
X0025286Y0017562D01*
X0025161Y0017569D01*
X0025037Y0017580D01*
X0024914Y0017595D01*
X0024791Y0017614D01*
X0024669Y0017636D01*
X0024547Y0017663D01*
X0024427Y0017693D01*
X0024307Y0017727D01*
X0024189Y0017766D01*
X0024071Y0017807D01*
X0023956Y0017853D01*
X0023841Y0017902D01*
X0023729Y0017955D01*
X0023618Y0018011D01*
X0023509Y0018071D01*
X0023402Y0018135D01*
X0023297Y0018201D01*
X0023194Y0018271D01*
X0023094Y0018345D01*
X0022996Y0018421D01*
X0022900Y0018500D01*
X0022807Y0018583D01*
X0022716Y0018668D01*
X0022629Y0018757D01*
X0022544Y0018848D01*
X0022462Y0018942D01*
X0022384Y0019038D01*
X0022308Y0019137D01*
X0022235Y0019238D01*
X0022166Y0019341D01*
X0022100Y0019447D01*
X0022038Y0019554D01*
X0021979Y0019664D01*
X0021923Y0019775D01*
X0021871Y0019888D01*
X0021823Y0020003D01*
X0021779Y0020119D01*
X0021738Y0020236D01*
X0021701Y0020355D01*
X0021667Y0020475D01*
X0021638Y0020595D01*
X0021612Y0020717D01*
X0021590Y0020840D01*
X0021573Y0020963D01*
X0021559Y0021086D01*
X0021549Y0021210D01*
X0021543Y0021335D01*
X0021541Y0021459D01*
X0021441Y0017459D02*
X0029441Y0025459D01*
X0035000Y0032333D02*
X0043000Y0032333D01*
X0039000Y0028333D02*
X0039000Y0036333D01*
X0037000Y0035333D02*
X0029000Y0043333D01*
X0029000Y0035333D02*
X0037000Y0043333D01*
X0041500Y0047333D02*
X0049500Y0047333D01*
X0045500Y0043333D02*
X0045500Y0051333D01*
X0043000Y0055833D02*
X0035000Y0063833D01*
X0035000Y0055833D02*
X0043000Y0063833D01*
X0038047Y0068003D02*
X0046047Y0076003D01*
X0046047Y0068003D01*
X0038047Y0076003D01*
X0038047Y0068003D01*
X0048047Y0068003D02*
X0056047Y0076003D01*
X0056047Y0068003D01*
X0048047Y0076003D01*
X0048047Y0068003D01*
X0058047Y0068003D02*
X0066047Y0076003D01*
X0066047Y0068003D01*
X0058047Y0076003D01*
X0058047Y0068003D01*
X0068047Y0068003D02*
X0076047Y0076003D01*
X0076047Y0068003D01*
X0068047Y0076003D01*
X0068047Y0068003D01*
X0078047Y0068003D02*
X0086047Y0076003D01*
X0086047Y0068003D01*
X0078047Y0076003D01*
X0078047Y0068003D01*
X0088047Y0068003D02*
X0096047Y0076003D01*
X0096047Y0068003D01*
X0088047Y0076003D01*
X0088047Y0068003D01*
X0098047Y0068003D02*
X0106047Y0076003D01*
X0106047Y0068003D01*
X0098047Y0076003D01*
X0098047Y0068003D01*
X0108047Y0068003D02*
X0116047Y0076003D01*
X0116047Y0068003D01*
X0108047Y0076003D01*
X0108047Y0068003D01*
X0118047Y0068003D02*
X0126047Y0076003D01*
X0126047Y0068003D01*
X0118047Y0076003D01*
X0118047Y0068003D01*
X0128047Y0068003D02*
X0136047Y0076003D01*
X0136047Y0068003D01*
X0128047Y0076003D01*
X0128047Y0068003D01*
X0138047Y0068003D02*
X0146047Y0076003D01*
X0146047Y0068003D01*
X0138047Y0076003D01*
X0138047Y0068003D01*
X0148047Y0068003D02*
X0156047Y0076003D01*
X0156047Y0068003D01*
X0148047Y0076003D01*
X0148047Y0068003D01*
X0158047Y0068003D02*
X0166047Y0076003D01*
X0166047Y0068003D01*
X0158047Y0076003D01*
X0158047Y0068003D01*
X0168047Y0068003D02*
X0176047Y0076003D01*
X0176047Y0068003D01*
X0168047Y0076003D01*
X0168047Y0068003D01*
X0178047Y0068003D02*
X0186047Y0076003D01*
X0186047Y0068003D01*
X0178047Y0076003D01*
X0178047Y0068003D01*
X0183500Y0065833D02*
X0191500Y0065833D01*
X0187500Y0061833D02*
X0187500Y0069833D01*
X0188047Y0068003D02*
X0196047Y0076003D01*
X0196047Y0068003D01*
X0188047Y0076003D01*
X0188047Y0068003D01*
X0198047Y0068003D02*
X0206047Y0076003D01*
X0206047Y0068003D01*
X0198047Y0076003D01*
X0198047Y0068003D01*
X0208047Y0068003D02*
X0216047Y0076003D01*
X0216047Y0068003D01*
X0208047Y0076003D01*
X0208047Y0068003D01*
X0218047Y0068003D02*
X0226047Y0076003D01*
X0226047Y0068003D01*
X0218047Y0076003D01*
X0218047Y0068003D01*
X0220000Y0059333D02*
X0228000Y0059333D01*
X0224000Y0055333D02*
X0224000Y0063333D01*
X0228047Y0068003D02*
X0236047Y0076003D01*
X0236047Y0068003D01*
X0228047Y0076003D01*
X0228047Y0068003D01*
X0228047Y0078003D02*
X0236047Y0086003D01*
X0236047Y0078003D01*
X0228047Y0086003D01*
X0228047Y0078003D01*
X0226047Y0086003D02*
X0218047Y0078003D01*
X0226047Y0078003D02*
X0226047Y0086003D01*
X0226047Y0078003D02*
X0218047Y0086003D01*
X0218047Y0078003D01*
X0216047Y0086003D02*
X0208047Y0078003D01*
X0216047Y0078003D02*
X0216047Y0086003D01*
X0216047Y0078003D02*
X0208047Y0086003D01*
X0208047Y0078003D01*
X0206047Y0086003D02*
X0198047Y0078003D01*
X0206047Y0078003D02*
X0206047Y0086003D01*
X0206047Y0078003D02*
X0198047Y0086003D01*
X0198047Y0078003D01*
X0196047Y0086003D02*
X0188047Y0078003D01*
X0196047Y0078003D02*
X0196047Y0086003D01*
X0196047Y0078003D02*
X0188047Y0086003D01*
X0188047Y0078003D01*
X0186047Y0086003D02*
X0178047Y0078003D01*
X0186047Y0078003D02*
X0186047Y0086003D01*
X0186047Y0078003D02*
X0178047Y0086003D01*
X0178047Y0078003D01*
X0176047Y0086003D02*
X0168047Y0078003D01*
X0176047Y0078003D02*
X0176047Y0086003D01*
X0176047Y0078003D02*
X0168047Y0086003D01*
X0168047Y0078003D01*
X0166047Y0086003D02*
X0158047Y0078003D01*
X0166047Y0078003D02*
X0166047Y0086003D01*
X0166047Y0078003D02*
X0158047Y0086003D01*
X0158047Y0078003D01*
X0156047Y0086003D02*
X0148047Y0078003D01*
X0156047Y0078003D02*
X0156047Y0086003D01*
X0156047Y0078003D02*
X0148047Y0086003D01*
X0148047Y0078003D01*
X0146047Y0086003D02*
X0138047Y0078003D01*
X0146047Y0078003D02*
X0146047Y0086003D01*
X0146047Y0078003D02*
X0138047Y0086003D01*
X0138047Y0078003D01*
X0136047Y0086003D02*
X0128047Y0078003D01*
X0136047Y0078003D02*
X0136047Y0086003D01*
X0136047Y0078003D02*
X0128047Y0086003D01*
X0128047Y0078003D01*
X0126047Y0086003D02*
X0118047Y0078003D01*
X0126047Y0078003D02*
X0126047Y0086003D01*
X0126047Y0078003D02*
X0118047Y0086003D01*
X0118047Y0078003D01*
X0116047Y0086003D02*
X0108047Y0078003D01*
X0116047Y0078003D02*
X0116047Y0086003D01*
X0116047Y0078003D02*
X0108047Y0086003D01*
X0108047Y0078003D01*
X0106047Y0086003D02*
X0098047Y0078003D01*
X0106047Y0078003D02*
X0106047Y0086003D01*
X0106047Y0078003D02*
X0098047Y0086003D01*
X0098047Y0078003D01*
X0096047Y0086003D02*
X0088047Y0078003D01*
X0096047Y0078003D02*
X0096047Y0086003D01*
X0096047Y0078003D02*
X0088047Y0086003D01*
X0088047Y0078003D01*
X0086047Y0086003D02*
X0078047Y0078003D01*
X0086047Y0078003D02*
X0086047Y0086003D01*
X0086047Y0078003D02*
X0078047Y0086003D01*
X0078047Y0078003D01*
X0076047Y0086003D02*
X0068047Y0078003D01*
X0076047Y0078003D02*
X0076047Y0086003D01*
X0076047Y0078003D02*
X0068047Y0086003D01*
X0068047Y0078003D01*
X0066047Y0086003D02*
X0058047Y0078003D01*
X0066047Y0078003D02*
X0066047Y0086003D01*
X0066047Y0078003D02*
X0058047Y0086003D01*
X0058047Y0078003D01*
X0056047Y0086003D02*
X0048047Y0078003D01*
X0056047Y0078003D02*
X0056047Y0086003D01*
X0056047Y0078003D02*
X0048047Y0086003D01*
X0048047Y0078003D01*
X0046047Y0086003D02*
X0038047Y0078003D01*
X0046047Y0078003D02*
X0046047Y0086003D01*
X0046047Y0078003D02*
X0038047Y0086003D01*
X0038047Y0078003D01*
X0018974Y0077003D02*
X0018976Y0077127D01*
X0018982Y0077252D01*
X0018992Y0077376D01*
X0019006Y0077499D01*
X0019023Y0077622D01*
X0019045Y0077745D01*
X0019071Y0077867D01*
X0019100Y0077987D01*
X0019134Y0078107D01*
X0019171Y0078226D01*
X0019212Y0078343D01*
X0019256Y0078459D01*
X0019304Y0078574D01*
X0019356Y0078687D01*
X0019412Y0078798D01*
X0019471Y0078908D01*
X0019533Y0079015D01*
X0019599Y0079121D01*
X0019668Y0079224D01*
X0019741Y0079325D01*
X0019817Y0079424D01*
X0019895Y0079520D01*
X0019977Y0079614D01*
X0020062Y0079705D01*
X0020149Y0079794D01*
X0020240Y0079879D01*
X0020333Y0079962D01*
X0020429Y0080041D01*
X0020527Y0080117D01*
X0020627Y0080191D01*
X0020730Y0080261D01*
X0020835Y0080327D01*
X0020942Y0080391D01*
X0021051Y0080451D01*
X0021162Y0080507D01*
X0021274Y0080560D01*
X0021389Y0080609D01*
X0021504Y0080655D01*
X0021622Y0080696D01*
X0021740Y0080735D01*
X0021860Y0080769D01*
X0021980Y0080799D01*
X0022102Y0080826D01*
X0022224Y0080848D01*
X0022347Y0080867D01*
X0022470Y0080882D01*
X0022594Y0080893D01*
X0022719Y0080900D01*
X0022843Y0080903D01*
X0022967Y0080902D01*
X0023092Y0080897D01*
X0023216Y0080888D01*
X0023339Y0080875D01*
X0023463Y0080858D01*
X0023585Y0080838D01*
X0023707Y0080813D01*
X0023828Y0080784D01*
X0023948Y0080752D01*
X0024067Y0080716D01*
X0024185Y0080676D01*
X0024302Y0080632D01*
X0024417Y0080585D01*
X0024530Y0080534D01*
X0024642Y0080479D01*
X0024752Y0080421D01*
X0024860Y0080360D01*
X0024966Y0080295D01*
X0025070Y0080226D01*
X0025171Y0080155D01*
X0025271Y0080080D01*
X0025368Y0080002D01*
X0025462Y0079921D01*
X0025554Y0079837D01*
X0025643Y0079750D01*
X0025729Y0079660D01*
X0025812Y0079568D01*
X0025892Y0079473D01*
X0025970Y0079375D01*
X0026044Y0079275D01*
X0026115Y0079173D01*
X0026182Y0079069D01*
X0026246Y0078962D01*
X0026307Y0078853D01*
X0026364Y0078743D01*
X0026418Y0078631D01*
X0026468Y0078517D01*
X0026515Y0078402D01*
X0026557Y0078285D01*
X0026596Y0078167D01*
X0026632Y0078047D01*
X0026663Y0077927D01*
X0026690Y0077806D01*
X0026714Y0077684D01*
X0026734Y0077561D01*
X0026750Y0077437D01*
X0026762Y0077314D01*
X0026770Y0077190D01*
X0026774Y0077065D01*
X0026774Y0076941D01*
X0026770Y0076816D01*
X0026762Y0076692D01*
X0026750Y0076569D01*
X0026734Y0076445D01*
X0026714Y0076322D01*
X0026690Y0076200D01*
X0026663Y0076079D01*
X0026632Y0075959D01*
X0026596Y0075839D01*
X0026557Y0075721D01*
X0026515Y0075604D01*
X0026468Y0075489D01*
X0026418Y0075375D01*
X0026364Y0075263D01*
X0026307Y0075153D01*
X0026246Y0075044D01*
X0026182Y0074937D01*
X0026115Y0074833D01*
X0026044Y0074731D01*
X0025970Y0074631D01*
X0025892Y0074533D01*
X0025812Y0074438D01*
X0025729Y0074346D01*
X0025643Y0074256D01*
X0025554Y0074169D01*
X0025462Y0074085D01*
X0025368Y0074004D01*
X0025271Y0073926D01*
X0025171Y0073851D01*
X0025070Y0073780D01*
X0024966Y0073711D01*
X0024860Y0073646D01*
X0024752Y0073585D01*
X0024642Y0073527D01*
X0024530Y0073472D01*
X0024417Y0073421D01*
X0024302Y0073374D01*
X0024185Y0073330D01*
X0024067Y0073290D01*
X0023948Y0073254D01*
X0023828Y0073222D01*
X0023707Y0073193D01*
X0023585Y0073168D01*
X0023463Y0073148D01*
X0023339Y0073131D01*
X0023216Y0073118D01*
X0023092Y0073109D01*
X0022967Y0073104D01*
X0022843Y0073103D01*
X0022719Y0073106D01*
X0022594Y0073113D01*
X0022470Y0073124D01*
X0022347Y0073139D01*
X0022224Y0073158D01*
X0022102Y0073180D01*
X0021980Y0073207D01*
X0021860Y0073237D01*
X0021740Y0073271D01*
X0021622Y0073310D01*
X0021504Y0073351D01*
X0021389Y0073397D01*
X0021274Y0073446D01*
X0021162Y0073499D01*
X0021051Y0073555D01*
X0020942Y0073615D01*
X0020835Y0073679D01*
X0020730Y0073745D01*
X0020627Y0073815D01*
X0020527Y0073889D01*
X0020429Y0073965D01*
X0020333Y0074044D01*
X0020240Y0074127D01*
X0020149Y0074212D01*
X0020062Y0074301D01*
X0019977Y0074392D01*
X0019895Y0074486D01*
X0019817Y0074582D01*
X0019741Y0074681D01*
X0019668Y0074782D01*
X0019599Y0074885D01*
X0019533Y0074991D01*
X0019471Y0075098D01*
X0019412Y0075208D01*
X0019356Y0075319D01*
X0019304Y0075432D01*
X0019256Y0075547D01*
X0019212Y0075663D01*
X0019171Y0075780D01*
X0019134Y0075899D01*
X0019100Y0076019D01*
X0019071Y0076139D01*
X0019045Y0076261D01*
X0019023Y0076384D01*
X0019006Y0076507D01*
X0018992Y0076630D01*
X0018982Y0076754D01*
X0018976Y0076879D01*
X0018974Y0077003D01*
X0018874Y0073003D02*
X0026874Y0081003D01*
X0071500Y0052333D02*
X0079500Y0052333D01*
X0075500Y0048333D02*
X0075500Y0056333D01*
X0085000Y0041333D02*
X0093000Y0041333D01*
X0089000Y0037333D02*
X0089000Y0045333D01*
X0110500Y0048333D02*
X0118500Y0048333D01*
X0114500Y0044333D02*
X0114500Y0052333D01*
X0131500Y0047333D02*
X0139500Y0047333D01*
X0135500Y0043333D02*
X0135500Y0051333D01*
X0156500Y0036833D02*
X0164500Y0036833D01*
X0160500Y0032833D02*
X0160500Y0040833D01*
X0168500Y0040833D01*
X0164500Y0036833D02*
X0164500Y0044833D01*
X0189500Y0030333D02*
X0197500Y0030333D01*
X0193500Y0026333D02*
X0193500Y0034333D01*
X0184600Y0016333D02*
X0184602Y0016457D01*
X0184608Y0016582D01*
X0184618Y0016706D01*
X0184632Y0016829D01*
X0184649Y0016952D01*
X0184671Y0017075D01*
X0184697Y0017197D01*
X0184726Y0017317D01*
X0184760Y0017437D01*
X0184797Y0017556D01*
X0184838Y0017673D01*
X0184882Y0017789D01*
X0184930Y0017904D01*
X0184982Y0018017D01*
X0185038Y0018128D01*
X0185097Y0018238D01*
X0185159Y0018345D01*
X0185225Y0018451D01*
X0185294Y0018554D01*
X0185367Y0018655D01*
X0185443Y0018754D01*
X0185521Y0018850D01*
X0185603Y0018944D01*
X0185688Y0019035D01*
X0185775Y0019124D01*
X0185866Y0019209D01*
X0185959Y0019292D01*
X0186055Y0019371D01*
X0186153Y0019447D01*
X0186253Y0019521D01*
X0186356Y0019591D01*
X0186461Y0019657D01*
X0186568Y0019721D01*
X0186677Y0019781D01*
X0186788Y0019837D01*
X0186900Y0019890D01*
X0187015Y0019939D01*
X0187130Y0019985D01*
X0187248Y0020026D01*
X0187366Y0020065D01*
X0187486Y0020099D01*
X0187606Y0020129D01*
X0187728Y0020156D01*
X0187850Y0020178D01*
X0187973Y0020197D01*
X0188096Y0020212D01*
X0188220Y0020223D01*
X0188345Y0020230D01*
X0188469Y0020233D01*
X0188593Y0020232D01*
X0188718Y0020227D01*
X0188842Y0020218D01*
X0188965Y0020205D01*
X0189089Y0020188D01*
X0189211Y0020168D01*
X0189333Y0020143D01*
X0189454Y0020114D01*
X0189574Y0020082D01*
X0189693Y0020046D01*
X0189811Y0020006D01*
X0189928Y0019962D01*
X0190043Y0019915D01*
X0190156Y0019864D01*
X0190268Y0019809D01*
X0190378Y0019751D01*
X0190486Y0019690D01*
X0190592Y0019625D01*
X0190696Y0019556D01*
X0190797Y0019485D01*
X0190897Y0019410D01*
X0190994Y0019332D01*
X0191088Y0019251D01*
X0191180Y0019167D01*
X0191269Y0019080D01*
X0191355Y0018990D01*
X0191438Y0018898D01*
X0191518Y0018803D01*
X0191596Y0018705D01*
X0191670Y0018605D01*
X0191741Y0018503D01*
X0191808Y0018399D01*
X0191872Y0018292D01*
X0191933Y0018183D01*
X0191990Y0018073D01*
X0192044Y0017961D01*
X0192094Y0017847D01*
X0192141Y0017732D01*
X0192183Y0017615D01*
X0192222Y0017497D01*
X0192258Y0017377D01*
X0192289Y0017257D01*
X0192316Y0017136D01*
X0192340Y0017014D01*
X0192360Y0016891D01*
X0192376Y0016767D01*
X0192388Y0016644D01*
X0192396Y0016520D01*
X0192400Y0016395D01*
X0192400Y0016271D01*
X0192396Y0016146D01*
X0192388Y0016022D01*
X0192376Y0015899D01*
X0192360Y0015775D01*
X0192340Y0015652D01*
X0192316Y0015530D01*
X0192289Y0015409D01*
X0192258Y0015289D01*
X0192222Y0015169D01*
X0192183Y0015051D01*
X0192141Y0014934D01*
X0192094Y0014819D01*
X0192044Y0014705D01*
X0191990Y0014593D01*
X0191933Y0014483D01*
X0191872Y0014374D01*
X0191808Y0014267D01*
X0191741Y0014163D01*
X0191670Y0014061D01*
X0191596Y0013961D01*
X0191518Y0013863D01*
X0191438Y0013768D01*
X0191355Y0013676D01*
X0191269Y0013586D01*
X0191180Y0013499D01*
X0191088Y0013415D01*
X0190994Y0013334D01*
X0190897Y0013256D01*
X0190797Y0013181D01*
X0190696Y0013110D01*
X0190592Y0013041D01*
X0190486Y0012976D01*
X0190378Y0012915D01*
X0190268Y0012857D01*
X0190156Y0012802D01*
X0190043Y0012751D01*
X0189928Y0012704D01*
X0189811Y0012660D01*
X0189693Y0012620D01*
X0189574Y0012584D01*
X0189454Y0012552D01*
X0189333Y0012523D01*
X0189211Y0012498D01*
X0189089Y0012478D01*
X0188965Y0012461D01*
X0188842Y0012448D01*
X0188718Y0012439D01*
X0188593Y0012434D01*
X0188469Y0012433D01*
X0188345Y0012436D01*
X0188220Y0012443D01*
X0188096Y0012454D01*
X0187973Y0012469D01*
X0187850Y0012488D01*
X0187728Y0012510D01*
X0187606Y0012537D01*
X0187486Y0012567D01*
X0187366Y0012601D01*
X0187248Y0012640D01*
X0187130Y0012681D01*
X0187015Y0012727D01*
X0186900Y0012776D01*
X0186788Y0012829D01*
X0186677Y0012885D01*
X0186568Y0012945D01*
X0186461Y0013009D01*
X0186356Y0013075D01*
X0186253Y0013145D01*
X0186153Y0013219D01*
X0186055Y0013295D01*
X0185959Y0013374D01*
X0185866Y0013457D01*
X0185775Y0013542D01*
X0185688Y0013631D01*
X0185603Y0013722D01*
X0185521Y0013816D01*
X0185443Y0013912D01*
X0185367Y0014011D01*
X0185294Y0014112D01*
X0185225Y0014215D01*
X0185159Y0014321D01*
X0185097Y0014428D01*
X0185038Y0014538D01*
X0184982Y0014649D01*
X0184930Y0014762D01*
X0184882Y0014877D01*
X0184838Y0014993D01*
X0184797Y0015110D01*
X0184760Y0015229D01*
X0184726Y0015349D01*
X0184697Y0015469D01*
X0184671Y0015591D01*
X0184649Y0015714D01*
X0184632Y0015837D01*
X0184618Y0015960D01*
X0184608Y0016084D01*
X0184602Y0016209D01*
X0184600Y0016333D01*
X0184500Y0012333D02*
X0192500Y0020333D01*
X0194600Y0016333D02*
X0194602Y0016457D01*
X0194608Y0016582D01*
X0194618Y0016706D01*
X0194632Y0016829D01*
X0194649Y0016952D01*
X0194671Y0017075D01*
X0194697Y0017197D01*
X0194726Y0017317D01*
X0194760Y0017437D01*
X0194797Y0017556D01*
X0194838Y0017673D01*
X0194882Y0017789D01*
X0194930Y0017904D01*
X0194982Y0018017D01*
X0195038Y0018128D01*
X0195097Y0018238D01*
X0195159Y0018345D01*
X0195225Y0018451D01*
X0195294Y0018554D01*
X0195367Y0018655D01*
X0195443Y0018754D01*
X0195521Y0018850D01*
X0195603Y0018944D01*
X0195688Y0019035D01*
X0195775Y0019124D01*
X0195866Y0019209D01*
X0195959Y0019292D01*
X0196055Y0019371D01*
X0196153Y0019447D01*
X0196253Y0019521D01*
X0196356Y0019591D01*
X0196461Y0019657D01*
X0196568Y0019721D01*
X0196677Y0019781D01*
X0196788Y0019837D01*
X0196900Y0019890D01*
X0197015Y0019939D01*
X0197130Y0019985D01*
X0197248Y0020026D01*
X0197366Y0020065D01*
X0197486Y0020099D01*
X0197606Y0020129D01*
X0197728Y0020156D01*
X0197850Y0020178D01*
X0197973Y0020197D01*
X0198096Y0020212D01*
X0198220Y0020223D01*
X0198345Y0020230D01*
X0198469Y0020233D01*
X0198593Y0020232D01*
X0198718Y0020227D01*
X0198842Y0020218D01*
X0198965Y0020205D01*
X0199089Y0020188D01*
X0199211Y0020168D01*
X0199333Y0020143D01*
X0199454Y0020114D01*
X0199574Y0020082D01*
X0199693Y0020046D01*
X0199811Y0020006D01*
X0199928Y0019962D01*
X0200043Y0019915D01*
X0200156Y0019864D01*
X0200268Y0019809D01*
X0200378Y0019751D01*
X0200486Y0019690D01*
X0200592Y0019625D01*
X0200696Y0019556D01*
X0200797Y0019485D01*
X0200897Y0019410D01*
X0200994Y0019332D01*
X0201088Y0019251D01*
X0201180Y0019167D01*
X0201269Y0019080D01*
X0201355Y0018990D01*
X0201438Y0018898D01*
X0201518Y0018803D01*
X0201596Y0018705D01*
X0201670Y0018605D01*
X0201741Y0018503D01*
X0201808Y0018399D01*
X0201872Y0018292D01*
X0201933Y0018183D01*
X0201990Y0018073D01*
X0202044Y0017961D01*
X0202094Y0017847D01*
X0202141Y0017732D01*
X0202183Y0017615D01*
X0202222Y0017497D01*
X0202258Y0017377D01*
X0202289Y0017257D01*
X0202316Y0017136D01*
X0202340Y0017014D01*
X0202360Y0016891D01*
X0202376Y0016767D01*
X0202388Y0016644D01*
X0202396Y0016520D01*
X0202400Y0016395D01*
X0202400Y0016271D01*
X0202396Y0016146D01*
X0202388Y0016022D01*
X0202376Y0015899D01*
X0202360Y0015775D01*
X0202340Y0015652D01*
X0202316Y0015530D01*
X0202289Y0015409D01*
X0202258Y0015289D01*
X0202222Y0015169D01*
X0202183Y0015051D01*
X0202141Y0014934D01*
X0202094Y0014819D01*
X0202044Y0014705D01*
X0201990Y0014593D01*
X0201933Y0014483D01*
X0201872Y0014374D01*
X0201808Y0014267D01*
X0201741Y0014163D01*
X0201670Y0014061D01*
X0201596Y0013961D01*
X0201518Y0013863D01*
X0201438Y0013768D01*
X0201355Y0013676D01*
X0201269Y0013586D01*
X0201180Y0013499D01*
X0201088Y0013415D01*
X0200994Y0013334D01*
X0200897Y0013256D01*
X0200797Y0013181D01*
X0200696Y0013110D01*
X0200592Y0013041D01*
X0200486Y0012976D01*
X0200378Y0012915D01*
X0200268Y0012857D01*
X0200156Y0012802D01*
X0200043Y0012751D01*
X0199928Y0012704D01*
X0199811Y0012660D01*
X0199693Y0012620D01*
X0199574Y0012584D01*
X0199454Y0012552D01*
X0199333Y0012523D01*
X0199211Y0012498D01*
X0199089Y0012478D01*
X0198965Y0012461D01*
X0198842Y0012448D01*
X0198718Y0012439D01*
X0198593Y0012434D01*
X0198469Y0012433D01*
X0198345Y0012436D01*
X0198220Y0012443D01*
X0198096Y0012454D01*
X0197973Y0012469D01*
X0197850Y0012488D01*
X0197728Y0012510D01*
X0197606Y0012537D01*
X0197486Y0012567D01*
X0197366Y0012601D01*
X0197248Y0012640D01*
X0197130Y0012681D01*
X0197015Y0012727D01*
X0196900Y0012776D01*
X0196788Y0012829D01*
X0196677Y0012885D01*
X0196568Y0012945D01*
X0196461Y0013009D01*
X0196356Y0013075D01*
X0196253Y0013145D01*
X0196153Y0013219D01*
X0196055Y0013295D01*
X0195959Y0013374D01*
X0195866Y0013457D01*
X0195775Y0013542D01*
X0195688Y0013631D01*
X0195603Y0013722D01*
X0195521Y0013816D01*
X0195443Y0013912D01*
X0195367Y0014011D01*
X0195294Y0014112D01*
X0195225Y0014215D01*
X0195159Y0014321D01*
X0195097Y0014428D01*
X0195038Y0014538D01*
X0194982Y0014649D01*
X0194930Y0014762D01*
X0194882Y0014877D01*
X0194838Y0014993D01*
X0194797Y0015110D01*
X0194760Y0015229D01*
X0194726Y0015349D01*
X0194697Y0015469D01*
X0194671Y0015591D01*
X0194649Y0015714D01*
X0194632Y0015837D01*
X0194618Y0015960D01*
X0194608Y0016084D01*
X0194602Y0016209D01*
X0194600Y0016333D01*
X0194500Y0012333D02*
X0202500Y0020333D01*
X0204600Y0016333D02*
X0204602Y0016457D01*
X0204608Y0016582D01*
X0204618Y0016706D01*
X0204632Y0016829D01*
X0204649Y0016952D01*
X0204671Y0017075D01*
X0204697Y0017197D01*
X0204726Y0017317D01*
X0204760Y0017437D01*
X0204797Y0017556D01*
X0204838Y0017673D01*
X0204882Y0017789D01*
X0204930Y0017904D01*
X0204982Y0018017D01*
X0205038Y0018128D01*
X0205097Y0018238D01*
X0205159Y0018345D01*
X0205225Y0018451D01*
X0205294Y0018554D01*
X0205367Y0018655D01*
X0205443Y0018754D01*
X0205521Y0018850D01*
X0205603Y0018944D01*
X0205688Y0019035D01*
X0205775Y0019124D01*
X0205866Y0019209D01*
X0205959Y0019292D01*
X0206055Y0019371D01*
X0206153Y0019447D01*
X0206253Y0019521D01*
X0206356Y0019591D01*
X0206461Y0019657D01*
X0206568Y0019721D01*
X0206677Y0019781D01*
X0206788Y0019837D01*
X0206900Y0019890D01*
X0207015Y0019939D01*
X0207130Y0019985D01*
X0207248Y0020026D01*
X0207366Y0020065D01*
X0207486Y0020099D01*
X0207606Y0020129D01*
X0207728Y0020156D01*
X0207850Y0020178D01*
X0207973Y0020197D01*
X0208096Y0020212D01*
X0208220Y0020223D01*
X0208345Y0020230D01*
X0208469Y0020233D01*
X0208593Y0020232D01*
X0208718Y0020227D01*
X0208842Y0020218D01*
X0208965Y0020205D01*
X0209089Y0020188D01*
X0209211Y0020168D01*
X0209333Y0020143D01*
X0209454Y0020114D01*
X0209574Y0020082D01*
X0209693Y0020046D01*
X0209811Y0020006D01*
X0209928Y0019962D01*
X0210043Y0019915D01*
X0210156Y0019864D01*
X0210268Y0019809D01*
X0210378Y0019751D01*
X0210486Y0019690D01*
X0210592Y0019625D01*
X0210696Y0019556D01*
X0210797Y0019485D01*
X0210897Y0019410D01*
X0210994Y0019332D01*
X0211088Y0019251D01*
X0211180Y0019167D01*
X0211269Y0019080D01*
X0211355Y0018990D01*
X0211438Y0018898D01*
X0211518Y0018803D01*
X0211596Y0018705D01*
X0211670Y0018605D01*
X0211741Y0018503D01*
X0211808Y0018399D01*
X0211872Y0018292D01*
X0211933Y0018183D01*
X0211990Y0018073D01*
X0212044Y0017961D01*
X0212094Y0017847D01*
X0212141Y0017732D01*
X0212183Y0017615D01*
X0212222Y0017497D01*
X0212258Y0017377D01*
X0212289Y0017257D01*
X0212316Y0017136D01*
X0212340Y0017014D01*
X0212360Y0016891D01*
X0212376Y0016767D01*
X0212388Y0016644D01*
X0212396Y0016520D01*
X0212400Y0016395D01*
X0212400Y0016271D01*
X0212396Y0016146D01*
X0212388Y0016022D01*
X0212376Y0015899D01*
X0212360Y0015775D01*
X0212340Y0015652D01*
X0212316Y0015530D01*
X0212289Y0015409D01*
X0212258Y0015289D01*
X0212222Y0015169D01*
X0212183Y0015051D01*
X0212141Y0014934D01*
X0212094Y0014819D01*
X0212044Y0014705D01*
X0211990Y0014593D01*
X0211933Y0014483D01*
X0211872Y0014374D01*
X0211808Y0014267D01*
X0211741Y0014163D01*
X0211670Y0014061D01*
X0211596Y0013961D01*
X0211518Y0013863D01*
X0211438Y0013768D01*
X0211355Y0013676D01*
X0211269Y0013586D01*
X0211180Y0013499D01*
X0211088Y0013415D01*
X0210994Y0013334D01*
X0210897Y0013256D01*
X0210797Y0013181D01*
X0210696Y0013110D01*
X0210592Y0013041D01*
X0210486Y0012976D01*
X0210378Y0012915D01*
X0210268Y0012857D01*
X0210156Y0012802D01*
X0210043Y0012751D01*
X0209928Y0012704D01*
X0209811Y0012660D01*
X0209693Y0012620D01*
X0209574Y0012584D01*
X0209454Y0012552D01*
X0209333Y0012523D01*
X0209211Y0012498D01*
X0209089Y0012478D01*
X0208965Y0012461D01*
X0208842Y0012448D01*
X0208718Y0012439D01*
X0208593Y0012434D01*
X0208469Y0012433D01*
X0208345Y0012436D01*
X0208220Y0012443D01*
X0208096Y0012454D01*
X0207973Y0012469D01*
X0207850Y0012488D01*
X0207728Y0012510D01*
X0207606Y0012537D01*
X0207486Y0012567D01*
X0207366Y0012601D01*
X0207248Y0012640D01*
X0207130Y0012681D01*
X0207015Y0012727D01*
X0206900Y0012776D01*
X0206788Y0012829D01*
X0206677Y0012885D01*
X0206568Y0012945D01*
X0206461Y0013009D01*
X0206356Y0013075D01*
X0206253Y0013145D01*
X0206153Y0013219D01*
X0206055Y0013295D01*
X0205959Y0013374D01*
X0205866Y0013457D01*
X0205775Y0013542D01*
X0205688Y0013631D01*
X0205603Y0013722D01*
X0205521Y0013816D01*
X0205443Y0013912D01*
X0205367Y0014011D01*
X0205294Y0014112D01*
X0205225Y0014215D01*
X0205159Y0014321D01*
X0205097Y0014428D01*
X0205038Y0014538D01*
X0204982Y0014649D01*
X0204930Y0014762D01*
X0204882Y0014877D01*
X0204838Y0014993D01*
X0204797Y0015110D01*
X0204760Y0015229D01*
X0204726Y0015349D01*
X0204697Y0015469D01*
X0204671Y0015591D01*
X0204649Y0015714D01*
X0204632Y0015837D01*
X0204618Y0015960D01*
X0204608Y0016084D01*
X0204602Y0016209D01*
X0204600Y0016333D01*
X0204500Y0012333D02*
X0212500Y0020333D01*
X0214600Y0016333D02*
X0214602Y0016457D01*
X0214608Y0016582D01*
X0214618Y0016706D01*
X0214632Y0016829D01*
X0214649Y0016952D01*
X0214671Y0017075D01*
X0214697Y0017197D01*
X0214726Y0017317D01*
X0214760Y0017437D01*
X0214797Y0017556D01*
X0214838Y0017673D01*
X0214882Y0017789D01*
X0214930Y0017904D01*
X0214982Y0018017D01*
X0215038Y0018128D01*
X0215097Y0018238D01*
X0215159Y0018345D01*
X0215225Y0018451D01*
X0215294Y0018554D01*
X0215367Y0018655D01*
X0215443Y0018754D01*
X0215521Y0018850D01*
X0215603Y0018944D01*
X0215688Y0019035D01*
X0215775Y0019124D01*
X0215866Y0019209D01*
X0215959Y0019292D01*
X0216055Y0019371D01*
X0216153Y0019447D01*
X0216253Y0019521D01*
X0216356Y0019591D01*
X0216461Y0019657D01*
X0216568Y0019721D01*
X0216677Y0019781D01*
X0216788Y0019837D01*
X0216900Y0019890D01*
X0217015Y0019939D01*
X0217130Y0019985D01*
X0217248Y0020026D01*
X0217366Y0020065D01*
X0217486Y0020099D01*
X0217606Y0020129D01*
X0217728Y0020156D01*
X0217850Y0020178D01*
X0217973Y0020197D01*
X0218096Y0020212D01*
X0218220Y0020223D01*
X0218345Y0020230D01*
X0218469Y0020233D01*
X0218593Y0020232D01*
X0218718Y0020227D01*
X0218842Y0020218D01*
X0218965Y0020205D01*
X0219089Y0020188D01*
X0219211Y0020168D01*
X0219333Y0020143D01*
X0219454Y0020114D01*
X0219574Y0020082D01*
X0219693Y0020046D01*
X0219811Y0020006D01*
X0219928Y0019962D01*
X0220043Y0019915D01*
X0220156Y0019864D01*
X0220268Y0019809D01*
X0220378Y0019751D01*
X0220486Y0019690D01*
X0220592Y0019625D01*
X0220696Y0019556D01*
X0220797Y0019485D01*
X0220897Y0019410D01*
X0220994Y0019332D01*
X0221088Y0019251D01*
X0221180Y0019167D01*
X0221269Y0019080D01*
X0221355Y0018990D01*
X0221438Y0018898D01*
X0221518Y0018803D01*
X0221596Y0018705D01*
X0221670Y0018605D01*
X0221741Y0018503D01*
X0221808Y0018399D01*
X0221872Y0018292D01*
X0221933Y0018183D01*
X0221990Y0018073D01*
X0222044Y0017961D01*
X0222094Y0017847D01*
X0222141Y0017732D01*
X0222183Y0017615D01*
X0222222Y0017497D01*
X0222258Y0017377D01*
X0222289Y0017257D01*
X0222316Y0017136D01*
X0222340Y0017014D01*
X0222360Y0016891D01*
X0222376Y0016767D01*
X0222388Y0016644D01*
X0222396Y0016520D01*
X0222400Y0016395D01*
X0222400Y0016271D01*
X0222396Y0016146D01*
X0222388Y0016022D01*
X0222376Y0015899D01*
X0222360Y0015775D01*
X0222340Y0015652D01*
X0222316Y0015530D01*
X0222289Y0015409D01*
X0222258Y0015289D01*
X0222222Y0015169D01*
X0222183Y0015051D01*
X0222141Y0014934D01*
X0222094Y0014819D01*
X0222044Y0014705D01*
X0221990Y0014593D01*
X0221933Y0014483D01*
X0221872Y0014374D01*
X0221808Y0014267D01*
X0221741Y0014163D01*
X0221670Y0014061D01*
X0221596Y0013961D01*
X0221518Y0013863D01*
X0221438Y0013768D01*
X0221355Y0013676D01*
X0221269Y0013586D01*
X0221180Y0013499D01*
X0221088Y0013415D01*
X0220994Y0013334D01*
X0220897Y0013256D01*
X0220797Y0013181D01*
X0220696Y0013110D01*
X0220592Y0013041D01*
X0220486Y0012976D01*
X0220378Y0012915D01*
X0220268Y0012857D01*
X0220156Y0012802D01*
X0220043Y0012751D01*
X0219928Y0012704D01*
X0219811Y0012660D01*
X0219693Y0012620D01*
X0219574Y0012584D01*
X0219454Y0012552D01*
X0219333Y0012523D01*
X0219211Y0012498D01*
X0219089Y0012478D01*
X0218965Y0012461D01*
X0218842Y0012448D01*
X0218718Y0012439D01*
X0218593Y0012434D01*
X0218469Y0012433D01*
X0218345Y0012436D01*
X0218220Y0012443D01*
X0218096Y0012454D01*
X0217973Y0012469D01*
X0217850Y0012488D01*
X0217728Y0012510D01*
X0217606Y0012537D01*
X0217486Y0012567D01*
X0217366Y0012601D01*
X0217248Y0012640D01*
X0217130Y0012681D01*
X0217015Y0012727D01*
X0216900Y0012776D01*
X0216788Y0012829D01*
X0216677Y0012885D01*
X0216568Y0012945D01*
X0216461Y0013009D01*
X0216356Y0013075D01*
X0216253Y0013145D01*
X0216153Y0013219D01*
X0216055Y0013295D01*
X0215959Y0013374D01*
X0215866Y0013457D01*
X0215775Y0013542D01*
X0215688Y0013631D01*
X0215603Y0013722D01*
X0215521Y0013816D01*
X0215443Y0013912D01*
X0215367Y0014011D01*
X0215294Y0014112D01*
X0215225Y0014215D01*
X0215159Y0014321D01*
X0215097Y0014428D01*
X0215038Y0014538D01*
X0214982Y0014649D01*
X0214930Y0014762D01*
X0214882Y0014877D01*
X0214838Y0014993D01*
X0214797Y0015110D01*
X0214760Y0015229D01*
X0214726Y0015349D01*
X0214697Y0015469D01*
X0214671Y0015591D01*
X0214649Y0015714D01*
X0214632Y0015837D01*
X0214618Y0015960D01*
X0214608Y0016084D01*
X0214602Y0016209D01*
X0214600Y0016333D01*
X0214500Y0012333D02*
X0222500Y0020333D01*
X0224600Y0016333D02*
X0224602Y0016457D01*
X0224608Y0016582D01*
X0224618Y0016706D01*
X0224632Y0016829D01*
X0224649Y0016952D01*
X0224671Y0017075D01*
X0224697Y0017197D01*
X0224726Y0017317D01*
X0224760Y0017437D01*
X0224797Y0017556D01*
X0224838Y0017673D01*
X0224882Y0017789D01*
X0224930Y0017904D01*
X0224982Y0018017D01*
X0225038Y0018128D01*
X0225097Y0018238D01*
X0225159Y0018345D01*
X0225225Y0018451D01*
X0225294Y0018554D01*
X0225367Y0018655D01*
X0225443Y0018754D01*
X0225521Y0018850D01*
X0225603Y0018944D01*
X0225688Y0019035D01*
X0225775Y0019124D01*
X0225866Y0019209D01*
X0225959Y0019292D01*
X0226055Y0019371D01*
X0226153Y0019447D01*
X0226253Y0019521D01*
X0226356Y0019591D01*
X0226461Y0019657D01*
X0226568Y0019721D01*
X0226677Y0019781D01*
X0226788Y0019837D01*
X0226900Y0019890D01*
X0227015Y0019939D01*
X0227130Y0019985D01*
X0227248Y0020026D01*
X0227366Y0020065D01*
X0227486Y0020099D01*
X0227606Y0020129D01*
X0227728Y0020156D01*
X0227850Y0020178D01*
X0227973Y0020197D01*
X0228096Y0020212D01*
X0228220Y0020223D01*
X0228345Y0020230D01*
X0228469Y0020233D01*
X0228593Y0020232D01*
X0228718Y0020227D01*
X0228842Y0020218D01*
X0228965Y0020205D01*
X0229089Y0020188D01*
X0229211Y0020168D01*
X0229333Y0020143D01*
X0229454Y0020114D01*
X0229574Y0020082D01*
X0229693Y0020046D01*
X0229811Y0020006D01*
X0229928Y0019962D01*
X0230043Y0019915D01*
X0230156Y0019864D01*
X0230268Y0019809D01*
X0230378Y0019751D01*
X0230486Y0019690D01*
X0230592Y0019625D01*
X0230696Y0019556D01*
X0230797Y0019485D01*
X0230897Y0019410D01*
X0230994Y0019332D01*
X0231088Y0019251D01*
X0231180Y0019167D01*
X0231269Y0019080D01*
X0231355Y0018990D01*
X0231438Y0018898D01*
X0231518Y0018803D01*
X0231596Y0018705D01*
X0231670Y0018605D01*
X0231741Y0018503D01*
X0231808Y0018399D01*
X0231872Y0018292D01*
X0231933Y0018183D01*
X0231990Y0018073D01*
X0232044Y0017961D01*
X0232094Y0017847D01*
X0232141Y0017732D01*
X0232183Y0017615D01*
X0232222Y0017497D01*
X0232258Y0017377D01*
X0232289Y0017257D01*
X0232316Y0017136D01*
X0232340Y0017014D01*
X0232360Y0016891D01*
X0232376Y0016767D01*
X0232388Y0016644D01*
X0232396Y0016520D01*
X0232400Y0016395D01*
X0232400Y0016271D01*
X0232396Y0016146D01*
X0232388Y0016022D01*
X0232376Y0015899D01*
X0232360Y0015775D01*
X0232340Y0015652D01*
X0232316Y0015530D01*
X0232289Y0015409D01*
X0232258Y0015289D01*
X0232222Y0015169D01*
X0232183Y0015051D01*
X0232141Y0014934D01*
X0232094Y0014819D01*
X0232044Y0014705D01*
X0231990Y0014593D01*
X0231933Y0014483D01*
X0231872Y0014374D01*
X0231808Y0014267D01*
X0231741Y0014163D01*
X0231670Y0014061D01*
X0231596Y0013961D01*
X0231518Y0013863D01*
X0231438Y0013768D01*
X0231355Y0013676D01*
X0231269Y0013586D01*
X0231180Y0013499D01*
X0231088Y0013415D01*
X0230994Y0013334D01*
X0230897Y0013256D01*
X0230797Y0013181D01*
X0230696Y0013110D01*
X0230592Y0013041D01*
X0230486Y0012976D01*
X0230378Y0012915D01*
X0230268Y0012857D01*
X0230156Y0012802D01*
X0230043Y0012751D01*
X0229928Y0012704D01*
X0229811Y0012660D01*
X0229693Y0012620D01*
X0229574Y0012584D01*
X0229454Y0012552D01*
X0229333Y0012523D01*
X0229211Y0012498D01*
X0229089Y0012478D01*
X0228965Y0012461D01*
X0228842Y0012448D01*
X0228718Y0012439D01*
X0228593Y0012434D01*
X0228469Y0012433D01*
X0228345Y0012436D01*
X0228220Y0012443D01*
X0228096Y0012454D01*
X0227973Y0012469D01*
X0227850Y0012488D01*
X0227728Y0012510D01*
X0227606Y0012537D01*
X0227486Y0012567D01*
X0227366Y0012601D01*
X0227248Y0012640D01*
X0227130Y0012681D01*
X0227015Y0012727D01*
X0226900Y0012776D01*
X0226788Y0012829D01*
X0226677Y0012885D01*
X0226568Y0012945D01*
X0226461Y0013009D01*
X0226356Y0013075D01*
X0226253Y0013145D01*
X0226153Y0013219D01*
X0226055Y0013295D01*
X0225959Y0013374D01*
X0225866Y0013457D01*
X0225775Y0013542D01*
X0225688Y0013631D01*
X0225603Y0013722D01*
X0225521Y0013816D01*
X0225443Y0013912D01*
X0225367Y0014011D01*
X0225294Y0014112D01*
X0225225Y0014215D01*
X0225159Y0014321D01*
X0225097Y0014428D01*
X0225038Y0014538D01*
X0224982Y0014649D01*
X0224930Y0014762D01*
X0224882Y0014877D01*
X0224838Y0014993D01*
X0224797Y0015110D01*
X0224760Y0015229D01*
X0224726Y0015349D01*
X0224697Y0015469D01*
X0224671Y0015591D01*
X0224649Y0015714D01*
X0224632Y0015837D01*
X0224618Y0015960D01*
X0224608Y0016084D01*
X0224602Y0016209D01*
X0224600Y0016333D01*
X0224500Y0012333D02*
X0232500Y0020333D01*
X0234600Y0016333D02*
X0234602Y0016457D01*
X0234608Y0016582D01*
X0234618Y0016706D01*
X0234632Y0016829D01*
X0234649Y0016952D01*
X0234671Y0017075D01*
X0234697Y0017197D01*
X0234726Y0017317D01*
X0234760Y0017437D01*
X0234797Y0017556D01*
X0234838Y0017673D01*
X0234882Y0017789D01*
X0234930Y0017904D01*
X0234982Y0018017D01*
X0235038Y0018128D01*
X0235097Y0018238D01*
X0235159Y0018345D01*
X0235225Y0018451D01*
X0235294Y0018554D01*
X0235367Y0018655D01*
X0235443Y0018754D01*
X0235521Y0018850D01*
X0235603Y0018944D01*
X0235688Y0019035D01*
X0235775Y0019124D01*
X0235866Y0019209D01*
X0235959Y0019292D01*
X0236055Y0019371D01*
X0236153Y0019447D01*
X0236253Y0019521D01*
X0236356Y0019591D01*
X0236461Y0019657D01*
X0236568Y0019721D01*
X0236677Y0019781D01*
X0236788Y0019837D01*
X0236900Y0019890D01*
X0237015Y0019939D01*
X0237130Y0019985D01*
X0237248Y0020026D01*
X0237366Y0020065D01*
X0237486Y0020099D01*
X0237606Y0020129D01*
X0237728Y0020156D01*
X0237850Y0020178D01*
X0237973Y0020197D01*
X0238096Y0020212D01*
X0238220Y0020223D01*
X0238345Y0020230D01*
X0238469Y0020233D01*
X0238593Y0020232D01*
X0238718Y0020227D01*
X0238842Y0020218D01*
X0238965Y0020205D01*
X0239089Y0020188D01*
X0239211Y0020168D01*
X0239333Y0020143D01*
X0239454Y0020114D01*
X0239574Y0020082D01*
X0239693Y0020046D01*
X0239811Y0020006D01*
X0239928Y0019962D01*
X0240043Y0019915D01*
X0240156Y0019864D01*
X0240268Y0019809D01*
X0240378Y0019751D01*
X0240486Y0019690D01*
X0240592Y0019625D01*
X0240696Y0019556D01*
X0240797Y0019485D01*
X0240897Y0019410D01*
X0240994Y0019332D01*
X0241088Y0019251D01*
X0241180Y0019167D01*
X0241269Y0019080D01*
X0241355Y0018990D01*
X0241438Y0018898D01*
X0241518Y0018803D01*
X0241596Y0018705D01*
X0241670Y0018605D01*
X0241741Y0018503D01*
X0241808Y0018399D01*
X0241872Y0018292D01*
X0241933Y0018183D01*
X0241990Y0018073D01*
X0242044Y0017961D01*
X0242094Y0017847D01*
X0242141Y0017732D01*
X0242183Y0017615D01*
X0242222Y0017497D01*
X0242258Y0017377D01*
X0242289Y0017257D01*
X0242316Y0017136D01*
X0242340Y0017014D01*
X0242360Y0016891D01*
X0242376Y0016767D01*
X0242388Y0016644D01*
X0242396Y0016520D01*
X0242400Y0016395D01*
X0242400Y0016271D01*
X0242396Y0016146D01*
X0242388Y0016022D01*
X0242376Y0015899D01*
X0242360Y0015775D01*
X0242340Y0015652D01*
X0242316Y0015530D01*
X0242289Y0015409D01*
X0242258Y0015289D01*
X0242222Y0015169D01*
X0242183Y0015051D01*
X0242141Y0014934D01*
X0242094Y0014819D01*
X0242044Y0014705D01*
X0241990Y0014593D01*
X0241933Y0014483D01*
X0241872Y0014374D01*
X0241808Y0014267D01*
X0241741Y0014163D01*
X0241670Y0014061D01*
X0241596Y0013961D01*
X0241518Y0013863D01*
X0241438Y0013768D01*
X0241355Y0013676D01*
X0241269Y0013586D01*
X0241180Y0013499D01*
X0241088Y0013415D01*
X0240994Y0013334D01*
X0240897Y0013256D01*
X0240797Y0013181D01*
X0240696Y0013110D01*
X0240592Y0013041D01*
X0240486Y0012976D01*
X0240378Y0012915D01*
X0240268Y0012857D01*
X0240156Y0012802D01*
X0240043Y0012751D01*
X0239928Y0012704D01*
X0239811Y0012660D01*
X0239693Y0012620D01*
X0239574Y0012584D01*
X0239454Y0012552D01*
X0239333Y0012523D01*
X0239211Y0012498D01*
X0239089Y0012478D01*
X0238965Y0012461D01*
X0238842Y0012448D01*
X0238718Y0012439D01*
X0238593Y0012434D01*
X0238469Y0012433D01*
X0238345Y0012436D01*
X0238220Y0012443D01*
X0238096Y0012454D01*
X0237973Y0012469D01*
X0237850Y0012488D01*
X0237728Y0012510D01*
X0237606Y0012537D01*
X0237486Y0012567D01*
X0237366Y0012601D01*
X0237248Y0012640D01*
X0237130Y0012681D01*
X0237015Y0012727D01*
X0236900Y0012776D01*
X0236788Y0012829D01*
X0236677Y0012885D01*
X0236568Y0012945D01*
X0236461Y0013009D01*
X0236356Y0013075D01*
X0236253Y0013145D01*
X0236153Y0013219D01*
X0236055Y0013295D01*
X0235959Y0013374D01*
X0235866Y0013457D01*
X0235775Y0013542D01*
X0235688Y0013631D01*
X0235603Y0013722D01*
X0235521Y0013816D01*
X0235443Y0013912D01*
X0235367Y0014011D01*
X0235294Y0014112D01*
X0235225Y0014215D01*
X0235159Y0014321D01*
X0235097Y0014428D01*
X0235038Y0014538D01*
X0234982Y0014649D01*
X0234930Y0014762D01*
X0234882Y0014877D01*
X0234838Y0014993D01*
X0234797Y0015110D01*
X0234760Y0015229D01*
X0234726Y0015349D01*
X0234697Y0015469D01*
X0234671Y0015591D01*
X0234649Y0015714D01*
X0234632Y0015837D01*
X0234618Y0015960D01*
X0234608Y0016084D01*
X0234602Y0016209D01*
X0234600Y0016333D01*
X0234500Y0012333D02*
X0242500Y0020333D01*
X0244600Y0016333D02*
X0244602Y0016457D01*
X0244608Y0016582D01*
X0244618Y0016706D01*
X0244632Y0016829D01*
X0244649Y0016952D01*
X0244671Y0017075D01*
X0244697Y0017197D01*
X0244726Y0017317D01*
X0244760Y0017437D01*
X0244797Y0017556D01*
X0244838Y0017673D01*
X0244882Y0017789D01*
X0244930Y0017904D01*
X0244982Y0018017D01*
X0245038Y0018128D01*
X0245097Y0018238D01*
X0245159Y0018345D01*
X0245225Y0018451D01*
X0245294Y0018554D01*
X0245367Y0018655D01*
X0245443Y0018754D01*
X0245521Y0018850D01*
X0245603Y0018944D01*
X0245688Y0019035D01*
X0245775Y0019124D01*
X0245866Y0019209D01*
X0245959Y0019292D01*
X0246055Y0019371D01*
X0246153Y0019447D01*
X0246253Y0019521D01*
X0246356Y0019591D01*
X0246461Y0019657D01*
X0246568Y0019721D01*
X0246677Y0019781D01*
X0246788Y0019837D01*
X0246900Y0019890D01*
X0247015Y0019939D01*
X0247130Y0019985D01*
X0247248Y0020026D01*
X0247366Y0020065D01*
X0247486Y0020099D01*
X0247606Y0020129D01*
X0247728Y0020156D01*
X0247850Y0020178D01*
X0247973Y0020197D01*
X0248096Y0020212D01*
X0248220Y0020223D01*
X0248345Y0020230D01*
X0248469Y0020233D01*
X0248593Y0020232D01*
X0248718Y0020227D01*
X0248842Y0020218D01*
X0248965Y0020205D01*
X0249089Y0020188D01*
X0249211Y0020168D01*
X0249333Y0020143D01*
X0249454Y0020114D01*
X0249574Y0020082D01*
X0249693Y0020046D01*
X0249811Y0020006D01*
X0249928Y0019962D01*
X0250043Y0019915D01*
X0250156Y0019864D01*
X0250268Y0019809D01*
X0250378Y0019751D01*
X0250486Y0019690D01*
X0250592Y0019625D01*
X0250696Y0019556D01*
X0250797Y0019485D01*
X0250897Y0019410D01*
X0250994Y0019332D01*
X0251088Y0019251D01*
X0251180Y0019167D01*
X0251269Y0019080D01*
X0251355Y0018990D01*
X0251438Y0018898D01*
X0251518Y0018803D01*
X0251596Y0018705D01*
X0251670Y0018605D01*
X0251741Y0018503D01*
X0251808Y0018399D01*
X0251872Y0018292D01*
X0251933Y0018183D01*
X0251990Y0018073D01*
X0252044Y0017961D01*
X0252094Y0017847D01*
X0252141Y0017732D01*
X0252183Y0017615D01*
X0252222Y0017497D01*
X0252258Y0017377D01*
X0252289Y0017257D01*
X0252316Y0017136D01*
X0252340Y0017014D01*
X0252360Y0016891D01*
X0252376Y0016767D01*
X0252388Y0016644D01*
X0252396Y0016520D01*
X0252400Y0016395D01*
X0252400Y0016271D01*
X0252396Y0016146D01*
X0252388Y0016022D01*
X0252376Y0015899D01*
X0252360Y0015775D01*
X0252340Y0015652D01*
X0252316Y0015530D01*
X0252289Y0015409D01*
X0252258Y0015289D01*
X0252222Y0015169D01*
X0252183Y0015051D01*
X0252141Y0014934D01*
X0252094Y0014819D01*
X0252044Y0014705D01*
X0251990Y0014593D01*
X0251933Y0014483D01*
X0251872Y0014374D01*
X0251808Y0014267D01*
X0251741Y0014163D01*
X0251670Y0014061D01*
X0251596Y0013961D01*
X0251518Y0013863D01*
X0251438Y0013768D01*
X0251355Y0013676D01*
X0251269Y0013586D01*
X0251180Y0013499D01*
X0251088Y0013415D01*
X0250994Y0013334D01*
X0250897Y0013256D01*
X0250797Y0013181D01*
X0250696Y0013110D01*
X0250592Y0013041D01*
X0250486Y0012976D01*
X0250378Y0012915D01*
X0250268Y0012857D01*
X0250156Y0012802D01*
X0250043Y0012751D01*
X0249928Y0012704D01*
X0249811Y0012660D01*
X0249693Y0012620D01*
X0249574Y0012584D01*
X0249454Y0012552D01*
X0249333Y0012523D01*
X0249211Y0012498D01*
X0249089Y0012478D01*
X0248965Y0012461D01*
X0248842Y0012448D01*
X0248718Y0012439D01*
X0248593Y0012434D01*
X0248469Y0012433D01*
X0248345Y0012436D01*
X0248220Y0012443D01*
X0248096Y0012454D01*
X0247973Y0012469D01*
X0247850Y0012488D01*
X0247728Y0012510D01*
X0247606Y0012537D01*
X0247486Y0012567D01*
X0247366Y0012601D01*
X0247248Y0012640D01*
X0247130Y0012681D01*
X0247015Y0012727D01*
X0246900Y0012776D01*
X0246788Y0012829D01*
X0246677Y0012885D01*
X0246568Y0012945D01*
X0246461Y0013009D01*
X0246356Y0013075D01*
X0246253Y0013145D01*
X0246153Y0013219D01*
X0246055Y0013295D01*
X0245959Y0013374D01*
X0245866Y0013457D01*
X0245775Y0013542D01*
X0245688Y0013631D01*
X0245603Y0013722D01*
X0245521Y0013816D01*
X0245443Y0013912D01*
X0245367Y0014011D01*
X0245294Y0014112D01*
X0245225Y0014215D01*
X0245159Y0014321D01*
X0245097Y0014428D01*
X0245038Y0014538D01*
X0244982Y0014649D01*
X0244930Y0014762D01*
X0244882Y0014877D01*
X0244838Y0014993D01*
X0244797Y0015110D01*
X0244760Y0015229D01*
X0244726Y0015349D01*
X0244697Y0015469D01*
X0244671Y0015591D01*
X0244649Y0015714D01*
X0244632Y0015837D01*
X0244618Y0015960D01*
X0244608Y0016084D01*
X0244602Y0016209D01*
X0244600Y0016333D01*
X0244500Y0012333D02*
X0252500Y0020333D01*
X0245500Y0039833D02*
X0237500Y0039833D01*
X0241500Y0035833D02*
X0241500Y0043833D01*
X0245000Y0047833D02*
X0237000Y0047833D01*
X0241000Y0043833D02*
X0241000Y0051833D01*
X0223500Y0030333D02*
X0215500Y0030333D01*
X0219500Y0026333D02*
X0219500Y0034333D01*
X0202500Y0055833D02*
X0194500Y0055833D01*
X0198500Y0051833D02*
X0198500Y0059833D01*
X0247320Y0077003D02*
X0247322Y0077127D01*
X0247328Y0077252D01*
X0247338Y0077376D01*
X0247352Y0077499D01*
X0247369Y0077622D01*
X0247391Y0077745D01*
X0247417Y0077867D01*
X0247446Y0077987D01*
X0247480Y0078107D01*
X0247517Y0078226D01*
X0247558Y0078343D01*
X0247602Y0078459D01*
X0247650Y0078574D01*
X0247702Y0078687D01*
X0247758Y0078798D01*
X0247817Y0078908D01*
X0247879Y0079015D01*
X0247945Y0079121D01*
X0248014Y0079224D01*
X0248087Y0079325D01*
X0248163Y0079424D01*
X0248241Y0079520D01*
X0248323Y0079614D01*
X0248408Y0079705D01*
X0248495Y0079794D01*
X0248586Y0079879D01*
X0248679Y0079962D01*
X0248775Y0080041D01*
X0248873Y0080117D01*
X0248973Y0080191D01*
X0249076Y0080261D01*
X0249181Y0080327D01*
X0249288Y0080391D01*
X0249397Y0080451D01*
X0249508Y0080507D01*
X0249620Y0080560D01*
X0249735Y0080609D01*
X0249850Y0080655D01*
X0249968Y0080696D01*
X0250086Y0080735D01*
X0250206Y0080769D01*
X0250326Y0080799D01*
X0250448Y0080826D01*
X0250570Y0080848D01*
X0250693Y0080867D01*
X0250816Y0080882D01*
X0250940Y0080893D01*
X0251065Y0080900D01*
X0251189Y0080903D01*
X0251313Y0080902D01*
X0251438Y0080897D01*
X0251562Y0080888D01*
X0251685Y0080875D01*
X0251809Y0080858D01*
X0251931Y0080838D01*
X0252053Y0080813D01*
X0252174Y0080784D01*
X0252294Y0080752D01*
X0252413Y0080716D01*
X0252531Y0080676D01*
X0252648Y0080632D01*
X0252763Y0080585D01*
X0252876Y0080534D01*
X0252988Y0080479D01*
X0253098Y0080421D01*
X0253206Y0080360D01*
X0253312Y0080295D01*
X0253416Y0080226D01*
X0253517Y0080155D01*
X0253617Y0080080D01*
X0253714Y0080002D01*
X0253808Y0079921D01*
X0253900Y0079837D01*
X0253989Y0079750D01*
X0254075Y0079660D01*
X0254158Y0079568D01*
X0254238Y0079473D01*
X0254316Y0079375D01*
X0254390Y0079275D01*
X0254461Y0079173D01*
X0254528Y0079069D01*
X0254592Y0078962D01*
X0254653Y0078853D01*
X0254710Y0078743D01*
X0254764Y0078631D01*
X0254814Y0078517D01*
X0254861Y0078402D01*
X0254903Y0078285D01*
X0254942Y0078167D01*
X0254978Y0078047D01*
X0255009Y0077927D01*
X0255036Y0077806D01*
X0255060Y0077684D01*
X0255080Y0077561D01*
X0255096Y0077437D01*
X0255108Y0077314D01*
X0255116Y0077190D01*
X0255120Y0077065D01*
X0255120Y0076941D01*
X0255116Y0076816D01*
X0255108Y0076692D01*
X0255096Y0076569D01*
X0255080Y0076445D01*
X0255060Y0076322D01*
X0255036Y0076200D01*
X0255009Y0076079D01*
X0254978Y0075959D01*
X0254942Y0075839D01*
X0254903Y0075721D01*
X0254861Y0075604D01*
X0254814Y0075489D01*
X0254764Y0075375D01*
X0254710Y0075263D01*
X0254653Y0075153D01*
X0254592Y0075044D01*
X0254528Y0074937D01*
X0254461Y0074833D01*
X0254390Y0074731D01*
X0254316Y0074631D01*
X0254238Y0074533D01*
X0254158Y0074438D01*
X0254075Y0074346D01*
X0253989Y0074256D01*
X0253900Y0074169D01*
X0253808Y0074085D01*
X0253714Y0074004D01*
X0253617Y0073926D01*
X0253517Y0073851D01*
X0253416Y0073780D01*
X0253312Y0073711D01*
X0253206Y0073646D01*
X0253098Y0073585D01*
X0252988Y0073527D01*
X0252876Y0073472D01*
X0252763Y0073421D01*
X0252648Y0073374D01*
X0252531Y0073330D01*
X0252413Y0073290D01*
X0252294Y0073254D01*
X0252174Y0073222D01*
X0252053Y0073193D01*
X0251931Y0073168D01*
X0251809Y0073148D01*
X0251685Y0073131D01*
X0251562Y0073118D01*
X0251438Y0073109D01*
X0251313Y0073104D01*
X0251189Y0073103D01*
X0251065Y0073106D01*
X0250940Y0073113D01*
X0250816Y0073124D01*
X0250693Y0073139D01*
X0250570Y0073158D01*
X0250448Y0073180D01*
X0250326Y0073207D01*
X0250206Y0073237D01*
X0250086Y0073271D01*
X0249968Y0073310D01*
X0249850Y0073351D01*
X0249735Y0073397D01*
X0249620Y0073446D01*
X0249508Y0073499D01*
X0249397Y0073555D01*
X0249288Y0073615D01*
X0249181Y0073679D01*
X0249076Y0073745D01*
X0248973Y0073815D01*
X0248873Y0073889D01*
X0248775Y0073965D01*
X0248679Y0074044D01*
X0248586Y0074127D01*
X0248495Y0074212D01*
X0248408Y0074301D01*
X0248323Y0074392D01*
X0248241Y0074486D01*
X0248163Y0074582D01*
X0248087Y0074681D01*
X0248014Y0074782D01*
X0247945Y0074885D01*
X0247879Y0074991D01*
X0247817Y0075098D01*
X0247758Y0075208D01*
X0247702Y0075319D01*
X0247650Y0075432D01*
X0247602Y0075547D01*
X0247558Y0075663D01*
X0247517Y0075780D01*
X0247480Y0075899D01*
X0247446Y0076019D01*
X0247417Y0076139D01*
X0247391Y0076261D01*
X0247369Y0076384D01*
X0247352Y0076507D01*
X0247338Y0076630D01*
X0247328Y0076754D01*
X0247322Y0076879D01*
X0247320Y0077003D01*
X0247220Y0073003D02*
X0255220Y0081003D01*
X0174600Y0016333D02*
X0174602Y0016457D01*
X0174608Y0016582D01*
X0174618Y0016706D01*
X0174632Y0016829D01*
X0174649Y0016952D01*
X0174671Y0017075D01*
X0174697Y0017197D01*
X0174726Y0017317D01*
X0174760Y0017437D01*
X0174797Y0017556D01*
X0174838Y0017673D01*
X0174882Y0017789D01*
X0174930Y0017904D01*
X0174982Y0018017D01*
X0175038Y0018128D01*
X0175097Y0018238D01*
X0175159Y0018345D01*
X0175225Y0018451D01*
X0175294Y0018554D01*
X0175367Y0018655D01*
X0175443Y0018754D01*
X0175521Y0018850D01*
X0175603Y0018944D01*
X0175688Y0019035D01*
X0175775Y0019124D01*
X0175866Y0019209D01*
X0175959Y0019292D01*
X0176055Y0019371D01*
X0176153Y0019447D01*
X0176253Y0019521D01*
X0176356Y0019591D01*
X0176461Y0019657D01*
X0176568Y0019721D01*
X0176677Y0019781D01*
X0176788Y0019837D01*
X0176900Y0019890D01*
X0177015Y0019939D01*
X0177130Y0019985D01*
X0177248Y0020026D01*
X0177366Y0020065D01*
X0177486Y0020099D01*
X0177606Y0020129D01*
X0177728Y0020156D01*
X0177850Y0020178D01*
X0177973Y0020197D01*
X0178096Y0020212D01*
X0178220Y0020223D01*
X0178345Y0020230D01*
X0178469Y0020233D01*
X0178593Y0020232D01*
X0178718Y0020227D01*
X0178842Y0020218D01*
X0178965Y0020205D01*
X0179089Y0020188D01*
X0179211Y0020168D01*
X0179333Y0020143D01*
X0179454Y0020114D01*
X0179574Y0020082D01*
X0179693Y0020046D01*
X0179811Y0020006D01*
X0179928Y0019962D01*
X0180043Y0019915D01*
X0180156Y0019864D01*
X0180268Y0019809D01*
X0180378Y0019751D01*
X0180486Y0019690D01*
X0180592Y0019625D01*
X0180696Y0019556D01*
X0180797Y0019485D01*
X0180897Y0019410D01*
X0180994Y0019332D01*
X0181088Y0019251D01*
X0181180Y0019167D01*
X0181269Y0019080D01*
X0181355Y0018990D01*
X0181438Y0018898D01*
X0181518Y0018803D01*
X0181596Y0018705D01*
X0181670Y0018605D01*
X0181741Y0018503D01*
X0181808Y0018399D01*
X0181872Y0018292D01*
X0181933Y0018183D01*
X0181990Y0018073D01*
X0182044Y0017961D01*
X0182094Y0017847D01*
X0182141Y0017732D01*
X0182183Y0017615D01*
X0182222Y0017497D01*
X0182258Y0017377D01*
X0182289Y0017257D01*
X0182316Y0017136D01*
X0182340Y0017014D01*
X0182360Y0016891D01*
X0182376Y0016767D01*
X0182388Y0016644D01*
X0182396Y0016520D01*
X0182400Y0016395D01*
X0182400Y0016271D01*
X0182396Y0016146D01*
X0182388Y0016022D01*
X0182376Y0015899D01*
X0182360Y0015775D01*
X0182340Y0015652D01*
X0182316Y0015530D01*
X0182289Y0015409D01*
X0182258Y0015289D01*
X0182222Y0015169D01*
X0182183Y0015051D01*
X0182141Y0014934D01*
X0182094Y0014819D01*
X0182044Y0014705D01*
X0181990Y0014593D01*
X0181933Y0014483D01*
X0181872Y0014374D01*
X0181808Y0014267D01*
X0181741Y0014163D01*
X0181670Y0014061D01*
X0181596Y0013961D01*
X0181518Y0013863D01*
X0181438Y0013768D01*
X0181355Y0013676D01*
X0181269Y0013586D01*
X0181180Y0013499D01*
X0181088Y0013415D01*
X0180994Y0013334D01*
X0180897Y0013256D01*
X0180797Y0013181D01*
X0180696Y0013110D01*
X0180592Y0013041D01*
X0180486Y0012976D01*
X0180378Y0012915D01*
X0180268Y0012857D01*
X0180156Y0012802D01*
X0180043Y0012751D01*
X0179928Y0012704D01*
X0179811Y0012660D01*
X0179693Y0012620D01*
X0179574Y0012584D01*
X0179454Y0012552D01*
X0179333Y0012523D01*
X0179211Y0012498D01*
X0179089Y0012478D01*
X0178965Y0012461D01*
X0178842Y0012448D01*
X0178718Y0012439D01*
X0178593Y0012434D01*
X0178469Y0012433D01*
X0178345Y0012436D01*
X0178220Y0012443D01*
X0178096Y0012454D01*
X0177973Y0012469D01*
X0177850Y0012488D01*
X0177728Y0012510D01*
X0177606Y0012537D01*
X0177486Y0012567D01*
X0177366Y0012601D01*
X0177248Y0012640D01*
X0177130Y0012681D01*
X0177015Y0012727D01*
X0176900Y0012776D01*
X0176788Y0012829D01*
X0176677Y0012885D01*
X0176568Y0012945D01*
X0176461Y0013009D01*
X0176356Y0013075D01*
X0176253Y0013145D01*
X0176153Y0013219D01*
X0176055Y0013295D01*
X0175959Y0013374D01*
X0175866Y0013457D01*
X0175775Y0013542D01*
X0175688Y0013631D01*
X0175603Y0013722D01*
X0175521Y0013816D01*
X0175443Y0013912D01*
X0175367Y0014011D01*
X0175294Y0014112D01*
X0175225Y0014215D01*
X0175159Y0014321D01*
X0175097Y0014428D01*
X0175038Y0014538D01*
X0174982Y0014649D01*
X0174930Y0014762D01*
X0174882Y0014877D01*
X0174838Y0014993D01*
X0174797Y0015110D01*
X0174760Y0015229D01*
X0174726Y0015349D01*
X0174697Y0015469D01*
X0174671Y0015591D01*
X0174649Y0015714D01*
X0174632Y0015837D01*
X0174618Y0015960D01*
X0174608Y0016084D01*
X0174602Y0016209D01*
X0174600Y0016333D01*
X0174500Y0012333D02*
X0182500Y0020333D01*
X0164600Y0016333D02*
X0164602Y0016457D01*
X0164608Y0016582D01*
X0164618Y0016706D01*
X0164632Y0016829D01*
X0164649Y0016952D01*
X0164671Y0017075D01*
X0164697Y0017197D01*
X0164726Y0017317D01*
X0164760Y0017437D01*
X0164797Y0017556D01*
X0164838Y0017673D01*
X0164882Y0017789D01*
X0164930Y0017904D01*
X0164982Y0018017D01*
X0165038Y0018128D01*
X0165097Y0018238D01*
X0165159Y0018345D01*
X0165225Y0018451D01*
X0165294Y0018554D01*
X0165367Y0018655D01*
X0165443Y0018754D01*
X0165521Y0018850D01*
X0165603Y0018944D01*
X0165688Y0019035D01*
X0165775Y0019124D01*
X0165866Y0019209D01*
X0165959Y0019292D01*
X0166055Y0019371D01*
X0166153Y0019447D01*
X0166253Y0019521D01*
X0166356Y0019591D01*
X0166461Y0019657D01*
X0166568Y0019721D01*
X0166677Y0019781D01*
X0166788Y0019837D01*
X0166900Y0019890D01*
X0167015Y0019939D01*
X0167130Y0019985D01*
X0167248Y0020026D01*
X0167366Y0020065D01*
X0167486Y0020099D01*
X0167606Y0020129D01*
X0167728Y0020156D01*
X0167850Y0020178D01*
X0167973Y0020197D01*
X0168096Y0020212D01*
X0168220Y0020223D01*
X0168345Y0020230D01*
X0168469Y0020233D01*
X0168593Y0020232D01*
X0168718Y0020227D01*
X0168842Y0020218D01*
X0168965Y0020205D01*
X0169089Y0020188D01*
X0169211Y0020168D01*
X0169333Y0020143D01*
X0169454Y0020114D01*
X0169574Y0020082D01*
X0169693Y0020046D01*
X0169811Y0020006D01*
X0169928Y0019962D01*
X0170043Y0019915D01*
X0170156Y0019864D01*
X0170268Y0019809D01*
X0170378Y0019751D01*
X0170486Y0019690D01*
X0170592Y0019625D01*
X0170696Y0019556D01*
X0170797Y0019485D01*
X0170897Y0019410D01*
X0170994Y0019332D01*
X0171088Y0019251D01*
X0171180Y0019167D01*
X0171269Y0019080D01*
X0171355Y0018990D01*
X0171438Y0018898D01*
X0171518Y0018803D01*
X0171596Y0018705D01*
X0171670Y0018605D01*
X0171741Y0018503D01*
X0171808Y0018399D01*
X0171872Y0018292D01*
X0171933Y0018183D01*
X0171990Y0018073D01*
X0172044Y0017961D01*
X0172094Y0017847D01*
X0172141Y0017732D01*
X0172183Y0017615D01*
X0172222Y0017497D01*
X0172258Y0017377D01*
X0172289Y0017257D01*
X0172316Y0017136D01*
X0172340Y0017014D01*
X0172360Y0016891D01*
X0172376Y0016767D01*
X0172388Y0016644D01*
X0172396Y0016520D01*
X0172400Y0016395D01*
X0172400Y0016271D01*
X0172396Y0016146D01*
X0172388Y0016022D01*
X0172376Y0015899D01*
X0172360Y0015775D01*
X0172340Y0015652D01*
X0172316Y0015530D01*
X0172289Y0015409D01*
X0172258Y0015289D01*
X0172222Y0015169D01*
X0172183Y0015051D01*
X0172141Y0014934D01*
X0172094Y0014819D01*
X0172044Y0014705D01*
X0171990Y0014593D01*
X0171933Y0014483D01*
X0171872Y0014374D01*
X0171808Y0014267D01*
X0171741Y0014163D01*
X0171670Y0014061D01*
X0171596Y0013961D01*
X0171518Y0013863D01*
X0171438Y0013768D01*
X0171355Y0013676D01*
X0171269Y0013586D01*
X0171180Y0013499D01*
X0171088Y0013415D01*
X0170994Y0013334D01*
X0170897Y0013256D01*
X0170797Y0013181D01*
X0170696Y0013110D01*
X0170592Y0013041D01*
X0170486Y0012976D01*
X0170378Y0012915D01*
X0170268Y0012857D01*
X0170156Y0012802D01*
X0170043Y0012751D01*
X0169928Y0012704D01*
X0169811Y0012660D01*
X0169693Y0012620D01*
X0169574Y0012584D01*
X0169454Y0012552D01*
X0169333Y0012523D01*
X0169211Y0012498D01*
X0169089Y0012478D01*
X0168965Y0012461D01*
X0168842Y0012448D01*
X0168718Y0012439D01*
X0168593Y0012434D01*
X0168469Y0012433D01*
X0168345Y0012436D01*
X0168220Y0012443D01*
X0168096Y0012454D01*
X0167973Y0012469D01*
X0167850Y0012488D01*
X0167728Y0012510D01*
X0167606Y0012537D01*
X0167486Y0012567D01*
X0167366Y0012601D01*
X0167248Y0012640D01*
X0167130Y0012681D01*
X0167015Y0012727D01*
X0166900Y0012776D01*
X0166788Y0012829D01*
X0166677Y0012885D01*
X0166568Y0012945D01*
X0166461Y0013009D01*
X0166356Y0013075D01*
X0166253Y0013145D01*
X0166153Y0013219D01*
X0166055Y0013295D01*
X0165959Y0013374D01*
X0165866Y0013457D01*
X0165775Y0013542D01*
X0165688Y0013631D01*
X0165603Y0013722D01*
X0165521Y0013816D01*
X0165443Y0013912D01*
X0165367Y0014011D01*
X0165294Y0014112D01*
X0165225Y0014215D01*
X0165159Y0014321D01*
X0165097Y0014428D01*
X0165038Y0014538D01*
X0164982Y0014649D01*
X0164930Y0014762D01*
X0164882Y0014877D01*
X0164838Y0014993D01*
X0164797Y0015110D01*
X0164760Y0015229D01*
X0164726Y0015349D01*
X0164697Y0015469D01*
X0164671Y0015591D01*
X0164649Y0015714D01*
X0164632Y0015837D01*
X0164618Y0015960D01*
X0164608Y0016084D01*
X0164602Y0016209D01*
X0164600Y0016333D01*
X0164500Y0012333D02*
X0172500Y0020333D01*
X0154600Y0016333D02*
X0154602Y0016457D01*
X0154608Y0016582D01*
X0154618Y0016706D01*
X0154632Y0016829D01*
X0154649Y0016952D01*
X0154671Y0017075D01*
X0154697Y0017197D01*
X0154726Y0017317D01*
X0154760Y0017437D01*
X0154797Y0017556D01*
X0154838Y0017673D01*
X0154882Y0017789D01*
X0154930Y0017904D01*
X0154982Y0018017D01*
X0155038Y0018128D01*
X0155097Y0018238D01*
X0155159Y0018345D01*
X0155225Y0018451D01*
X0155294Y0018554D01*
X0155367Y0018655D01*
X0155443Y0018754D01*
X0155521Y0018850D01*
X0155603Y0018944D01*
X0155688Y0019035D01*
X0155775Y0019124D01*
X0155866Y0019209D01*
X0155959Y0019292D01*
X0156055Y0019371D01*
X0156153Y0019447D01*
X0156253Y0019521D01*
X0156356Y0019591D01*
X0156461Y0019657D01*
X0156568Y0019721D01*
X0156677Y0019781D01*
X0156788Y0019837D01*
X0156900Y0019890D01*
X0157015Y0019939D01*
X0157130Y0019985D01*
X0157248Y0020026D01*
X0157366Y0020065D01*
X0157486Y0020099D01*
X0157606Y0020129D01*
X0157728Y0020156D01*
X0157850Y0020178D01*
X0157973Y0020197D01*
X0158096Y0020212D01*
X0158220Y0020223D01*
X0158345Y0020230D01*
X0158469Y0020233D01*
X0158593Y0020232D01*
X0158718Y0020227D01*
X0158842Y0020218D01*
X0158965Y0020205D01*
X0159089Y0020188D01*
X0159211Y0020168D01*
X0159333Y0020143D01*
X0159454Y0020114D01*
X0159574Y0020082D01*
X0159693Y0020046D01*
X0159811Y0020006D01*
X0159928Y0019962D01*
X0160043Y0019915D01*
X0160156Y0019864D01*
X0160268Y0019809D01*
X0160378Y0019751D01*
X0160486Y0019690D01*
X0160592Y0019625D01*
X0160696Y0019556D01*
X0160797Y0019485D01*
X0160897Y0019410D01*
X0160994Y0019332D01*
X0161088Y0019251D01*
X0161180Y0019167D01*
X0161269Y0019080D01*
X0161355Y0018990D01*
X0161438Y0018898D01*
X0161518Y0018803D01*
X0161596Y0018705D01*
X0161670Y0018605D01*
X0161741Y0018503D01*
X0161808Y0018399D01*
X0161872Y0018292D01*
X0161933Y0018183D01*
X0161990Y0018073D01*
X0162044Y0017961D01*
X0162094Y0017847D01*
X0162141Y0017732D01*
X0162183Y0017615D01*
X0162222Y0017497D01*
X0162258Y0017377D01*
X0162289Y0017257D01*
X0162316Y0017136D01*
X0162340Y0017014D01*
X0162360Y0016891D01*
X0162376Y0016767D01*
X0162388Y0016644D01*
X0162396Y0016520D01*
X0162400Y0016395D01*
X0162400Y0016271D01*
X0162396Y0016146D01*
X0162388Y0016022D01*
X0162376Y0015899D01*
X0162360Y0015775D01*
X0162340Y0015652D01*
X0162316Y0015530D01*
X0162289Y0015409D01*
X0162258Y0015289D01*
X0162222Y0015169D01*
X0162183Y0015051D01*
X0162141Y0014934D01*
X0162094Y0014819D01*
X0162044Y0014705D01*
X0161990Y0014593D01*
X0161933Y0014483D01*
X0161872Y0014374D01*
X0161808Y0014267D01*
X0161741Y0014163D01*
X0161670Y0014061D01*
X0161596Y0013961D01*
X0161518Y0013863D01*
X0161438Y0013768D01*
X0161355Y0013676D01*
X0161269Y0013586D01*
X0161180Y0013499D01*
X0161088Y0013415D01*
X0160994Y0013334D01*
X0160897Y0013256D01*
X0160797Y0013181D01*
X0160696Y0013110D01*
X0160592Y0013041D01*
X0160486Y0012976D01*
X0160378Y0012915D01*
X0160268Y0012857D01*
X0160156Y0012802D01*
X0160043Y0012751D01*
X0159928Y0012704D01*
X0159811Y0012660D01*
X0159693Y0012620D01*
X0159574Y0012584D01*
X0159454Y0012552D01*
X0159333Y0012523D01*
X0159211Y0012498D01*
X0159089Y0012478D01*
X0158965Y0012461D01*
X0158842Y0012448D01*
X0158718Y0012439D01*
X0158593Y0012434D01*
X0158469Y0012433D01*
X0158345Y0012436D01*
X0158220Y0012443D01*
X0158096Y0012454D01*
X0157973Y0012469D01*
X0157850Y0012488D01*
X0157728Y0012510D01*
X0157606Y0012537D01*
X0157486Y0012567D01*
X0157366Y0012601D01*
X0157248Y0012640D01*
X0157130Y0012681D01*
X0157015Y0012727D01*
X0156900Y0012776D01*
X0156788Y0012829D01*
X0156677Y0012885D01*
X0156568Y0012945D01*
X0156461Y0013009D01*
X0156356Y0013075D01*
X0156253Y0013145D01*
X0156153Y0013219D01*
X0156055Y0013295D01*
X0155959Y0013374D01*
X0155866Y0013457D01*
X0155775Y0013542D01*
X0155688Y0013631D01*
X0155603Y0013722D01*
X0155521Y0013816D01*
X0155443Y0013912D01*
X0155367Y0014011D01*
X0155294Y0014112D01*
X0155225Y0014215D01*
X0155159Y0014321D01*
X0155097Y0014428D01*
X0155038Y0014538D01*
X0154982Y0014649D01*
X0154930Y0014762D01*
X0154882Y0014877D01*
X0154838Y0014993D01*
X0154797Y0015110D01*
X0154760Y0015229D01*
X0154726Y0015349D01*
X0154697Y0015469D01*
X0154671Y0015591D01*
X0154649Y0015714D01*
X0154632Y0015837D01*
X0154618Y0015960D01*
X0154608Y0016084D01*
X0154602Y0016209D01*
X0154600Y0016333D01*
X0154500Y0012333D02*
X0162500Y0020333D01*
X0021541Y0037207D02*
X0021543Y0037331D01*
X0021549Y0037456D01*
X0021559Y0037580D01*
X0021573Y0037703D01*
X0021590Y0037826D01*
X0021612Y0037949D01*
X0021638Y0038071D01*
X0021667Y0038191D01*
X0021701Y0038311D01*
X0021738Y0038430D01*
X0021779Y0038547D01*
X0021823Y0038663D01*
X0021871Y0038778D01*
X0021923Y0038891D01*
X0021979Y0039002D01*
X0022038Y0039112D01*
X0022100Y0039219D01*
X0022166Y0039325D01*
X0022235Y0039428D01*
X0022308Y0039529D01*
X0022384Y0039628D01*
X0022462Y0039724D01*
X0022544Y0039818D01*
X0022629Y0039909D01*
X0022716Y0039998D01*
X0022807Y0040083D01*
X0022900Y0040166D01*
X0022996Y0040245D01*
X0023094Y0040321D01*
X0023194Y0040395D01*
X0023297Y0040465D01*
X0023402Y0040531D01*
X0023509Y0040595D01*
X0023618Y0040655D01*
X0023729Y0040711D01*
X0023841Y0040764D01*
X0023956Y0040813D01*
X0024071Y0040859D01*
X0024189Y0040900D01*
X0024307Y0040939D01*
X0024427Y0040973D01*
X0024547Y0041003D01*
X0024669Y0041030D01*
X0024791Y0041052D01*
X0024914Y0041071D01*
X0025037Y0041086D01*
X0025161Y0041097D01*
X0025286Y0041104D01*
X0025410Y0041107D01*
X0025534Y0041106D01*
X0025659Y0041101D01*
X0025783Y0041092D01*
X0025906Y0041079D01*
X0026030Y0041062D01*
X0026152Y0041042D01*
X0026274Y0041017D01*
X0026395Y0040988D01*
X0026515Y0040956D01*
X0026634Y0040920D01*
X0026752Y0040880D01*
X0026869Y0040836D01*
X0026984Y0040789D01*
X0027097Y0040738D01*
X0027209Y0040683D01*
X0027319Y0040625D01*
X0027427Y0040564D01*
X0027533Y0040499D01*
X0027637Y0040430D01*
X0027738Y0040359D01*
X0027838Y0040284D01*
X0027935Y0040206D01*
X0028029Y0040125D01*
X0028121Y0040041D01*
X0028210Y0039954D01*
X0028296Y0039864D01*
X0028379Y0039772D01*
X0028459Y0039677D01*
X0028537Y0039579D01*
X0028611Y0039479D01*
X0028682Y0039377D01*
X0028749Y0039273D01*
X0028813Y0039166D01*
X0028874Y0039057D01*
X0028931Y0038947D01*
X0028985Y0038835D01*
X0029035Y0038721D01*
X0029082Y0038606D01*
X0029124Y0038489D01*
X0029163Y0038371D01*
X0029199Y0038251D01*
X0029230Y0038131D01*
X0029257Y0038010D01*
X0029281Y0037888D01*
X0029301Y0037765D01*
X0029317Y0037641D01*
X0029329Y0037518D01*
X0029337Y0037394D01*
X0029341Y0037269D01*
X0029341Y0037145D01*
X0029337Y0037020D01*
X0029329Y0036896D01*
X0029317Y0036773D01*
X0029301Y0036649D01*
X0029281Y0036526D01*
X0029257Y0036404D01*
X0029230Y0036283D01*
X0029199Y0036163D01*
X0029163Y0036043D01*
X0029124Y0035925D01*
X0029082Y0035808D01*
X0029035Y0035693D01*
X0028985Y0035579D01*
X0028931Y0035467D01*
X0028874Y0035357D01*
X0028813Y0035248D01*
X0028749Y0035141D01*
X0028682Y0035037D01*
X0028611Y0034935D01*
X0028537Y0034835D01*
X0028459Y0034737D01*
X0028379Y0034642D01*
X0028296Y0034550D01*
X0028210Y0034460D01*
X0028121Y0034373D01*
X0028029Y0034289D01*
X0027935Y0034208D01*
X0027838Y0034130D01*
X0027738Y0034055D01*
X0027637Y0033984D01*
X0027533Y0033915D01*
X0027427Y0033850D01*
X0027319Y0033789D01*
X0027209Y0033731D01*
X0027097Y0033676D01*
X0026984Y0033625D01*
X0026869Y0033578D01*
X0026752Y0033534D01*
X0026634Y0033494D01*
X0026515Y0033458D01*
X0026395Y0033426D01*
X0026274Y0033397D01*
X0026152Y0033372D01*
X0026030Y0033352D01*
X0025906Y0033335D01*
X0025783Y0033322D01*
X0025659Y0033313D01*
X0025534Y0033308D01*
X0025410Y0033307D01*
X0025286Y0033310D01*
X0025161Y0033317D01*
X0025037Y0033328D01*
X0024914Y0033343D01*
X0024791Y0033362D01*
X0024669Y0033384D01*
X0024547Y0033411D01*
X0024427Y0033441D01*
X0024307Y0033475D01*
X0024189Y0033514D01*
X0024071Y0033555D01*
X0023956Y0033601D01*
X0023841Y0033650D01*
X0023729Y0033703D01*
X0023618Y0033759D01*
X0023509Y0033819D01*
X0023402Y0033883D01*
X0023297Y0033949D01*
X0023194Y0034019D01*
X0023094Y0034093D01*
X0022996Y0034169D01*
X0022900Y0034248D01*
X0022807Y0034331D01*
X0022716Y0034416D01*
X0022629Y0034505D01*
X0022544Y0034596D01*
X0022462Y0034690D01*
X0022384Y0034786D01*
X0022308Y0034885D01*
X0022235Y0034986D01*
X0022166Y0035089D01*
X0022100Y0035195D01*
X0022038Y0035302D01*
X0021979Y0035412D01*
X0021923Y0035523D01*
X0021871Y0035636D01*
X0021823Y0035751D01*
X0021779Y0035867D01*
X0021738Y0035984D01*
X0021701Y0036103D01*
X0021667Y0036223D01*
X0021638Y0036343D01*
X0021612Y0036465D01*
X0021590Y0036588D01*
X0021573Y0036711D01*
X0021559Y0036834D01*
X0021549Y0036958D01*
X0021543Y0037083D01*
X0021541Y0037207D01*
X0021441Y0033207D02*
X0029441Y0041207D01*
X0011600Y0042033D02*
X0011602Y0042157D01*
X0011608Y0042282D01*
X0011618Y0042406D01*
X0011632Y0042529D01*
X0011649Y0042652D01*
X0011671Y0042775D01*
X0011697Y0042897D01*
X0011726Y0043017D01*
X0011760Y0043137D01*
X0011797Y0043256D01*
X0011838Y0043373D01*
X0011882Y0043489D01*
X0011930Y0043604D01*
X0011982Y0043717D01*
X0012038Y0043828D01*
X0012097Y0043938D01*
X0012159Y0044045D01*
X0012225Y0044151D01*
X0012294Y0044254D01*
X0012367Y0044355D01*
X0012443Y0044454D01*
X0012521Y0044550D01*
X0012603Y0044644D01*
X0012688Y0044735D01*
X0012775Y0044824D01*
X0012866Y0044909D01*
X0012959Y0044992D01*
X0013055Y0045071D01*
X0013153Y0045147D01*
X0013253Y0045221D01*
X0013356Y0045291D01*
X0013461Y0045357D01*
X0013568Y0045421D01*
X0013677Y0045481D01*
X0013788Y0045537D01*
X0013900Y0045590D01*
X0014015Y0045639D01*
X0014130Y0045685D01*
X0014248Y0045726D01*
X0014366Y0045765D01*
X0014486Y0045799D01*
X0014606Y0045829D01*
X0014728Y0045856D01*
X0014850Y0045878D01*
X0014973Y0045897D01*
X0015096Y0045912D01*
X0015220Y0045923D01*
X0015345Y0045930D01*
X0015469Y0045933D01*
X0015593Y0045932D01*
X0015718Y0045927D01*
X0015842Y0045918D01*
X0015965Y0045905D01*
X0016089Y0045888D01*
X0016211Y0045868D01*
X0016333Y0045843D01*
X0016454Y0045814D01*
X0016574Y0045782D01*
X0016693Y0045746D01*
X0016811Y0045706D01*
X0016928Y0045662D01*
X0017043Y0045615D01*
X0017156Y0045564D01*
X0017268Y0045509D01*
X0017378Y0045451D01*
X0017486Y0045390D01*
X0017592Y0045325D01*
X0017696Y0045256D01*
X0017797Y0045185D01*
X0017897Y0045110D01*
X0017994Y0045032D01*
X0018088Y0044951D01*
X0018180Y0044867D01*
X0018269Y0044780D01*
X0018355Y0044690D01*
X0018438Y0044598D01*
X0018518Y0044503D01*
X0018596Y0044405D01*
X0018670Y0044305D01*
X0018741Y0044203D01*
X0018808Y0044099D01*
X0018872Y0043992D01*
X0018933Y0043883D01*
X0018990Y0043773D01*
X0019044Y0043661D01*
X0019094Y0043547D01*
X0019141Y0043432D01*
X0019183Y0043315D01*
X0019222Y0043197D01*
X0019258Y0043077D01*
X0019289Y0042957D01*
X0019316Y0042836D01*
X0019340Y0042714D01*
X0019360Y0042591D01*
X0019376Y0042467D01*
X0019388Y0042344D01*
X0019396Y0042220D01*
X0019400Y0042095D01*
X0019400Y0041971D01*
X0019396Y0041846D01*
X0019388Y0041722D01*
X0019376Y0041599D01*
X0019360Y0041475D01*
X0019340Y0041352D01*
X0019316Y0041230D01*
X0019289Y0041109D01*
X0019258Y0040989D01*
X0019222Y0040869D01*
X0019183Y0040751D01*
X0019141Y0040634D01*
X0019094Y0040519D01*
X0019044Y0040405D01*
X0018990Y0040293D01*
X0018933Y0040183D01*
X0018872Y0040074D01*
X0018808Y0039967D01*
X0018741Y0039863D01*
X0018670Y0039761D01*
X0018596Y0039661D01*
X0018518Y0039563D01*
X0018438Y0039468D01*
X0018355Y0039376D01*
X0018269Y0039286D01*
X0018180Y0039199D01*
X0018088Y0039115D01*
X0017994Y0039034D01*
X0017897Y0038956D01*
X0017797Y0038881D01*
X0017696Y0038810D01*
X0017592Y0038741D01*
X0017486Y0038676D01*
X0017378Y0038615D01*
X0017268Y0038557D01*
X0017156Y0038502D01*
X0017043Y0038451D01*
X0016928Y0038404D01*
X0016811Y0038360D01*
X0016693Y0038320D01*
X0016574Y0038284D01*
X0016454Y0038252D01*
X0016333Y0038223D01*
X0016211Y0038198D01*
X0016089Y0038178D01*
X0015965Y0038161D01*
X0015842Y0038148D01*
X0015718Y0038139D01*
X0015593Y0038134D01*
X0015469Y0038133D01*
X0015345Y0038136D01*
X0015220Y0038143D01*
X0015096Y0038154D01*
X0014973Y0038169D01*
X0014850Y0038188D01*
X0014728Y0038210D01*
X0014606Y0038237D01*
X0014486Y0038267D01*
X0014366Y0038301D01*
X0014248Y0038340D01*
X0014130Y0038381D01*
X0014015Y0038427D01*
X0013900Y0038476D01*
X0013788Y0038529D01*
X0013677Y0038585D01*
X0013568Y0038645D01*
X0013461Y0038709D01*
X0013356Y0038775D01*
X0013253Y0038845D01*
X0013153Y0038919D01*
X0013055Y0038995D01*
X0012959Y0039074D01*
X0012866Y0039157D01*
X0012775Y0039242D01*
X0012688Y0039331D01*
X0012603Y0039422D01*
X0012521Y0039516D01*
X0012443Y0039612D01*
X0012367Y0039711D01*
X0012294Y0039812D01*
X0012225Y0039915D01*
X0012159Y0040021D01*
X0012097Y0040128D01*
X0012038Y0040238D01*
X0011982Y0040349D01*
X0011930Y0040462D01*
X0011882Y0040577D01*
X0011838Y0040693D01*
X0011797Y0040810D01*
X0011760Y0040929D01*
X0011726Y0041049D01*
X0011697Y0041169D01*
X0011671Y0041291D01*
X0011649Y0041414D01*
X0011632Y0041537D01*
X0011618Y0041660D01*
X0011608Y0041784D01*
X0011602Y0041909D01*
X0011600Y0042033D01*
X0011500Y0038033D02*
X0019500Y0046033D01*
X0018974Y0167554D02*
X0018976Y0167678D01*
X0018982Y0167803D01*
X0018992Y0167927D01*
X0019006Y0168050D01*
X0019023Y0168173D01*
X0019045Y0168296D01*
X0019071Y0168418D01*
X0019100Y0168538D01*
X0019134Y0168658D01*
X0019171Y0168777D01*
X0019212Y0168894D01*
X0019256Y0169010D01*
X0019304Y0169125D01*
X0019356Y0169238D01*
X0019412Y0169349D01*
X0019471Y0169459D01*
X0019533Y0169566D01*
X0019599Y0169672D01*
X0019668Y0169775D01*
X0019741Y0169876D01*
X0019817Y0169975D01*
X0019895Y0170071D01*
X0019977Y0170165D01*
X0020062Y0170256D01*
X0020149Y0170345D01*
X0020240Y0170430D01*
X0020333Y0170513D01*
X0020429Y0170592D01*
X0020527Y0170668D01*
X0020627Y0170742D01*
X0020730Y0170812D01*
X0020835Y0170878D01*
X0020942Y0170942D01*
X0021051Y0171002D01*
X0021162Y0171058D01*
X0021274Y0171111D01*
X0021389Y0171160D01*
X0021504Y0171206D01*
X0021622Y0171247D01*
X0021740Y0171286D01*
X0021860Y0171320D01*
X0021980Y0171350D01*
X0022102Y0171377D01*
X0022224Y0171399D01*
X0022347Y0171418D01*
X0022470Y0171433D01*
X0022594Y0171444D01*
X0022719Y0171451D01*
X0022843Y0171454D01*
X0022967Y0171453D01*
X0023092Y0171448D01*
X0023216Y0171439D01*
X0023339Y0171426D01*
X0023463Y0171409D01*
X0023585Y0171389D01*
X0023707Y0171364D01*
X0023828Y0171335D01*
X0023948Y0171303D01*
X0024067Y0171267D01*
X0024185Y0171227D01*
X0024302Y0171183D01*
X0024417Y0171136D01*
X0024530Y0171085D01*
X0024642Y0171030D01*
X0024752Y0170972D01*
X0024860Y0170911D01*
X0024966Y0170846D01*
X0025070Y0170777D01*
X0025171Y0170706D01*
X0025271Y0170631D01*
X0025368Y0170553D01*
X0025462Y0170472D01*
X0025554Y0170388D01*
X0025643Y0170301D01*
X0025729Y0170211D01*
X0025812Y0170119D01*
X0025892Y0170024D01*
X0025970Y0169926D01*
X0026044Y0169826D01*
X0026115Y0169724D01*
X0026182Y0169620D01*
X0026246Y0169513D01*
X0026307Y0169404D01*
X0026364Y0169294D01*
X0026418Y0169182D01*
X0026468Y0169068D01*
X0026515Y0168953D01*
X0026557Y0168836D01*
X0026596Y0168718D01*
X0026632Y0168598D01*
X0026663Y0168478D01*
X0026690Y0168357D01*
X0026714Y0168235D01*
X0026734Y0168112D01*
X0026750Y0167988D01*
X0026762Y0167865D01*
X0026770Y0167741D01*
X0026774Y0167616D01*
X0026774Y0167492D01*
X0026770Y0167367D01*
X0026762Y0167243D01*
X0026750Y0167120D01*
X0026734Y0166996D01*
X0026714Y0166873D01*
X0026690Y0166751D01*
X0026663Y0166630D01*
X0026632Y0166510D01*
X0026596Y0166390D01*
X0026557Y0166272D01*
X0026515Y0166155D01*
X0026468Y0166040D01*
X0026418Y0165926D01*
X0026364Y0165814D01*
X0026307Y0165704D01*
X0026246Y0165595D01*
X0026182Y0165488D01*
X0026115Y0165384D01*
X0026044Y0165282D01*
X0025970Y0165182D01*
X0025892Y0165084D01*
X0025812Y0164989D01*
X0025729Y0164897D01*
X0025643Y0164807D01*
X0025554Y0164720D01*
X0025462Y0164636D01*
X0025368Y0164555D01*
X0025271Y0164477D01*
X0025171Y0164402D01*
X0025070Y0164331D01*
X0024966Y0164262D01*
X0024860Y0164197D01*
X0024752Y0164136D01*
X0024642Y0164078D01*
X0024530Y0164023D01*
X0024417Y0163972D01*
X0024302Y0163925D01*
X0024185Y0163881D01*
X0024067Y0163841D01*
X0023948Y0163805D01*
X0023828Y0163773D01*
X0023707Y0163744D01*
X0023585Y0163719D01*
X0023463Y0163699D01*
X0023339Y0163682D01*
X0023216Y0163669D01*
X0023092Y0163660D01*
X0022967Y0163655D01*
X0022843Y0163654D01*
X0022719Y0163657D01*
X0022594Y0163664D01*
X0022470Y0163675D01*
X0022347Y0163690D01*
X0022224Y0163709D01*
X0022102Y0163731D01*
X0021980Y0163758D01*
X0021860Y0163788D01*
X0021740Y0163822D01*
X0021622Y0163861D01*
X0021504Y0163902D01*
X0021389Y0163948D01*
X0021274Y0163997D01*
X0021162Y0164050D01*
X0021051Y0164106D01*
X0020942Y0164166D01*
X0020835Y0164230D01*
X0020730Y0164296D01*
X0020627Y0164366D01*
X0020527Y0164440D01*
X0020429Y0164516D01*
X0020333Y0164595D01*
X0020240Y0164678D01*
X0020149Y0164763D01*
X0020062Y0164852D01*
X0019977Y0164943D01*
X0019895Y0165037D01*
X0019817Y0165133D01*
X0019741Y0165232D01*
X0019668Y0165333D01*
X0019599Y0165436D01*
X0019533Y0165542D01*
X0019471Y0165649D01*
X0019412Y0165759D01*
X0019356Y0165870D01*
X0019304Y0165983D01*
X0019256Y0166098D01*
X0019212Y0166214D01*
X0019171Y0166331D01*
X0019134Y0166450D01*
X0019100Y0166570D01*
X0019071Y0166690D01*
X0019045Y0166812D01*
X0019023Y0166935D01*
X0019006Y0167058D01*
X0018992Y0167181D01*
X0018982Y0167305D01*
X0018976Y0167430D01*
X0018974Y0167554D01*
X0018874Y0163554D02*
X0026874Y0171554D01*
X0247320Y0167554D02*
X0247322Y0167678D01*
X0247328Y0167803D01*
X0247338Y0167927D01*
X0247352Y0168050D01*
X0247369Y0168173D01*
X0247391Y0168296D01*
X0247417Y0168418D01*
X0247446Y0168538D01*
X0247480Y0168658D01*
X0247517Y0168777D01*
X0247558Y0168894D01*
X0247602Y0169010D01*
X0247650Y0169125D01*
X0247702Y0169238D01*
X0247758Y0169349D01*
X0247817Y0169459D01*
X0247879Y0169566D01*
X0247945Y0169672D01*
X0248014Y0169775D01*
X0248087Y0169876D01*
X0248163Y0169975D01*
X0248241Y0170071D01*
X0248323Y0170165D01*
X0248408Y0170256D01*
X0248495Y0170345D01*
X0248586Y0170430D01*
X0248679Y0170513D01*
X0248775Y0170592D01*
X0248873Y0170668D01*
X0248973Y0170742D01*
X0249076Y0170812D01*
X0249181Y0170878D01*
X0249288Y0170942D01*
X0249397Y0171002D01*
X0249508Y0171058D01*
X0249620Y0171111D01*
X0249735Y0171160D01*
X0249850Y0171206D01*
X0249968Y0171247D01*
X0250086Y0171286D01*
X0250206Y0171320D01*
X0250326Y0171350D01*
X0250448Y0171377D01*
X0250570Y0171399D01*
X0250693Y0171418D01*
X0250816Y0171433D01*
X0250940Y0171444D01*
X0251065Y0171451D01*
X0251189Y0171454D01*
X0251313Y0171453D01*
X0251438Y0171448D01*
X0251562Y0171439D01*
X0251685Y0171426D01*
X0251809Y0171409D01*
X0251931Y0171389D01*
X0252053Y0171364D01*
X0252174Y0171335D01*
X0252294Y0171303D01*
X0252413Y0171267D01*
X0252531Y0171227D01*
X0252648Y0171183D01*
X0252763Y0171136D01*
X0252876Y0171085D01*
X0252988Y0171030D01*
X0253098Y0170972D01*
X0253206Y0170911D01*
X0253312Y0170846D01*
X0253416Y0170777D01*
X0253517Y0170706D01*
X0253617Y0170631D01*
X0253714Y0170553D01*
X0253808Y0170472D01*
X0253900Y0170388D01*
X0253989Y0170301D01*
X0254075Y0170211D01*
X0254158Y0170119D01*
X0254238Y0170024D01*
X0254316Y0169926D01*
X0254390Y0169826D01*
X0254461Y0169724D01*
X0254528Y0169620D01*
X0254592Y0169513D01*
X0254653Y0169404D01*
X0254710Y0169294D01*
X0254764Y0169182D01*
X0254814Y0169068D01*
X0254861Y0168953D01*
X0254903Y0168836D01*
X0254942Y0168718D01*
X0254978Y0168598D01*
X0255009Y0168478D01*
X0255036Y0168357D01*
X0255060Y0168235D01*
X0255080Y0168112D01*
X0255096Y0167988D01*
X0255108Y0167865D01*
X0255116Y0167741D01*
X0255120Y0167616D01*
X0255120Y0167492D01*
X0255116Y0167367D01*
X0255108Y0167243D01*
X0255096Y0167120D01*
X0255080Y0166996D01*
X0255060Y0166873D01*
X0255036Y0166751D01*
X0255009Y0166630D01*
X0254978Y0166510D01*
X0254942Y0166390D01*
X0254903Y0166272D01*
X0254861Y0166155D01*
X0254814Y0166040D01*
X0254764Y0165926D01*
X0254710Y0165814D01*
X0254653Y0165704D01*
X0254592Y0165595D01*
X0254528Y0165488D01*
X0254461Y0165384D01*
X0254390Y0165282D01*
X0254316Y0165182D01*
X0254238Y0165084D01*
X0254158Y0164989D01*
X0254075Y0164897D01*
X0253989Y0164807D01*
X0253900Y0164720D01*
X0253808Y0164636D01*
X0253714Y0164555D01*
X0253617Y0164477D01*
X0253517Y0164402D01*
X0253416Y0164331D01*
X0253312Y0164262D01*
X0253206Y0164197D01*
X0253098Y0164136D01*
X0252988Y0164078D01*
X0252876Y0164023D01*
X0252763Y0163972D01*
X0252648Y0163925D01*
X0252531Y0163881D01*
X0252413Y0163841D01*
X0252294Y0163805D01*
X0252174Y0163773D01*
X0252053Y0163744D01*
X0251931Y0163719D01*
X0251809Y0163699D01*
X0251685Y0163682D01*
X0251562Y0163669D01*
X0251438Y0163660D01*
X0251313Y0163655D01*
X0251189Y0163654D01*
X0251065Y0163657D01*
X0250940Y0163664D01*
X0250816Y0163675D01*
X0250693Y0163690D01*
X0250570Y0163709D01*
X0250448Y0163731D01*
X0250326Y0163758D01*
X0250206Y0163788D01*
X0250086Y0163822D01*
X0249968Y0163861D01*
X0249850Y0163902D01*
X0249735Y0163948D01*
X0249620Y0163997D01*
X0249508Y0164050D01*
X0249397Y0164106D01*
X0249288Y0164166D01*
X0249181Y0164230D01*
X0249076Y0164296D01*
X0248973Y0164366D01*
X0248873Y0164440D01*
X0248775Y0164516D01*
X0248679Y0164595D01*
X0248586Y0164678D01*
X0248495Y0164763D01*
X0248408Y0164852D01*
X0248323Y0164943D01*
X0248241Y0165037D01*
X0248163Y0165133D01*
X0248087Y0165232D01*
X0248014Y0165333D01*
X0247945Y0165436D01*
X0247879Y0165542D01*
X0247817Y0165649D01*
X0247758Y0165759D01*
X0247702Y0165870D01*
X0247650Y0165983D01*
X0247602Y0166098D01*
X0247558Y0166214D01*
X0247517Y0166331D01*
X0247480Y0166450D01*
X0247446Y0166570D01*
X0247417Y0166690D01*
X0247391Y0166812D01*
X0247369Y0166935D01*
X0247352Y0167058D01*
X0247338Y0167181D01*
X0247328Y0167305D01*
X0247322Y0167430D01*
X0247320Y0167554D01*
X0247220Y0163554D02*
X0255220Y0171554D01*
M02*
