G75*
%MOIN*%
%OFA0B0*%
%FSLAX25Y25*%
%IPPOS*%
%LPD*%
%AMOC8*
5,1,8,0,0,1.08239X$1,22.5*
%
%ADD10C,0.00400*%
%ADD11C,0.00300*%
%ADD12C,0.00600*%
%ADD13C,0.00500*%
%ADD14C,0.00000*%
D10*
X0009000Y0006333D02*
X0009000Y0095833D01*
X0265500Y0095833D01*
X0265500Y0006333D01*
X0009000Y0006333D01*
X0241454Y0038636D02*
X0243523Y0038636D01*
X0242489Y0038636D02*
X0242489Y0035533D01*
X0244677Y0035533D02*
X0244677Y0037602D01*
X0245711Y0038636D01*
X0246746Y0037602D01*
X0246746Y0035533D01*
X0247900Y0036050D02*
X0248417Y0035533D01*
X0249968Y0035533D01*
X0249968Y0038636D01*
X0248417Y0038636D01*
X0247900Y0038119D01*
X0247900Y0037602D01*
X0248417Y0037085D01*
X0249968Y0037085D01*
X0248417Y0037085D02*
X0247900Y0036568D01*
X0247900Y0036050D01*
X0246746Y0037085D02*
X0244677Y0037085D01*
D11*
X0237529Y0049483D02*
X0238062Y0050017D01*
X0238062Y0052152D01*
X0237529Y0052686D01*
X0235927Y0052686D01*
X0235927Y0049483D01*
X0237529Y0049483D01*
X0234840Y0049483D02*
X0234840Y0052686D01*
X0232704Y0052686D02*
X0234840Y0049483D01*
X0232704Y0049483D02*
X0232704Y0052686D01*
X0231617Y0052152D02*
X0231083Y0052686D01*
X0230016Y0052686D01*
X0229482Y0052152D01*
X0229482Y0050017D01*
X0230016Y0049483D01*
X0231083Y0049483D01*
X0231617Y0050017D01*
X0231617Y0051085D01*
X0230549Y0051085D01*
X0140231Y0008652D02*
X0140231Y0006517D01*
X0139697Y0005983D01*
X0138095Y0005983D01*
X0138095Y0009186D01*
X0139697Y0009186D01*
X0140231Y0008652D01*
X0137008Y0009186D02*
X0137008Y0005983D01*
X0134873Y0009186D01*
X0134873Y0005983D01*
X0133785Y0006517D02*
X0133785Y0007585D01*
X0132718Y0007585D01*
X0133785Y0008652D02*
X0133251Y0009186D01*
X0132184Y0009186D01*
X0131650Y0008652D01*
X0131650Y0006517D01*
X0132184Y0005983D01*
X0133251Y0005983D01*
X0133785Y0006517D01*
D12*
X0136668Y0032633D02*
X0137736Y0033701D01*
X0137736Y0037971D01*
X0138803Y0036904D02*
X0136668Y0036904D01*
X0140972Y0036904D02*
X0142039Y0036904D01*
X0144174Y0034768D01*
X0144174Y0032633D02*
X0144174Y0036904D01*
X0146350Y0035836D02*
X0146350Y0032633D01*
X0149552Y0032633D01*
X0150620Y0033701D01*
X0149552Y0034768D01*
X0146350Y0034768D01*
X0146350Y0035836D02*
X0147417Y0036904D01*
X0149552Y0036904D01*
X0152788Y0036904D02*
X0155991Y0034768D01*
X0152788Y0032633D01*
X0155991Y0032633D02*
X0155991Y0039039D01*
X0158166Y0035836D02*
X0158166Y0032633D01*
X0161369Y0032633D01*
X0162437Y0033701D01*
X0161369Y0034768D01*
X0158166Y0034768D01*
X0158166Y0035836D02*
X0159234Y0036904D01*
X0161369Y0036904D01*
X0164612Y0035836D02*
X0164612Y0032633D01*
X0164612Y0035836D02*
X0165679Y0036904D01*
X0168882Y0036904D01*
X0168882Y0032633D01*
X0171057Y0032633D02*
X0171057Y0036904D01*
X0173192Y0039039D01*
X0175328Y0036904D01*
X0175328Y0032633D01*
X0175328Y0035836D02*
X0171057Y0035836D01*
X0169610Y0046165D02*
X0169610Y0053571D01*
X0165907Y0053571D01*
X0164672Y0052336D01*
X0164672Y0049868D01*
X0165907Y0048633D01*
X0169610Y0048633D01*
X0172039Y0048633D02*
X0175742Y0048633D01*
X0176976Y0049868D01*
X0175742Y0051102D01*
X0172039Y0051102D01*
X0172039Y0052336D02*
X0172039Y0048633D01*
X0172039Y0052336D02*
X0173273Y0053571D01*
X0175742Y0053571D01*
X0179411Y0053571D02*
X0183115Y0051102D01*
X0179411Y0048633D01*
X0183115Y0048633D02*
X0183115Y0056040D01*
X0186791Y0056040D02*
X0186791Y0057274D01*
X0186791Y0053571D02*
X0186791Y0048633D01*
X0188025Y0048633D02*
X0185557Y0048633D01*
X0190454Y0048633D02*
X0195392Y0048633D01*
X0195392Y0056040D01*
X0188025Y0053571D02*
X0186791Y0053571D01*
X0196819Y0040106D02*
X0196819Y0039039D01*
X0196819Y0036904D02*
X0196819Y0032633D01*
X0195752Y0032633D02*
X0197887Y0032633D01*
X0197887Y0036904D02*
X0196819Y0036904D01*
X0193590Y0036904D02*
X0190387Y0036904D01*
X0189320Y0035836D01*
X0189320Y0032633D01*
X0187144Y0032633D02*
X0187144Y0039039D01*
X0183942Y0036904D02*
X0187144Y0034768D01*
X0183942Y0032633D01*
X0193590Y0032633D02*
X0193590Y0036904D01*
X0200055Y0036904D02*
X0201123Y0036904D01*
X0203258Y0034768D01*
X0203258Y0032633D02*
X0203258Y0036904D01*
X0205433Y0035836D02*
X0205433Y0034768D01*
X0209704Y0034768D01*
X0209704Y0033701D02*
X0209704Y0035836D01*
X0208636Y0036904D01*
X0206501Y0036904D01*
X0205433Y0035836D01*
X0208636Y0032633D02*
X0209704Y0033701D01*
X0208636Y0032633D02*
X0206501Y0032633D01*
X0211879Y0036904D02*
X0214014Y0032633D01*
X0216149Y0036904D01*
X0218324Y0035836D02*
X0219392Y0036904D01*
X0221527Y0036904D01*
X0222595Y0035836D01*
X0222595Y0033701D01*
X0221527Y0032633D01*
X0219392Y0032633D01*
X0218324Y0033701D01*
X0218324Y0035836D01*
X0224770Y0033701D02*
X0225837Y0032633D01*
X0227973Y0032633D01*
X0229040Y0033701D01*
X0229040Y0037971D01*
X0227973Y0039039D01*
X0225837Y0039039D01*
X0224770Y0037971D01*
X0162243Y0049868D02*
X0161009Y0051102D01*
X0157306Y0051102D01*
X0157306Y0052336D02*
X0157306Y0048633D01*
X0161009Y0048633D01*
X0162243Y0049868D01*
X0161009Y0053571D02*
X0158540Y0053571D01*
X0157306Y0052336D01*
X0147511Y0056040D02*
X0142573Y0056040D01*
X0145042Y0056040D02*
X0145042Y0048633D01*
X0140145Y0049868D02*
X0140145Y0052336D01*
X0138910Y0053571D01*
X0136441Y0053571D01*
X0135207Y0052336D01*
X0135207Y0051102D01*
X0140145Y0051102D01*
X0140145Y0049868D02*
X0138910Y0048633D01*
X0136441Y0048633D01*
X0132778Y0048633D02*
X0132778Y0056040D01*
X0129075Y0053571D02*
X0132778Y0051102D01*
X0129075Y0048633D01*
X0126640Y0048633D02*
X0126640Y0053571D01*
X0122937Y0053571D01*
X0121702Y0052336D01*
X0121702Y0048633D01*
X0119273Y0049868D02*
X0118039Y0048633D01*
X0115570Y0048633D01*
X0114336Y0049868D01*
X0114336Y0052336D01*
X0115570Y0053571D01*
X0118039Y0053571D01*
X0119273Y0052336D01*
X0119273Y0049868D01*
X0111907Y0048633D02*
X0109438Y0048633D01*
X0110673Y0048633D02*
X0110673Y0056040D01*
X0111907Y0056040D01*
X0106996Y0052336D02*
X0106996Y0049868D01*
X0105762Y0048633D01*
X0103293Y0048633D01*
X0102059Y0049868D01*
X0102059Y0052336D01*
X0103293Y0053571D01*
X0105762Y0053571D01*
X0106996Y0052336D01*
X0099630Y0046165D02*
X0098396Y0046165D01*
X0097161Y0047399D01*
X0097161Y0053571D01*
X0094719Y0053571D02*
X0093485Y0053571D01*
X0093485Y0048633D01*
X0094719Y0048633D02*
X0092250Y0048633D01*
X0093485Y0056040D02*
X0093485Y0057274D01*
X0097161Y0057274D02*
X0097161Y0056040D01*
X0089394Y0040106D02*
X0089394Y0039039D01*
X0089394Y0036904D02*
X0089394Y0032633D01*
X0088327Y0032633D02*
X0090462Y0032633D01*
X0092637Y0033701D02*
X0093705Y0034768D01*
X0095840Y0034768D01*
X0096907Y0035836D01*
X0095840Y0036904D01*
X0092637Y0036904D01*
X0090462Y0036904D02*
X0089394Y0036904D01*
X0092637Y0033701D02*
X0093705Y0032633D01*
X0096907Y0032633D01*
X0099083Y0034768D02*
X0103353Y0034768D01*
X0103353Y0033701D02*
X0103353Y0035836D01*
X0102285Y0036904D01*
X0100150Y0036904D01*
X0099083Y0035836D01*
X0099083Y0034768D01*
X0100150Y0032633D02*
X0102285Y0032633D01*
X0103353Y0033701D01*
X0105521Y0036904D02*
X0106589Y0036904D01*
X0108724Y0034768D01*
X0108724Y0032633D02*
X0108724Y0036904D01*
X0110899Y0036904D02*
X0113035Y0032633D01*
X0115170Y0036904D01*
X0117345Y0035836D02*
X0117345Y0034768D01*
X0121615Y0034768D01*
X0121615Y0033701D02*
X0121615Y0035836D01*
X0120548Y0036904D01*
X0118412Y0036904D01*
X0117345Y0035836D01*
X0118412Y0032633D02*
X0120548Y0032633D01*
X0121615Y0033701D01*
X0123790Y0033701D02*
X0123790Y0037971D01*
X0124858Y0039039D01*
X0128061Y0039039D01*
X0128061Y0032633D01*
X0124858Y0032633D01*
X0123790Y0033701D01*
X0079719Y0036904D02*
X0077584Y0032633D01*
X0075449Y0036904D01*
X0073274Y0037971D02*
X0072206Y0039039D01*
X0070071Y0039039D01*
X0069004Y0037971D01*
X0073274Y0033701D01*
X0072206Y0032633D01*
X0070071Y0032633D01*
X0069004Y0033701D01*
X0069004Y0037971D01*
X0073274Y0037971D02*
X0073274Y0033701D01*
X0066828Y0033701D02*
X0066828Y0032633D01*
X0065761Y0032633D01*
X0065761Y0033701D01*
X0066828Y0033701D01*
X0063606Y0032633D02*
X0059335Y0032633D01*
X0061471Y0032633D02*
X0061471Y0039039D01*
X0063606Y0036904D01*
D13*
X0246500Y0048833D02*
X0246502Y0048942D01*
X0246508Y0049051D01*
X0246518Y0049159D01*
X0246532Y0049267D01*
X0246549Y0049375D01*
X0246571Y0049482D01*
X0246596Y0049588D01*
X0246626Y0049692D01*
X0246659Y0049796D01*
X0246696Y0049899D01*
X0246736Y0050000D01*
X0246780Y0050099D01*
X0246828Y0050197D01*
X0246880Y0050294D01*
X0246934Y0050388D01*
X0246992Y0050480D01*
X0247054Y0050570D01*
X0247119Y0050657D01*
X0247186Y0050743D01*
X0247257Y0050826D01*
X0247331Y0050906D01*
X0247408Y0050983D01*
X0247487Y0051058D01*
X0247569Y0051129D01*
X0247654Y0051198D01*
X0247741Y0051263D01*
X0247830Y0051326D01*
X0247922Y0051384D01*
X0248016Y0051440D01*
X0248111Y0051492D01*
X0248209Y0051541D01*
X0248308Y0051586D01*
X0248409Y0051628D01*
X0248511Y0051665D01*
X0248614Y0051699D01*
X0248719Y0051730D01*
X0248825Y0051756D01*
X0248931Y0051779D01*
X0249039Y0051797D01*
X0249147Y0051812D01*
X0249255Y0051823D01*
X0249364Y0051830D01*
X0249473Y0051833D01*
X0249582Y0051832D01*
X0249691Y0051827D01*
X0249799Y0051818D01*
X0249907Y0051805D01*
X0250015Y0051788D01*
X0250122Y0051768D01*
X0250228Y0051743D01*
X0250333Y0051715D01*
X0250437Y0051683D01*
X0250540Y0051647D01*
X0250642Y0051607D01*
X0250742Y0051564D01*
X0250840Y0051517D01*
X0250937Y0051467D01*
X0251031Y0051413D01*
X0251124Y0051355D01*
X0251215Y0051295D01*
X0251303Y0051231D01*
X0251389Y0051164D01*
X0251472Y0051094D01*
X0251553Y0051021D01*
X0251631Y0050945D01*
X0251706Y0050866D01*
X0251779Y0050784D01*
X0251848Y0050700D01*
X0251914Y0050614D01*
X0251977Y0050525D01*
X0252037Y0050434D01*
X0252094Y0050341D01*
X0252147Y0050246D01*
X0252196Y0050149D01*
X0252242Y0050050D01*
X0252284Y0049950D01*
X0252323Y0049848D01*
X0252358Y0049744D01*
X0252389Y0049640D01*
X0252417Y0049535D01*
X0252440Y0049428D01*
X0252460Y0049321D01*
X0252476Y0049213D01*
X0252488Y0049105D01*
X0252496Y0048996D01*
X0252500Y0048887D01*
X0252500Y0048779D01*
X0252496Y0048670D01*
X0252488Y0048561D01*
X0252476Y0048453D01*
X0252460Y0048345D01*
X0252440Y0048238D01*
X0252417Y0048131D01*
X0252389Y0048026D01*
X0252358Y0047922D01*
X0252323Y0047818D01*
X0252284Y0047716D01*
X0252242Y0047616D01*
X0252196Y0047517D01*
X0252147Y0047420D01*
X0252094Y0047325D01*
X0252037Y0047232D01*
X0251977Y0047141D01*
X0251914Y0047052D01*
X0251848Y0046966D01*
X0251779Y0046882D01*
X0251706Y0046800D01*
X0251631Y0046721D01*
X0251553Y0046645D01*
X0251472Y0046572D01*
X0251389Y0046502D01*
X0251303Y0046435D01*
X0251215Y0046371D01*
X0251124Y0046311D01*
X0251031Y0046253D01*
X0250937Y0046199D01*
X0250840Y0046149D01*
X0250742Y0046102D01*
X0250642Y0046059D01*
X0250540Y0046019D01*
X0250437Y0045983D01*
X0250333Y0045951D01*
X0250228Y0045923D01*
X0250122Y0045898D01*
X0250015Y0045878D01*
X0249907Y0045861D01*
X0249799Y0045848D01*
X0249691Y0045839D01*
X0249582Y0045834D01*
X0249473Y0045833D01*
X0249364Y0045836D01*
X0249255Y0045843D01*
X0249147Y0045854D01*
X0249039Y0045869D01*
X0248931Y0045887D01*
X0248825Y0045910D01*
X0248719Y0045936D01*
X0248614Y0045967D01*
X0248511Y0046001D01*
X0248409Y0046038D01*
X0248308Y0046080D01*
X0248209Y0046125D01*
X0248111Y0046174D01*
X0248016Y0046226D01*
X0247922Y0046282D01*
X0247830Y0046340D01*
X0247741Y0046403D01*
X0247654Y0046468D01*
X0247569Y0046537D01*
X0247487Y0046608D01*
X0247408Y0046683D01*
X0247331Y0046760D01*
X0247257Y0046840D01*
X0247186Y0046923D01*
X0247119Y0047009D01*
X0247054Y0047096D01*
X0246992Y0047186D01*
X0246934Y0047278D01*
X0246880Y0047372D01*
X0246828Y0047469D01*
X0246780Y0047567D01*
X0246736Y0047666D01*
X0246696Y0047767D01*
X0246659Y0047870D01*
X0246626Y0047974D01*
X0246596Y0048078D01*
X0246571Y0048184D01*
X0246549Y0048291D01*
X0246532Y0048399D01*
X0246518Y0048507D01*
X0246508Y0048615D01*
X0246502Y0048724D01*
X0246500Y0048833D01*
X0247000Y0037333D02*
X0247002Y0037442D01*
X0247008Y0037551D01*
X0247018Y0037659D01*
X0247032Y0037767D01*
X0247049Y0037875D01*
X0247071Y0037982D01*
X0247096Y0038088D01*
X0247126Y0038192D01*
X0247159Y0038296D01*
X0247196Y0038399D01*
X0247236Y0038500D01*
X0247280Y0038599D01*
X0247328Y0038697D01*
X0247380Y0038794D01*
X0247434Y0038888D01*
X0247492Y0038980D01*
X0247554Y0039070D01*
X0247619Y0039157D01*
X0247686Y0039243D01*
X0247757Y0039326D01*
X0247831Y0039406D01*
X0247908Y0039483D01*
X0247987Y0039558D01*
X0248069Y0039629D01*
X0248154Y0039698D01*
X0248241Y0039763D01*
X0248330Y0039826D01*
X0248422Y0039884D01*
X0248516Y0039940D01*
X0248611Y0039992D01*
X0248709Y0040041D01*
X0248808Y0040086D01*
X0248909Y0040128D01*
X0249011Y0040165D01*
X0249114Y0040199D01*
X0249219Y0040230D01*
X0249325Y0040256D01*
X0249431Y0040279D01*
X0249539Y0040297D01*
X0249647Y0040312D01*
X0249755Y0040323D01*
X0249864Y0040330D01*
X0249973Y0040333D01*
X0250082Y0040332D01*
X0250191Y0040327D01*
X0250299Y0040318D01*
X0250407Y0040305D01*
X0250515Y0040288D01*
X0250622Y0040268D01*
X0250728Y0040243D01*
X0250833Y0040215D01*
X0250937Y0040183D01*
X0251040Y0040147D01*
X0251142Y0040107D01*
X0251242Y0040064D01*
X0251340Y0040017D01*
X0251437Y0039967D01*
X0251531Y0039913D01*
X0251624Y0039855D01*
X0251715Y0039795D01*
X0251803Y0039731D01*
X0251889Y0039664D01*
X0251972Y0039594D01*
X0252053Y0039521D01*
X0252131Y0039445D01*
X0252206Y0039366D01*
X0252279Y0039284D01*
X0252348Y0039200D01*
X0252414Y0039114D01*
X0252477Y0039025D01*
X0252537Y0038934D01*
X0252594Y0038841D01*
X0252647Y0038746D01*
X0252696Y0038649D01*
X0252742Y0038550D01*
X0252784Y0038450D01*
X0252823Y0038348D01*
X0252858Y0038244D01*
X0252889Y0038140D01*
X0252917Y0038035D01*
X0252940Y0037928D01*
X0252960Y0037821D01*
X0252976Y0037713D01*
X0252988Y0037605D01*
X0252996Y0037496D01*
X0253000Y0037387D01*
X0253000Y0037279D01*
X0252996Y0037170D01*
X0252988Y0037061D01*
X0252976Y0036953D01*
X0252960Y0036845D01*
X0252940Y0036738D01*
X0252917Y0036631D01*
X0252889Y0036526D01*
X0252858Y0036422D01*
X0252823Y0036318D01*
X0252784Y0036216D01*
X0252742Y0036116D01*
X0252696Y0036017D01*
X0252647Y0035920D01*
X0252594Y0035825D01*
X0252537Y0035732D01*
X0252477Y0035641D01*
X0252414Y0035552D01*
X0252348Y0035466D01*
X0252279Y0035382D01*
X0252206Y0035300D01*
X0252131Y0035221D01*
X0252053Y0035145D01*
X0251972Y0035072D01*
X0251889Y0035002D01*
X0251803Y0034935D01*
X0251715Y0034871D01*
X0251624Y0034811D01*
X0251531Y0034753D01*
X0251437Y0034699D01*
X0251340Y0034649D01*
X0251242Y0034602D01*
X0251142Y0034559D01*
X0251040Y0034519D01*
X0250937Y0034483D01*
X0250833Y0034451D01*
X0250728Y0034423D01*
X0250622Y0034398D01*
X0250515Y0034378D01*
X0250407Y0034361D01*
X0250299Y0034348D01*
X0250191Y0034339D01*
X0250082Y0034334D01*
X0249973Y0034333D01*
X0249864Y0034336D01*
X0249755Y0034343D01*
X0249647Y0034354D01*
X0249539Y0034369D01*
X0249431Y0034387D01*
X0249325Y0034410D01*
X0249219Y0034436D01*
X0249114Y0034467D01*
X0249011Y0034501D01*
X0248909Y0034538D01*
X0248808Y0034580D01*
X0248709Y0034625D01*
X0248611Y0034674D01*
X0248516Y0034726D01*
X0248422Y0034782D01*
X0248330Y0034840D01*
X0248241Y0034903D01*
X0248154Y0034968D01*
X0248069Y0035037D01*
X0247987Y0035108D01*
X0247908Y0035183D01*
X0247831Y0035260D01*
X0247757Y0035340D01*
X0247686Y0035423D01*
X0247619Y0035509D01*
X0247554Y0035596D01*
X0247492Y0035686D01*
X0247434Y0035778D01*
X0247380Y0035872D01*
X0247328Y0035969D01*
X0247280Y0036067D01*
X0247236Y0036166D01*
X0247196Y0036267D01*
X0247159Y0036370D01*
X0247126Y0036474D01*
X0247096Y0036578D01*
X0247071Y0036684D01*
X0247049Y0036791D01*
X0247032Y0036899D01*
X0247018Y0037007D01*
X0247008Y0037115D01*
X0247002Y0037224D01*
X0247000Y0037333D01*
D14*
X0245807Y0077003D02*
X0245809Y0077150D01*
X0245815Y0077296D01*
X0245825Y0077442D01*
X0245839Y0077588D01*
X0245857Y0077734D01*
X0245878Y0077879D01*
X0245904Y0078023D01*
X0245934Y0078167D01*
X0245967Y0078309D01*
X0246004Y0078451D01*
X0246045Y0078592D01*
X0246090Y0078731D01*
X0246139Y0078870D01*
X0246191Y0079007D01*
X0246248Y0079142D01*
X0246307Y0079276D01*
X0246371Y0079408D01*
X0246438Y0079538D01*
X0246508Y0079667D01*
X0246582Y0079794D01*
X0246659Y0079918D01*
X0246740Y0080041D01*
X0246824Y0080161D01*
X0246911Y0080279D01*
X0247001Y0080394D01*
X0247094Y0080507D01*
X0247191Y0080618D01*
X0247290Y0080726D01*
X0247392Y0080831D01*
X0247497Y0080933D01*
X0247605Y0081032D01*
X0247716Y0081129D01*
X0247829Y0081222D01*
X0247944Y0081312D01*
X0248062Y0081399D01*
X0248182Y0081483D01*
X0248305Y0081564D01*
X0248429Y0081641D01*
X0248556Y0081715D01*
X0248685Y0081785D01*
X0248815Y0081852D01*
X0248947Y0081916D01*
X0249081Y0081975D01*
X0249216Y0082032D01*
X0249353Y0082084D01*
X0249492Y0082133D01*
X0249631Y0082178D01*
X0249772Y0082219D01*
X0249914Y0082256D01*
X0250056Y0082289D01*
X0250200Y0082319D01*
X0250344Y0082345D01*
X0250489Y0082366D01*
X0250635Y0082384D01*
X0250781Y0082398D01*
X0250927Y0082408D01*
X0251073Y0082414D01*
X0251220Y0082416D01*
X0251367Y0082414D01*
X0251513Y0082408D01*
X0251659Y0082398D01*
X0251805Y0082384D01*
X0251951Y0082366D01*
X0252096Y0082345D01*
X0252240Y0082319D01*
X0252384Y0082289D01*
X0252526Y0082256D01*
X0252668Y0082219D01*
X0252809Y0082178D01*
X0252948Y0082133D01*
X0253087Y0082084D01*
X0253224Y0082032D01*
X0253359Y0081975D01*
X0253493Y0081916D01*
X0253625Y0081852D01*
X0253755Y0081785D01*
X0253884Y0081715D01*
X0254011Y0081641D01*
X0254135Y0081564D01*
X0254258Y0081483D01*
X0254378Y0081399D01*
X0254496Y0081312D01*
X0254611Y0081222D01*
X0254724Y0081129D01*
X0254835Y0081032D01*
X0254943Y0080933D01*
X0255048Y0080831D01*
X0255150Y0080726D01*
X0255249Y0080618D01*
X0255346Y0080507D01*
X0255439Y0080394D01*
X0255529Y0080279D01*
X0255616Y0080161D01*
X0255700Y0080041D01*
X0255781Y0079918D01*
X0255858Y0079794D01*
X0255932Y0079667D01*
X0256002Y0079538D01*
X0256069Y0079408D01*
X0256133Y0079276D01*
X0256192Y0079142D01*
X0256249Y0079007D01*
X0256301Y0078870D01*
X0256350Y0078731D01*
X0256395Y0078592D01*
X0256436Y0078451D01*
X0256473Y0078309D01*
X0256506Y0078167D01*
X0256536Y0078023D01*
X0256562Y0077879D01*
X0256583Y0077734D01*
X0256601Y0077588D01*
X0256615Y0077442D01*
X0256625Y0077296D01*
X0256631Y0077150D01*
X0256633Y0077003D01*
X0256631Y0076856D01*
X0256625Y0076710D01*
X0256615Y0076564D01*
X0256601Y0076418D01*
X0256583Y0076272D01*
X0256562Y0076127D01*
X0256536Y0075983D01*
X0256506Y0075839D01*
X0256473Y0075697D01*
X0256436Y0075555D01*
X0256395Y0075414D01*
X0256350Y0075275D01*
X0256301Y0075136D01*
X0256249Y0074999D01*
X0256192Y0074864D01*
X0256133Y0074730D01*
X0256069Y0074598D01*
X0256002Y0074468D01*
X0255932Y0074339D01*
X0255858Y0074212D01*
X0255781Y0074088D01*
X0255700Y0073965D01*
X0255616Y0073845D01*
X0255529Y0073727D01*
X0255439Y0073612D01*
X0255346Y0073499D01*
X0255249Y0073388D01*
X0255150Y0073280D01*
X0255048Y0073175D01*
X0254943Y0073073D01*
X0254835Y0072974D01*
X0254724Y0072877D01*
X0254611Y0072784D01*
X0254496Y0072694D01*
X0254378Y0072607D01*
X0254258Y0072523D01*
X0254135Y0072442D01*
X0254011Y0072365D01*
X0253884Y0072291D01*
X0253755Y0072221D01*
X0253625Y0072154D01*
X0253493Y0072090D01*
X0253359Y0072031D01*
X0253224Y0071974D01*
X0253087Y0071922D01*
X0252948Y0071873D01*
X0252809Y0071828D01*
X0252668Y0071787D01*
X0252526Y0071750D01*
X0252384Y0071717D01*
X0252240Y0071687D01*
X0252096Y0071661D01*
X0251951Y0071640D01*
X0251805Y0071622D01*
X0251659Y0071608D01*
X0251513Y0071598D01*
X0251367Y0071592D01*
X0251220Y0071590D01*
X0251073Y0071592D01*
X0250927Y0071598D01*
X0250781Y0071608D01*
X0250635Y0071622D01*
X0250489Y0071640D01*
X0250344Y0071661D01*
X0250200Y0071687D01*
X0250056Y0071717D01*
X0249914Y0071750D01*
X0249772Y0071787D01*
X0249631Y0071828D01*
X0249492Y0071873D01*
X0249353Y0071922D01*
X0249216Y0071974D01*
X0249081Y0072031D01*
X0248947Y0072090D01*
X0248815Y0072154D01*
X0248685Y0072221D01*
X0248556Y0072291D01*
X0248429Y0072365D01*
X0248305Y0072442D01*
X0248182Y0072523D01*
X0248062Y0072607D01*
X0247944Y0072694D01*
X0247829Y0072784D01*
X0247716Y0072877D01*
X0247605Y0072974D01*
X0247497Y0073073D01*
X0247392Y0073175D01*
X0247290Y0073280D01*
X0247191Y0073388D01*
X0247094Y0073499D01*
X0247001Y0073612D01*
X0246911Y0073727D01*
X0246824Y0073845D01*
X0246740Y0073965D01*
X0246659Y0074088D01*
X0246582Y0074212D01*
X0246508Y0074339D01*
X0246438Y0074468D01*
X0246371Y0074598D01*
X0246307Y0074730D01*
X0246248Y0074864D01*
X0246191Y0074999D01*
X0246139Y0075136D01*
X0246090Y0075275D01*
X0246045Y0075414D01*
X0246004Y0075555D01*
X0245967Y0075697D01*
X0245934Y0075839D01*
X0245904Y0075983D01*
X0245878Y0076127D01*
X0245857Y0076272D01*
X0245839Y0076418D01*
X0245825Y0076564D01*
X0245815Y0076710D01*
X0245809Y0076856D01*
X0245807Y0077003D01*
X0245807Y0167554D02*
X0245809Y0167701D01*
X0245815Y0167847D01*
X0245825Y0167993D01*
X0245839Y0168139D01*
X0245857Y0168285D01*
X0245878Y0168430D01*
X0245904Y0168574D01*
X0245934Y0168718D01*
X0245967Y0168860D01*
X0246004Y0169002D01*
X0246045Y0169143D01*
X0246090Y0169282D01*
X0246139Y0169421D01*
X0246191Y0169558D01*
X0246248Y0169693D01*
X0246307Y0169827D01*
X0246371Y0169959D01*
X0246438Y0170089D01*
X0246508Y0170218D01*
X0246582Y0170345D01*
X0246659Y0170469D01*
X0246740Y0170592D01*
X0246824Y0170712D01*
X0246911Y0170830D01*
X0247001Y0170945D01*
X0247094Y0171058D01*
X0247191Y0171169D01*
X0247290Y0171277D01*
X0247392Y0171382D01*
X0247497Y0171484D01*
X0247605Y0171583D01*
X0247716Y0171680D01*
X0247829Y0171773D01*
X0247944Y0171863D01*
X0248062Y0171950D01*
X0248182Y0172034D01*
X0248305Y0172115D01*
X0248429Y0172192D01*
X0248556Y0172266D01*
X0248685Y0172336D01*
X0248815Y0172403D01*
X0248947Y0172467D01*
X0249081Y0172526D01*
X0249216Y0172583D01*
X0249353Y0172635D01*
X0249492Y0172684D01*
X0249631Y0172729D01*
X0249772Y0172770D01*
X0249914Y0172807D01*
X0250056Y0172840D01*
X0250200Y0172870D01*
X0250344Y0172896D01*
X0250489Y0172917D01*
X0250635Y0172935D01*
X0250781Y0172949D01*
X0250927Y0172959D01*
X0251073Y0172965D01*
X0251220Y0172967D01*
X0251367Y0172965D01*
X0251513Y0172959D01*
X0251659Y0172949D01*
X0251805Y0172935D01*
X0251951Y0172917D01*
X0252096Y0172896D01*
X0252240Y0172870D01*
X0252384Y0172840D01*
X0252526Y0172807D01*
X0252668Y0172770D01*
X0252809Y0172729D01*
X0252948Y0172684D01*
X0253087Y0172635D01*
X0253224Y0172583D01*
X0253359Y0172526D01*
X0253493Y0172467D01*
X0253625Y0172403D01*
X0253755Y0172336D01*
X0253884Y0172266D01*
X0254011Y0172192D01*
X0254135Y0172115D01*
X0254258Y0172034D01*
X0254378Y0171950D01*
X0254496Y0171863D01*
X0254611Y0171773D01*
X0254724Y0171680D01*
X0254835Y0171583D01*
X0254943Y0171484D01*
X0255048Y0171382D01*
X0255150Y0171277D01*
X0255249Y0171169D01*
X0255346Y0171058D01*
X0255439Y0170945D01*
X0255529Y0170830D01*
X0255616Y0170712D01*
X0255700Y0170592D01*
X0255781Y0170469D01*
X0255858Y0170345D01*
X0255932Y0170218D01*
X0256002Y0170089D01*
X0256069Y0169959D01*
X0256133Y0169827D01*
X0256192Y0169693D01*
X0256249Y0169558D01*
X0256301Y0169421D01*
X0256350Y0169282D01*
X0256395Y0169143D01*
X0256436Y0169002D01*
X0256473Y0168860D01*
X0256506Y0168718D01*
X0256536Y0168574D01*
X0256562Y0168430D01*
X0256583Y0168285D01*
X0256601Y0168139D01*
X0256615Y0167993D01*
X0256625Y0167847D01*
X0256631Y0167701D01*
X0256633Y0167554D01*
X0256631Y0167407D01*
X0256625Y0167261D01*
X0256615Y0167115D01*
X0256601Y0166969D01*
X0256583Y0166823D01*
X0256562Y0166678D01*
X0256536Y0166534D01*
X0256506Y0166390D01*
X0256473Y0166248D01*
X0256436Y0166106D01*
X0256395Y0165965D01*
X0256350Y0165826D01*
X0256301Y0165687D01*
X0256249Y0165550D01*
X0256192Y0165415D01*
X0256133Y0165281D01*
X0256069Y0165149D01*
X0256002Y0165019D01*
X0255932Y0164890D01*
X0255858Y0164763D01*
X0255781Y0164639D01*
X0255700Y0164516D01*
X0255616Y0164396D01*
X0255529Y0164278D01*
X0255439Y0164163D01*
X0255346Y0164050D01*
X0255249Y0163939D01*
X0255150Y0163831D01*
X0255048Y0163726D01*
X0254943Y0163624D01*
X0254835Y0163525D01*
X0254724Y0163428D01*
X0254611Y0163335D01*
X0254496Y0163245D01*
X0254378Y0163158D01*
X0254258Y0163074D01*
X0254135Y0162993D01*
X0254011Y0162916D01*
X0253884Y0162842D01*
X0253755Y0162772D01*
X0253625Y0162705D01*
X0253493Y0162641D01*
X0253359Y0162582D01*
X0253224Y0162525D01*
X0253087Y0162473D01*
X0252948Y0162424D01*
X0252809Y0162379D01*
X0252668Y0162338D01*
X0252526Y0162301D01*
X0252384Y0162268D01*
X0252240Y0162238D01*
X0252096Y0162212D01*
X0251951Y0162191D01*
X0251805Y0162173D01*
X0251659Y0162159D01*
X0251513Y0162149D01*
X0251367Y0162143D01*
X0251220Y0162141D01*
X0251073Y0162143D01*
X0250927Y0162149D01*
X0250781Y0162159D01*
X0250635Y0162173D01*
X0250489Y0162191D01*
X0250344Y0162212D01*
X0250200Y0162238D01*
X0250056Y0162268D01*
X0249914Y0162301D01*
X0249772Y0162338D01*
X0249631Y0162379D01*
X0249492Y0162424D01*
X0249353Y0162473D01*
X0249216Y0162525D01*
X0249081Y0162582D01*
X0248947Y0162641D01*
X0248815Y0162705D01*
X0248685Y0162772D01*
X0248556Y0162842D01*
X0248429Y0162916D01*
X0248305Y0162993D01*
X0248182Y0163074D01*
X0248062Y0163158D01*
X0247944Y0163245D01*
X0247829Y0163335D01*
X0247716Y0163428D01*
X0247605Y0163525D01*
X0247497Y0163624D01*
X0247392Y0163726D01*
X0247290Y0163831D01*
X0247191Y0163939D01*
X0247094Y0164050D01*
X0247001Y0164163D01*
X0246911Y0164278D01*
X0246824Y0164396D01*
X0246740Y0164516D01*
X0246659Y0164639D01*
X0246582Y0164763D01*
X0246508Y0164890D01*
X0246438Y0165019D01*
X0246371Y0165149D01*
X0246307Y0165281D01*
X0246248Y0165415D01*
X0246191Y0165550D01*
X0246139Y0165687D01*
X0246090Y0165826D01*
X0246045Y0165965D01*
X0246004Y0166106D01*
X0245967Y0166248D01*
X0245934Y0166390D01*
X0245904Y0166534D01*
X0245878Y0166678D01*
X0245857Y0166823D01*
X0245839Y0166969D01*
X0245825Y0167115D01*
X0245815Y0167261D01*
X0245809Y0167407D01*
X0245807Y0167554D01*
X0024191Y0037207D02*
X0024193Y0037277D01*
X0024199Y0037347D01*
X0024209Y0037416D01*
X0024222Y0037485D01*
X0024240Y0037553D01*
X0024261Y0037620D01*
X0024286Y0037685D01*
X0024315Y0037749D01*
X0024347Y0037812D01*
X0024383Y0037872D01*
X0024422Y0037930D01*
X0024464Y0037986D01*
X0024509Y0038040D01*
X0024557Y0038091D01*
X0024608Y0038139D01*
X0024662Y0038184D01*
X0024718Y0038226D01*
X0024776Y0038265D01*
X0024836Y0038301D01*
X0024899Y0038333D01*
X0024963Y0038362D01*
X0025028Y0038387D01*
X0025095Y0038408D01*
X0025163Y0038426D01*
X0025232Y0038439D01*
X0025301Y0038449D01*
X0025371Y0038455D01*
X0025441Y0038457D01*
X0025511Y0038455D01*
X0025581Y0038449D01*
X0025650Y0038439D01*
X0025719Y0038426D01*
X0025787Y0038408D01*
X0025854Y0038387D01*
X0025919Y0038362D01*
X0025983Y0038333D01*
X0026046Y0038301D01*
X0026106Y0038265D01*
X0026164Y0038226D01*
X0026220Y0038184D01*
X0026274Y0038139D01*
X0026325Y0038091D01*
X0026373Y0038040D01*
X0026418Y0037986D01*
X0026460Y0037930D01*
X0026499Y0037872D01*
X0026535Y0037812D01*
X0026567Y0037749D01*
X0026596Y0037685D01*
X0026621Y0037620D01*
X0026642Y0037553D01*
X0026660Y0037485D01*
X0026673Y0037416D01*
X0026683Y0037347D01*
X0026689Y0037277D01*
X0026691Y0037207D01*
X0026689Y0037137D01*
X0026683Y0037067D01*
X0026673Y0036998D01*
X0026660Y0036929D01*
X0026642Y0036861D01*
X0026621Y0036794D01*
X0026596Y0036729D01*
X0026567Y0036665D01*
X0026535Y0036602D01*
X0026499Y0036542D01*
X0026460Y0036484D01*
X0026418Y0036428D01*
X0026373Y0036374D01*
X0026325Y0036323D01*
X0026274Y0036275D01*
X0026220Y0036230D01*
X0026164Y0036188D01*
X0026106Y0036149D01*
X0026046Y0036113D01*
X0025983Y0036081D01*
X0025919Y0036052D01*
X0025854Y0036027D01*
X0025787Y0036006D01*
X0025719Y0035988D01*
X0025650Y0035975D01*
X0025581Y0035965D01*
X0025511Y0035959D01*
X0025441Y0035957D01*
X0025371Y0035959D01*
X0025301Y0035965D01*
X0025232Y0035975D01*
X0025163Y0035988D01*
X0025095Y0036006D01*
X0025028Y0036027D01*
X0024963Y0036052D01*
X0024899Y0036081D01*
X0024836Y0036113D01*
X0024776Y0036149D01*
X0024718Y0036188D01*
X0024662Y0036230D01*
X0024608Y0036275D01*
X0024557Y0036323D01*
X0024509Y0036374D01*
X0024464Y0036428D01*
X0024422Y0036484D01*
X0024383Y0036542D01*
X0024347Y0036602D01*
X0024315Y0036665D01*
X0024286Y0036729D01*
X0024261Y0036794D01*
X0024240Y0036861D01*
X0024222Y0036929D01*
X0024209Y0036998D01*
X0024199Y0037067D01*
X0024193Y0037137D01*
X0024191Y0037207D01*
X0024191Y0021459D02*
X0024193Y0021529D01*
X0024199Y0021599D01*
X0024209Y0021668D01*
X0024222Y0021737D01*
X0024240Y0021805D01*
X0024261Y0021872D01*
X0024286Y0021937D01*
X0024315Y0022001D01*
X0024347Y0022064D01*
X0024383Y0022124D01*
X0024422Y0022182D01*
X0024464Y0022238D01*
X0024509Y0022292D01*
X0024557Y0022343D01*
X0024608Y0022391D01*
X0024662Y0022436D01*
X0024718Y0022478D01*
X0024776Y0022517D01*
X0024836Y0022553D01*
X0024899Y0022585D01*
X0024963Y0022614D01*
X0025028Y0022639D01*
X0025095Y0022660D01*
X0025163Y0022678D01*
X0025232Y0022691D01*
X0025301Y0022701D01*
X0025371Y0022707D01*
X0025441Y0022709D01*
X0025511Y0022707D01*
X0025581Y0022701D01*
X0025650Y0022691D01*
X0025719Y0022678D01*
X0025787Y0022660D01*
X0025854Y0022639D01*
X0025919Y0022614D01*
X0025983Y0022585D01*
X0026046Y0022553D01*
X0026106Y0022517D01*
X0026164Y0022478D01*
X0026220Y0022436D01*
X0026274Y0022391D01*
X0026325Y0022343D01*
X0026373Y0022292D01*
X0026418Y0022238D01*
X0026460Y0022182D01*
X0026499Y0022124D01*
X0026535Y0022064D01*
X0026567Y0022001D01*
X0026596Y0021937D01*
X0026621Y0021872D01*
X0026642Y0021805D01*
X0026660Y0021737D01*
X0026673Y0021668D01*
X0026683Y0021599D01*
X0026689Y0021529D01*
X0026691Y0021459D01*
X0026689Y0021389D01*
X0026683Y0021319D01*
X0026673Y0021250D01*
X0026660Y0021181D01*
X0026642Y0021113D01*
X0026621Y0021046D01*
X0026596Y0020981D01*
X0026567Y0020917D01*
X0026535Y0020854D01*
X0026499Y0020794D01*
X0026460Y0020736D01*
X0026418Y0020680D01*
X0026373Y0020626D01*
X0026325Y0020575D01*
X0026274Y0020527D01*
X0026220Y0020482D01*
X0026164Y0020440D01*
X0026106Y0020401D01*
X0026046Y0020365D01*
X0025983Y0020333D01*
X0025919Y0020304D01*
X0025854Y0020279D01*
X0025787Y0020258D01*
X0025719Y0020240D01*
X0025650Y0020227D01*
X0025581Y0020217D01*
X0025511Y0020211D01*
X0025441Y0020209D01*
X0025371Y0020211D01*
X0025301Y0020217D01*
X0025232Y0020227D01*
X0025163Y0020240D01*
X0025095Y0020258D01*
X0025028Y0020279D01*
X0024963Y0020304D01*
X0024899Y0020333D01*
X0024836Y0020365D01*
X0024776Y0020401D01*
X0024718Y0020440D01*
X0024662Y0020482D01*
X0024608Y0020527D01*
X0024557Y0020575D01*
X0024509Y0020626D01*
X0024464Y0020680D01*
X0024422Y0020736D01*
X0024383Y0020794D01*
X0024347Y0020854D01*
X0024315Y0020917D01*
X0024286Y0020981D01*
X0024261Y0021046D01*
X0024240Y0021113D01*
X0024222Y0021181D01*
X0024209Y0021250D01*
X0024199Y0021319D01*
X0024193Y0021389D01*
X0024191Y0021459D01*
X0017461Y0077003D02*
X0017463Y0077150D01*
X0017469Y0077296D01*
X0017479Y0077442D01*
X0017493Y0077588D01*
X0017511Y0077734D01*
X0017532Y0077879D01*
X0017558Y0078023D01*
X0017588Y0078167D01*
X0017621Y0078309D01*
X0017658Y0078451D01*
X0017699Y0078592D01*
X0017744Y0078731D01*
X0017793Y0078870D01*
X0017845Y0079007D01*
X0017902Y0079142D01*
X0017961Y0079276D01*
X0018025Y0079408D01*
X0018092Y0079538D01*
X0018162Y0079667D01*
X0018236Y0079794D01*
X0018313Y0079918D01*
X0018394Y0080041D01*
X0018478Y0080161D01*
X0018565Y0080279D01*
X0018655Y0080394D01*
X0018748Y0080507D01*
X0018845Y0080618D01*
X0018944Y0080726D01*
X0019046Y0080831D01*
X0019151Y0080933D01*
X0019259Y0081032D01*
X0019370Y0081129D01*
X0019483Y0081222D01*
X0019598Y0081312D01*
X0019716Y0081399D01*
X0019836Y0081483D01*
X0019959Y0081564D01*
X0020083Y0081641D01*
X0020210Y0081715D01*
X0020339Y0081785D01*
X0020469Y0081852D01*
X0020601Y0081916D01*
X0020735Y0081975D01*
X0020870Y0082032D01*
X0021007Y0082084D01*
X0021146Y0082133D01*
X0021285Y0082178D01*
X0021426Y0082219D01*
X0021568Y0082256D01*
X0021710Y0082289D01*
X0021854Y0082319D01*
X0021998Y0082345D01*
X0022143Y0082366D01*
X0022289Y0082384D01*
X0022435Y0082398D01*
X0022581Y0082408D01*
X0022727Y0082414D01*
X0022874Y0082416D01*
X0023021Y0082414D01*
X0023167Y0082408D01*
X0023313Y0082398D01*
X0023459Y0082384D01*
X0023605Y0082366D01*
X0023750Y0082345D01*
X0023894Y0082319D01*
X0024038Y0082289D01*
X0024180Y0082256D01*
X0024322Y0082219D01*
X0024463Y0082178D01*
X0024602Y0082133D01*
X0024741Y0082084D01*
X0024878Y0082032D01*
X0025013Y0081975D01*
X0025147Y0081916D01*
X0025279Y0081852D01*
X0025409Y0081785D01*
X0025538Y0081715D01*
X0025665Y0081641D01*
X0025789Y0081564D01*
X0025912Y0081483D01*
X0026032Y0081399D01*
X0026150Y0081312D01*
X0026265Y0081222D01*
X0026378Y0081129D01*
X0026489Y0081032D01*
X0026597Y0080933D01*
X0026702Y0080831D01*
X0026804Y0080726D01*
X0026903Y0080618D01*
X0027000Y0080507D01*
X0027093Y0080394D01*
X0027183Y0080279D01*
X0027270Y0080161D01*
X0027354Y0080041D01*
X0027435Y0079918D01*
X0027512Y0079794D01*
X0027586Y0079667D01*
X0027656Y0079538D01*
X0027723Y0079408D01*
X0027787Y0079276D01*
X0027846Y0079142D01*
X0027903Y0079007D01*
X0027955Y0078870D01*
X0028004Y0078731D01*
X0028049Y0078592D01*
X0028090Y0078451D01*
X0028127Y0078309D01*
X0028160Y0078167D01*
X0028190Y0078023D01*
X0028216Y0077879D01*
X0028237Y0077734D01*
X0028255Y0077588D01*
X0028269Y0077442D01*
X0028279Y0077296D01*
X0028285Y0077150D01*
X0028287Y0077003D01*
X0028285Y0076856D01*
X0028279Y0076710D01*
X0028269Y0076564D01*
X0028255Y0076418D01*
X0028237Y0076272D01*
X0028216Y0076127D01*
X0028190Y0075983D01*
X0028160Y0075839D01*
X0028127Y0075697D01*
X0028090Y0075555D01*
X0028049Y0075414D01*
X0028004Y0075275D01*
X0027955Y0075136D01*
X0027903Y0074999D01*
X0027846Y0074864D01*
X0027787Y0074730D01*
X0027723Y0074598D01*
X0027656Y0074468D01*
X0027586Y0074339D01*
X0027512Y0074212D01*
X0027435Y0074088D01*
X0027354Y0073965D01*
X0027270Y0073845D01*
X0027183Y0073727D01*
X0027093Y0073612D01*
X0027000Y0073499D01*
X0026903Y0073388D01*
X0026804Y0073280D01*
X0026702Y0073175D01*
X0026597Y0073073D01*
X0026489Y0072974D01*
X0026378Y0072877D01*
X0026265Y0072784D01*
X0026150Y0072694D01*
X0026032Y0072607D01*
X0025912Y0072523D01*
X0025789Y0072442D01*
X0025665Y0072365D01*
X0025538Y0072291D01*
X0025409Y0072221D01*
X0025279Y0072154D01*
X0025147Y0072090D01*
X0025013Y0072031D01*
X0024878Y0071974D01*
X0024741Y0071922D01*
X0024602Y0071873D01*
X0024463Y0071828D01*
X0024322Y0071787D01*
X0024180Y0071750D01*
X0024038Y0071717D01*
X0023894Y0071687D01*
X0023750Y0071661D01*
X0023605Y0071640D01*
X0023459Y0071622D01*
X0023313Y0071608D01*
X0023167Y0071598D01*
X0023021Y0071592D01*
X0022874Y0071590D01*
X0022727Y0071592D01*
X0022581Y0071598D01*
X0022435Y0071608D01*
X0022289Y0071622D01*
X0022143Y0071640D01*
X0021998Y0071661D01*
X0021854Y0071687D01*
X0021710Y0071717D01*
X0021568Y0071750D01*
X0021426Y0071787D01*
X0021285Y0071828D01*
X0021146Y0071873D01*
X0021007Y0071922D01*
X0020870Y0071974D01*
X0020735Y0072031D01*
X0020601Y0072090D01*
X0020469Y0072154D01*
X0020339Y0072221D01*
X0020210Y0072291D01*
X0020083Y0072365D01*
X0019959Y0072442D01*
X0019836Y0072523D01*
X0019716Y0072607D01*
X0019598Y0072694D01*
X0019483Y0072784D01*
X0019370Y0072877D01*
X0019259Y0072974D01*
X0019151Y0073073D01*
X0019046Y0073175D01*
X0018944Y0073280D01*
X0018845Y0073388D01*
X0018748Y0073499D01*
X0018655Y0073612D01*
X0018565Y0073727D01*
X0018478Y0073845D01*
X0018394Y0073965D01*
X0018313Y0074088D01*
X0018236Y0074212D01*
X0018162Y0074339D01*
X0018092Y0074468D01*
X0018025Y0074598D01*
X0017961Y0074730D01*
X0017902Y0074864D01*
X0017845Y0074999D01*
X0017793Y0075136D01*
X0017744Y0075275D01*
X0017699Y0075414D01*
X0017658Y0075555D01*
X0017621Y0075697D01*
X0017588Y0075839D01*
X0017558Y0075983D01*
X0017532Y0076127D01*
X0017511Y0076272D01*
X0017493Y0076418D01*
X0017479Y0076564D01*
X0017469Y0076710D01*
X0017463Y0076856D01*
X0017461Y0077003D01*
X0017461Y0167554D02*
X0017463Y0167701D01*
X0017469Y0167847D01*
X0017479Y0167993D01*
X0017493Y0168139D01*
X0017511Y0168285D01*
X0017532Y0168430D01*
X0017558Y0168574D01*
X0017588Y0168718D01*
X0017621Y0168860D01*
X0017658Y0169002D01*
X0017699Y0169143D01*
X0017744Y0169282D01*
X0017793Y0169421D01*
X0017845Y0169558D01*
X0017902Y0169693D01*
X0017961Y0169827D01*
X0018025Y0169959D01*
X0018092Y0170089D01*
X0018162Y0170218D01*
X0018236Y0170345D01*
X0018313Y0170469D01*
X0018394Y0170592D01*
X0018478Y0170712D01*
X0018565Y0170830D01*
X0018655Y0170945D01*
X0018748Y0171058D01*
X0018845Y0171169D01*
X0018944Y0171277D01*
X0019046Y0171382D01*
X0019151Y0171484D01*
X0019259Y0171583D01*
X0019370Y0171680D01*
X0019483Y0171773D01*
X0019598Y0171863D01*
X0019716Y0171950D01*
X0019836Y0172034D01*
X0019959Y0172115D01*
X0020083Y0172192D01*
X0020210Y0172266D01*
X0020339Y0172336D01*
X0020469Y0172403D01*
X0020601Y0172467D01*
X0020735Y0172526D01*
X0020870Y0172583D01*
X0021007Y0172635D01*
X0021146Y0172684D01*
X0021285Y0172729D01*
X0021426Y0172770D01*
X0021568Y0172807D01*
X0021710Y0172840D01*
X0021854Y0172870D01*
X0021998Y0172896D01*
X0022143Y0172917D01*
X0022289Y0172935D01*
X0022435Y0172949D01*
X0022581Y0172959D01*
X0022727Y0172965D01*
X0022874Y0172967D01*
X0023021Y0172965D01*
X0023167Y0172959D01*
X0023313Y0172949D01*
X0023459Y0172935D01*
X0023605Y0172917D01*
X0023750Y0172896D01*
X0023894Y0172870D01*
X0024038Y0172840D01*
X0024180Y0172807D01*
X0024322Y0172770D01*
X0024463Y0172729D01*
X0024602Y0172684D01*
X0024741Y0172635D01*
X0024878Y0172583D01*
X0025013Y0172526D01*
X0025147Y0172467D01*
X0025279Y0172403D01*
X0025409Y0172336D01*
X0025538Y0172266D01*
X0025665Y0172192D01*
X0025789Y0172115D01*
X0025912Y0172034D01*
X0026032Y0171950D01*
X0026150Y0171863D01*
X0026265Y0171773D01*
X0026378Y0171680D01*
X0026489Y0171583D01*
X0026597Y0171484D01*
X0026702Y0171382D01*
X0026804Y0171277D01*
X0026903Y0171169D01*
X0027000Y0171058D01*
X0027093Y0170945D01*
X0027183Y0170830D01*
X0027270Y0170712D01*
X0027354Y0170592D01*
X0027435Y0170469D01*
X0027512Y0170345D01*
X0027586Y0170218D01*
X0027656Y0170089D01*
X0027723Y0169959D01*
X0027787Y0169827D01*
X0027846Y0169693D01*
X0027903Y0169558D01*
X0027955Y0169421D01*
X0028004Y0169282D01*
X0028049Y0169143D01*
X0028090Y0169002D01*
X0028127Y0168860D01*
X0028160Y0168718D01*
X0028190Y0168574D01*
X0028216Y0168430D01*
X0028237Y0168285D01*
X0028255Y0168139D01*
X0028269Y0167993D01*
X0028279Y0167847D01*
X0028285Y0167701D01*
X0028287Y0167554D01*
X0028285Y0167407D01*
X0028279Y0167261D01*
X0028269Y0167115D01*
X0028255Y0166969D01*
X0028237Y0166823D01*
X0028216Y0166678D01*
X0028190Y0166534D01*
X0028160Y0166390D01*
X0028127Y0166248D01*
X0028090Y0166106D01*
X0028049Y0165965D01*
X0028004Y0165826D01*
X0027955Y0165687D01*
X0027903Y0165550D01*
X0027846Y0165415D01*
X0027787Y0165281D01*
X0027723Y0165149D01*
X0027656Y0165019D01*
X0027586Y0164890D01*
X0027512Y0164763D01*
X0027435Y0164639D01*
X0027354Y0164516D01*
X0027270Y0164396D01*
X0027183Y0164278D01*
X0027093Y0164163D01*
X0027000Y0164050D01*
X0026903Y0163939D01*
X0026804Y0163831D01*
X0026702Y0163726D01*
X0026597Y0163624D01*
X0026489Y0163525D01*
X0026378Y0163428D01*
X0026265Y0163335D01*
X0026150Y0163245D01*
X0026032Y0163158D01*
X0025912Y0163074D01*
X0025789Y0162993D01*
X0025665Y0162916D01*
X0025538Y0162842D01*
X0025409Y0162772D01*
X0025279Y0162705D01*
X0025147Y0162641D01*
X0025013Y0162582D01*
X0024878Y0162525D01*
X0024741Y0162473D01*
X0024602Y0162424D01*
X0024463Y0162379D01*
X0024322Y0162338D01*
X0024180Y0162301D01*
X0024038Y0162268D01*
X0023894Y0162238D01*
X0023750Y0162212D01*
X0023605Y0162191D01*
X0023459Y0162173D01*
X0023313Y0162159D01*
X0023167Y0162149D01*
X0023021Y0162143D01*
X0022874Y0162141D01*
X0022727Y0162143D01*
X0022581Y0162149D01*
X0022435Y0162159D01*
X0022289Y0162173D01*
X0022143Y0162191D01*
X0021998Y0162212D01*
X0021854Y0162238D01*
X0021710Y0162268D01*
X0021568Y0162301D01*
X0021426Y0162338D01*
X0021285Y0162379D01*
X0021146Y0162424D01*
X0021007Y0162473D01*
X0020870Y0162525D01*
X0020735Y0162582D01*
X0020601Y0162641D01*
X0020469Y0162705D01*
X0020339Y0162772D01*
X0020210Y0162842D01*
X0020083Y0162916D01*
X0019959Y0162993D01*
X0019836Y0163074D01*
X0019716Y0163158D01*
X0019598Y0163245D01*
X0019483Y0163335D01*
X0019370Y0163428D01*
X0019259Y0163525D01*
X0019151Y0163624D01*
X0019046Y0163726D01*
X0018944Y0163831D01*
X0018845Y0163939D01*
X0018748Y0164050D01*
X0018655Y0164163D01*
X0018565Y0164278D01*
X0018478Y0164396D01*
X0018394Y0164516D01*
X0018313Y0164639D01*
X0018236Y0164763D01*
X0018162Y0164890D01*
X0018092Y0165019D01*
X0018025Y0165149D01*
X0017961Y0165281D01*
X0017902Y0165415D01*
X0017845Y0165550D01*
X0017793Y0165687D01*
X0017744Y0165826D01*
X0017699Y0165965D01*
X0017658Y0166106D01*
X0017621Y0166248D01*
X0017588Y0166390D01*
X0017558Y0166534D01*
X0017532Y0166678D01*
X0017511Y0166823D01*
X0017493Y0166969D01*
X0017479Y0167115D01*
X0017469Y0167261D01*
X0017463Y0167407D01*
X0017461Y0167554D01*
M02*
