G75*
%MOIN*%
%OFA0B0*%
%FSLAX25Y25*%
%IPPOS*%
%LPD*%
%AMOC8*
5,1,8,0,0,1.08239X$1,22.5*
%
%ADD10C,0.05300*%
%ADD11C,0.06800*%
%ADD12C,0.04800*%
%ADD13C,0.03300*%
%ADD14R,0.07800X0.07800*%
%ADD15C,0.07800*%
%ADD16C,0.11627*%
%ADD17C,0.04369*%
%ADD18R,0.04762X0.04762*%
D10*
X0250000Y0037333D03*
X0249500Y0048833D03*
D11*
X0248500Y0019333D02*
X0248500Y0013333D01*
X0238500Y0013333D02*
X0238500Y0019333D01*
X0228500Y0019333D02*
X0228500Y0013333D01*
X0218500Y0013333D02*
X0218500Y0019333D01*
X0208500Y0019333D02*
X0208500Y0013333D01*
X0198500Y0013333D02*
X0198500Y0019333D01*
X0188500Y0019333D02*
X0188500Y0013333D01*
X0178500Y0013333D02*
X0178500Y0019333D01*
X0168500Y0019333D02*
X0168500Y0013333D01*
X0158500Y0013333D02*
X0158500Y0019333D01*
D12*
X0017500Y0016633D02*
X0013500Y0016633D01*
X0013500Y0042033D02*
X0017500Y0042033D01*
D13*
X0025441Y0037207D03*
X0025441Y0021459D03*
D14*
X0232047Y0082003D03*
D15*
X0222047Y0082003D03*
X0212047Y0082003D03*
X0202047Y0082003D03*
X0192047Y0082003D03*
X0182047Y0082003D03*
X0172047Y0082003D03*
X0162047Y0082003D03*
X0152047Y0082003D03*
X0142047Y0082003D03*
X0132047Y0082003D03*
X0122047Y0082003D03*
X0112047Y0082003D03*
X0102047Y0082003D03*
X0092047Y0082003D03*
X0082047Y0082003D03*
X0072047Y0082003D03*
X0062047Y0082003D03*
X0052047Y0082003D03*
X0042047Y0082003D03*
X0042047Y0072003D03*
X0052047Y0072003D03*
X0062047Y0072003D03*
X0072047Y0072003D03*
X0082047Y0072003D03*
X0092047Y0072003D03*
X0102047Y0072003D03*
X0112047Y0072003D03*
X0122047Y0072003D03*
X0132047Y0072003D03*
X0142047Y0072003D03*
X0152047Y0072003D03*
X0162047Y0072003D03*
X0172047Y0072003D03*
X0182047Y0072003D03*
X0192047Y0072003D03*
X0202047Y0072003D03*
X0212047Y0072003D03*
X0222047Y0072003D03*
X0232047Y0072003D03*
D16*
X0251220Y0077003D03*
X0251220Y0167554D03*
X0022874Y0167554D03*
X0022874Y0077003D03*
D17*
X0045500Y0047333D03*
X0039000Y0032333D03*
X0075500Y0052333D03*
X0089000Y0041333D03*
X0114500Y0048333D03*
X0135500Y0047333D03*
X0160500Y0036833D03*
X0164500Y0040833D03*
X0193500Y0030333D03*
X0219500Y0030333D03*
X0241500Y0039833D03*
X0241000Y0047833D03*
X0224000Y0059333D03*
X0198500Y0055833D03*
X0187500Y0065833D03*
D18*
X0039000Y0059833D03*
X0033000Y0039333D03*
M02*
