G75*
%MOIN*%
%OFA0B0*%
%FSLAX25Y25*%
%IPPOS*%
%LPD*%
%AMOC8*
5,1,8,0,0,1.08239X$1,22.5*
%
%ADD10C,0.06000*%
%ADD11C,0.04000*%
%ADD12C,0.05937*%
%ADD13C,0.03569*%
D10*
X0157000Y0016333D03*
X0167000Y0016333D03*
X0177000Y0016333D03*
X0187000Y0016333D03*
X0197000Y0016333D03*
X0207000Y0016333D03*
X0217000Y0016333D03*
X0227000Y0016333D03*
X0237000Y0016333D03*
X0247000Y0016333D03*
D11*
X0015500Y0016633D03*
X0015500Y0042033D03*
D12*
X0040547Y0072003D03*
X0050547Y0072003D03*
X0060547Y0072003D03*
X0070547Y0072003D03*
X0080547Y0072003D03*
X0090547Y0072003D03*
X0100547Y0072003D03*
X0110547Y0072003D03*
X0120547Y0072003D03*
X0130547Y0072003D03*
X0140547Y0072003D03*
X0150547Y0072003D03*
X0160547Y0072003D03*
X0170547Y0072003D03*
X0180547Y0072003D03*
X0190547Y0072003D03*
X0200547Y0072003D03*
X0210547Y0072003D03*
X0220547Y0072003D03*
X0230547Y0072003D03*
X0230547Y0082003D03*
X0220547Y0082003D03*
X0210547Y0082003D03*
X0200547Y0082003D03*
X0190547Y0082003D03*
X0180547Y0082003D03*
X0170547Y0082003D03*
X0160547Y0082003D03*
X0150547Y0082003D03*
X0140547Y0082003D03*
X0130547Y0082003D03*
X0120547Y0082003D03*
X0110547Y0082003D03*
X0100547Y0082003D03*
X0090547Y0082003D03*
X0080547Y0082003D03*
X0070547Y0082003D03*
X0060547Y0082003D03*
X0050547Y0082003D03*
X0040547Y0082003D03*
D13*
X0074000Y0052333D03*
X0074500Y0043333D03*
X0044000Y0047333D03*
X0037500Y0032333D03*
X0117500Y0047333D03*
X0159000Y0036833D03*
X0163500Y0040833D03*
X0192000Y0030333D03*
X0218000Y0030333D03*
X0240000Y0039833D03*
X0239500Y0047833D03*
X0222500Y0059333D03*
X0197000Y0055833D03*
X0186000Y0065833D03*
M02*
