G75*
%MOIN*%
%OFA0B0*%
%FSLAX26Y26*%
%IPPOS*%
%LPD*%
%AMOC8*
5,1,8,0,0,1.08239X$1,22.5*
%
%ADD10R,0.050000X0.050000*%
%ADD11R,0.045000X0.060000*%
%ADD12C,0.008750*%
%ADD13C,0.010000*%
%ADD14C,0.007500*%
%ADD15R,0.060000X0.080000*%
%ADD16C,0.019685*%
%ADD17C,0.039370*%
%ADD18C,0.027500*%
%ADD19C,0.029528*%
%ADD20C,0.005000*%
%ADD21R,0.125984X0.098425*%
%ADD22R,0.040000X0.045000*%
%ADD23R,0.028622X0.011811*%
%ADD24R,0.047244X0.027165*%
D10*
X00487500Y01415000D03*
X00587500Y01415000D03*
X00185000Y01435000D03*
X00085000Y01435000D03*
X01530000Y01160000D03*
X01630000Y01160000D03*
D11*
X01390000Y01170000D03*
X01310000Y01170000D03*
D12*
X01306875Y01306875D02*
X01333125Y01306875D01*
X01306875Y01306875D02*
X01306875Y01333125D01*
X01333125Y01333125D01*
X01333125Y01306875D01*
X01333125Y01315624D02*
X01306875Y01315624D01*
X01306875Y01324373D02*
X01333125Y01324373D01*
X01333125Y01333122D02*
X01306875Y01333122D01*
X01366875Y01306875D02*
X01393125Y01306875D01*
X01366875Y01306875D02*
X01366875Y01333125D01*
X01393125Y01333125D01*
X01393125Y01306875D01*
X01393125Y01315624D02*
X01366875Y01315624D01*
X01366875Y01324373D02*
X01393125Y01324373D01*
X01393125Y01333122D02*
X01366875Y01333122D01*
X01366875Y01391875D02*
X01393125Y01391875D01*
X01366875Y01391875D02*
X01366875Y01418125D01*
X01393125Y01418125D01*
X01393125Y01391875D01*
X01393125Y01400624D02*
X01366875Y01400624D01*
X01366875Y01409373D02*
X01393125Y01409373D01*
X01393125Y01418122D02*
X01366875Y01418122D01*
X01333125Y01391875D02*
X01306875Y01391875D01*
X01306875Y01418125D01*
X01333125Y01418125D01*
X01333125Y01391875D01*
X01333125Y01400624D02*
X01306875Y01400624D01*
X01306875Y01409373D02*
X01333125Y01409373D01*
X01333125Y01418122D02*
X01306875Y01418122D01*
X01223125Y01391875D02*
X01196875Y01391875D01*
X01196875Y01418125D01*
X01223125Y01418125D01*
X01223125Y01391875D01*
X01223125Y01400624D02*
X01196875Y01400624D01*
X01196875Y01409373D02*
X01223125Y01409373D01*
X01223125Y01418122D02*
X01196875Y01418122D01*
X01163125Y01391875D02*
X01136875Y01391875D01*
X01136875Y01418125D01*
X01163125Y01418125D01*
X01163125Y01391875D01*
X01163125Y01400624D02*
X01136875Y01400624D01*
X01136875Y01409373D02*
X01163125Y01409373D01*
X01163125Y01418122D02*
X01136875Y01418122D01*
X01136875Y01306875D02*
X01163125Y01306875D01*
X01136875Y01306875D02*
X01136875Y01333125D01*
X01163125Y01333125D01*
X01163125Y01306875D01*
X01163125Y01315624D02*
X01136875Y01315624D01*
X01136875Y01324373D02*
X01163125Y01324373D01*
X01163125Y01333122D02*
X01136875Y01333122D01*
X01196875Y01306875D02*
X01223125Y01306875D01*
X01196875Y01306875D02*
X01196875Y01333125D01*
X01223125Y01333125D01*
X01223125Y01306875D01*
X01223125Y01315624D02*
X01196875Y01315624D01*
X01196875Y01324373D02*
X01223125Y01324373D01*
X01223125Y01333122D02*
X01196875Y01333122D01*
X01078125Y01046875D02*
X01051875Y01046875D01*
X01051875Y01073125D01*
X01078125Y01073125D01*
X01078125Y01046875D01*
X01078125Y01055624D02*
X01051875Y01055624D01*
X01051875Y01064373D02*
X01078125Y01064373D01*
X01078125Y01073122D02*
X01051875Y01073122D01*
X01018125Y01046875D02*
X00991875Y01046875D01*
X00991875Y01073125D01*
X01018125Y01073125D01*
X01018125Y01046875D01*
X01018125Y01055624D02*
X00991875Y01055624D01*
X00991875Y01064373D02*
X01018125Y01064373D01*
X01018125Y01073122D02*
X00991875Y01073122D01*
X00388125Y01411875D02*
X00361875Y01411875D01*
X00361875Y01438125D01*
X00388125Y01438125D01*
X00388125Y01411875D01*
X00388125Y01420624D02*
X00361875Y01420624D01*
X00361875Y01429373D02*
X00388125Y01429373D01*
X00388125Y01438122D02*
X00361875Y01438122D01*
X00328125Y01411875D02*
X00301875Y01411875D01*
X00301875Y01438125D01*
X00328125Y01438125D01*
X00328125Y01411875D01*
X00328125Y01420624D02*
X00301875Y01420624D01*
X00301875Y01429373D02*
X00328125Y01429373D01*
X00328125Y01438122D02*
X00301875Y01438122D01*
D13*
X00847500Y01235000D02*
X00847500Y01205000D01*
X00847500Y01235000D02*
X00892500Y01235000D01*
X00892500Y01205000D01*
X00847500Y01205000D01*
X00847500Y01214999D02*
X00892500Y01214999D01*
X00892500Y01224998D02*
X00847500Y01224998D01*
X00847500Y01234997D02*
X00892500Y01234997D01*
X00847500Y01165000D02*
X00847500Y01135000D01*
X00847500Y01165000D02*
X00892500Y01165000D01*
X00892500Y01135000D01*
X00847500Y01135000D01*
X00847500Y01144999D02*
X00892500Y01144999D01*
X00892500Y01154998D02*
X00847500Y01154998D01*
X00847500Y01164997D02*
X00892500Y01164997D01*
X01222500Y01145000D02*
X01222500Y01115000D01*
X01177500Y01115000D01*
X01177500Y01145000D01*
X01222500Y01145000D01*
X01222500Y01124999D02*
X01177500Y01124999D01*
X01177500Y01134998D02*
X01222500Y01134998D01*
X01222500Y01144997D02*
X01177500Y01144997D01*
X01222500Y01185000D02*
X01222500Y01215000D01*
X01222500Y01185000D02*
X01177500Y01185000D01*
X01177500Y01215000D01*
X01222500Y01215000D01*
X01222500Y01194999D02*
X01177500Y01194999D01*
X01177500Y01204998D02*
X01222500Y01204998D01*
X01222500Y01214997D02*
X01177500Y01214997D01*
X01300000Y01052500D02*
X01330000Y01052500D01*
X01300000Y01052500D02*
X01300000Y01097500D01*
X01330000Y01097500D01*
X01330000Y01052500D01*
X01330000Y01062499D02*
X01300000Y01062499D01*
X01300000Y01072498D02*
X01330000Y01072498D01*
X01330000Y01082497D02*
X01300000Y01082497D01*
X01300000Y01092496D02*
X01330000Y01092496D01*
X01370000Y01052500D02*
X01400000Y01052500D01*
X01370000Y01052500D02*
X01370000Y01097500D01*
X01400000Y01097500D01*
X01400000Y01052500D01*
X01400000Y01062499D02*
X01370000Y01062499D01*
X01370000Y01072498D02*
X01400000Y01072498D01*
X01400000Y01082497D02*
X01370000Y01082497D01*
X01370000Y01092496D02*
X01400000Y01092496D01*
D14*
X01036250Y01338750D02*
X01013750Y01338750D01*
X01036250Y01338750D02*
X01036250Y01311250D01*
X01013750Y01311250D01*
X01013750Y01338750D01*
X01013750Y01318749D02*
X01036250Y01318749D01*
X01036250Y01326248D02*
X01013750Y01326248D01*
X01013750Y01333747D02*
X01036250Y01333747D01*
X00976250Y01338750D02*
X00953750Y01338750D01*
X00976250Y01338750D02*
X00976250Y01311250D01*
X00953750Y01311250D01*
X00953750Y01338750D01*
X00953750Y01318749D02*
X00976250Y01318749D01*
X00976250Y01326248D02*
X00953750Y01326248D01*
X00953750Y01333747D02*
X00976250Y01333747D01*
X00976250Y01418750D02*
X00953750Y01418750D01*
X00976250Y01418750D02*
X00976250Y01391250D01*
X00953750Y01391250D01*
X00953750Y01418750D01*
X00953750Y01398749D02*
X00976250Y01398749D01*
X00976250Y01406248D02*
X00953750Y01406248D01*
X00953750Y01413747D02*
X00976250Y01413747D01*
X01013750Y01418750D02*
X01036250Y01418750D01*
X01036250Y01391250D01*
X01013750Y01391250D01*
X01013750Y01418750D01*
X01013750Y01398749D02*
X01036250Y01398749D01*
X01036250Y01406248D02*
X01013750Y01406248D01*
X01013750Y01413747D02*
X01036250Y01413747D01*
X00216407Y01234931D02*
X00216407Y01227431D01*
X00163907Y01227431D01*
X00163907Y01234931D01*
X00216407Y01234931D01*
X00216407Y01234930D02*
X00163907Y01234930D01*
X00216407Y01209341D02*
X00216407Y01201841D01*
X00163907Y01201841D01*
X00163907Y01209341D01*
X00216407Y01209341D01*
X00216407Y01209340D02*
X00163907Y01209340D01*
X00216407Y01183750D02*
X00216407Y01176250D01*
X00163907Y01176250D01*
X00163907Y01183750D01*
X00216407Y01183750D01*
X00216407Y01183749D02*
X00163907Y01183749D01*
X00216407Y01158159D02*
X00216407Y01150659D01*
X00163907Y01150659D01*
X00163907Y01158159D01*
X00216407Y01158159D01*
X00216407Y01158158D02*
X00163907Y01158158D01*
X00216407Y01132569D02*
X00216407Y01125069D01*
X00163907Y01125069D01*
X00163907Y01132569D01*
X00216407Y01132569D01*
X00216407Y01132568D02*
X00163907Y01132568D01*
D15*
X01630000Y01280000D03*
X01630000Y01390000D03*
X01800000Y01390000D03*
X01800000Y01280000D03*
D16*
X02133976Y01295473D02*
X02256024Y01295473D01*
X02256024Y01275787D01*
X02133976Y01275787D01*
X02133976Y01295473D01*
X02133976Y01295471D02*
X02256024Y01295471D01*
X02256024Y01374213D02*
X02133976Y01374213D01*
X02256024Y01374213D02*
X02256024Y01354527D01*
X02133976Y01354527D01*
X02133976Y01374213D01*
X02133976Y01374211D02*
X02256024Y01374211D01*
D17*
X02448307Y01478543D02*
X02503425Y01478543D01*
X02503425Y01439173D01*
X02448307Y01439173D01*
X02448307Y01478543D01*
X02448307Y01478542D02*
X02503425Y01478542D01*
X02503425Y01210827D02*
X02448307Y01210827D01*
X02503425Y01210827D02*
X02503425Y01171457D01*
X02448307Y01171457D01*
X02448307Y01210827D01*
X02448307Y01210826D02*
X02503425Y01210826D01*
D18*
X00746250Y01366250D02*
X00746250Y01433750D01*
X00773750Y01433750D01*
X00773750Y01366250D01*
X00746250Y01366250D01*
X00746250Y01393749D02*
X00773750Y01393749D01*
X00773750Y01421248D02*
X00746250Y01421248D01*
X00196939Y01296112D02*
X00169439Y01296112D01*
X00169439Y01331604D01*
X00196939Y01331604D01*
X00196939Y01296112D01*
X00196939Y01323611D02*
X00169439Y01323611D01*
X00169439Y01028396D02*
X00196939Y01028396D01*
X00169439Y01028396D02*
X00169439Y01063888D01*
X00196939Y01063888D01*
X00196939Y01028396D01*
X00196939Y01055895D02*
X00169439Y01055895D01*
D19*
X00047442Y01125867D02*
X00047442Y01155393D01*
X00076968Y01155393D01*
X00076968Y01125867D01*
X00047442Y01125867D01*
X00047442Y01204607D02*
X00047442Y01234133D01*
X00076968Y01234133D01*
X00076968Y01204607D01*
X00047442Y01204607D01*
D20*
X00050550Y01033001D02*
X00055000Y01032500D01*
X00095000Y01032500D01*
X00099450Y01033001D01*
X00103678Y01034481D01*
X00107470Y01036863D01*
X00110637Y01040030D01*
X00113019Y01043822D01*
X00114499Y01048050D01*
X00115000Y01052500D01*
X00114499Y01056950D01*
X00113019Y01061178D01*
X00110637Y01064970D01*
X00107470Y01068137D01*
X00103678Y01070519D01*
X00099450Y01071999D01*
X00095000Y01072500D01*
X00055000Y01072500D01*
X00050550Y01071999D01*
X00046322Y01070519D01*
X00042530Y01068137D01*
X00039363Y01064970D01*
X00036981Y01061178D01*
X00035501Y01056950D01*
X00035000Y01052500D01*
X00035501Y01048050D01*
X00036981Y01043822D01*
X00039363Y01040030D01*
X00042530Y01036863D01*
X00046322Y01034481D01*
X00050550Y01033001D01*
X00045982Y01034694D02*
X00104018Y01034694D01*
X00110299Y01039693D02*
X00039701Y01039693D01*
X00036677Y01044691D02*
X00113323Y01044691D01*
X00114683Y01049690D02*
X00035317Y01049690D01*
X00035247Y01054688D02*
X00114753Y01054688D01*
X00113541Y01059687D02*
X00036459Y01059687D01*
X00039185Y01064686D02*
X00110815Y01064686D01*
X00105007Y01069684D02*
X00044993Y01069684D01*
X00055000Y01287500D02*
X00050550Y01288001D01*
X00046322Y01289481D01*
X00042530Y01291863D01*
X00039363Y01295030D01*
X00036981Y01298822D01*
X00035501Y01303050D01*
X00035000Y01307500D01*
X00035501Y01311950D01*
X00036981Y01316178D01*
X00039363Y01319970D01*
X00042530Y01323137D01*
X00046322Y01325519D01*
X00050550Y01326999D01*
X00055000Y01327500D01*
X00095000Y01327500D01*
X00099450Y01326999D01*
X00103678Y01325519D01*
X00107470Y01323137D01*
X00110637Y01319970D01*
X00113019Y01316178D01*
X00114499Y01311950D01*
X00115000Y01307500D01*
X00114499Y01303050D01*
X00113019Y01298822D01*
X00110637Y01295030D01*
X00107470Y01291863D01*
X00103678Y01289481D01*
X00099450Y01288001D01*
X00095000Y01287500D01*
X00055000Y01287500D01*
X00046102Y01289619D02*
X00103898Y01289619D01*
X00110224Y01294618D02*
X00039776Y01294618D01*
X00036703Y01299616D02*
X00113297Y01299616D01*
X00114675Y01304615D02*
X00035325Y01304615D01*
X00035238Y01309613D02*
X00114762Y01309613D01*
X00113567Y01314612D02*
X00036433Y01314612D01*
X00039137Y01319610D02*
X00110863Y01319610D01*
X00105127Y01324609D02*
X00044873Y01324609D01*
D21*
X00490000Y01297205D03*
X00490000Y01072795D03*
D22*
X01950000Y01365000D03*
X02020000Y01365000D03*
X01985000Y01445000D03*
D23*
X00815650Y01429528D03*
X00815650Y01409843D03*
X00815650Y01390157D03*
X00815650Y01370472D03*
X00704350Y01370472D03*
X00704350Y01390157D03*
X00704350Y01409843D03*
X00704350Y01429528D03*
D24*
X00983815Y01227402D03*
X00983815Y01152598D03*
X01086185Y01152598D03*
X01086185Y01190000D03*
X01086185Y01227402D03*
M02*
