G75*
%MOIN*%
%OFA0B0*%
%FSLAX25Y25*%
%IPPOS*%
%LPD*%
%AMOC8*
5,1,8,0,0,1.08239X$1,22.5*
%
%ADD10R,0.05000X0.05000*%
%ADD11R,0.04500X0.06000*%
%ADD12C,0.00875*%
%ADD13C,0.01000*%
%ADD14C,0.00750*%
%ADD15R,0.06000X0.08000*%
%ADD16C,0.06000*%
%ADD17C,0.01969*%
%ADD18C,0.03937*%
%ADD19C,0.04000*%
%ADD20C,0.02750*%
%ADD21C,0.02953*%
%ADD22R,0.12598X0.09843*%
%ADD23R,0.04000X0.04500*%
%ADD24R,0.02862X0.01181*%
%ADD25R,0.04724X0.02717*%
%ADD26R,0.07000X0.07000*%
%ADD27C,0.07000*%
%ADD28C,0.00800*%
%ADD29C,0.02400*%
%ADD30C,0.01600*%
%ADD31C,0.03200*%
%ADD32C,0.03569*%
%ADD33R,0.03962X0.03962*%
%ADD34C,0.01200*%
%ADD35C,0.05000*%
D10*
X0058250Y0052833D03*
X0068250Y0052833D03*
X0028000Y0054833D03*
X0018000Y0054833D03*
X0162500Y0027333D03*
X0172500Y0027333D03*
D11*
X0148500Y0028333D03*
X0140500Y0028333D03*
D12*
X0140187Y0042020D02*
X0142813Y0042020D01*
X0140187Y0042020D02*
X0140187Y0044646D01*
X0142813Y0044646D01*
X0142813Y0042020D01*
X0142813Y0042894D02*
X0140187Y0042894D01*
X0140187Y0043768D02*
X0142813Y0043768D01*
X0142813Y0044642D02*
X0140187Y0044642D01*
X0146187Y0042020D02*
X0148813Y0042020D01*
X0146187Y0042020D02*
X0146187Y0044646D01*
X0148813Y0044646D01*
X0148813Y0042020D01*
X0148813Y0042894D02*
X0146187Y0042894D01*
X0146187Y0043768D02*
X0148813Y0043768D01*
X0148813Y0044642D02*
X0146187Y0044642D01*
X0146187Y0050520D02*
X0148813Y0050520D01*
X0146187Y0050520D02*
X0146187Y0053146D01*
X0148813Y0053146D01*
X0148813Y0050520D01*
X0148813Y0051394D02*
X0146187Y0051394D01*
X0146187Y0052268D02*
X0148813Y0052268D01*
X0148813Y0053142D02*
X0146187Y0053142D01*
X0142813Y0050520D02*
X0140187Y0050520D01*
X0140187Y0053146D01*
X0142813Y0053146D01*
X0142813Y0050520D01*
X0142813Y0051394D02*
X0140187Y0051394D01*
X0140187Y0052268D02*
X0142813Y0052268D01*
X0142813Y0053142D02*
X0140187Y0053142D01*
X0127313Y0050520D02*
X0124687Y0050520D01*
X0124687Y0053146D01*
X0127313Y0053146D01*
X0127313Y0050520D01*
X0127313Y0051394D02*
X0124687Y0051394D01*
X0124687Y0052268D02*
X0127313Y0052268D01*
X0127313Y0053142D02*
X0124687Y0053142D01*
X0121313Y0050520D02*
X0118687Y0050520D01*
X0118687Y0053146D01*
X0121313Y0053146D01*
X0121313Y0050520D01*
X0121313Y0051394D02*
X0118687Y0051394D01*
X0118687Y0052268D02*
X0121313Y0052268D01*
X0121313Y0053142D02*
X0118687Y0053142D01*
X0118687Y0042520D02*
X0121313Y0042520D01*
X0118687Y0042520D02*
X0118687Y0045146D01*
X0121313Y0045146D01*
X0121313Y0042520D01*
X0121313Y0043394D02*
X0118687Y0043394D01*
X0118687Y0044268D02*
X0121313Y0044268D01*
X0121313Y0045142D02*
X0118687Y0045142D01*
X0124687Y0042520D02*
X0127313Y0042520D01*
X0124687Y0042520D02*
X0124687Y0045146D01*
X0127313Y0045146D01*
X0127313Y0042520D01*
X0127313Y0043394D02*
X0124687Y0043394D01*
X0124687Y0044268D02*
X0127313Y0044268D01*
X0127313Y0045142D02*
X0124687Y0045142D01*
X0117313Y0016020D02*
X0114687Y0016020D01*
X0114687Y0018646D01*
X0117313Y0018646D01*
X0117313Y0016020D01*
X0117313Y0016894D02*
X0114687Y0016894D01*
X0114687Y0017768D02*
X0117313Y0017768D01*
X0117313Y0018642D02*
X0114687Y0018642D01*
X0111313Y0016020D02*
X0108687Y0016020D01*
X0108687Y0018646D01*
X0111313Y0018646D01*
X0111313Y0016020D01*
X0111313Y0016894D02*
X0108687Y0016894D01*
X0108687Y0017768D02*
X0111313Y0017768D01*
X0111313Y0018642D02*
X0108687Y0018642D01*
X0048313Y0052520D02*
X0045687Y0052520D01*
X0045687Y0055146D01*
X0048313Y0055146D01*
X0048313Y0052520D01*
X0048313Y0053394D02*
X0045687Y0053394D01*
X0045687Y0054268D02*
X0048313Y0054268D01*
X0048313Y0055142D02*
X0045687Y0055142D01*
X0042313Y0052520D02*
X0039687Y0052520D01*
X0039687Y0055146D01*
X0042313Y0055146D01*
X0042313Y0052520D01*
X0042313Y0053394D02*
X0039687Y0053394D01*
X0039687Y0054268D02*
X0042313Y0054268D01*
X0042313Y0055142D02*
X0039687Y0055142D01*
D13*
X0094250Y0034833D02*
X0094250Y0031833D01*
X0094250Y0034833D02*
X0098750Y0034833D01*
X0098750Y0031833D01*
X0094250Y0031833D01*
X0094250Y0032832D02*
X0098750Y0032832D01*
X0098750Y0033831D02*
X0094250Y0033831D01*
X0094250Y0034830D02*
X0098750Y0034830D01*
X0094250Y0027833D02*
X0094250Y0024833D01*
X0094250Y0027833D02*
X0098750Y0027833D01*
X0098750Y0024833D01*
X0094250Y0024833D01*
X0094250Y0025832D02*
X0098750Y0025832D01*
X0098750Y0026831D02*
X0094250Y0026831D01*
X0094250Y0027830D02*
X0098750Y0027830D01*
X0131750Y0025833D02*
X0131750Y0022833D01*
X0127250Y0022833D01*
X0127250Y0025833D01*
X0131750Y0025833D01*
X0131750Y0023832D02*
X0127250Y0023832D01*
X0127250Y0024831D02*
X0131750Y0024831D01*
X0131750Y0025830D02*
X0127250Y0025830D01*
X0131750Y0029833D02*
X0131750Y0032833D01*
X0131750Y0029833D02*
X0127250Y0029833D01*
X0127250Y0032833D01*
X0131750Y0032833D01*
X0131750Y0030832D02*
X0127250Y0030832D01*
X0127250Y0031831D02*
X0131750Y0031831D01*
X0131750Y0032830D02*
X0127250Y0032830D01*
X0139500Y0016583D02*
X0142500Y0016583D01*
X0139500Y0016583D02*
X0139500Y0021083D01*
X0142500Y0021083D01*
X0142500Y0016583D01*
X0142500Y0017582D02*
X0139500Y0017582D01*
X0139500Y0018581D02*
X0142500Y0018581D01*
X0142500Y0019580D02*
X0139500Y0019580D01*
X0139500Y0020579D02*
X0142500Y0020579D01*
X0146500Y0016583D02*
X0149500Y0016583D01*
X0146500Y0016583D02*
X0146500Y0021083D01*
X0149500Y0021083D01*
X0149500Y0016583D01*
X0149500Y0017582D02*
X0146500Y0017582D01*
X0146500Y0018581D02*
X0149500Y0018581D01*
X0149500Y0019580D02*
X0146500Y0019580D01*
X0146500Y0020579D02*
X0149500Y0020579D01*
D14*
X0110125Y0045708D02*
X0107875Y0045708D01*
X0110125Y0045708D02*
X0110125Y0042958D01*
X0107875Y0042958D01*
X0107875Y0045708D01*
X0107875Y0043707D02*
X0110125Y0043707D01*
X0110125Y0044456D02*
X0107875Y0044456D01*
X0107875Y0045205D02*
X0110125Y0045205D01*
X0104125Y0045708D02*
X0101875Y0045708D01*
X0104125Y0045708D02*
X0104125Y0042958D01*
X0101875Y0042958D01*
X0101875Y0045708D01*
X0101875Y0043707D02*
X0104125Y0043707D01*
X0104125Y0044456D02*
X0101875Y0044456D01*
X0101875Y0045205D02*
X0104125Y0045205D01*
X0104125Y0053208D02*
X0101875Y0053208D01*
X0104125Y0053208D02*
X0104125Y0050458D01*
X0101875Y0050458D01*
X0101875Y0053208D01*
X0101875Y0051207D02*
X0104125Y0051207D01*
X0104125Y0051956D02*
X0101875Y0051956D01*
X0101875Y0052705D02*
X0104125Y0052705D01*
X0107875Y0053208D02*
X0110125Y0053208D01*
X0110125Y0050458D01*
X0107875Y0050458D01*
X0107875Y0053208D01*
X0107875Y0051207D02*
X0110125Y0051207D01*
X0110125Y0051956D02*
X0107875Y0051956D01*
X0107875Y0052705D02*
X0110125Y0052705D01*
X0029641Y0034826D02*
X0029641Y0034076D01*
X0024391Y0034076D01*
X0024391Y0034826D01*
X0029641Y0034826D01*
X0029641Y0034825D02*
X0024391Y0034825D01*
X0029641Y0032267D02*
X0029641Y0031517D01*
X0024391Y0031517D01*
X0024391Y0032267D01*
X0029641Y0032267D01*
X0029641Y0032266D02*
X0024391Y0032266D01*
X0029641Y0029708D02*
X0029641Y0028958D01*
X0024391Y0028958D01*
X0024391Y0029708D01*
X0029641Y0029708D01*
X0029641Y0029707D02*
X0024391Y0029707D01*
X0029641Y0027149D02*
X0029641Y0026399D01*
X0024391Y0026399D01*
X0024391Y0027149D01*
X0029641Y0027149D01*
X0029641Y0027148D02*
X0024391Y0027148D01*
X0029641Y0024590D02*
X0029641Y0023840D01*
X0024391Y0023840D01*
X0024391Y0024590D01*
X0029641Y0024590D01*
X0029641Y0024589D02*
X0024391Y0024589D01*
D15*
X0172500Y0039333D03*
X0172500Y0050333D03*
X0189500Y0050333D03*
X0189500Y0039333D03*
D16*
X0188500Y0019333D02*
X0188500Y0013333D01*
X0178500Y0013333D02*
X0178500Y0019333D01*
X0168500Y0019333D02*
X0168500Y0013333D01*
X0158500Y0013333D02*
X0158500Y0019333D01*
X0198500Y0019333D02*
X0198500Y0013333D01*
X0208500Y0013333D02*
X0208500Y0019333D01*
X0218500Y0019333D02*
X0218500Y0013333D01*
X0228500Y0013333D02*
X0228500Y0019333D01*
X0238500Y0019333D02*
X0238500Y0013333D01*
X0248500Y0013333D02*
X0248500Y0019333D01*
D17*
X0235102Y0040880D02*
X0222898Y0040880D01*
X0235102Y0040880D02*
X0235102Y0038912D01*
X0222898Y0038912D01*
X0222898Y0040880D01*
X0235102Y0040880D01*
X0235102Y0048754D02*
X0222898Y0048754D01*
X0235102Y0048754D02*
X0235102Y0046786D01*
X0222898Y0046786D01*
X0222898Y0048754D01*
X0235102Y0048754D01*
D18*
X0254331Y0059188D02*
X0259843Y0059188D01*
X0259843Y0055250D01*
X0254331Y0055250D01*
X0254331Y0059188D01*
X0254331Y0059186D02*
X0259843Y0059186D01*
X0259843Y0032417D02*
X0254331Y0032417D01*
X0259843Y0032417D02*
X0259843Y0028479D01*
X0254331Y0028479D01*
X0254331Y0032417D01*
X0254331Y0032415D02*
X0259843Y0032415D01*
D19*
X0229000Y0039896D02*
X0219437Y0039896D01*
X0211500Y0047833D01*
X0204500Y0047833D02*
X0203500Y0048833D01*
X0191000Y0048833D02*
X0189500Y0050333D01*
X0189500Y0039333D01*
X0181500Y0045833D02*
X0181500Y0032833D01*
X0174500Y0027333D01*
X0181500Y0045833D02*
X0174500Y0050333D01*
X0110000Y0017333D02*
X0059780Y0017333D01*
X0066220Y0033333D02*
X0058500Y0041054D01*
X0066220Y0033333D02*
X0096500Y0033333D01*
X0017500Y0042033D02*
X0013500Y0042033D01*
X0013500Y0016633D02*
X0017500Y0016633D01*
D20*
X0024944Y0014174D02*
X0027694Y0014174D01*
X0024944Y0014174D02*
X0024944Y0017722D01*
X0027694Y0017722D01*
X0027694Y0014174D01*
X0027694Y0016923D02*
X0024944Y0016923D01*
X0024944Y0040945D02*
X0027694Y0040945D01*
X0024944Y0040945D02*
X0024944Y0044493D01*
X0027694Y0044493D01*
X0027694Y0040945D01*
X0027694Y0043694D02*
X0024944Y0043694D01*
X0084125Y0047958D02*
X0084125Y0054708D01*
X0086875Y0054708D01*
X0086875Y0047958D01*
X0084125Y0047958D01*
X0084125Y0050707D02*
X0086875Y0050707D01*
X0086875Y0053456D02*
X0084125Y0053456D01*
D21*
X0012743Y0034747D02*
X0012743Y0031793D01*
X0012743Y0034747D02*
X0015697Y0034747D01*
X0015697Y0031793D01*
X0012743Y0031793D01*
X0012743Y0034745D02*
X0015697Y0034745D01*
X0012743Y0026873D02*
X0012743Y0023919D01*
X0012743Y0026873D02*
X0015697Y0026873D01*
X0015697Y0023919D01*
X0012743Y0023919D01*
X0012743Y0026871D02*
X0015697Y0026871D01*
D22*
X0058500Y0018613D03*
X0058500Y0041054D03*
D23*
X0204500Y0047833D03*
X0211500Y0047833D03*
X0208000Y0055833D03*
D24*
X0091065Y0054286D03*
X0091065Y0052318D03*
X0091065Y0050349D03*
X0091065Y0048381D03*
X0079935Y0048381D03*
X0079935Y0050349D03*
X0079935Y0052318D03*
X0079935Y0054286D03*
D25*
X0107881Y0034073D03*
X0107881Y0026593D03*
X0118119Y0026593D03*
X0118119Y0030333D03*
X0118119Y0034073D03*
D26*
X0232047Y0082003D03*
D27*
X0222047Y0082003D03*
X0212047Y0082003D03*
X0202047Y0082003D03*
X0192047Y0082003D03*
X0182047Y0082003D03*
X0172047Y0082003D03*
X0162047Y0082003D03*
X0152047Y0082003D03*
X0142047Y0082003D03*
X0132047Y0082003D03*
X0122047Y0082003D03*
X0112047Y0082003D03*
X0102047Y0082003D03*
X0092047Y0082003D03*
X0082047Y0082003D03*
X0072047Y0082003D03*
X0062047Y0082003D03*
X0052047Y0082003D03*
X0042047Y0082003D03*
X0042047Y0072003D03*
X0052047Y0072003D03*
X0062047Y0072003D03*
X0072047Y0072003D03*
X0082047Y0072003D03*
X0092047Y0072003D03*
X0102047Y0072003D03*
X0112047Y0072003D03*
X0122047Y0072003D03*
X0132047Y0072003D03*
X0142047Y0072003D03*
X0152047Y0072003D03*
X0162047Y0072003D03*
X0172047Y0072003D03*
X0182047Y0072003D03*
X0192047Y0072003D03*
X0202047Y0072003D03*
X0212047Y0072003D03*
X0222047Y0072003D03*
X0232047Y0072003D03*
D28*
X0013600Y0013233D02*
X0013600Y0010933D01*
X0144059Y0010933D01*
X0140074Y0014683D01*
X0138713Y0014683D01*
X0137600Y0015796D01*
X0137600Y0016233D01*
X0134483Y0016233D01*
X0133527Y0016629D01*
X0129223Y0020933D01*
X0126463Y0020933D01*
X0126163Y0021233D01*
X0122983Y0021233D01*
X0122027Y0021629D01*
X0121296Y0022361D01*
X0119821Y0023835D01*
X0119037Y0023835D01*
X0118600Y0023398D01*
X0118600Y0019957D01*
X0119150Y0019407D01*
X0119150Y0015260D01*
X0118074Y0014183D01*
X0113926Y0014183D01*
X0113000Y0015110D01*
X0112074Y0014183D01*
X0111280Y0014183D01*
X0110676Y0013933D01*
X0066199Y0013933D01*
X0066199Y0013112D01*
X0065379Y0012292D01*
X0051621Y0012292D01*
X0050801Y0013112D01*
X0050801Y0024114D01*
X0051621Y0024934D01*
X0065379Y0024934D01*
X0066199Y0024114D01*
X0066199Y0020733D01*
X0107400Y0020733D01*
X0107400Y0023398D01*
X0106963Y0023835D01*
X0104939Y0023835D01*
X0104119Y0024655D01*
X0104119Y0028531D01*
X0104939Y0029351D01*
X0110824Y0029351D01*
X0111644Y0028531D01*
X0111644Y0026508D01*
X0112204Y0025947D01*
X0112600Y0024992D01*
X0112600Y0019957D01*
X0113000Y0019557D01*
X0113400Y0019957D01*
X0113400Y0024992D01*
X0113796Y0025947D01*
X0114356Y0026508D01*
X0114356Y0028531D01*
X0114411Y0028586D01*
X0114356Y0028791D01*
X0114356Y0030054D01*
X0117839Y0030054D01*
X0117839Y0030612D01*
X0114356Y0030612D01*
X0114356Y0031473D01*
X0110982Y0031473D01*
X0110824Y0031315D01*
X0104939Y0031315D01*
X0104521Y0031733D01*
X0103077Y0031733D01*
X0102473Y0031129D01*
X0101517Y0030733D01*
X0100337Y0030733D01*
X0099537Y0029933D01*
X0065544Y0029933D01*
X0064295Y0030451D01*
X0060013Y0034733D01*
X0051621Y0034733D01*
X0050801Y0035553D01*
X0050801Y0038454D01*
X0039762Y0038454D01*
X0038807Y0038850D01*
X0031423Y0046233D01*
X0029869Y0046233D01*
X0030153Y0045808D01*
X0030362Y0045303D01*
X0030469Y0044767D01*
X0030469Y0043119D01*
X0026719Y0043119D01*
X0026719Y0042793D01*
X0027864Y0042319D01*
X0030469Y0042319D01*
X0030469Y0040671D01*
X0030362Y0040135D01*
X0030353Y0040113D01*
X0031091Y0038331D01*
X0031091Y0036451D01*
X0035771Y0036451D01*
X0035971Y0036651D01*
X0037793Y0036651D01*
X0038927Y0035518D01*
X0039633Y0035518D01*
X0040804Y0035033D01*
X0041699Y0034137D01*
X0042184Y0032967D01*
X0042184Y0031700D01*
X0041699Y0030530D01*
X0040804Y0029634D01*
X0039633Y0029149D01*
X0038367Y0029149D01*
X0037196Y0029634D01*
X0036301Y0030530D01*
X0035816Y0031700D01*
X0035816Y0032406D01*
X0035771Y0032451D01*
X0031416Y0032451D01*
X0031416Y0030782D01*
X0031246Y0030613D01*
X0031416Y0030444D01*
X0031416Y0028223D01*
X0031246Y0028054D01*
X0031416Y0027884D01*
X0031416Y0025664D01*
X0031197Y0025445D01*
X0031295Y0025275D01*
X0031416Y0024824D01*
X0031416Y0024215D01*
X0030415Y0024215D01*
X0030415Y0024215D01*
X0031416Y0024215D01*
X0031416Y0023607D01*
X0031295Y0023155D01*
X0031061Y0022750D01*
X0031033Y0022722D01*
X0031091Y0022583D01*
X0031091Y0020335D01*
X0030353Y0018554D01*
X0030362Y0018532D01*
X0030469Y0017995D01*
X0030469Y0016347D01*
X0027864Y0016347D01*
X0026719Y0015873D01*
X0026719Y0015548D01*
X0030469Y0015548D01*
X0030469Y0013900D01*
X0030362Y0013363D01*
X0030153Y0012858D01*
X0029849Y0012404D01*
X0029463Y0012017D01*
X0029008Y0011714D01*
X0028503Y0011505D01*
X0027967Y0011398D01*
X0026719Y0011398D01*
X0026719Y0015547D01*
X0025919Y0015547D01*
X0025919Y0011398D01*
X0024671Y0011398D01*
X0024134Y0011505D01*
X0023629Y0011714D01*
X0023175Y0012017D01*
X0022788Y0012404D01*
X0022485Y0012858D01*
X0022276Y0013363D01*
X0022169Y0013900D01*
X0022169Y0015548D01*
X0025919Y0015548D01*
X0025919Y0015809D01*
X0024317Y0015809D01*
X0023018Y0016347D01*
X0022169Y0016347D01*
X0022169Y0016741D01*
X0020651Y0018259D01*
X0019791Y0020335D01*
X0019791Y0022583D01*
X0020301Y0023814D01*
X0020301Y0034853D01*
X0019791Y0036083D01*
X0019791Y0038331D01*
X0020651Y0040408D01*
X0022169Y0041926D01*
X0022169Y0042319D01*
X0023018Y0042319D01*
X0024317Y0042857D01*
X0025919Y0042857D01*
X0025919Y0043119D01*
X0022169Y0043119D01*
X0022169Y0044767D01*
X0022276Y0045303D01*
X0022485Y0045808D01*
X0022769Y0046233D01*
X0019983Y0046233D01*
X0019027Y0046629D01*
X0018296Y0047361D01*
X0018296Y0047361D01*
X0016527Y0049129D01*
X0016527Y0049129D01*
X0015796Y0049861D01*
X0015400Y0050816D01*
X0015400Y0050933D01*
X0014920Y0050933D01*
X0014100Y0051753D01*
X0014100Y0057913D01*
X0014920Y0058733D01*
X0018223Y0058733D01*
X0023527Y0064037D01*
X0024483Y0064433D01*
X0028423Y0064433D01*
X0032027Y0068037D01*
X0032983Y0068433D01*
X0038687Y0068433D01*
X0037893Y0069227D01*
X0037147Y0071028D01*
X0037147Y0072977D01*
X0037893Y0074778D01*
X0039272Y0076157D01*
X0041073Y0076903D01*
X0043022Y0076903D01*
X0044823Y0076157D01*
X0046201Y0074778D01*
X0046947Y0072977D01*
X0046947Y0071028D01*
X0046201Y0069227D01*
X0045408Y0068433D01*
X0048687Y0068433D01*
X0047893Y0069227D01*
X0047147Y0071028D01*
X0047147Y0072977D01*
X0047893Y0074778D01*
X0049272Y0076157D01*
X0051073Y0076903D01*
X0053022Y0076903D01*
X0054823Y0076157D01*
X0056201Y0074778D01*
X0056947Y0072977D01*
X0056947Y0071028D01*
X0056201Y0069227D01*
X0055408Y0068433D01*
X0058687Y0068433D01*
X0057893Y0069227D01*
X0057147Y0071028D01*
X0057147Y0072977D01*
X0057893Y0074778D01*
X0059272Y0076157D01*
X0061073Y0076903D01*
X0063022Y0076903D01*
X0064823Y0076157D01*
X0066201Y0074778D01*
X0066947Y0072977D01*
X0066947Y0071028D01*
X0066201Y0069227D01*
X0065408Y0068433D01*
X0068687Y0068433D01*
X0068310Y0068810D01*
X0067856Y0069434D01*
X0067506Y0070122D01*
X0067268Y0070855D01*
X0067150Y0071603D01*
X0071647Y0071603D01*
X0071647Y0072403D01*
X0071647Y0076900D01*
X0070900Y0076782D01*
X0070166Y0076544D01*
X0069479Y0076193D01*
X0068855Y0075740D01*
X0068310Y0075195D01*
X0067856Y0074571D01*
X0067506Y0073884D01*
X0067268Y0073150D01*
X0067150Y0072403D01*
X0071647Y0072403D01*
X0072447Y0072403D01*
X0072447Y0076900D01*
X0073195Y0076782D01*
X0073928Y0076544D01*
X0074615Y0076193D01*
X0075239Y0075740D01*
X0075785Y0075195D01*
X0076238Y0074571D01*
X0076588Y0073884D01*
X0076827Y0073150D01*
X0076945Y0072403D01*
X0072447Y0072403D01*
X0072447Y0071603D01*
X0076945Y0071603D01*
X0076827Y0070855D01*
X0076588Y0070122D01*
X0076238Y0069434D01*
X0075785Y0068810D01*
X0075408Y0068433D01*
X0078687Y0068433D01*
X0077893Y0069227D01*
X0077147Y0071028D01*
X0077147Y0072977D01*
X0077893Y0074778D01*
X0079272Y0076157D01*
X0081073Y0076903D01*
X0083022Y0076903D01*
X0084823Y0076157D01*
X0086201Y0074778D01*
X0086947Y0072977D01*
X0086947Y0071028D01*
X0086201Y0069227D01*
X0085408Y0068433D01*
X0088687Y0068433D01*
X0088310Y0068810D01*
X0087856Y0069434D01*
X0087506Y0070122D01*
X0087268Y0070855D01*
X0087150Y0071603D01*
X0091647Y0071603D01*
X0091647Y0072403D01*
X0091647Y0076900D01*
X0090900Y0076782D01*
X0090166Y0076544D01*
X0089479Y0076193D01*
X0088855Y0075740D01*
X0088310Y0075195D01*
X0087856Y0074571D01*
X0087506Y0073884D01*
X0087268Y0073150D01*
X0087150Y0072403D01*
X0091647Y0072403D01*
X0092447Y0072403D01*
X0092447Y0076900D01*
X0093195Y0076782D01*
X0093928Y0076544D01*
X0094615Y0076193D01*
X0095239Y0075740D01*
X0095785Y0075195D01*
X0096238Y0074571D01*
X0096588Y0073884D01*
X0096827Y0073150D01*
X0096945Y0072403D01*
X0092447Y0072403D01*
X0092447Y0071603D01*
X0096945Y0071603D01*
X0096827Y0070855D01*
X0096588Y0070122D01*
X0096238Y0069434D01*
X0095785Y0068810D01*
X0095408Y0068433D01*
X0098687Y0068433D01*
X0097893Y0069227D01*
X0097147Y0071028D01*
X0097147Y0072977D01*
X0097893Y0074778D01*
X0099272Y0076157D01*
X0101073Y0076903D01*
X0103022Y0076903D01*
X0104823Y0076157D01*
X0106201Y0074778D01*
X0106947Y0072977D01*
X0106947Y0071028D01*
X0106201Y0069227D01*
X0105408Y0068433D01*
X0108687Y0068433D01*
X0107893Y0069227D01*
X0107147Y0071028D01*
X0107147Y0072977D01*
X0107893Y0074778D01*
X0109272Y0076157D01*
X0111073Y0076903D01*
X0113022Y0076903D01*
X0114823Y0076157D01*
X0116201Y0074778D01*
X0116947Y0072977D01*
X0116947Y0071028D01*
X0116201Y0069227D01*
X0115408Y0068433D01*
X0118687Y0068433D01*
X0117893Y0069227D01*
X0117147Y0071028D01*
X0117147Y0072977D01*
X0117893Y0074778D01*
X0119272Y0076157D01*
X0121073Y0076903D01*
X0123022Y0076903D01*
X0124237Y0076399D01*
X0125500Y0077662D01*
X0125500Y0077662D01*
X0126672Y0078833D01*
X0128287Y0078833D01*
X0127893Y0079227D01*
X0127147Y0081028D01*
X0127147Y0082977D01*
X0127893Y0084778D01*
X0129272Y0086157D01*
X0131073Y0086903D01*
X0133022Y0086903D01*
X0134823Y0086157D01*
X0136201Y0084778D01*
X0136947Y0082977D01*
X0136947Y0081028D01*
X0136201Y0079227D01*
X0135808Y0078833D01*
X0138287Y0078833D01*
X0137893Y0079227D01*
X0137147Y0081028D01*
X0137147Y0082977D01*
X0137893Y0084778D01*
X0139272Y0086157D01*
X0141073Y0086903D01*
X0143022Y0086903D01*
X0144823Y0086157D01*
X0146201Y0084778D01*
X0146947Y0082977D01*
X0146947Y0081028D01*
X0146201Y0079227D01*
X0145808Y0078833D01*
X0148287Y0078833D01*
X0147893Y0079227D01*
X0147147Y0081028D01*
X0147147Y0082977D01*
X0147893Y0084778D01*
X0149272Y0086157D01*
X0151073Y0086903D01*
X0153022Y0086903D01*
X0154823Y0086157D01*
X0156201Y0084778D01*
X0156947Y0082977D01*
X0156947Y0081028D01*
X0156201Y0079227D01*
X0155808Y0078833D01*
X0158287Y0078833D01*
X0157893Y0079227D01*
X0157147Y0081028D01*
X0157147Y0082977D01*
X0157893Y0084778D01*
X0159272Y0086157D01*
X0161073Y0086903D01*
X0163022Y0086903D01*
X0164823Y0086157D01*
X0166201Y0084778D01*
X0166947Y0082977D01*
X0166947Y0081028D01*
X0166201Y0079227D01*
X0165808Y0078833D01*
X0168287Y0078833D01*
X0167893Y0079227D01*
X0167147Y0081028D01*
X0167147Y0082977D01*
X0167893Y0084778D01*
X0169272Y0086157D01*
X0171073Y0086903D01*
X0173022Y0086903D01*
X0174823Y0086157D01*
X0176201Y0084778D01*
X0176947Y0082977D01*
X0176947Y0081028D01*
X0176201Y0079227D01*
X0175808Y0078833D01*
X0178287Y0078833D01*
X0177893Y0079227D01*
X0177147Y0081028D01*
X0177147Y0082977D01*
X0177893Y0084778D01*
X0179272Y0086157D01*
X0181073Y0086903D01*
X0183022Y0086903D01*
X0184823Y0086157D01*
X0186201Y0084778D01*
X0186947Y0082977D01*
X0186947Y0081028D01*
X0186201Y0079227D01*
X0185808Y0078833D01*
X0188287Y0078833D01*
X0187893Y0079227D01*
X0187147Y0081028D01*
X0187147Y0082977D01*
X0187893Y0084778D01*
X0189272Y0086157D01*
X0191073Y0086903D01*
X0193022Y0086903D01*
X0194823Y0086157D01*
X0196201Y0084778D01*
X0196947Y0082977D01*
X0196947Y0081028D01*
X0196201Y0079227D01*
X0195808Y0078833D01*
X0195828Y0078833D01*
X0197828Y0076833D01*
X0198888Y0075773D01*
X0199272Y0076157D01*
X0201073Y0076903D01*
X0203022Y0076903D01*
X0204823Y0076157D01*
X0206201Y0074778D01*
X0206947Y0072977D01*
X0206947Y0071028D01*
X0206201Y0069227D01*
X0204823Y0067849D01*
X0203579Y0067333D01*
X0210561Y0067333D01*
X0210166Y0067462D01*
X0209479Y0067812D01*
X0208855Y0068265D01*
X0208310Y0068810D01*
X0207856Y0069434D01*
X0207506Y0070122D01*
X0207268Y0070855D01*
X0207150Y0071603D01*
X0211647Y0071603D01*
X0211647Y0072403D01*
X0211647Y0076900D01*
X0210900Y0076782D01*
X0210166Y0076544D01*
X0209479Y0076193D01*
X0208855Y0075740D01*
X0208310Y0075195D01*
X0207856Y0074571D01*
X0207506Y0073884D01*
X0207268Y0073150D01*
X0207150Y0072403D01*
X0211647Y0072403D01*
X0212447Y0072403D01*
X0212447Y0076900D01*
X0213195Y0076782D01*
X0213928Y0076544D01*
X0214615Y0076193D01*
X0215239Y0075740D01*
X0215785Y0075195D01*
X0216238Y0074571D01*
X0216588Y0073884D01*
X0216827Y0073150D01*
X0216945Y0072403D01*
X0212447Y0072403D01*
X0212447Y0071603D01*
X0216945Y0071603D01*
X0216827Y0070855D01*
X0216588Y0070122D01*
X0216238Y0069434D01*
X0215785Y0068810D01*
X0215239Y0068265D01*
X0214615Y0067812D01*
X0213928Y0067462D01*
X0213533Y0067333D01*
X0220516Y0067333D01*
X0219272Y0067849D01*
X0217893Y0069227D01*
X0217147Y0071028D01*
X0217147Y0072977D01*
X0217893Y0074778D01*
X0219272Y0076157D01*
X0221073Y0076903D01*
X0223022Y0076903D01*
X0224823Y0076157D01*
X0226201Y0074778D01*
X0226947Y0072977D01*
X0226947Y0071028D01*
X0226201Y0069227D01*
X0224823Y0067849D01*
X0223579Y0067333D01*
X0230516Y0067333D01*
X0229272Y0067849D01*
X0227893Y0069227D01*
X0227147Y0071028D01*
X0227147Y0072977D01*
X0227893Y0074778D01*
X0229272Y0076157D01*
X0231073Y0076903D01*
X0233022Y0076903D01*
X0234823Y0076157D01*
X0236201Y0074778D01*
X0236947Y0072977D01*
X0236947Y0071028D01*
X0236201Y0069227D01*
X0234823Y0067849D01*
X0233579Y0067333D01*
X0237700Y0067333D01*
X0237721Y0067353D01*
X0238524Y0067333D01*
X0239328Y0067333D01*
X0239349Y0067313D01*
X0239377Y0067313D01*
X0239932Y0066730D01*
X0240500Y0066162D01*
X0240500Y0066133D01*
X0249931Y0056230D01*
X0250500Y0055662D01*
X0250500Y0055633D01*
X0250520Y0055613D01*
X0250500Y0054809D01*
X0250500Y0033162D01*
X0250500Y0031505D01*
X0243828Y0024833D01*
X0232828Y0024833D01*
X0231025Y0023030D01*
X0232230Y0021826D01*
X0232900Y0020209D01*
X0232900Y0012458D01*
X0232268Y0010933D01*
X0234732Y0010933D01*
X0234100Y0012458D01*
X0234100Y0020209D01*
X0234770Y0021826D01*
X0236008Y0023063D01*
X0237625Y0023733D01*
X0239375Y0023733D01*
X0240992Y0023063D01*
X0242230Y0021826D01*
X0242900Y0020209D01*
X0242900Y0012458D01*
X0242268Y0010933D01*
X0244805Y0010933D01*
X0244737Y0011027D01*
X0244422Y0011644D01*
X0244208Y0012303D01*
X0244100Y0012987D01*
X0244100Y0015933D01*
X0248100Y0015933D01*
X0248100Y0016733D01*
X0244100Y0016733D01*
X0244100Y0019680D01*
X0244208Y0020364D01*
X0244422Y0021022D01*
X0244737Y0021639D01*
X0245144Y0022200D01*
X0245634Y0022689D01*
X0246194Y0023097D01*
X0246811Y0023411D01*
X0247470Y0023625D01*
X0248100Y0023725D01*
X0248100Y0016733D01*
X0248900Y0016733D01*
X0252900Y0016733D01*
X0252900Y0019680D01*
X0252792Y0020364D01*
X0252578Y0021022D01*
X0252263Y0021639D01*
X0251856Y0022200D01*
X0251366Y0022689D01*
X0250806Y0023097D01*
X0250189Y0023411D01*
X0249530Y0023625D01*
X0248900Y0023725D01*
X0248900Y0016733D01*
X0248900Y0015933D01*
X0252900Y0015933D01*
X0252900Y0012987D01*
X0252792Y0012303D01*
X0252578Y0011644D01*
X0252263Y0011027D01*
X0252195Y0010933D01*
X0260900Y0010933D01*
X0260900Y0025271D01*
X0260825Y0025240D01*
X0260174Y0025110D01*
X0257487Y0025110D01*
X0257487Y0030047D01*
X0256687Y0030047D01*
X0256687Y0025110D01*
X0253999Y0025110D01*
X0253348Y0025240D01*
X0252735Y0025494D01*
X0252183Y0025863D01*
X0251714Y0026332D01*
X0251346Y0026883D01*
X0251092Y0027496D01*
X0250962Y0028147D01*
X0250962Y0030048D01*
X0256687Y0030048D01*
X0256687Y0030847D01*
X0250962Y0030847D01*
X0250962Y0032748D01*
X0251092Y0033399D01*
X0251346Y0034012D01*
X0251714Y0034563D01*
X0252183Y0035032D01*
X0252735Y0035401D01*
X0253348Y0035655D01*
X0253999Y0035784D01*
X0256687Y0035784D01*
X0256687Y0030848D01*
X0257487Y0030848D01*
X0257487Y0035784D01*
X0260174Y0035784D01*
X0260825Y0035655D01*
X0260900Y0035624D01*
X0260900Y0052043D01*
X0260825Y0052012D01*
X0260174Y0051882D01*
X0257487Y0051882D01*
X0257487Y0056819D01*
X0256687Y0056819D01*
X0256687Y0051882D01*
X0253999Y0051882D01*
X0253348Y0052012D01*
X0252735Y0052266D01*
X0252183Y0052634D01*
X0251714Y0053103D01*
X0251346Y0053655D01*
X0251092Y0054268D01*
X0250962Y0054919D01*
X0250962Y0056819D01*
X0256687Y0056819D01*
X0256687Y0057619D01*
X0256687Y0062556D01*
X0253999Y0062556D01*
X0253348Y0062427D01*
X0252735Y0062173D01*
X0252183Y0061804D01*
X0251714Y0061335D01*
X0251346Y0060783D01*
X0251092Y0060170D01*
X0250962Y0059519D01*
X0250962Y0057619D01*
X0256687Y0057619D01*
X0257487Y0057619D01*
X0257487Y0062556D01*
X0260174Y0062556D01*
X0260825Y0062427D01*
X0260900Y0062396D01*
X0260900Y0074727D01*
X0259540Y0071444D01*
X0256779Y0068683D01*
X0253172Y0067189D01*
X0249268Y0067189D01*
X0245662Y0068683D01*
X0242901Y0071444D01*
X0241407Y0075051D01*
X0241407Y0078955D01*
X0242901Y0082561D01*
X0245662Y0085322D01*
X0249268Y0086816D01*
X0253172Y0086816D01*
X0256779Y0085322D01*
X0259540Y0082561D01*
X0260900Y0079278D01*
X0260900Y0091233D01*
X0013600Y0091233D01*
X0013600Y0080257D01*
X0014555Y0082561D01*
X0017315Y0085322D01*
X0020922Y0086816D01*
X0024826Y0086816D01*
X0028433Y0085322D01*
X0031193Y0082561D01*
X0032687Y0078955D01*
X0032687Y0075051D01*
X0031193Y0071444D01*
X0028433Y0068683D01*
X0024826Y0067189D01*
X0020922Y0067189D01*
X0017315Y0068683D01*
X0014555Y0071444D01*
X0013600Y0073748D01*
X0013600Y0045433D01*
X0015400Y0045433D01*
X0015400Y0042133D01*
X0015600Y0042133D01*
X0020900Y0042133D01*
X0020900Y0042368D01*
X0020769Y0043025D01*
X0020513Y0043644D01*
X0020141Y0044201D01*
X0019667Y0044674D01*
X0019110Y0045046D01*
X0018492Y0045303D01*
X0017835Y0045433D01*
X0015600Y0045433D01*
X0015600Y0042133D01*
X0015600Y0041933D01*
X0015600Y0038633D01*
X0017835Y0038633D01*
X0018492Y0038764D01*
X0019110Y0039020D01*
X0019667Y0039392D01*
X0020141Y0039866D01*
X0020513Y0040423D01*
X0020769Y0041042D01*
X0020900Y0041698D01*
X0020900Y0041933D01*
X0015600Y0041933D01*
X0015400Y0041933D01*
X0015400Y0038633D01*
X0013600Y0038633D01*
X0013600Y0037623D01*
X0013820Y0037623D01*
X0013820Y0033670D01*
X0014620Y0033670D01*
X0014620Y0037623D01*
X0015980Y0037623D01*
X0016536Y0037513D01*
X0017059Y0037296D01*
X0017530Y0036981D01*
X0017931Y0036580D01*
X0018246Y0036109D01*
X0018463Y0035586D01*
X0018573Y0035030D01*
X0018573Y0033670D01*
X0014621Y0033670D01*
X0014621Y0032870D01*
X0018573Y0032870D01*
X0018573Y0031511D01*
X0018463Y0030955D01*
X0018246Y0030431D01*
X0017931Y0029960D01*
X0017530Y0029560D01*
X0017192Y0029333D01*
X0017530Y0029107D01*
X0017931Y0028706D01*
X0018246Y0028235D01*
X0018463Y0027712D01*
X0018573Y0027156D01*
X0018573Y0025796D01*
X0014621Y0025796D01*
X0014621Y0024996D01*
X0018573Y0024996D01*
X0018573Y0023637D01*
X0018463Y0023081D01*
X0018246Y0022557D01*
X0017931Y0022086D01*
X0017530Y0021686D01*
X0017059Y0021371D01*
X0016536Y0021154D01*
X0015980Y0021044D01*
X0014620Y0021044D01*
X0014620Y0024996D01*
X0013820Y0024996D01*
X0013820Y0021044D01*
X0013600Y0021044D01*
X0013600Y0020033D01*
X0015400Y0020033D01*
X0015400Y0016733D01*
X0015600Y0016733D01*
X0020900Y0016733D01*
X0020900Y0016968D01*
X0020769Y0017625D01*
X0020513Y0018244D01*
X0020141Y0018801D01*
X0019667Y0019274D01*
X0019110Y0019646D01*
X0018492Y0019903D01*
X0017835Y0020033D01*
X0015600Y0020033D01*
X0015600Y0016733D01*
X0015600Y0016533D01*
X0015600Y0013233D01*
X0017835Y0013233D01*
X0018492Y0013364D01*
X0019110Y0013620D01*
X0019667Y0013992D01*
X0020141Y0014466D01*
X0020513Y0015023D01*
X0020769Y0015642D01*
X0020900Y0016298D01*
X0020900Y0016533D01*
X0015600Y0016533D01*
X0015400Y0016533D01*
X0015400Y0013233D01*
X0013600Y0013233D01*
X0013600Y0012744D02*
X0022561Y0012744D01*
X0022240Y0013543D02*
X0018923Y0013543D01*
X0020016Y0014341D02*
X0022169Y0014341D01*
X0022169Y0015140D02*
X0020561Y0015140D01*
X0020828Y0015938D02*
X0024006Y0015938D01*
X0022169Y0016737D02*
X0020900Y0016737D01*
X0020787Y0017535D02*
X0021375Y0017535D01*
X0020620Y0018334D02*
X0020453Y0018334D01*
X0020289Y0019132D02*
X0019809Y0019132D01*
X0019959Y0019931D02*
X0018350Y0019931D01*
X0019791Y0020729D02*
X0013600Y0020729D01*
X0013820Y0021528D02*
X0014620Y0021528D01*
X0014620Y0022326D02*
X0013820Y0022326D01*
X0013820Y0023125D02*
X0014620Y0023125D01*
X0014620Y0023923D02*
X0013820Y0023923D01*
X0013820Y0024722D02*
X0014620Y0024722D01*
X0014621Y0025520D02*
X0020301Y0025520D01*
X0020301Y0024722D02*
X0018573Y0024722D01*
X0018573Y0023923D02*
X0020301Y0023923D01*
X0020015Y0023125D02*
X0018471Y0023125D01*
X0018091Y0022326D02*
X0019791Y0022326D01*
X0019791Y0021528D02*
X0017294Y0021528D01*
X0015600Y0019931D02*
X0015400Y0019931D01*
X0015400Y0019132D02*
X0015600Y0019132D01*
X0015600Y0018334D02*
X0015400Y0018334D01*
X0015400Y0017535D02*
X0015600Y0017535D01*
X0015600Y0016737D02*
X0015400Y0016737D01*
X0015400Y0015938D02*
X0015600Y0015938D01*
X0015600Y0015140D02*
X0015400Y0015140D01*
X0015400Y0014341D02*
X0015600Y0014341D01*
X0015600Y0013543D02*
X0015400Y0013543D01*
X0013600Y0011946D02*
X0023282Y0011946D01*
X0025919Y0011946D02*
X0026719Y0011946D01*
X0026719Y0012744D02*
X0025919Y0012744D01*
X0025919Y0013543D02*
X0026719Y0013543D01*
X0026719Y0014341D02*
X0025919Y0014341D01*
X0025919Y0015140D02*
X0026719Y0015140D01*
X0026876Y0015938D02*
X0050801Y0015938D01*
X0050801Y0015140D02*
X0030469Y0015140D01*
X0030469Y0014341D02*
X0050801Y0014341D01*
X0050801Y0013543D02*
X0030398Y0013543D01*
X0030077Y0012744D02*
X0051168Y0012744D01*
X0050801Y0016737D02*
X0030469Y0016737D01*
X0030469Y0017535D02*
X0050801Y0017535D01*
X0050801Y0018334D02*
X0030402Y0018334D01*
X0030593Y0019132D02*
X0050801Y0019132D01*
X0050801Y0019931D02*
X0030923Y0019931D01*
X0031091Y0020729D02*
X0050801Y0020729D01*
X0050801Y0021528D02*
X0031091Y0021528D01*
X0031091Y0022326D02*
X0050801Y0022326D01*
X0050801Y0023125D02*
X0031277Y0023125D01*
X0031416Y0023923D02*
X0050801Y0023923D01*
X0051409Y0024722D02*
X0031416Y0024722D01*
X0031272Y0025520D02*
X0092350Y0025520D01*
X0092350Y0025933D02*
X0092350Y0024583D01*
X0092479Y0024100D01*
X0092730Y0023667D01*
X0093083Y0023313D01*
X0093517Y0023063D01*
X0094000Y0022933D01*
X0096100Y0022933D01*
X0096100Y0025933D01*
X0096900Y0025933D01*
X0096900Y0022933D01*
X0099000Y0022933D01*
X0099483Y0023063D01*
X0099917Y0023313D01*
X0100270Y0023667D01*
X0100521Y0024100D01*
X0100650Y0024583D01*
X0100650Y0025933D01*
X0096900Y0025933D01*
X0096900Y0026733D01*
X0100650Y0026733D01*
X0100650Y0028083D01*
X0100521Y0028567D01*
X0100270Y0029000D01*
X0099917Y0029354D01*
X0099483Y0029604D01*
X0099000Y0029733D01*
X0096900Y0029733D01*
X0096900Y0026733D01*
X0096100Y0026733D01*
X0096100Y0025933D01*
X0092350Y0025933D01*
X0092350Y0026733D02*
X0096100Y0026733D01*
X0096100Y0029733D01*
X0094000Y0029733D01*
X0093517Y0029604D01*
X0093083Y0029354D01*
X0092730Y0029000D01*
X0092479Y0028567D01*
X0092350Y0028083D01*
X0092350Y0026733D01*
X0092350Y0027117D02*
X0031416Y0027117D01*
X0031416Y0026319D02*
X0096100Y0026319D01*
X0096100Y0027117D02*
X0096900Y0027117D01*
X0096900Y0026319D02*
X0104119Y0026319D01*
X0104119Y0027117D02*
X0100650Y0027117D01*
X0100650Y0027916D02*
X0104119Y0027916D01*
X0104302Y0028714D02*
X0100435Y0028714D01*
X0099641Y0029513D02*
X0114356Y0029513D01*
X0114377Y0028714D02*
X0111461Y0028714D01*
X0111644Y0027916D02*
X0114356Y0027916D01*
X0114356Y0027117D02*
X0111644Y0027117D01*
X0111833Y0026319D02*
X0114167Y0026319D01*
X0113619Y0025520D02*
X0112381Y0025520D01*
X0112600Y0024722D02*
X0113400Y0024722D01*
X0113400Y0023923D02*
X0112600Y0023923D01*
X0112600Y0023125D02*
X0113400Y0023125D01*
X0113400Y0022326D02*
X0112600Y0022326D01*
X0112600Y0021528D02*
X0113400Y0021528D01*
X0113400Y0020729D02*
X0112600Y0020729D01*
X0112626Y0019931D02*
X0113374Y0019931D01*
X0118626Y0019931D02*
X0130226Y0019931D01*
X0131024Y0019132D02*
X0119150Y0019132D01*
X0119150Y0018334D02*
X0131823Y0018334D01*
X0132621Y0017535D02*
X0119150Y0017535D01*
X0119150Y0016737D02*
X0133420Y0016737D01*
X0137600Y0015938D02*
X0119150Y0015938D01*
X0119030Y0015140D02*
X0138257Y0015140D01*
X0140438Y0014341D02*
X0118232Y0014341D01*
X0113768Y0014341D02*
X0112232Y0014341D01*
X0107400Y0021528D02*
X0066199Y0021528D01*
X0066199Y0022326D02*
X0107400Y0022326D01*
X0107400Y0023125D02*
X0099591Y0023125D01*
X0100419Y0023923D02*
X0104851Y0023923D01*
X0104119Y0024722D02*
X0100650Y0024722D01*
X0100650Y0025520D02*
X0104119Y0025520D01*
X0102427Y0031110D02*
X0114356Y0031110D01*
X0117839Y0030312D02*
X0099915Y0030312D01*
X0096900Y0029513D02*
X0096100Y0029513D01*
X0096100Y0028714D02*
X0096900Y0028714D01*
X0096900Y0027916D02*
X0096100Y0027916D01*
X0096100Y0025520D02*
X0096900Y0025520D01*
X0096900Y0024722D02*
X0096100Y0024722D01*
X0096100Y0023923D02*
X0096900Y0023923D01*
X0096900Y0023125D02*
X0096100Y0023125D01*
X0093409Y0023125D02*
X0066199Y0023125D01*
X0066199Y0023923D02*
X0092581Y0023923D01*
X0092350Y0024722D02*
X0065591Y0024722D01*
X0064631Y0030312D02*
X0041481Y0030312D01*
X0041940Y0031110D02*
X0063635Y0031110D01*
X0062837Y0031909D02*
X0042184Y0031909D01*
X0042184Y0032707D02*
X0062038Y0032707D01*
X0061240Y0033506D02*
X0041961Y0033506D01*
X0041532Y0034304D02*
X0060441Y0034304D01*
X0066199Y0038163D02*
X0066199Y0046555D01*
X0065379Y0047375D01*
X0051621Y0047375D01*
X0050801Y0046555D01*
X0050801Y0043654D01*
X0041356Y0043654D01*
X0034704Y0050306D01*
X0033973Y0051037D01*
X0033017Y0051433D01*
X0031580Y0051433D01*
X0031620Y0051474D01*
X0031805Y0051793D01*
X0031900Y0052149D01*
X0031900Y0054433D01*
X0028400Y0054433D01*
X0028400Y0055233D01*
X0031900Y0055233D01*
X0031900Y0057518D01*
X0031805Y0057874D01*
X0031620Y0058193D01*
X0031360Y0058454D01*
X0031040Y0058638D01*
X0030684Y0058733D01*
X0028400Y0058733D01*
X0028400Y0055233D01*
X0027600Y0055233D01*
X0027600Y0054433D01*
X0024100Y0054433D01*
X0024100Y0052149D01*
X0024195Y0051793D01*
X0024380Y0051474D01*
X0024420Y0051433D01*
X0021580Y0051433D01*
X0021900Y0051753D01*
X0021900Y0055056D01*
X0024100Y0057256D01*
X0024100Y0055233D01*
X0027600Y0055233D01*
X0027600Y0058733D01*
X0025577Y0058733D01*
X0026077Y0059233D01*
X0030017Y0059233D01*
X0030973Y0059629D01*
X0031704Y0060361D01*
X0034577Y0063233D01*
X0133500Y0063233D01*
X0133027Y0063037D01*
X0128323Y0058333D01*
X0094172Y0058333D01*
X0093000Y0057162D01*
X0093000Y0057162D01*
X0092172Y0056333D01*
X0090284Y0056333D01*
X0090227Y0056277D01*
X0089165Y0056277D01*
X0089030Y0056477D01*
X0088644Y0056864D01*
X0088189Y0057167D01*
X0087684Y0057377D01*
X0087148Y0057483D01*
X0085900Y0057483D01*
X0085900Y0051733D01*
X0085100Y0051733D01*
X0085100Y0057483D01*
X0083852Y0057483D01*
X0083316Y0057377D01*
X0082811Y0057167D01*
X0082356Y0056864D01*
X0081970Y0056477D01*
X0081792Y0056212D01*
X0081550Y0056277D01*
X0079935Y0056277D01*
X0078320Y0056277D01*
X0077964Y0056181D01*
X0077644Y0055997D01*
X0077384Y0055736D01*
X0077199Y0055417D01*
X0077117Y0055110D01*
X0076133Y0055518D01*
X0074867Y0055518D01*
X0073696Y0055033D01*
X0072801Y0054137D01*
X0072316Y0052967D01*
X0072316Y0051700D01*
X0072389Y0051522D01*
X0072150Y0051762D01*
X0072150Y0055913D01*
X0071330Y0056733D01*
X0065170Y0056733D01*
X0064350Y0055913D01*
X0064350Y0049753D01*
X0065170Y0048933D01*
X0069322Y0048933D01*
X0070703Y0047552D01*
X0078922Y0039333D01*
X0086497Y0039333D01*
X0087196Y0038634D01*
X0088367Y0038149D01*
X0089633Y0038149D01*
X0090804Y0038634D01*
X0091699Y0039530D01*
X0092184Y0040700D01*
X0092184Y0041967D01*
X0091699Y0043137D01*
X0090804Y0044033D01*
X0089633Y0044518D01*
X0088367Y0044518D01*
X0087196Y0044033D01*
X0086497Y0043333D01*
X0080578Y0043333D01*
X0077531Y0046381D01*
X0080763Y0046381D01*
X0080773Y0046390D01*
X0081835Y0046390D01*
X0081970Y0046189D01*
X0082356Y0045803D01*
X0082811Y0045499D01*
X0083316Y0045290D01*
X0083852Y0045183D01*
X0085100Y0045183D01*
X0085100Y0050933D01*
X0085900Y0050933D01*
X0085900Y0045183D01*
X0087148Y0045183D01*
X0087684Y0045290D01*
X0088189Y0045499D01*
X0088644Y0045803D01*
X0089030Y0046189D01*
X0089165Y0046390D01*
X0090227Y0046390D01*
X0090284Y0046333D01*
X0092672Y0046333D01*
X0101172Y0037833D01*
X0129328Y0037833D01*
X0130500Y0039005D01*
X0132672Y0036833D01*
X0142889Y0036833D01*
X0139089Y0033033D01*
X0138789Y0032733D01*
X0137670Y0032733D01*
X0136850Y0031913D01*
X0136850Y0024753D01*
X0137670Y0023933D01*
X0143330Y0023933D01*
X0144150Y0024753D01*
X0144150Y0031872D01*
X0146411Y0034133D01*
X0150911Y0034133D01*
X0152200Y0035422D01*
X0156200Y0039422D01*
X0156200Y0045245D01*
X0154911Y0046533D01*
X0152211Y0049233D01*
X0152923Y0049233D01*
X0157900Y0044256D01*
X0157900Y0038737D01*
X0157801Y0038637D01*
X0157316Y0037467D01*
X0157316Y0036200D01*
X0157801Y0035030D01*
X0158696Y0034134D01*
X0159867Y0033649D01*
X0161133Y0033649D01*
X0162304Y0034134D01*
X0163199Y0035030D01*
X0163684Y0036200D01*
X0163684Y0037467D01*
X0163555Y0037778D01*
X0163867Y0037649D01*
X0164856Y0037649D01*
X0165172Y0037333D01*
X0168100Y0037333D01*
X0168100Y0034753D01*
X0168920Y0033933D01*
X0176080Y0033933D01*
X0176900Y0034753D01*
X0176900Y0043913D01*
X0176080Y0044733D01*
X0168920Y0044733D01*
X0168100Y0043913D01*
X0168100Y0041333D01*
X0167684Y0041333D01*
X0167684Y0041467D01*
X0167199Y0042637D01*
X0166304Y0043533D01*
X0165133Y0044018D01*
X0163867Y0044018D01*
X0163100Y0043700D01*
X0163100Y0045851D01*
X0162704Y0046806D01*
X0156204Y0053306D01*
X0155473Y0054037D01*
X0154517Y0054433D01*
X0153711Y0054433D01*
X0154411Y0055133D01*
X0168320Y0055133D01*
X0168100Y0054913D01*
X0168100Y0045753D01*
X0168920Y0044933D01*
X0176080Y0044933D01*
X0176288Y0045142D01*
X0178100Y0043977D01*
X0178100Y0034486D01*
X0173960Y0031233D01*
X0169420Y0031233D01*
X0168600Y0030413D01*
X0168600Y0024253D01*
X0169120Y0023733D01*
X0167625Y0023733D01*
X0166008Y0023063D01*
X0164770Y0021826D01*
X0164100Y0020209D01*
X0164100Y0012458D01*
X0164732Y0010933D01*
X0162195Y0010933D01*
X0162263Y0011027D01*
X0162578Y0011644D01*
X0162792Y0012303D01*
X0162900Y0012987D01*
X0162900Y0015933D01*
X0158900Y0015933D01*
X0158900Y0016733D01*
X0162900Y0016733D01*
X0162900Y0019680D01*
X0162792Y0020364D01*
X0162578Y0021022D01*
X0162263Y0021639D01*
X0161856Y0022200D01*
X0161366Y0022689D01*
X0160806Y0023097D01*
X0160189Y0023411D01*
X0160120Y0023433D01*
X0162100Y0023433D01*
X0162100Y0026933D01*
X0162900Y0026933D01*
X0162900Y0023433D01*
X0165184Y0023433D01*
X0165540Y0023529D01*
X0165860Y0023713D01*
X0166120Y0023974D01*
X0166305Y0024293D01*
X0166400Y0024649D01*
X0166400Y0026933D01*
X0162900Y0026933D01*
X0162900Y0027733D01*
X0166400Y0027733D01*
X0166400Y0030018D01*
X0166305Y0030374D01*
X0166120Y0030693D01*
X0165860Y0030954D01*
X0165540Y0031138D01*
X0165184Y0031233D01*
X0162900Y0031233D01*
X0162900Y0027733D01*
X0162100Y0027733D01*
X0162100Y0026933D01*
X0158600Y0026933D01*
X0158600Y0024649D01*
X0158695Y0024293D01*
X0158880Y0023974D01*
X0159140Y0023713D01*
X0159203Y0023677D01*
X0158900Y0023725D01*
X0158900Y0016733D01*
X0158100Y0016733D01*
X0158100Y0015933D01*
X0154100Y0015933D01*
X0154100Y0012987D01*
X0154208Y0012303D01*
X0154422Y0011644D01*
X0154737Y0011027D01*
X0154805Y0010933D01*
X0150479Y0010933D01*
X0146494Y0014683D01*
X0147600Y0014683D01*
X0147600Y0018433D01*
X0148400Y0018433D01*
X0148400Y0014683D01*
X0149750Y0014683D01*
X0150233Y0014813D01*
X0150667Y0015063D01*
X0151020Y0015417D01*
X0151271Y0015850D01*
X0151400Y0016333D01*
X0151400Y0018433D01*
X0148400Y0018433D01*
X0148400Y0019233D01*
X0151400Y0019233D01*
X0151400Y0021333D01*
X0151271Y0021817D01*
X0151020Y0022250D01*
X0150667Y0022604D01*
X0150233Y0022854D01*
X0149750Y0022983D01*
X0148400Y0022983D01*
X0148400Y0019233D01*
X0147600Y0019233D01*
X0147600Y0018433D01*
X0144600Y0018433D01*
X0144600Y0016466D01*
X0144400Y0016654D01*
X0144400Y0021870D01*
X0143287Y0022983D01*
X0138713Y0022983D01*
X0137600Y0021870D01*
X0137600Y0021433D01*
X0136077Y0021433D01*
X0133650Y0023860D01*
X0133650Y0026620D01*
X0132537Y0027733D01*
X0126463Y0027733D01*
X0125350Y0026620D01*
X0125350Y0026433D01*
X0124577Y0026433D01*
X0122213Y0028797D01*
X0121881Y0028935D01*
X0121881Y0030054D01*
X0118398Y0030054D01*
X0118398Y0030612D01*
X0121881Y0030612D01*
X0121881Y0031876D01*
X0121826Y0032080D01*
X0121881Y0032135D01*
X0121881Y0036012D01*
X0121061Y0036832D01*
X0115176Y0036832D01*
X0115018Y0036673D01*
X0110982Y0036673D01*
X0110824Y0036832D01*
X0108384Y0036832D01*
X0108139Y0036933D01*
X0101483Y0036933D01*
X0100527Y0036537D01*
X0100130Y0036140D01*
X0099537Y0036733D01*
X0067629Y0036733D01*
X0066199Y0038163D01*
X0066199Y0038297D02*
X0088010Y0038297D01*
X0086735Y0039095D02*
X0066199Y0039095D01*
X0066199Y0039894D02*
X0078361Y0039894D01*
X0077563Y0040692D02*
X0066199Y0040692D01*
X0066199Y0041491D02*
X0076764Y0041491D01*
X0075966Y0042289D02*
X0066199Y0042289D01*
X0066199Y0043088D02*
X0075167Y0043088D01*
X0074369Y0043886D02*
X0066199Y0043886D01*
X0066199Y0044685D02*
X0073570Y0044685D01*
X0072772Y0045483D02*
X0066199Y0045483D01*
X0066199Y0046282D02*
X0071973Y0046282D01*
X0071175Y0047080D02*
X0065674Y0047080D01*
X0064628Y0049476D02*
X0061871Y0049476D01*
X0061870Y0049474D02*
X0062055Y0049793D01*
X0062150Y0050149D01*
X0062150Y0052433D01*
X0058650Y0052433D01*
X0058650Y0048933D01*
X0060934Y0048933D01*
X0061290Y0049029D01*
X0061610Y0049213D01*
X0061870Y0049474D01*
X0062150Y0050274D02*
X0064350Y0050274D01*
X0064350Y0051073D02*
X0062150Y0051073D01*
X0062150Y0051871D02*
X0064350Y0051871D01*
X0064350Y0052670D02*
X0058650Y0052670D01*
X0058650Y0052433D02*
X0058650Y0053233D01*
X0062150Y0053233D01*
X0062150Y0055518D01*
X0062055Y0055874D01*
X0061870Y0056193D01*
X0061610Y0056454D01*
X0061290Y0056638D01*
X0060934Y0056733D01*
X0058650Y0056733D01*
X0058650Y0053233D01*
X0057850Y0053233D01*
X0057850Y0052433D01*
X0058650Y0052433D01*
X0058650Y0051871D02*
X0057850Y0051871D01*
X0057850Y0052433D02*
X0057850Y0048933D01*
X0055566Y0048933D01*
X0055210Y0049029D01*
X0054890Y0049213D01*
X0054630Y0049474D01*
X0054445Y0049793D01*
X0054350Y0050149D01*
X0054350Y0052433D01*
X0057850Y0052433D01*
X0057850Y0052670D02*
X0050150Y0052670D01*
X0050150Y0053468D02*
X0054350Y0053468D01*
X0054350Y0053233D02*
X0057850Y0053233D01*
X0057850Y0056733D01*
X0055566Y0056733D01*
X0055210Y0056638D01*
X0054890Y0056454D01*
X0054630Y0056193D01*
X0054445Y0055874D01*
X0054350Y0055518D01*
X0054350Y0053233D01*
X0054350Y0054267D02*
X0050150Y0054267D01*
X0050150Y0055065D02*
X0054350Y0055065D01*
X0054443Y0055864D02*
X0050150Y0055864D01*
X0050150Y0055907D02*
X0049074Y0056983D01*
X0044926Y0056983D01*
X0043942Y0055999D01*
X0043783Y0056274D01*
X0043441Y0056616D01*
X0043022Y0056858D01*
X0042554Y0056983D01*
X0041400Y0056983D01*
X0041400Y0054233D01*
X0040600Y0054233D01*
X0040600Y0053433D01*
X0041400Y0053433D01*
X0041400Y0050683D01*
X0042554Y0050683D01*
X0043022Y0050809D01*
X0043441Y0051050D01*
X0043500Y0051110D01*
X0043500Y0049837D01*
X0042801Y0049137D01*
X0042316Y0047967D01*
X0042316Y0046700D01*
X0042801Y0045530D01*
X0043696Y0044634D01*
X0044867Y0044149D01*
X0046133Y0044149D01*
X0047304Y0044634D01*
X0048199Y0045530D01*
X0048684Y0046700D01*
X0048684Y0047967D01*
X0048199Y0049137D01*
X0047500Y0049837D01*
X0047500Y0050683D01*
X0049074Y0050683D01*
X0050150Y0051760D01*
X0050150Y0055907D01*
X0049395Y0056662D02*
X0055301Y0056662D01*
X0057850Y0056662D02*
X0058650Y0056662D01*
X0058650Y0055864D02*
X0057850Y0055864D01*
X0057850Y0055065D02*
X0058650Y0055065D01*
X0058650Y0054267D02*
X0057850Y0054267D01*
X0057850Y0053468D02*
X0058650Y0053468D01*
X0058650Y0051073D02*
X0057850Y0051073D01*
X0057850Y0050274D02*
X0058650Y0050274D01*
X0058650Y0049476D02*
X0057850Y0049476D01*
X0054629Y0049476D02*
X0047861Y0049476D01*
X0047500Y0050274D02*
X0054350Y0050274D01*
X0054350Y0051073D02*
X0049463Y0051073D01*
X0050150Y0051871D02*
X0054350Y0051871D01*
X0051326Y0047080D02*
X0048684Y0047080D01*
X0048684Y0047879D02*
X0070376Y0047879D01*
X0070703Y0047552D02*
X0070703Y0047552D01*
X0069578Y0048677D02*
X0048390Y0048677D01*
X0043500Y0050274D02*
X0034736Y0050274D01*
X0035534Y0049476D02*
X0043139Y0049476D01*
X0042610Y0048677D02*
X0036333Y0048677D01*
X0037131Y0047879D02*
X0042316Y0047879D01*
X0042316Y0047080D02*
X0037930Y0047080D01*
X0038729Y0046282D02*
X0042489Y0046282D01*
X0042847Y0045483D02*
X0039527Y0045483D01*
X0040326Y0044685D02*
X0043645Y0044685D01*
X0041124Y0043886D02*
X0050801Y0043886D01*
X0050801Y0044685D02*
X0047355Y0044685D01*
X0048153Y0045483D02*
X0050801Y0045483D01*
X0050801Y0046282D02*
X0048511Y0046282D01*
X0043500Y0051073D02*
X0043463Y0051073D01*
X0041400Y0051073D02*
X0040600Y0051073D01*
X0040600Y0050683D02*
X0040600Y0053433D01*
X0037850Y0053433D01*
X0037850Y0052279D01*
X0037975Y0051812D01*
X0038217Y0051393D01*
X0038559Y0051050D01*
X0038978Y0050809D01*
X0039446Y0050683D01*
X0040600Y0050683D01*
X0040600Y0051871D02*
X0041400Y0051871D01*
X0041400Y0052670D02*
X0040600Y0052670D01*
X0040600Y0053468D02*
X0031900Y0053468D01*
X0031900Y0052670D02*
X0037850Y0052670D01*
X0037959Y0051871D02*
X0031826Y0051871D01*
X0033888Y0051073D02*
X0038537Y0051073D01*
X0037850Y0054233D02*
X0040600Y0054233D01*
X0040600Y0056983D01*
X0039446Y0056983D01*
X0038978Y0056858D01*
X0038559Y0056616D01*
X0038217Y0056274D01*
X0037975Y0055855D01*
X0037850Y0055388D01*
X0037850Y0054233D01*
X0037850Y0054267D02*
X0031900Y0054267D01*
X0031900Y0055864D02*
X0037980Y0055864D01*
X0037850Y0055065D02*
X0028400Y0055065D01*
X0028400Y0055864D02*
X0027600Y0055864D01*
X0027600Y0056662D02*
X0028400Y0056662D01*
X0028400Y0057461D02*
X0027600Y0057461D01*
X0027600Y0058259D02*
X0028400Y0058259D01*
X0025902Y0059058D02*
X0129048Y0059058D01*
X0129846Y0059856D02*
X0031200Y0059856D01*
X0031999Y0060655D02*
X0130645Y0060655D01*
X0131443Y0061453D02*
X0032797Y0061453D01*
X0033596Y0062252D02*
X0132242Y0062252D01*
X0133059Y0063050D02*
X0034394Y0063050D01*
X0031033Y0067043D02*
X0013600Y0067043D01*
X0013600Y0066245D02*
X0030234Y0066245D01*
X0029436Y0065446D02*
X0013600Y0065446D01*
X0013600Y0064648D02*
X0028637Y0064648D01*
X0026401Y0067842D02*
X0031831Y0067842D01*
X0029987Y0070237D02*
X0037475Y0070237D01*
X0037147Y0071036D02*
X0030785Y0071036D01*
X0031355Y0071834D02*
X0037147Y0071834D01*
X0037147Y0072633D02*
X0031686Y0072633D01*
X0032017Y0073431D02*
X0037335Y0073431D01*
X0037666Y0074230D02*
X0032347Y0074230D01*
X0032678Y0075028D02*
X0038143Y0075028D01*
X0038942Y0075827D02*
X0032687Y0075827D01*
X0032687Y0076625D02*
X0040403Y0076625D01*
X0040900Y0077223D02*
X0040166Y0077462D01*
X0039479Y0077812D01*
X0038855Y0078265D01*
X0038310Y0078810D01*
X0037856Y0079434D01*
X0037506Y0080122D01*
X0037268Y0080855D01*
X0037150Y0081603D01*
X0041647Y0081603D01*
X0041647Y0082403D01*
X0041647Y0086900D01*
X0040900Y0086782D01*
X0040166Y0086544D01*
X0039479Y0086193D01*
X0038855Y0085740D01*
X0038310Y0085195D01*
X0037856Y0084571D01*
X0037506Y0083884D01*
X0037268Y0083150D01*
X0037150Y0082403D01*
X0041647Y0082403D01*
X0042447Y0082403D01*
X0042447Y0086900D01*
X0043195Y0086782D01*
X0043928Y0086544D01*
X0044615Y0086193D01*
X0045239Y0085740D01*
X0045785Y0085195D01*
X0046238Y0084571D01*
X0046588Y0083884D01*
X0046827Y0083150D01*
X0046945Y0082403D01*
X0042447Y0082403D01*
X0042447Y0081603D01*
X0046945Y0081603D01*
X0046827Y0080855D01*
X0046588Y0080122D01*
X0046238Y0079434D01*
X0045785Y0078810D01*
X0045239Y0078265D01*
X0044615Y0077812D01*
X0043928Y0077462D01*
X0043195Y0077223D01*
X0042447Y0077105D01*
X0042447Y0081603D01*
X0041647Y0081603D01*
X0041647Y0077105D01*
X0040900Y0077223D01*
X0040283Y0077424D02*
X0032687Y0077424D01*
X0032687Y0078222D02*
X0038914Y0078222D01*
X0038157Y0079021D02*
X0032660Y0079021D01*
X0032329Y0079819D02*
X0037660Y0079819D01*
X0037345Y0080618D02*
X0031999Y0080618D01*
X0031668Y0081416D02*
X0037179Y0081416D01*
X0037246Y0083013D02*
X0030742Y0083013D01*
X0031337Y0082215D02*
X0041647Y0082215D01*
X0041647Y0083013D02*
X0042447Y0083013D01*
X0042447Y0082215D02*
X0047147Y0082215D01*
X0047147Y0082977D02*
X0047147Y0081028D01*
X0047893Y0079227D01*
X0049272Y0077849D01*
X0051073Y0077103D01*
X0053022Y0077103D01*
X0054823Y0077849D01*
X0056201Y0079227D01*
X0056947Y0081028D01*
X0056947Y0082977D01*
X0056201Y0084778D01*
X0054823Y0086157D01*
X0053022Y0086903D01*
X0051073Y0086903D01*
X0049272Y0086157D01*
X0047893Y0084778D01*
X0047147Y0082977D01*
X0047162Y0083013D02*
X0046848Y0083013D01*
X0046612Y0083812D02*
X0047493Y0083812D01*
X0047824Y0084610D02*
X0046209Y0084610D01*
X0045571Y0085409D02*
X0048524Y0085409D01*
X0049394Y0086207D02*
X0044588Y0086207D01*
X0042447Y0086207D02*
X0041647Y0086207D01*
X0041647Y0085409D02*
X0042447Y0085409D01*
X0042447Y0084610D02*
X0041647Y0084610D01*
X0041647Y0083812D02*
X0042447Y0083812D01*
X0042447Y0081416D02*
X0041647Y0081416D01*
X0041647Y0080618D02*
X0042447Y0080618D01*
X0042447Y0079819D02*
X0041647Y0079819D01*
X0041647Y0079021D02*
X0042447Y0079021D01*
X0042447Y0078222D02*
X0041647Y0078222D01*
X0041647Y0077424D02*
X0042447Y0077424D01*
X0043811Y0077424D02*
X0050297Y0077424D01*
X0050403Y0076625D02*
X0043692Y0076625D01*
X0045153Y0075827D02*
X0048942Y0075827D01*
X0048143Y0075028D02*
X0045951Y0075028D01*
X0046428Y0074230D02*
X0047666Y0074230D01*
X0047335Y0073431D02*
X0046759Y0073431D01*
X0046947Y0072633D02*
X0047147Y0072633D01*
X0047147Y0071834D02*
X0046947Y0071834D01*
X0046947Y0071036D02*
X0047147Y0071036D01*
X0047475Y0070237D02*
X0046620Y0070237D01*
X0046289Y0069439D02*
X0047806Y0069439D01*
X0048480Y0068640D02*
X0045614Y0068640D01*
X0038480Y0068640D02*
X0028329Y0068640D01*
X0029188Y0069439D02*
X0037806Y0069439D01*
X0045180Y0078222D02*
X0048898Y0078222D01*
X0048100Y0079021D02*
X0045937Y0079021D01*
X0046434Y0079819D02*
X0047648Y0079819D01*
X0047317Y0080618D02*
X0046749Y0080618D01*
X0046915Y0081416D02*
X0047147Y0081416D01*
X0053797Y0077424D02*
X0060297Y0077424D01*
X0060403Y0076625D02*
X0053692Y0076625D01*
X0055153Y0075827D02*
X0058942Y0075827D01*
X0058143Y0075028D02*
X0055951Y0075028D01*
X0056428Y0074230D02*
X0057666Y0074230D01*
X0057335Y0073431D02*
X0056759Y0073431D01*
X0056947Y0072633D02*
X0057147Y0072633D01*
X0057147Y0071834D02*
X0056947Y0071834D01*
X0056947Y0071036D02*
X0057147Y0071036D01*
X0057475Y0070237D02*
X0056620Y0070237D01*
X0056289Y0069439D02*
X0057806Y0069439D01*
X0058480Y0068640D02*
X0055614Y0068640D01*
X0065614Y0068640D02*
X0068480Y0068640D01*
X0067854Y0069439D02*
X0066289Y0069439D01*
X0066620Y0070237D02*
X0067469Y0070237D01*
X0067239Y0071036D02*
X0066947Y0071036D01*
X0066947Y0071834D02*
X0071647Y0071834D01*
X0071647Y0072633D02*
X0072447Y0072633D01*
X0072447Y0073431D02*
X0071647Y0073431D01*
X0071647Y0074230D02*
X0072447Y0074230D01*
X0072447Y0075028D02*
X0071647Y0075028D01*
X0071647Y0075827D02*
X0072447Y0075827D01*
X0072447Y0076625D02*
X0071647Y0076625D01*
X0071073Y0077103D02*
X0073022Y0077103D01*
X0074823Y0077849D01*
X0076201Y0079227D01*
X0076947Y0081028D01*
X0076947Y0082977D01*
X0076201Y0084778D01*
X0074823Y0086157D01*
X0073022Y0086903D01*
X0071073Y0086903D01*
X0069272Y0086157D01*
X0067893Y0084778D01*
X0067147Y0082977D01*
X0067147Y0081028D01*
X0067893Y0079227D01*
X0069272Y0077849D01*
X0071073Y0077103D01*
X0070417Y0076625D02*
X0063692Y0076625D01*
X0063797Y0077424D02*
X0070297Y0077424D01*
X0068898Y0078222D02*
X0065196Y0078222D01*
X0064823Y0077849D02*
X0066201Y0079227D01*
X0066947Y0081028D01*
X0066947Y0082977D01*
X0066201Y0084778D01*
X0064823Y0086157D01*
X0063022Y0086903D01*
X0061073Y0086903D01*
X0059272Y0086157D01*
X0057893Y0084778D01*
X0057147Y0082977D01*
X0057147Y0081028D01*
X0057893Y0079227D01*
X0059272Y0077849D01*
X0061073Y0077103D01*
X0063022Y0077103D01*
X0064823Y0077849D01*
X0065995Y0079021D02*
X0068100Y0079021D01*
X0067648Y0079819D02*
X0066447Y0079819D01*
X0066777Y0080618D02*
X0067317Y0080618D01*
X0067147Y0081416D02*
X0066947Y0081416D01*
X0066947Y0082215D02*
X0067147Y0082215D01*
X0067162Y0083013D02*
X0066932Y0083013D01*
X0066602Y0083812D02*
X0067493Y0083812D01*
X0067824Y0084610D02*
X0066271Y0084610D01*
X0065571Y0085409D02*
X0068524Y0085409D01*
X0069394Y0086207D02*
X0064701Y0086207D01*
X0059394Y0086207D02*
X0054701Y0086207D01*
X0055571Y0085409D02*
X0058524Y0085409D01*
X0057824Y0084610D02*
X0056271Y0084610D01*
X0056602Y0083812D02*
X0057493Y0083812D01*
X0057162Y0083013D02*
X0056932Y0083013D01*
X0056947Y0082215D02*
X0057147Y0082215D01*
X0057147Y0081416D02*
X0056947Y0081416D01*
X0056777Y0080618D02*
X0057317Y0080618D01*
X0057648Y0079819D02*
X0056447Y0079819D01*
X0055995Y0079021D02*
X0058100Y0079021D01*
X0058898Y0078222D02*
X0055196Y0078222D01*
X0065153Y0075827D02*
X0068974Y0075827D01*
X0068189Y0075028D02*
X0065951Y0075028D01*
X0066428Y0074230D02*
X0067683Y0074230D01*
X0067359Y0073431D02*
X0066759Y0073431D01*
X0066947Y0072633D02*
X0067186Y0072633D01*
X0072447Y0071834D02*
X0077147Y0071834D01*
X0077147Y0071036D02*
X0076855Y0071036D01*
X0076626Y0070237D02*
X0077475Y0070237D01*
X0077806Y0069439D02*
X0076240Y0069439D01*
X0075614Y0068640D02*
X0078480Y0068640D01*
X0077147Y0072633D02*
X0076909Y0072633D01*
X0076735Y0073431D02*
X0077335Y0073431D01*
X0077666Y0074230D02*
X0076412Y0074230D01*
X0075906Y0075028D02*
X0078143Y0075028D01*
X0078942Y0075827D02*
X0075120Y0075827D01*
X0073677Y0076625D02*
X0080403Y0076625D01*
X0080297Y0077424D02*
X0073797Y0077424D01*
X0075196Y0078222D02*
X0078898Y0078222D01*
X0079272Y0077849D02*
X0081073Y0077103D01*
X0083022Y0077103D01*
X0084823Y0077849D01*
X0086201Y0079227D01*
X0086947Y0081028D01*
X0086947Y0082977D01*
X0086201Y0084778D01*
X0084823Y0086157D01*
X0083022Y0086903D01*
X0081073Y0086903D01*
X0079272Y0086157D01*
X0077893Y0084778D01*
X0077147Y0082977D01*
X0077147Y0081028D01*
X0077893Y0079227D01*
X0079272Y0077849D01*
X0078100Y0079021D02*
X0075995Y0079021D01*
X0076447Y0079819D02*
X0077648Y0079819D01*
X0077317Y0080618D02*
X0076777Y0080618D01*
X0076947Y0081416D02*
X0077147Y0081416D01*
X0077147Y0082215D02*
X0076947Y0082215D01*
X0076932Y0083013D02*
X0077162Y0083013D01*
X0077493Y0083812D02*
X0076602Y0083812D01*
X0076271Y0084610D02*
X0077824Y0084610D01*
X0078524Y0085409D02*
X0075571Y0085409D01*
X0074701Y0086207D02*
X0079394Y0086207D01*
X0084701Y0086207D02*
X0089394Y0086207D01*
X0089272Y0086157D02*
X0087893Y0084778D01*
X0087147Y0082977D01*
X0087147Y0081028D01*
X0087893Y0079227D01*
X0089272Y0077849D01*
X0091073Y0077103D01*
X0093022Y0077103D01*
X0094823Y0077849D01*
X0096201Y0079227D01*
X0096947Y0081028D01*
X0096947Y0082977D01*
X0096201Y0084778D01*
X0094823Y0086157D01*
X0093022Y0086903D01*
X0091073Y0086903D01*
X0089272Y0086157D01*
X0088524Y0085409D02*
X0085571Y0085409D01*
X0086271Y0084610D02*
X0087824Y0084610D01*
X0087493Y0083812D02*
X0086602Y0083812D01*
X0086932Y0083013D02*
X0087162Y0083013D01*
X0087147Y0082215D02*
X0086947Y0082215D01*
X0086947Y0081416D02*
X0087147Y0081416D01*
X0087317Y0080618D02*
X0086777Y0080618D01*
X0086447Y0079819D02*
X0087648Y0079819D01*
X0088100Y0079021D02*
X0085995Y0079021D01*
X0085196Y0078222D02*
X0088898Y0078222D01*
X0090297Y0077424D02*
X0083797Y0077424D01*
X0083692Y0076625D02*
X0090417Y0076625D01*
X0091647Y0076625D02*
X0092447Y0076625D01*
X0092447Y0075827D02*
X0091647Y0075827D01*
X0091647Y0075028D02*
X0092447Y0075028D01*
X0092447Y0074230D02*
X0091647Y0074230D01*
X0091647Y0073431D02*
X0092447Y0073431D01*
X0092447Y0072633D02*
X0091647Y0072633D01*
X0091647Y0071834D02*
X0086947Y0071834D01*
X0086947Y0071036D02*
X0087239Y0071036D01*
X0087469Y0070237D02*
X0086620Y0070237D01*
X0086289Y0069439D02*
X0087854Y0069439D01*
X0088480Y0068640D02*
X0085614Y0068640D01*
X0086947Y0072633D02*
X0087186Y0072633D01*
X0087359Y0073431D02*
X0086759Y0073431D01*
X0086428Y0074230D02*
X0087683Y0074230D01*
X0088189Y0075028D02*
X0085951Y0075028D01*
X0085153Y0075827D02*
X0088974Y0075827D01*
X0093677Y0076625D02*
X0100403Y0076625D01*
X0100297Y0077424D02*
X0093797Y0077424D01*
X0095196Y0078222D02*
X0098898Y0078222D01*
X0099272Y0077849D02*
X0101073Y0077103D01*
X0103022Y0077103D01*
X0104823Y0077849D01*
X0106201Y0079227D01*
X0106947Y0081028D01*
X0106947Y0082977D01*
X0106201Y0084778D01*
X0104823Y0086157D01*
X0103022Y0086903D01*
X0101073Y0086903D01*
X0099272Y0086157D01*
X0097893Y0084778D01*
X0097147Y0082977D01*
X0097147Y0081028D01*
X0097893Y0079227D01*
X0099272Y0077849D01*
X0098100Y0079021D02*
X0095995Y0079021D01*
X0096447Y0079819D02*
X0097648Y0079819D01*
X0097317Y0080618D02*
X0096777Y0080618D01*
X0096947Y0081416D02*
X0097147Y0081416D01*
X0097147Y0082215D02*
X0096947Y0082215D01*
X0096932Y0083013D02*
X0097162Y0083013D01*
X0097493Y0083812D02*
X0096602Y0083812D01*
X0096271Y0084610D02*
X0097824Y0084610D01*
X0098524Y0085409D02*
X0095571Y0085409D01*
X0094701Y0086207D02*
X0099394Y0086207D01*
X0104701Y0086207D02*
X0109394Y0086207D01*
X0109272Y0086157D02*
X0107893Y0084778D01*
X0107147Y0082977D01*
X0107147Y0081028D01*
X0107893Y0079227D01*
X0109272Y0077849D01*
X0111073Y0077103D01*
X0113022Y0077103D01*
X0114823Y0077849D01*
X0116201Y0079227D01*
X0116947Y0081028D01*
X0116947Y0082977D01*
X0116201Y0084778D01*
X0114823Y0086157D01*
X0113022Y0086903D01*
X0111073Y0086903D01*
X0109272Y0086157D01*
X0108524Y0085409D02*
X0105571Y0085409D01*
X0106271Y0084610D02*
X0107824Y0084610D01*
X0107493Y0083812D02*
X0106602Y0083812D01*
X0106932Y0083013D02*
X0107162Y0083013D01*
X0107147Y0082215D02*
X0106947Y0082215D01*
X0106947Y0081416D02*
X0107147Y0081416D01*
X0107317Y0080618D02*
X0106777Y0080618D01*
X0106447Y0079819D02*
X0107648Y0079819D01*
X0108100Y0079021D02*
X0105995Y0079021D01*
X0105196Y0078222D02*
X0108898Y0078222D01*
X0110297Y0077424D02*
X0103797Y0077424D01*
X0103692Y0076625D02*
X0110403Y0076625D01*
X0108942Y0075827D02*
X0105153Y0075827D01*
X0105951Y0075028D02*
X0108143Y0075028D01*
X0107666Y0074230D02*
X0106428Y0074230D01*
X0106759Y0073431D02*
X0107335Y0073431D01*
X0107147Y0072633D02*
X0106947Y0072633D01*
X0106947Y0071834D02*
X0107147Y0071834D01*
X0107147Y0071036D02*
X0106947Y0071036D01*
X0106620Y0070237D02*
X0107475Y0070237D01*
X0107806Y0069439D02*
X0106289Y0069439D01*
X0105614Y0068640D02*
X0108480Y0068640D01*
X0115614Y0068640D02*
X0118480Y0068640D01*
X0117806Y0069439D02*
X0116289Y0069439D01*
X0116620Y0070237D02*
X0117475Y0070237D01*
X0117147Y0071036D02*
X0116947Y0071036D01*
X0116947Y0071834D02*
X0117147Y0071834D01*
X0117147Y0072633D02*
X0116947Y0072633D01*
X0116759Y0073431D02*
X0117335Y0073431D01*
X0117666Y0074230D02*
X0116428Y0074230D01*
X0115951Y0075028D02*
X0118143Y0075028D01*
X0118942Y0075827D02*
X0115153Y0075827D01*
X0113692Y0076625D02*
X0120403Y0076625D01*
X0120297Y0077424D02*
X0113797Y0077424D01*
X0115196Y0078222D02*
X0118898Y0078222D01*
X0119272Y0077849D02*
X0121073Y0077103D01*
X0123022Y0077103D01*
X0124823Y0077849D01*
X0126201Y0079227D01*
X0126947Y0081028D01*
X0126947Y0082977D01*
X0126201Y0084778D01*
X0124823Y0086157D01*
X0123022Y0086903D01*
X0121073Y0086903D01*
X0119272Y0086157D01*
X0117893Y0084778D01*
X0117147Y0082977D01*
X0117147Y0081028D01*
X0117893Y0079227D01*
X0119272Y0077849D01*
X0118100Y0079021D02*
X0115995Y0079021D01*
X0116447Y0079819D02*
X0117648Y0079819D01*
X0117317Y0080618D02*
X0116777Y0080618D01*
X0116947Y0081416D02*
X0117147Y0081416D01*
X0117147Y0082215D02*
X0116947Y0082215D01*
X0116932Y0083013D02*
X0117162Y0083013D01*
X0117493Y0083812D02*
X0116602Y0083812D01*
X0116271Y0084610D02*
X0117824Y0084610D01*
X0118524Y0085409D02*
X0115571Y0085409D01*
X0114701Y0086207D02*
X0119394Y0086207D01*
X0124701Y0086207D02*
X0129394Y0086207D01*
X0128524Y0085409D02*
X0125571Y0085409D01*
X0126271Y0084610D02*
X0127824Y0084610D01*
X0127493Y0083812D02*
X0126602Y0083812D01*
X0126932Y0083013D02*
X0127162Y0083013D01*
X0127147Y0082215D02*
X0126947Y0082215D01*
X0126947Y0081416D02*
X0127147Y0081416D01*
X0127317Y0080618D02*
X0126777Y0080618D01*
X0126447Y0079819D02*
X0127648Y0079819D01*
X0128100Y0079021D02*
X0125995Y0079021D01*
X0126060Y0078222D02*
X0125196Y0078222D01*
X0125262Y0077424D02*
X0123797Y0077424D01*
X0123692Y0076625D02*
X0124463Y0076625D01*
X0135995Y0079021D02*
X0138100Y0079021D01*
X0137648Y0079819D02*
X0136447Y0079819D01*
X0136777Y0080618D02*
X0137317Y0080618D01*
X0137147Y0081416D02*
X0136947Y0081416D01*
X0136947Y0082215D02*
X0137147Y0082215D01*
X0137162Y0083013D02*
X0136932Y0083013D01*
X0136602Y0083812D02*
X0137493Y0083812D01*
X0137824Y0084610D02*
X0136271Y0084610D01*
X0135571Y0085409D02*
X0138524Y0085409D01*
X0139394Y0086207D02*
X0134701Y0086207D01*
X0144701Y0086207D02*
X0149394Y0086207D01*
X0148524Y0085409D02*
X0145571Y0085409D01*
X0146271Y0084610D02*
X0147824Y0084610D01*
X0147493Y0083812D02*
X0146602Y0083812D01*
X0146932Y0083013D02*
X0147162Y0083013D01*
X0147147Y0082215D02*
X0146947Y0082215D01*
X0146947Y0081416D02*
X0147147Y0081416D01*
X0147317Y0080618D02*
X0146777Y0080618D01*
X0146447Y0079819D02*
X0147648Y0079819D01*
X0148100Y0079021D02*
X0145995Y0079021D01*
X0155995Y0079021D02*
X0158100Y0079021D01*
X0157648Y0079819D02*
X0156447Y0079819D01*
X0156777Y0080618D02*
X0157317Y0080618D01*
X0157147Y0081416D02*
X0156947Y0081416D01*
X0156947Y0082215D02*
X0157147Y0082215D01*
X0157162Y0083013D02*
X0156932Y0083013D01*
X0156602Y0083812D02*
X0157493Y0083812D01*
X0157824Y0084610D02*
X0156271Y0084610D01*
X0155571Y0085409D02*
X0158524Y0085409D01*
X0159394Y0086207D02*
X0154701Y0086207D01*
X0164701Y0086207D02*
X0169394Y0086207D01*
X0168524Y0085409D02*
X0165571Y0085409D01*
X0166271Y0084610D02*
X0167824Y0084610D01*
X0167493Y0083812D02*
X0166602Y0083812D01*
X0166932Y0083013D02*
X0167162Y0083013D01*
X0167147Y0082215D02*
X0166947Y0082215D01*
X0166947Y0081416D02*
X0167147Y0081416D01*
X0167317Y0080618D02*
X0166777Y0080618D01*
X0166447Y0079819D02*
X0167648Y0079819D01*
X0168100Y0079021D02*
X0165995Y0079021D01*
X0175995Y0079021D02*
X0178100Y0079021D01*
X0177648Y0079819D02*
X0176447Y0079819D01*
X0176777Y0080618D02*
X0177317Y0080618D01*
X0177147Y0081416D02*
X0176947Y0081416D01*
X0176947Y0082215D02*
X0177147Y0082215D01*
X0177162Y0083013D02*
X0176932Y0083013D01*
X0176602Y0083812D02*
X0177493Y0083812D01*
X0177824Y0084610D02*
X0176271Y0084610D01*
X0175571Y0085409D02*
X0178524Y0085409D01*
X0179394Y0086207D02*
X0174701Y0086207D01*
X0184701Y0086207D02*
X0189394Y0086207D01*
X0188524Y0085409D02*
X0185571Y0085409D01*
X0186271Y0084610D02*
X0187824Y0084610D01*
X0187493Y0083812D02*
X0186602Y0083812D01*
X0186932Y0083013D02*
X0187162Y0083013D01*
X0187147Y0082215D02*
X0186947Y0082215D01*
X0186947Y0081416D02*
X0187147Y0081416D01*
X0187317Y0080618D02*
X0186777Y0080618D01*
X0186447Y0079819D02*
X0187648Y0079819D01*
X0188100Y0079021D02*
X0185995Y0079021D01*
X0195995Y0079021D02*
X0198100Y0079021D01*
X0197893Y0079227D02*
X0199272Y0077849D01*
X0201073Y0077103D01*
X0203022Y0077103D01*
X0204823Y0077849D01*
X0206201Y0079227D01*
X0206947Y0081028D01*
X0206947Y0082977D01*
X0206201Y0084778D01*
X0204823Y0086157D01*
X0203022Y0086903D01*
X0201073Y0086903D01*
X0199272Y0086157D01*
X0197893Y0084778D01*
X0197147Y0082977D01*
X0197147Y0081028D01*
X0197893Y0079227D01*
X0197648Y0079819D02*
X0196447Y0079819D01*
X0196777Y0080618D02*
X0197317Y0080618D01*
X0197147Y0081416D02*
X0196947Y0081416D01*
X0196947Y0082215D02*
X0197147Y0082215D01*
X0197162Y0083013D02*
X0196932Y0083013D01*
X0196602Y0083812D02*
X0197493Y0083812D01*
X0197824Y0084610D02*
X0196271Y0084610D01*
X0195571Y0085409D02*
X0198524Y0085409D01*
X0199394Y0086207D02*
X0194701Y0086207D01*
X0204701Y0086207D02*
X0209394Y0086207D01*
X0209272Y0086157D02*
X0207893Y0084778D01*
X0207147Y0082977D01*
X0207147Y0081028D01*
X0207893Y0079227D01*
X0209272Y0077849D01*
X0211073Y0077103D01*
X0213022Y0077103D01*
X0214823Y0077849D01*
X0216201Y0079227D01*
X0216947Y0081028D01*
X0216947Y0082977D01*
X0216201Y0084778D01*
X0214823Y0086157D01*
X0213022Y0086903D01*
X0211073Y0086903D01*
X0209272Y0086157D01*
X0208524Y0085409D02*
X0205571Y0085409D01*
X0206271Y0084610D02*
X0207824Y0084610D01*
X0207493Y0083812D02*
X0206602Y0083812D01*
X0206932Y0083013D02*
X0207162Y0083013D01*
X0207147Y0082215D02*
X0206947Y0082215D01*
X0206947Y0081416D02*
X0207147Y0081416D01*
X0207317Y0080618D02*
X0206777Y0080618D01*
X0206447Y0079819D02*
X0207648Y0079819D01*
X0208100Y0079021D02*
X0205995Y0079021D01*
X0205196Y0078222D02*
X0208898Y0078222D01*
X0210297Y0077424D02*
X0203797Y0077424D01*
X0203692Y0076625D02*
X0210417Y0076625D01*
X0211647Y0076625D02*
X0212447Y0076625D01*
X0212447Y0075827D02*
X0211647Y0075827D01*
X0211647Y0075028D02*
X0212447Y0075028D01*
X0212447Y0074230D02*
X0211647Y0074230D01*
X0211647Y0073431D02*
X0212447Y0073431D01*
X0212447Y0072633D02*
X0211647Y0072633D01*
X0211647Y0071834D02*
X0206947Y0071834D01*
X0206947Y0071036D02*
X0207239Y0071036D01*
X0207469Y0070237D02*
X0206620Y0070237D01*
X0206289Y0069439D02*
X0207854Y0069439D01*
X0208480Y0068640D02*
X0205614Y0068640D01*
X0204806Y0067842D02*
X0209438Y0067842D01*
X0212447Y0071834D02*
X0217147Y0071834D01*
X0217147Y0071036D02*
X0216855Y0071036D01*
X0216626Y0070237D02*
X0217475Y0070237D01*
X0217806Y0069439D02*
X0216240Y0069439D01*
X0215614Y0068640D02*
X0218480Y0068640D01*
X0219289Y0067842D02*
X0214656Y0067842D01*
X0216909Y0072633D02*
X0217147Y0072633D01*
X0217335Y0073431D02*
X0216735Y0073431D01*
X0216412Y0074230D02*
X0217666Y0074230D01*
X0218143Y0075028D02*
X0215906Y0075028D01*
X0215120Y0075827D02*
X0218942Y0075827D01*
X0220403Y0076625D02*
X0213677Y0076625D01*
X0213797Y0077424D02*
X0220297Y0077424D01*
X0221073Y0077103D02*
X0223022Y0077103D01*
X0224823Y0077849D01*
X0226201Y0079227D01*
X0226947Y0081028D01*
X0226947Y0082977D01*
X0226201Y0084778D01*
X0224823Y0086157D01*
X0223022Y0086903D01*
X0221073Y0086903D01*
X0219272Y0086157D01*
X0217893Y0084778D01*
X0217147Y0082977D01*
X0217147Y0081028D01*
X0217893Y0079227D01*
X0219272Y0077849D01*
X0221073Y0077103D01*
X0218898Y0078222D02*
X0215196Y0078222D01*
X0215995Y0079021D02*
X0218100Y0079021D01*
X0217648Y0079819D02*
X0216447Y0079819D01*
X0216777Y0080618D02*
X0217317Y0080618D01*
X0217147Y0081416D02*
X0216947Y0081416D01*
X0216947Y0082215D02*
X0217147Y0082215D01*
X0217162Y0083013D02*
X0216932Y0083013D01*
X0216602Y0083812D02*
X0217493Y0083812D01*
X0217824Y0084610D02*
X0216271Y0084610D01*
X0215571Y0085409D02*
X0218524Y0085409D01*
X0219394Y0086207D02*
X0214701Y0086207D01*
X0224701Y0086207D02*
X0227272Y0086207D01*
X0227147Y0086083D02*
X0227967Y0086903D01*
X0236127Y0086903D01*
X0236947Y0086083D01*
X0236947Y0077923D01*
X0236127Y0077103D01*
X0227967Y0077103D01*
X0227147Y0077923D01*
X0227147Y0086083D01*
X0227147Y0085409D02*
X0225571Y0085409D01*
X0226271Y0084610D02*
X0227147Y0084610D01*
X0227147Y0083812D02*
X0226602Y0083812D01*
X0226932Y0083013D02*
X0227147Y0083013D01*
X0227147Y0082215D02*
X0226947Y0082215D01*
X0226947Y0081416D02*
X0227147Y0081416D01*
X0227147Y0080618D02*
X0226777Y0080618D01*
X0226447Y0079819D02*
X0227147Y0079819D01*
X0227147Y0079021D02*
X0225995Y0079021D01*
X0225196Y0078222D02*
X0227147Y0078222D01*
X0227646Y0077424D02*
X0223797Y0077424D01*
X0223692Y0076625D02*
X0230403Y0076625D01*
X0228942Y0075827D02*
X0225153Y0075827D01*
X0225951Y0075028D02*
X0228143Y0075028D01*
X0227666Y0074230D02*
X0226428Y0074230D01*
X0226759Y0073431D02*
X0227335Y0073431D01*
X0227147Y0072633D02*
X0226947Y0072633D01*
X0226947Y0071834D02*
X0227147Y0071834D01*
X0227147Y0071036D02*
X0226947Y0071036D01*
X0226620Y0070237D02*
X0227475Y0070237D01*
X0227806Y0069439D02*
X0226289Y0069439D01*
X0225614Y0068640D02*
X0228480Y0068640D01*
X0229289Y0067842D02*
X0224806Y0067842D01*
X0234806Y0067842D02*
X0247694Y0067842D01*
X0245766Y0068640D02*
X0235614Y0068640D01*
X0236289Y0069439D02*
X0244906Y0069439D01*
X0244108Y0070237D02*
X0236620Y0070237D01*
X0236947Y0071036D02*
X0243309Y0071036D01*
X0242739Y0071834D02*
X0236947Y0071834D01*
X0236947Y0072633D02*
X0242409Y0072633D01*
X0242078Y0073431D02*
X0236759Y0073431D01*
X0236428Y0074230D02*
X0241747Y0074230D01*
X0241416Y0075028D02*
X0235951Y0075028D01*
X0235153Y0075827D02*
X0241407Y0075827D01*
X0241407Y0076625D02*
X0233692Y0076625D01*
X0236448Y0077424D02*
X0241407Y0077424D01*
X0241407Y0078222D02*
X0236947Y0078222D01*
X0236947Y0079021D02*
X0241434Y0079021D01*
X0241765Y0079819D02*
X0236947Y0079819D01*
X0236947Y0080618D02*
X0242096Y0080618D01*
X0242427Y0081416D02*
X0236947Y0081416D01*
X0236947Y0082215D02*
X0242757Y0082215D01*
X0243353Y0083013D02*
X0236947Y0083013D01*
X0236947Y0083812D02*
X0244151Y0083812D01*
X0244950Y0084610D02*
X0236947Y0084610D01*
X0236947Y0085409D02*
X0245871Y0085409D01*
X0247799Y0086207D02*
X0236822Y0086207D01*
X0254642Y0086207D02*
X0260900Y0086207D01*
X0260900Y0085409D02*
X0256570Y0085409D01*
X0257491Y0084610D02*
X0260900Y0084610D01*
X0260900Y0083812D02*
X0258290Y0083812D01*
X0259088Y0083013D02*
X0260900Y0083013D01*
X0260900Y0082215D02*
X0259683Y0082215D01*
X0260014Y0081416D02*
X0260900Y0081416D01*
X0260900Y0080618D02*
X0260345Y0080618D01*
X0260676Y0079819D02*
X0260900Y0079819D01*
X0260900Y0074230D02*
X0260694Y0074230D01*
X0260900Y0073431D02*
X0260363Y0073431D01*
X0260032Y0072633D02*
X0260900Y0072633D01*
X0260900Y0071834D02*
X0259702Y0071834D01*
X0259132Y0071036D02*
X0260900Y0071036D01*
X0260900Y0070237D02*
X0258333Y0070237D01*
X0257535Y0069439D02*
X0260900Y0069439D01*
X0260900Y0068640D02*
X0256675Y0068640D01*
X0254747Y0067842D02*
X0260900Y0067842D01*
X0260900Y0067043D02*
X0239634Y0067043D01*
X0240417Y0066245D02*
X0260900Y0066245D01*
X0260900Y0065446D02*
X0241155Y0065446D01*
X0241915Y0064648D02*
X0260900Y0064648D01*
X0260900Y0063849D02*
X0242676Y0063849D01*
X0243436Y0063050D02*
X0260900Y0063050D01*
X0257487Y0062252D02*
X0256687Y0062252D01*
X0256687Y0061453D02*
X0257487Y0061453D01*
X0257487Y0060655D02*
X0256687Y0060655D01*
X0256687Y0059856D02*
X0257487Y0059856D01*
X0257487Y0059058D02*
X0256687Y0059058D01*
X0256687Y0058259D02*
X0257487Y0058259D01*
X0256687Y0057461D02*
X0248759Y0057461D01*
X0247999Y0058259D02*
X0250962Y0058259D01*
X0250962Y0059058D02*
X0247238Y0059058D01*
X0246478Y0059856D02*
X0251029Y0059856D01*
X0251292Y0060655D02*
X0245717Y0060655D01*
X0244957Y0061453D02*
X0251833Y0061453D01*
X0252926Y0062252D02*
X0244197Y0062252D01*
X0240954Y0059856D02*
X0220154Y0059856D01*
X0220204Y0059806D02*
X0219944Y0060066D01*
X0219715Y0060355D01*
X0219581Y0060429D01*
X0219473Y0060537D01*
X0219133Y0060678D01*
X0215081Y0062929D01*
X0214973Y0063037D01*
X0214633Y0063178D01*
X0214354Y0063333D01*
X0237643Y0063333D01*
X0246500Y0054033D01*
X0246500Y0033162D01*
X0242172Y0028833D01*
X0232828Y0028833D01*
X0231172Y0028833D01*
X0227672Y0025333D01*
X0226500Y0024162D01*
X0226500Y0023267D01*
X0226008Y0023063D01*
X0224770Y0021826D01*
X0224100Y0020209D01*
X0224100Y0012458D01*
X0224732Y0010933D01*
X0222268Y0010933D01*
X0222900Y0012458D01*
X0222900Y0020209D01*
X0222230Y0021826D01*
X0220992Y0023063D01*
X0219375Y0023733D01*
X0217625Y0023733D01*
X0216008Y0023063D01*
X0214770Y0021826D01*
X0214100Y0020209D01*
X0214100Y0012458D01*
X0214732Y0010933D01*
X0212268Y0010933D01*
X0212900Y0012458D01*
X0212900Y0020209D01*
X0212230Y0021826D01*
X0210992Y0023063D01*
X0209375Y0023733D01*
X0207625Y0023733D01*
X0206008Y0023063D01*
X0204770Y0021826D01*
X0204100Y0020209D01*
X0204100Y0012458D01*
X0204732Y0010933D01*
X0202268Y0010933D01*
X0202900Y0012458D01*
X0202900Y0020209D01*
X0202230Y0021826D01*
X0200992Y0023063D01*
X0199375Y0023733D01*
X0197625Y0023733D01*
X0196008Y0023063D01*
X0194770Y0021826D01*
X0194100Y0020209D01*
X0194100Y0012458D01*
X0194732Y0010933D01*
X0192268Y0010933D01*
X0192900Y0012458D01*
X0192900Y0020209D01*
X0192230Y0021826D01*
X0191057Y0022998D01*
X0191043Y0023033D01*
X0190199Y0023877D01*
X0184199Y0029877D01*
X0183600Y0030125D01*
X0183760Y0030285D01*
X0184132Y0030578D01*
X0184235Y0030760D01*
X0184382Y0030907D01*
X0184563Y0031344D01*
X0184795Y0031757D01*
X0184820Y0031964D01*
X0184900Y0032157D01*
X0184900Y0032630D01*
X0184956Y0033100D01*
X0184900Y0033301D01*
X0184900Y0045529D01*
X0184966Y0045895D01*
X0184900Y0046199D01*
X0184900Y0046510D01*
X0184758Y0046853D01*
X0184679Y0047216D01*
X0184501Y0047472D01*
X0184382Y0047759D01*
X0184119Y0048022D01*
X0183907Y0048328D01*
X0183646Y0048496D01*
X0183426Y0048716D01*
X0183082Y0048858D01*
X0176900Y0052832D01*
X0176900Y0054913D01*
X0176680Y0055133D01*
X0184589Y0055133D01*
X0185100Y0054622D01*
X0185100Y0045753D01*
X0185920Y0044933D01*
X0186100Y0044933D01*
X0186100Y0044733D01*
X0185920Y0044733D01*
X0185100Y0043913D01*
X0185100Y0034753D01*
X0185920Y0033933D01*
X0193080Y0033933D01*
X0193900Y0034753D01*
X0193900Y0043913D01*
X0193080Y0044733D01*
X0192900Y0044733D01*
X0192900Y0044933D01*
X0201170Y0044933D01*
X0201920Y0044183D01*
X0207080Y0044183D01*
X0207900Y0045003D01*
X0207900Y0050663D01*
X0207080Y0051483D01*
X0206365Y0051483D01*
X0205709Y0052140D01*
X0205604Y0052183D01*
X0210580Y0052183D01*
X0211400Y0053003D01*
X0211400Y0058233D01*
X0212826Y0058233D01*
X0215400Y0056803D01*
X0215400Y0055476D01*
X0211407Y0051483D01*
X0208920Y0051483D01*
X0208100Y0050663D01*
X0208100Y0045003D01*
X0208920Y0044183D01*
X0210342Y0044183D01*
X0217511Y0037014D01*
X0218761Y0036496D01*
X0229676Y0036496D01*
X0229752Y0036528D01*
X0236090Y0036528D01*
X0236458Y0036896D01*
X0240270Y0036896D01*
X0240867Y0036649D01*
X0242133Y0036649D01*
X0243304Y0037134D01*
X0244199Y0038030D01*
X0244684Y0039200D01*
X0244684Y0040467D01*
X0244199Y0041637D01*
X0243304Y0042533D01*
X0242133Y0043018D01*
X0240867Y0043018D01*
X0240574Y0042896D01*
X0236458Y0042896D01*
X0236090Y0043265D01*
X0229752Y0043265D01*
X0229676Y0043296D01*
X0220845Y0043296D01*
X0216275Y0047866D01*
X0220543Y0052134D01*
X0221000Y0053237D01*
X0221000Y0054430D01*
X0220600Y0055396D01*
X0220600Y0058184D01*
X0220642Y0058550D01*
X0220600Y0058697D01*
X0220600Y0058851D01*
X0220459Y0059191D01*
X0220358Y0059545D01*
X0220263Y0059665D01*
X0220204Y0059806D01*
X0220514Y0059058D02*
X0241715Y0059058D01*
X0242475Y0058259D02*
X0220609Y0058259D01*
X0220600Y0057461D02*
X0243236Y0057461D01*
X0243996Y0056662D02*
X0220600Y0056662D01*
X0220600Y0055864D02*
X0244757Y0055864D01*
X0245517Y0055065D02*
X0220737Y0055065D01*
X0221000Y0054267D02*
X0246278Y0054267D01*
X0246500Y0053468D02*
X0221000Y0053468D01*
X0220765Y0052670D02*
X0246500Y0052670D01*
X0246500Y0051871D02*
X0220281Y0051871D01*
X0219482Y0051073D02*
X0222331Y0051073D01*
X0222202Y0051047D02*
X0221768Y0050867D01*
X0221378Y0050607D01*
X0221046Y0050274D01*
X0218684Y0050274D01*
X0217885Y0049476D02*
X0220616Y0049476D01*
X0220605Y0049450D02*
X0220513Y0048989D01*
X0220513Y0048170D01*
X0228600Y0048170D01*
X0228600Y0047370D01*
X0229400Y0047370D01*
X0229400Y0044402D01*
X0235337Y0044402D01*
X0235798Y0044493D01*
X0236232Y0044673D01*
X0236622Y0044934D01*
X0236954Y0045266D01*
X0237215Y0045657D01*
X0237395Y0046091D01*
X0237487Y0046551D01*
X0237487Y0047370D01*
X0229400Y0047370D01*
X0229400Y0048170D01*
X0237487Y0048170D01*
X0237487Y0048989D01*
X0237395Y0049450D01*
X0237215Y0049884D01*
X0236954Y0050274D01*
X0246500Y0050274D01*
X0246500Y0049476D02*
X0237384Y0049476D01*
X0237487Y0048677D02*
X0246500Y0048677D01*
X0246500Y0047879D02*
X0229400Y0047879D01*
X0229400Y0048170D02*
X0228600Y0048170D01*
X0228600Y0051139D01*
X0222663Y0051139D01*
X0222202Y0051047D01*
X0221046Y0050274D02*
X0220785Y0049884D01*
X0220605Y0049450D01*
X0220513Y0048677D02*
X0217087Y0048677D01*
X0216288Y0047879D02*
X0228600Y0047879D01*
X0228600Y0047370D02*
X0220513Y0047370D01*
X0220513Y0046551D01*
X0220605Y0046091D01*
X0220785Y0045657D01*
X0221046Y0045266D01*
X0221378Y0044934D01*
X0221768Y0044673D01*
X0222202Y0044493D01*
X0222663Y0044402D01*
X0228600Y0044402D01*
X0228600Y0047370D01*
X0228600Y0047080D02*
X0229400Y0047080D01*
X0229400Y0046282D02*
X0228600Y0046282D01*
X0228600Y0045483D02*
X0229400Y0045483D01*
X0229400Y0044685D02*
X0228600Y0044685D01*
X0229400Y0048170D02*
X0229400Y0051139D01*
X0235337Y0051139D01*
X0235798Y0051047D01*
X0236232Y0050867D01*
X0236622Y0050607D01*
X0236954Y0050274D01*
X0235669Y0051073D02*
X0246500Y0051073D01*
X0250500Y0051073D02*
X0260900Y0051073D01*
X0260900Y0051871D02*
X0250500Y0051871D01*
X0250500Y0052670D02*
X0252148Y0052670D01*
X0251470Y0053468D02*
X0250500Y0053468D01*
X0250500Y0054267D02*
X0251092Y0054267D01*
X0250962Y0055065D02*
X0250506Y0055065D01*
X0250298Y0055864D02*
X0250962Y0055864D01*
X0250962Y0056662D02*
X0249520Y0056662D01*
X0256687Y0056662D02*
X0257487Y0056662D01*
X0257487Y0055864D02*
X0256687Y0055864D01*
X0256687Y0055065D02*
X0257487Y0055065D01*
X0257487Y0054267D02*
X0256687Y0054267D01*
X0256687Y0053468D02*
X0257487Y0053468D01*
X0257487Y0052670D02*
X0256687Y0052670D01*
X0260900Y0050274D02*
X0250500Y0050274D01*
X0250500Y0049476D02*
X0260900Y0049476D01*
X0260900Y0048677D02*
X0250500Y0048677D01*
X0250500Y0047879D02*
X0260900Y0047879D01*
X0260900Y0047080D02*
X0250500Y0047080D01*
X0250500Y0046282D02*
X0260900Y0046282D01*
X0260900Y0045483D02*
X0250500Y0045483D01*
X0250500Y0044685D02*
X0260900Y0044685D01*
X0260900Y0043886D02*
X0250500Y0043886D01*
X0250500Y0043088D02*
X0260900Y0043088D01*
X0260900Y0042289D02*
X0250500Y0042289D01*
X0250500Y0041491D02*
X0260900Y0041491D01*
X0260900Y0040692D02*
X0250500Y0040692D01*
X0250500Y0039894D02*
X0260900Y0039894D01*
X0260900Y0039095D02*
X0250500Y0039095D01*
X0250500Y0038297D02*
X0260900Y0038297D01*
X0260900Y0037498D02*
X0250500Y0037498D01*
X0250500Y0036700D02*
X0260900Y0036700D01*
X0260900Y0035901D02*
X0250500Y0035901D01*
X0250500Y0035103D02*
X0252288Y0035103D01*
X0251541Y0034304D02*
X0250500Y0034304D01*
X0250500Y0033506D02*
X0251136Y0033506D01*
X0250962Y0032707D02*
X0250500Y0032707D01*
X0250500Y0031909D02*
X0250962Y0031909D01*
X0250962Y0031110D02*
X0250105Y0031110D01*
X0249307Y0030312D02*
X0256687Y0030312D01*
X0256687Y0031110D02*
X0257487Y0031110D01*
X0257487Y0031909D02*
X0256687Y0031909D01*
X0256687Y0032707D02*
X0257487Y0032707D01*
X0257487Y0033506D02*
X0256687Y0033506D01*
X0256687Y0034304D02*
X0257487Y0034304D01*
X0257487Y0035103D02*
X0256687Y0035103D01*
X0256687Y0029513D02*
X0257487Y0029513D01*
X0257487Y0028714D02*
X0256687Y0028714D01*
X0256687Y0027916D02*
X0257487Y0027916D01*
X0257487Y0027117D02*
X0256687Y0027117D01*
X0256687Y0026319D02*
X0257487Y0026319D01*
X0257487Y0025520D02*
X0256687Y0025520D01*
X0260900Y0024722D02*
X0232717Y0024722D01*
X0231919Y0023923D02*
X0260900Y0023923D01*
X0260900Y0023125D02*
X0250750Y0023125D01*
X0251729Y0022326D02*
X0260900Y0022326D01*
X0260900Y0021528D02*
X0252320Y0021528D01*
X0252673Y0020729D02*
X0260900Y0020729D01*
X0260900Y0019931D02*
X0252860Y0019931D01*
X0252900Y0019132D02*
X0260900Y0019132D01*
X0260900Y0018334D02*
X0252900Y0018334D01*
X0252900Y0017535D02*
X0260900Y0017535D01*
X0260900Y0016737D02*
X0252900Y0016737D01*
X0252900Y0015140D02*
X0260900Y0015140D01*
X0260900Y0015938D02*
X0248900Y0015938D01*
X0248900Y0016737D02*
X0248100Y0016737D01*
X0248100Y0017535D02*
X0248900Y0017535D01*
X0248900Y0018334D02*
X0248100Y0018334D01*
X0248100Y0019132D02*
X0248900Y0019132D01*
X0248900Y0019931D02*
X0248100Y0019931D01*
X0248100Y0020729D02*
X0248900Y0020729D01*
X0248900Y0021528D02*
X0248100Y0021528D01*
X0248100Y0022326D02*
X0248900Y0022326D01*
X0248900Y0023125D02*
X0248100Y0023125D01*
X0246250Y0023125D02*
X0240844Y0023125D01*
X0241729Y0022326D02*
X0245271Y0022326D01*
X0244680Y0021528D02*
X0242354Y0021528D01*
X0242684Y0020729D02*
X0244327Y0020729D01*
X0244140Y0019931D02*
X0242900Y0019931D01*
X0242900Y0019132D02*
X0244100Y0019132D01*
X0244100Y0018334D02*
X0242900Y0018334D01*
X0242900Y0017535D02*
X0244100Y0017535D01*
X0244100Y0016737D02*
X0242900Y0016737D01*
X0242900Y0015938D02*
X0248100Y0015938D01*
X0244100Y0015140D02*
X0242900Y0015140D01*
X0242900Y0014341D02*
X0244100Y0014341D01*
X0244100Y0013543D02*
X0242900Y0013543D01*
X0242900Y0012744D02*
X0244138Y0012744D01*
X0244324Y0011946D02*
X0242688Y0011946D01*
X0242357Y0011147D02*
X0244676Y0011147D01*
X0252324Y0011147D02*
X0260900Y0011147D01*
X0260900Y0011946D02*
X0252676Y0011946D01*
X0252862Y0012744D02*
X0260900Y0012744D01*
X0260900Y0013543D02*
X0252900Y0013543D01*
X0252900Y0014341D02*
X0260900Y0014341D01*
X0252695Y0025520D02*
X0244516Y0025520D01*
X0245314Y0026319D02*
X0251727Y0026319D01*
X0251249Y0027117D02*
X0246113Y0027117D01*
X0246911Y0027916D02*
X0251008Y0027916D01*
X0250962Y0028714D02*
X0247710Y0028714D01*
X0248508Y0029513D02*
X0250962Y0029513D01*
X0246045Y0032707D02*
X0221629Y0032707D01*
X0221304Y0033033D02*
X0222199Y0032137D01*
X0222684Y0030967D01*
X0222684Y0029700D01*
X0222199Y0028530D01*
X0221304Y0027634D01*
X0220133Y0027149D01*
X0218867Y0027149D01*
X0217696Y0027634D01*
X0216997Y0028333D01*
X0196003Y0028333D01*
X0195304Y0027634D01*
X0194133Y0027149D01*
X0192867Y0027149D01*
X0191696Y0027634D01*
X0190801Y0028530D01*
X0190316Y0029700D01*
X0190316Y0030967D01*
X0190801Y0032137D01*
X0191696Y0033033D01*
X0192867Y0033518D01*
X0194133Y0033518D01*
X0195304Y0033033D01*
X0196003Y0032333D01*
X0216997Y0032333D01*
X0217696Y0033033D01*
X0218867Y0033518D01*
X0220133Y0033518D01*
X0221304Y0033033D01*
X0220162Y0033506D02*
X0246500Y0033506D01*
X0246500Y0034304D02*
X0193451Y0034304D01*
X0193900Y0035103D02*
X0246500Y0035103D01*
X0246500Y0035901D02*
X0193900Y0035901D01*
X0193900Y0036700D02*
X0218270Y0036700D01*
X0217027Y0037498D02*
X0193900Y0037498D01*
X0193900Y0038297D02*
X0216228Y0038297D01*
X0215430Y0039095D02*
X0193900Y0039095D01*
X0193900Y0039894D02*
X0214631Y0039894D01*
X0213833Y0040692D02*
X0193900Y0040692D01*
X0193900Y0041491D02*
X0213034Y0041491D01*
X0212236Y0042289D02*
X0193900Y0042289D01*
X0193900Y0043088D02*
X0211437Y0043088D01*
X0210639Y0043886D02*
X0193900Y0043886D01*
X0193128Y0044685D02*
X0201419Y0044685D01*
X0207581Y0044685D02*
X0208419Y0044685D01*
X0208100Y0045483D02*
X0207900Y0045483D01*
X0207900Y0046282D02*
X0208100Y0046282D01*
X0208100Y0047080D02*
X0207900Y0047080D01*
X0207900Y0047879D02*
X0208100Y0047879D01*
X0208100Y0048677D02*
X0207900Y0048677D01*
X0207900Y0049476D02*
X0208100Y0049476D01*
X0208100Y0050274D02*
X0207900Y0050274D01*
X0207490Y0051073D02*
X0208510Y0051073D01*
X0205977Y0051871D02*
X0211795Y0051871D01*
X0211066Y0052670D02*
X0212594Y0052670D01*
X0213392Y0053468D02*
X0211400Y0053468D01*
X0211400Y0054267D02*
X0214191Y0054267D01*
X0214989Y0055065D02*
X0211400Y0055065D01*
X0211400Y0055864D02*
X0215400Y0055864D01*
X0215400Y0056662D02*
X0211400Y0056662D01*
X0211400Y0057461D02*
X0214217Y0057461D01*
X0217737Y0061453D02*
X0239433Y0061453D01*
X0240194Y0060655D02*
X0219189Y0060655D01*
X0216300Y0062252D02*
X0238673Y0062252D01*
X0237912Y0063050D02*
X0214941Y0063050D01*
X0207186Y0072633D02*
X0206947Y0072633D01*
X0206759Y0073431D02*
X0207359Y0073431D01*
X0207683Y0074230D02*
X0206428Y0074230D01*
X0205951Y0075028D02*
X0208189Y0075028D01*
X0208974Y0075827D02*
X0205153Y0075827D01*
X0200403Y0076625D02*
X0198037Y0076625D01*
X0198835Y0075827D02*
X0198942Y0075827D01*
X0200297Y0077424D02*
X0197238Y0077424D01*
X0196440Y0078222D02*
X0198898Y0078222D01*
X0184657Y0055065D02*
X0176748Y0055065D01*
X0176900Y0054267D02*
X0185100Y0054267D01*
X0185100Y0053468D02*
X0176900Y0053468D01*
X0177153Y0052670D02*
X0185100Y0052670D01*
X0185100Y0051871D02*
X0178395Y0051871D01*
X0179637Y0051073D02*
X0185100Y0051073D01*
X0185100Y0050274D02*
X0180879Y0050274D01*
X0182121Y0049476D02*
X0185100Y0049476D01*
X0185100Y0048677D02*
X0183464Y0048677D01*
X0184263Y0047879D02*
X0185100Y0047879D01*
X0185100Y0047080D02*
X0184708Y0047080D01*
X0184900Y0046282D02*
X0185100Y0046282D01*
X0184900Y0045483D02*
X0185370Y0045483D01*
X0184900Y0044685D02*
X0185871Y0044685D01*
X0185100Y0043886D02*
X0184900Y0043886D01*
X0184900Y0043088D02*
X0185100Y0043088D01*
X0185100Y0042289D02*
X0184900Y0042289D01*
X0184900Y0041491D02*
X0185100Y0041491D01*
X0185100Y0040692D02*
X0184900Y0040692D01*
X0184900Y0039894D02*
X0185100Y0039894D01*
X0185100Y0039095D02*
X0184900Y0039095D01*
X0184900Y0038297D02*
X0185100Y0038297D01*
X0185100Y0037498D02*
X0184900Y0037498D01*
X0184900Y0036700D02*
X0185100Y0036700D01*
X0185100Y0035901D02*
X0184900Y0035901D01*
X0184900Y0035103D02*
X0185100Y0035103D01*
X0184900Y0034304D02*
X0185549Y0034304D01*
X0184900Y0033506D02*
X0192838Y0033506D01*
X0194162Y0033506D02*
X0218838Y0033506D01*
X0217371Y0032707D02*
X0195629Y0032707D01*
X0191371Y0032707D02*
X0184909Y0032707D01*
X0184813Y0031909D02*
X0190706Y0031909D01*
X0190375Y0031110D02*
X0184466Y0031110D01*
X0183794Y0030312D02*
X0190316Y0030312D01*
X0190393Y0029513D02*
X0184563Y0029513D01*
X0185361Y0028714D02*
X0190724Y0028714D01*
X0191414Y0027916D02*
X0186160Y0027916D01*
X0186958Y0027117D02*
X0229456Y0027117D01*
X0228657Y0026319D02*
X0187757Y0026319D01*
X0188556Y0025520D02*
X0227859Y0025520D01*
X0227060Y0024722D02*
X0189354Y0024722D01*
X0190153Y0023923D02*
X0226500Y0023923D01*
X0226156Y0023125D02*
X0220844Y0023125D01*
X0221729Y0022326D02*
X0225271Y0022326D01*
X0224646Y0021528D02*
X0222354Y0021528D01*
X0222684Y0020729D02*
X0224316Y0020729D01*
X0224100Y0019931D02*
X0222900Y0019931D01*
X0222900Y0019132D02*
X0224100Y0019132D01*
X0224100Y0018334D02*
X0222900Y0018334D01*
X0222900Y0017535D02*
X0224100Y0017535D01*
X0224100Y0016737D02*
X0222900Y0016737D01*
X0222900Y0015938D02*
X0224100Y0015938D01*
X0224100Y0015140D02*
X0222900Y0015140D01*
X0222900Y0014341D02*
X0224100Y0014341D01*
X0224100Y0013543D02*
X0222900Y0013543D01*
X0222900Y0012744D02*
X0224100Y0012744D01*
X0224312Y0011946D02*
X0222688Y0011946D01*
X0222357Y0011147D02*
X0224643Y0011147D01*
X0232357Y0011147D02*
X0234643Y0011147D01*
X0234312Y0011946D02*
X0232688Y0011946D01*
X0232900Y0012744D02*
X0234100Y0012744D01*
X0234100Y0013543D02*
X0232900Y0013543D01*
X0232900Y0014341D02*
X0234100Y0014341D01*
X0234100Y0015140D02*
X0232900Y0015140D01*
X0232900Y0015938D02*
X0234100Y0015938D01*
X0234100Y0016737D02*
X0232900Y0016737D01*
X0232900Y0017535D02*
X0234100Y0017535D01*
X0234100Y0018334D02*
X0232900Y0018334D01*
X0232900Y0019132D02*
X0234100Y0019132D01*
X0234100Y0019931D02*
X0232900Y0019931D01*
X0232684Y0020729D02*
X0234316Y0020729D01*
X0234646Y0021528D02*
X0232354Y0021528D01*
X0231729Y0022326D02*
X0235271Y0022326D01*
X0236156Y0023125D02*
X0231120Y0023125D01*
X0230254Y0027916D02*
X0221586Y0027916D01*
X0222276Y0028714D02*
X0231053Y0028714D01*
X0222607Y0029513D02*
X0242851Y0029513D01*
X0243650Y0030312D02*
X0222684Y0030312D01*
X0222625Y0031110D02*
X0244448Y0031110D01*
X0245247Y0031909D02*
X0222294Y0031909D01*
X0217414Y0027916D02*
X0195586Y0027916D01*
X0196156Y0023125D02*
X0190951Y0023125D01*
X0191729Y0022326D02*
X0195271Y0022326D01*
X0194646Y0021528D02*
X0192354Y0021528D01*
X0192684Y0020729D02*
X0194316Y0020729D01*
X0194100Y0019931D02*
X0192900Y0019931D01*
X0192900Y0019132D02*
X0194100Y0019132D01*
X0194100Y0018334D02*
X0192900Y0018334D01*
X0192900Y0017535D02*
X0194100Y0017535D01*
X0194100Y0016737D02*
X0192900Y0016737D01*
X0192900Y0015938D02*
X0194100Y0015938D01*
X0194100Y0015140D02*
X0192900Y0015140D01*
X0192900Y0014341D02*
X0194100Y0014341D01*
X0194100Y0013543D02*
X0192900Y0013543D01*
X0192900Y0012744D02*
X0194100Y0012744D01*
X0194312Y0011946D02*
X0192688Y0011946D01*
X0192357Y0011147D02*
X0194643Y0011147D01*
X0202357Y0011147D02*
X0204643Y0011147D01*
X0204312Y0011946D02*
X0202688Y0011946D01*
X0202900Y0012744D02*
X0204100Y0012744D01*
X0204100Y0013543D02*
X0202900Y0013543D01*
X0202900Y0014341D02*
X0204100Y0014341D01*
X0204100Y0015140D02*
X0202900Y0015140D01*
X0202900Y0015938D02*
X0204100Y0015938D01*
X0204100Y0016737D02*
X0202900Y0016737D01*
X0202900Y0017535D02*
X0204100Y0017535D01*
X0204100Y0018334D02*
X0202900Y0018334D01*
X0202900Y0019132D02*
X0204100Y0019132D01*
X0204100Y0019931D02*
X0202900Y0019931D01*
X0202684Y0020729D02*
X0204316Y0020729D01*
X0204646Y0021528D02*
X0202354Y0021528D01*
X0201729Y0022326D02*
X0205271Y0022326D01*
X0206156Y0023125D02*
X0200844Y0023125D01*
X0210844Y0023125D02*
X0216156Y0023125D01*
X0215271Y0022326D02*
X0211729Y0022326D01*
X0212354Y0021528D02*
X0214646Y0021528D01*
X0214316Y0020729D02*
X0212684Y0020729D01*
X0212900Y0019931D02*
X0214100Y0019931D01*
X0214100Y0019132D02*
X0212900Y0019132D01*
X0212900Y0018334D02*
X0214100Y0018334D01*
X0214100Y0017535D02*
X0212900Y0017535D01*
X0212900Y0016737D02*
X0214100Y0016737D01*
X0214100Y0015938D02*
X0212900Y0015938D01*
X0212900Y0015140D02*
X0214100Y0015140D01*
X0214100Y0014341D02*
X0212900Y0014341D01*
X0212900Y0013543D02*
X0214100Y0013543D01*
X0214100Y0012744D02*
X0212900Y0012744D01*
X0212688Y0011946D02*
X0214312Y0011946D01*
X0214643Y0011147D02*
X0212357Y0011147D01*
X0177869Y0034304D02*
X0176451Y0034304D01*
X0176852Y0033506D02*
X0145784Y0033506D01*
X0145968Y0032707D02*
X0144985Y0032707D01*
X0145390Y0032454D02*
X0145130Y0032193D01*
X0144945Y0031874D01*
X0144850Y0031518D01*
X0144850Y0028733D01*
X0148100Y0028733D01*
X0148100Y0027933D01*
X0148900Y0027933D01*
X0148900Y0023933D01*
X0150934Y0023933D01*
X0151290Y0024029D01*
X0151610Y0024213D01*
X0151870Y0024474D01*
X0152055Y0024793D01*
X0152150Y0025149D01*
X0152150Y0027933D01*
X0148900Y0027933D01*
X0148900Y0028733D01*
X0152150Y0028733D01*
X0152150Y0031518D01*
X0152055Y0031874D01*
X0151870Y0032193D01*
X0151610Y0032454D01*
X0151290Y0032638D01*
X0150934Y0032733D01*
X0148900Y0032733D01*
X0148900Y0028733D01*
X0148100Y0028733D01*
X0148100Y0032733D01*
X0146066Y0032733D01*
X0145710Y0032638D01*
X0145390Y0032454D01*
X0144966Y0031909D02*
X0144186Y0031909D01*
X0144150Y0031110D02*
X0144850Y0031110D01*
X0144850Y0030312D02*
X0144150Y0030312D01*
X0144150Y0029513D02*
X0144850Y0029513D01*
X0144150Y0028714D02*
X0148100Y0028714D01*
X0148100Y0027933D02*
X0144850Y0027933D01*
X0144850Y0025149D01*
X0144945Y0024793D01*
X0145130Y0024474D01*
X0145390Y0024213D01*
X0145710Y0024029D01*
X0146066Y0023933D01*
X0148100Y0023933D01*
X0148100Y0027933D01*
X0148100Y0027916D02*
X0148900Y0027916D01*
X0148900Y0028714D02*
X0158600Y0028714D01*
X0158600Y0027916D02*
X0152150Y0027916D01*
X0152150Y0027117D02*
X0162100Y0027117D01*
X0162100Y0027733D02*
X0158600Y0027733D01*
X0158600Y0030018D01*
X0158695Y0030374D01*
X0158880Y0030693D01*
X0159140Y0030954D01*
X0159460Y0031138D01*
X0159816Y0031233D01*
X0162100Y0031233D01*
X0162100Y0027733D01*
X0162100Y0027916D02*
X0162900Y0027916D01*
X0162900Y0028714D02*
X0162100Y0028714D01*
X0162100Y0029513D02*
X0162900Y0029513D01*
X0162900Y0030312D02*
X0162100Y0030312D01*
X0162100Y0031110D02*
X0162900Y0031110D01*
X0165589Y0031110D02*
X0169297Y0031110D01*
X0168600Y0030312D02*
X0166321Y0030312D01*
X0166400Y0029513D02*
X0168600Y0029513D01*
X0168600Y0028714D02*
X0166400Y0028714D01*
X0166400Y0027916D02*
X0168600Y0027916D01*
X0168600Y0027117D02*
X0162900Y0027117D01*
X0162900Y0026319D02*
X0162100Y0026319D01*
X0162100Y0025520D02*
X0162900Y0025520D01*
X0162900Y0024722D02*
X0162100Y0024722D01*
X0162100Y0023923D02*
X0162900Y0023923D01*
X0161729Y0022326D02*
X0165271Y0022326D01*
X0164646Y0021528D02*
X0162320Y0021528D01*
X0162673Y0020729D02*
X0164316Y0020729D01*
X0164100Y0019931D02*
X0162860Y0019931D01*
X0162900Y0019132D02*
X0164100Y0019132D01*
X0164100Y0018334D02*
X0162900Y0018334D01*
X0162900Y0017535D02*
X0164100Y0017535D01*
X0164100Y0016737D02*
X0162900Y0016737D01*
X0164100Y0015938D02*
X0158900Y0015938D01*
X0158900Y0016737D02*
X0158100Y0016737D01*
X0158100Y0016733D02*
X0158100Y0023725D01*
X0157470Y0023625D01*
X0156811Y0023411D01*
X0156194Y0023097D01*
X0155634Y0022689D01*
X0155144Y0022200D01*
X0154737Y0021639D01*
X0154422Y0021022D01*
X0154208Y0020364D01*
X0154100Y0019680D01*
X0154100Y0016733D01*
X0158100Y0016733D01*
X0158100Y0015938D02*
X0151294Y0015938D01*
X0151400Y0016737D02*
X0154100Y0016737D01*
X0154100Y0017535D02*
X0151400Y0017535D01*
X0151400Y0018334D02*
X0154100Y0018334D01*
X0154100Y0019132D02*
X0148400Y0019132D01*
X0148400Y0018334D02*
X0147600Y0018334D01*
X0147600Y0019132D02*
X0144400Y0019132D01*
X0144600Y0019233D02*
X0147600Y0019233D01*
X0147600Y0022983D01*
X0146250Y0022983D01*
X0145767Y0022854D01*
X0145333Y0022604D01*
X0144980Y0022250D01*
X0144729Y0021817D01*
X0144600Y0021333D01*
X0144600Y0019233D01*
X0144600Y0019931D02*
X0144400Y0019931D01*
X0144400Y0020729D02*
X0144600Y0020729D01*
X0144652Y0021528D02*
X0144400Y0021528D01*
X0143944Y0022326D02*
X0145056Y0022326D01*
X0147600Y0022326D02*
X0148400Y0022326D01*
X0148400Y0021528D02*
X0147600Y0021528D01*
X0147600Y0020729D02*
X0148400Y0020729D01*
X0148400Y0019931D02*
X0147600Y0019931D01*
X0147600Y0017535D02*
X0148400Y0017535D01*
X0148400Y0016737D02*
X0147600Y0016737D01*
X0147600Y0015938D02*
X0148400Y0015938D01*
X0148400Y0015140D02*
X0147600Y0015140D01*
X0146858Y0014341D02*
X0154100Y0014341D01*
X0154100Y0013543D02*
X0147706Y0013543D01*
X0148555Y0012744D02*
X0154138Y0012744D01*
X0154324Y0011946D02*
X0149403Y0011946D01*
X0150251Y0011147D02*
X0154676Y0011147D01*
X0154100Y0015140D02*
X0150743Y0015140D01*
X0151400Y0019931D02*
X0154140Y0019931D01*
X0154327Y0020729D02*
X0151400Y0020729D01*
X0151348Y0021528D02*
X0154680Y0021528D01*
X0155271Y0022326D02*
X0150944Y0022326D01*
X0152014Y0024722D02*
X0158600Y0024722D01*
X0158600Y0025520D02*
X0152150Y0025520D01*
X0152150Y0026319D02*
X0158600Y0026319D01*
X0158600Y0029513D02*
X0152150Y0029513D01*
X0152150Y0030312D02*
X0158679Y0030312D01*
X0159411Y0031110D02*
X0152150Y0031110D01*
X0152034Y0031909D02*
X0174820Y0031909D01*
X0175836Y0032707D02*
X0151032Y0032707D01*
X0151082Y0034304D02*
X0158526Y0034304D01*
X0157770Y0035103D02*
X0151881Y0035103D01*
X0152679Y0035901D02*
X0157440Y0035901D01*
X0157316Y0036700D02*
X0153478Y0036700D01*
X0154276Y0037498D02*
X0157329Y0037498D01*
X0157660Y0038297D02*
X0155075Y0038297D01*
X0155873Y0039095D02*
X0157900Y0039095D01*
X0157900Y0039894D02*
X0156200Y0039894D01*
X0156200Y0040692D02*
X0157900Y0040692D01*
X0157900Y0041491D02*
X0156200Y0041491D01*
X0156200Y0042289D02*
X0157900Y0042289D01*
X0157900Y0043088D02*
X0156200Y0043088D01*
X0156200Y0043886D02*
X0157900Y0043886D01*
X0157472Y0044685D02*
X0156200Y0044685D01*
X0155961Y0045483D02*
X0156673Y0045483D01*
X0155875Y0046282D02*
X0155163Y0046282D01*
X0155076Y0047080D02*
X0154364Y0047080D01*
X0154278Y0047879D02*
X0153566Y0047879D01*
X0153479Y0048677D02*
X0152767Y0048677D01*
X0156840Y0052670D02*
X0168100Y0052670D01*
X0168100Y0053468D02*
X0156042Y0053468D01*
X0154919Y0054267D02*
X0168100Y0054267D01*
X0168252Y0055065D02*
X0154343Y0055065D01*
X0151289Y0058233D02*
X0148039Y0054983D01*
X0145426Y0054983D01*
X0144442Y0053999D01*
X0144283Y0054274D01*
X0143941Y0054616D01*
X0143522Y0054858D01*
X0143054Y0054983D01*
X0141900Y0054983D01*
X0141900Y0052233D01*
X0141100Y0052233D01*
X0141100Y0051433D01*
X0141900Y0051433D01*
X0141900Y0048683D01*
X0142239Y0048683D01*
X0141800Y0048245D01*
X0141800Y0048245D01*
X0140039Y0046483D01*
X0139426Y0046483D01*
X0138350Y0045407D01*
X0138350Y0041260D01*
X0138776Y0040833D01*
X0134328Y0040833D01*
X0132500Y0042662D01*
X0132500Y0055156D01*
X0135577Y0058233D01*
X0151289Y0058233D01*
X0150516Y0057461D02*
X0134805Y0057461D01*
X0134006Y0056662D02*
X0149718Y0056662D01*
X0148919Y0055864D02*
X0133207Y0055864D01*
X0132500Y0055065D02*
X0148121Y0055065D01*
X0144710Y0054267D02*
X0144287Y0054267D01*
X0141900Y0054267D02*
X0141100Y0054267D01*
X0141100Y0054983D02*
X0139946Y0054983D01*
X0139478Y0054858D01*
X0139059Y0054616D01*
X0138717Y0054274D01*
X0138475Y0053855D01*
X0138350Y0053388D01*
X0138350Y0052233D01*
X0141100Y0052233D01*
X0141100Y0054983D01*
X0141100Y0053468D02*
X0141900Y0053468D01*
X0141900Y0052670D02*
X0141100Y0052670D01*
X0141100Y0051871D02*
X0132500Y0051871D01*
X0132500Y0051073D02*
X0138350Y0051073D01*
X0138350Y0051433D02*
X0138350Y0050279D01*
X0138475Y0049812D01*
X0138717Y0049393D01*
X0139059Y0049050D01*
X0139478Y0048809D01*
X0139946Y0048683D01*
X0141100Y0048683D01*
X0141100Y0051433D01*
X0138350Y0051433D01*
X0138351Y0050274D02*
X0132500Y0050274D01*
X0132500Y0049476D02*
X0138669Y0049476D01*
X0141100Y0049476D02*
X0141900Y0049476D01*
X0141900Y0050274D02*
X0141100Y0050274D01*
X0141100Y0051073D02*
X0141900Y0051073D01*
X0142233Y0048677D02*
X0132500Y0048677D01*
X0132500Y0047879D02*
X0141434Y0047879D01*
X0140636Y0047080D02*
X0132500Y0047080D01*
X0132500Y0046282D02*
X0139225Y0046282D01*
X0138426Y0045483D02*
X0132500Y0045483D01*
X0132500Y0044685D02*
X0138350Y0044685D01*
X0138350Y0043886D02*
X0132500Y0043886D01*
X0132500Y0043088D02*
X0138350Y0043088D01*
X0138350Y0042289D02*
X0132873Y0042289D01*
X0133671Y0041491D02*
X0138350Y0041491D01*
X0142755Y0036700D02*
X0121193Y0036700D01*
X0121881Y0035901D02*
X0141957Y0035901D01*
X0141158Y0035103D02*
X0121881Y0035103D01*
X0121881Y0034304D02*
X0126034Y0034304D01*
X0126083Y0034354D02*
X0125730Y0034000D01*
X0125479Y0033567D01*
X0125350Y0033083D01*
X0125350Y0031733D01*
X0129100Y0031733D01*
X0129100Y0030933D01*
X0129900Y0030933D01*
X0129900Y0027933D01*
X0132000Y0027933D01*
X0132483Y0028063D01*
X0132917Y0028313D01*
X0133270Y0028667D01*
X0133521Y0029100D01*
X0133650Y0029583D01*
X0133650Y0030933D01*
X0129900Y0030933D01*
X0129900Y0031733D01*
X0133650Y0031733D01*
X0133650Y0033083D01*
X0133521Y0033567D01*
X0133270Y0034000D01*
X0132917Y0034354D01*
X0132483Y0034604D01*
X0132000Y0034733D01*
X0129900Y0034733D01*
X0129900Y0031733D01*
X0129100Y0031733D01*
X0129100Y0034733D01*
X0127000Y0034733D01*
X0126517Y0034604D01*
X0126083Y0034354D01*
X0125463Y0033506D02*
X0121881Y0033506D01*
X0121881Y0032707D02*
X0125350Y0032707D01*
X0125350Y0031909D02*
X0121872Y0031909D01*
X0121881Y0031110D02*
X0129100Y0031110D01*
X0129100Y0030933D02*
X0125350Y0030933D01*
X0125350Y0029583D01*
X0125479Y0029100D01*
X0125730Y0028667D01*
X0126083Y0028313D01*
X0126517Y0028063D01*
X0127000Y0027933D01*
X0129100Y0027933D01*
X0129100Y0030933D01*
X0129100Y0030312D02*
X0129900Y0030312D01*
X0129900Y0031110D02*
X0136850Y0031110D01*
X0136850Y0030312D02*
X0133650Y0030312D01*
X0133631Y0029513D02*
X0136850Y0029513D01*
X0136850Y0028714D02*
X0133298Y0028714D01*
X0133153Y0027117D02*
X0136850Y0027117D01*
X0136850Y0026319D02*
X0133650Y0026319D01*
X0133650Y0025520D02*
X0136850Y0025520D01*
X0136881Y0024722D02*
X0133650Y0024722D01*
X0133650Y0023923D02*
X0158930Y0023923D01*
X0158900Y0023125D02*
X0158100Y0023125D01*
X0158100Y0022326D02*
X0158900Y0022326D01*
X0158900Y0021528D02*
X0158100Y0021528D01*
X0158100Y0020729D02*
X0158900Y0020729D01*
X0158900Y0019931D02*
X0158100Y0019931D01*
X0158100Y0019132D02*
X0158900Y0019132D01*
X0158900Y0018334D02*
X0158100Y0018334D01*
X0158100Y0017535D02*
X0158900Y0017535D01*
X0162900Y0015140D02*
X0164100Y0015140D01*
X0164100Y0014341D02*
X0162900Y0014341D01*
X0162900Y0013543D02*
X0164100Y0013543D01*
X0164100Y0012744D02*
X0162862Y0012744D01*
X0162676Y0011946D02*
X0164312Y0011946D01*
X0164643Y0011147D02*
X0162324Y0011147D01*
X0160750Y0023125D02*
X0166156Y0023125D01*
X0166070Y0023923D02*
X0168930Y0023923D01*
X0168600Y0024722D02*
X0166400Y0024722D01*
X0166400Y0025520D02*
X0168600Y0025520D01*
X0168600Y0026319D02*
X0166400Y0026319D01*
X0168549Y0034304D02*
X0162474Y0034304D01*
X0163230Y0035103D02*
X0168100Y0035103D01*
X0168100Y0035901D02*
X0163560Y0035901D01*
X0163684Y0036700D02*
X0168100Y0036700D01*
X0165007Y0037498D02*
X0163671Y0037498D01*
X0167674Y0041491D02*
X0168100Y0041491D01*
X0168100Y0042289D02*
X0167344Y0042289D01*
X0166749Y0043088D02*
X0168100Y0043088D01*
X0168100Y0043886D02*
X0165451Y0043886D01*
X0163549Y0043886D02*
X0163100Y0043886D01*
X0163100Y0044685D02*
X0168871Y0044685D01*
X0168370Y0045483D02*
X0163100Y0045483D01*
X0162921Y0046282D02*
X0168100Y0046282D01*
X0168100Y0047080D02*
X0162430Y0047080D01*
X0161631Y0047879D02*
X0168100Y0047879D01*
X0168100Y0048677D02*
X0160833Y0048677D01*
X0160034Y0049476D02*
X0168100Y0049476D01*
X0168100Y0050274D02*
X0159236Y0050274D01*
X0158437Y0051073D02*
X0168100Y0051073D01*
X0168100Y0051871D02*
X0157639Y0051871D01*
X0138713Y0054267D02*
X0132500Y0054267D01*
X0132500Y0053468D02*
X0138372Y0053468D01*
X0138350Y0052670D02*
X0132500Y0052670D01*
X0130500Y0039005D02*
X0130500Y0039005D01*
X0129792Y0038297D02*
X0131208Y0038297D01*
X0132007Y0037498D02*
X0066864Y0037498D01*
X0077630Y0046282D02*
X0081908Y0046282D01*
X0082849Y0045483D02*
X0078429Y0045483D01*
X0079227Y0044685D02*
X0094320Y0044685D01*
X0093522Y0045483D02*
X0088151Y0045483D01*
X0089092Y0046282D02*
X0092723Y0046282D01*
X0090950Y0043886D02*
X0095119Y0043886D01*
X0095917Y0043088D02*
X0091720Y0043088D01*
X0092051Y0042289D02*
X0096716Y0042289D01*
X0097514Y0041491D02*
X0092184Y0041491D01*
X0092181Y0040692D02*
X0098313Y0040692D01*
X0099111Y0039894D02*
X0091850Y0039894D01*
X0091265Y0039095D02*
X0099910Y0039095D01*
X0100708Y0038297D02*
X0089990Y0038297D01*
X0087050Y0043886D02*
X0080026Y0043886D01*
X0085100Y0045483D02*
X0085900Y0045483D01*
X0085900Y0046282D02*
X0085100Y0046282D01*
X0085100Y0047080D02*
X0085900Y0047080D01*
X0085900Y0047879D02*
X0085100Y0047879D01*
X0085100Y0048677D02*
X0085900Y0048677D01*
X0085900Y0049476D02*
X0085100Y0049476D01*
X0085100Y0050274D02*
X0085900Y0050274D01*
X0085900Y0051871D02*
X0085100Y0051871D01*
X0085100Y0052670D02*
X0085900Y0052670D01*
X0085900Y0053468D02*
X0085100Y0053468D01*
X0085100Y0054267D02*
X0085900Y0054267D01*
X0085900Y0055065D02*
X0085100Y0055065D01*
X0085100Y0055864D02*
X0085900Y0055864D01*
X0085900Y0056662D02*
X0085100Y0056662D01*
X0085100Y0057461D02*
X0085900Y0057461D01*
X0087261Y0057461D02*
X0093299Y0057461D01*
X0092501Y0056662D02*
X0088845Y0056662D01*
X0083739Y0057461D02*
X0031900Y0057461D01*
X0031900Y0056662D02*
X0038639Y0056662D01*
X0040600Y0056662D02*
X0041400Y0056662D01*
X0041400Y0055864D02*
X0040600Y0055864D01*
X0040600Y0055065D02*
X0041400Y0055065D01*
X0041400Y0054267D02*
X0040600Y0054267D01*
X0043361Y0056662D02*
X0044605Y0056662D01*
X0031554Y0058259D02*
X0094098Y0058259D01*
X0082155Y0056662D02*
X0071401Y0056662D01*
X0072150Y0055864D02*
X0077511Y0055864D01*
X0079935Y0055864D02*
X0079935Y0055864D01*
X0079935Y0056277D02*
X0079935Y0054318D01*
X0079935Y0056277D01*
X0079935Y0055065D02*
X0079935Y0055065D01*
X0079935Y0054318D02*
X0079935Y0054318D01*
X0073775Y0055065D02*
X0072150Y0055065D01*
X0072150Y0054267D02*
X0072930Y0054267D01*
X0072524Y0053468D02*
X0072150Y0053468D01*
X0072150Y0052670D02*
X0072316Y0052670D01*
X0072316Y0051871D02*
X0072150Y0051871D01*
X0064350Y0053468D02*
X0062150Y0053468D01*
X0062150Y0054267D02*
X0064350Y0054267D01*
X0064350Y0055065D02*
X0062150Y0055065D01*
X0062057Y0055864D02*
X0064350Y0055864D01*
X0065099Y0056662D02*
X0061199Y0056662D01*
X0037763Y0039894D02*
X0030444Y0039894D01*
X0030469Y0040692D02*
X0036964Y0040692D01*
X0036166Y0041491D02*
X0030469Y0041491D01*
X0030469Y0042289D02*
X0035367Y0042289D01*
X0034569Y0043088D02*
X0026719Y0043088D01*
X0025919Y0043088D02*
X0020743Y0043088D01*
X0020900Y0042289D02*
X0022169Y0042289D01*
X0021734Y0041491D02*
X0020859Y0041491D01*
X0020935Y0040692D02*
X0020625Y0040692D01*
X0020438Y0039894D02*
X0020159Y0039894D01*
X0020107Y0039095D02*
X0019223Y0039095D01*
X0019791Y0038297D02*
X0013600Y0038297D01*
X0013820Y0037498D02*
X0014620Y0037498D01*
X0014620Y0036700D02*
X0013820Y0036700D01*
X0013820Y0035901D02*
X0014620Y0035901D01*
X0014620Y0035103D02*
X0013820Y0035103D01*
X0013820Y0034304D02*
X0014620Y0034304D01*
X0014621Y0033506D02*
X0020301Y0033506D01*
X0020301Y0034304D02*
X0018573Y0034304D01*
X0018559Y0035103D02*
X0020197Y0035103D01*
X0019866Y0035901D02*
X0018332Y0035901D01*
X0017812Y0036700D02*
X0019791Y0036700D01*
X0019791Y0037498D02*
X0016571Y0037498D01*
X0015600Y0039095D02*
X0015400Y0039095D01*
X0015400Y0039894D02*
X0015600Y0039894D01*
X0015600Y0040692D02*
X0015400Y0040692D01*
X0015400Y0041491D02*
X0015600Y0041491D01*
X0015600Y0042289D02*
X0015400Y0042289D01*
X0015400Y0043088D02*
X0015600Y0043088D01*
X0015600Y0043886D02*
X0015400Y0043886D01*
X0015400Y0044685D02*
X0015600Y0044685D01*
X0013600Y0045483D02*
X0022350Y0045483D01*
X0022169Y0044685D02*
X0019652Y0044685D01*
X0020351Y0043886D02*
X0022169Y0043886D01*
X0019866Y0046282D02*
X0013600Y0046282D01*
X0013600Y0047080D02*
X0018576Y0047080D01*
X0017778Y0047879D02*
X0013600Y0047879D01*
X0013600Y0048677D02*
X0016979Y0048677D01*
X0016181Y0049476D02*
X0013600Y0049476D01*
X0013600Y0050274D02*
X0015624Y0050274D01*
X0014781Y0051073D02*
X0013600Y0051073D01*
X0013600Y0051871D02*
X0014100Y0051871D01*
X0014100Y0052670D02*
X0013600Y0052670D01*
X0013600Y0053468D02*
X0014100Y0053468D01*
X0014100Y0054267D02*
X0013600Y0054267D01*
X0013600Y0055065D02*
X0014100Y0055065D01*
X0014100Y0055864D02*
X0013600Y0055864D01*
X0013600Y0056662D02*
X0014100Y0056662D01*
X0014100Y0057461D02*
X0013600Y0057461D01*
X0013600Y0058259D02*
X0014446Y0058259D01*
X0013600Y0059058D02*
X0018548Y0059058D01*
X0019346Y0059856D02*
X0013600Y0059856D01*
X0013600Y0060655D02*
X0020145Y0060655D01*
X0020943Y0061453D02*
X0013600Y0061453D01*
X0013600Y0062252D02*
X0021742Y0062252D01*
X0022540Y0063050D02*
X0013600Y0063050D01*
X0013600Y0063849D02*
X0023339Y0063849D01*
X0019347Y0067842D02*
X0013600Y0067842D01*
X0013600Y0068640D02*
X0017419Y0068640D01*
X0016560Y0069439D02*
X0013600Y0069439D01*
X0013600Y0070237D02*
X0015761Y0070237D01*
X0014963Y0071036D02*
X0013600Y0071036D01*
X0013600Y0071834D02*
X0014393Y0071834D01*
X0014062Y0072633D02*
X0013600Y0072633D01*
X0013600Y0073431D02*
X0013731Y0073431D01*
X0013750Y0080618D02*
X0013600Y0080618D01*
X0013600Y0081416D02*
X0014080Y0081416D01*
X0014411Y0082215D02*
X0013600Y0082215D01*
X0013600Y0083013D02*
X0015006Y0083013D01*
X0015805Y0083812D02*
X0013600Y0083812D01*
X0013600Y0084610D02*
X0016603Y0084610D01*
X0017525Y0085409D02*
X0013600Y0085409D01*
X0013600Y0086207D02*
X0019453Y0086207D01*
X0013600Y0087006D02*
X0260900Y0087006D01*
X0260900Y0087804D02*
X0013600Y0087804D01*
X0013600Y0088603D02*
X0260900Y0088603D01*
X0260900Y0089401D02*
X0013600Y0089401D01*
X0013600Y0090200D02*
X0260900Y0090200D01*
X0260900Y0090998D02*
X0013600Y0090998D01*
X0026296Y0086207D02*
X0039506Y0086207D01*
X0038524Y0085409D02*
X0028223Y0085409D01*
X0029145Y0084610D02*
X0037885Y0084610D01*
X0037483Y0083812D02*
X0029943Y0083812D01*
X0024100Y0056662D02*
X0023506Y0056662D01*
X0024100Y0055864D02*
X0022707Y0055864D01*
X0021909Y0055065D02*
X0027600Y0055065D01*
X0024100Y0054267D02*
X0021900Y0054267D01*
X0021900Y0053468D02*
X0024100Y0053468D01*
X0024100Y0052670D02*
X0021900Y0052670D01*
X0021900Y0051871D02*
X0024174Y0051871D01*
X0030288Y0045483D02*
X0032173Y0045483D01*
X0032972Y0044685D02*
X0030469Y0044685D01*
X0030469Y0043886D02*
X0033770Y0043886D01*
X0030774Y0039095D02*
X0038561Y0039095D01*
X0038543Y0035901D02*
X0050801Y0035901D01*
X0050801Y0036700D02*
X0031091Y0036700D01*
X0031091Y0037498D02*
X0050801Y0037498D01*
X0050801Y0038297D02*
X0031091Y0038297D01*
X0031416Y0031909D02*
X0035816Y0031909D01*
X0036060Y0031110D02*
X0031416Y0031110D01*
X0031416Y0030312D02*
X0036519Y0030312D01*
X0037488Y0029513D02*
X0031416Y0029513D01*
X0031416Y0028714D02*
X0092565Y0028714D01*
X0092350Y0027916D02*
X0031384Y0027916D01*
X0040512Y0029513D02*
X0093359Y0029513D01*
X0099571Y0036700D02*
X0100919Y0036700D01*
X0110956Y0036700D02*
X0115044Y0036700D01*
X0118398Y0030312D02*
X0125350Y0030312D01*
X0125369Y0029513D02*
X0121881Y0029513D01*
X0122296Y0028714D02*
X0125702Y0028714D01*
X0125847Y0027117D02*
X0123893Y0027117D01*
X0123094Y0027916D02*
X0136850Y0027916D01*
X0134385Y0023125D02*
X0156250Y0023125D01*
X0148900Y0024722D02*
X0148100Y0024722D01*
X0148100Y0025520D02*
X0148900Y0025520D01*
X0148900Y0026319D02*
X0148100Y0026319D01*
X0148100Y0027117D02*
X0148900Y0027117D01*
X0148900Y0029513D02*
X0148100Y0029513D01*
X0148100Y0030312D02*
X0148900Y0030312D01*
X0148900Y0031110D02*
X0148100Y0031110D01*
X0148100Y0031909D02*
X0148900Y0031909D01*
X0148900Y0032707D02*
X0148100Y0032707D01*
X0144850Y0027916D02*
X0144150Y0027916D01*
X0144150Y0027117D02*
X0144850Y0027117D01*
X0144850Y0026319D02*
X0144150Y0026319D01*
X0144150Y0025520D02*
X0144850Y0025520D01*
X0144986Y0024722D02*
X0144119Y0024722D01*
X0138056Y0022326D02*
X0135184Y0022326D01*
X0135982Y0021528D02*
X0137600Y0021528D01*
X0144400Y0018334D02*
X0144600Y0018334D01*
X0144600Y0017535D02*
X0144400Y0017535D01*
X0144400Y0016737D02*
X0144600Y0016737D01*
X0141286Y0013543D02*
X0066199Y0013543D01*
X0065832Y0012744D02*
X0142135Y0012744D01*
X0142983Y0011946D02*
X0029356Y0011946D01*
X0013600Y0011147D02*
X0143831Y0011147D01*
X0129427Y0020729D02*
X0118600Y0020729D01*
X0118600Y0021528D02*
X0122272Y0021528D01*
X0121330Y0022326D02*
X0118600Y0022326D01*
X0118600Y0023125D02*
X0120531Y0023125D01*
X0129100Y0028714D02*
X0129900Y0028714D01*
X0129900Y0029513D02*
X0129100Y0029513D01*
X0129100Y0031909D02*
X0129900Y0031909D01*
X0129900Y0032707D02*
X0129100Y0032707D01*
X0129100Y0033506D02*
X0129900Y0033506D01*
X0129900Y0034304D02*
X0129100Y0034304D01*
X0132966Y0034304D02*
X0140359Y0034304D01*
X0139561Y0033506D02*
X0133537Y0033506D01*
X0133650Y0032707D02*
X0137644Y0032707D01*
X0136850Y0031909D02*
X0133650Y0031909D01*
X0176900Y0035103D02*
X0178100Y0035103D01*
X0178100Y0035901D02*
X0176900Y0035901D01*
X0176900Y0036700D02*
X0178100Y0036700D01*
X0178100Y0037498D02*
X0176900Y0037498D01*
X0176900Y0038297D02*
X0178100Y0038297D01*
X0178100Y0039095D02*
X0176900Y0039095D01*
X0176900Y0039894D02*
X0178100Y0039894D01*
X0178100Y0040692D02*
X0176900Y0040692D01*
X0176900Y0041491D02*
X0178100Y0041491D01*
X0178100Y0042289D02*
X0176900Y0042289D01*
X0176900Y0043088D02*
X0178100Y0043088D01*
X0178100Y0043886D02*
X0176900Y0043886D01*
X0176999Y0044685D02*
X0176128Y0044685D01*
X0217061Y0047080D02*
X0220513Y0047080D01*
X0220567Y0046282D02*
X0217860Y0046282D01*
X0218658Y0045483D02*
X0220901Y0045483D01*
X0221751Y0044685D02*
X0219457Y0044685D01*
X0220255Y0043886D02*
X0246500Y0043886D01*
X0246500Y0043088D02*
X0236267Y0043088D01*
X0236249Y0044685D02*
X0246500Y0044685D01*
X0246500Y0045483D02*
X0237099Y0045483D01*
X0237433Y0046282D02*
X0246500Y0046282D01*
X0246500Y0047080D02*
X0237487Y0047080D01*
X0243547Y0042289D02*
X0246500Y0042289D01*
X0246500Y0041491D02*
X0244260Y0041491D01*
X0244591Y0040692D02*
X0246500Y0040692D01*
X0246500Y0039894D02*
X0244684Y0039894D01*
X0244641Y0039095D02*
X0246500Y0039095D01*
X0246500Y0038297D02*
X0244310Y0038297D01*
X0243668Y0037498D02*
X0246500Y0037498D01*
X0246500Y0036700D02*
X0242255Y0036700D01*
X0240745Y0036700D02*
X0236262Y0036700D01*
X0229400Y0048677D02*
X0228600Y0048677D01*
X0228600Y0049476D02*
X0229400Y0049476D01*
X0229400Y0050274D02*
X0228600Y0050274D01*
X0228600Y0051073D02*
X0229400Y0051073D01*
X0098480Y0068640D02*
X0095614Y0068640D01*
X0096240Y0069439D02*
X0097806Y0069439D01*
X0097475Y0070237D02*
X0096626Y0070237D01*
X0096855Y0071036D02*
X0097147Y0071036D01*
X0097147Y0071834D02*
X0092447Y0071834D01*
X0096909Y0072633D02*
X0097147Y0072633D01*
X0097335Y0073431D02*
X0096735Y0073431D01*
X0096412Y0074230D02*
X0097666Y0074230D01*
X0098143Y0075028D02*
X0095906Y0075028D01*
X0095120Y0075827D02*
X0098942Y0075827D01*
X0051251Y0035103D02*
X0040635Y0035103D01*
X0020301Y0032707D02*
X0018573Y0032707D01*
X0018573Y0031909D02*
X0020301Y0031909D01*
X0020301Y0031110D02*
X0018494Y0031110D01*
X0018166Y0030312D02*
X0020301Y0030312D01*
X0020301Y0029513D02*
X0017460Y0029513D01*
X0017923Y0028714D02*
X0020301Y0028714D01*
X0020301Y0027916D02*
X0018378Y0027916D01*
X0018573Y0027117D02*
X0020301Y0027117D01*
X0020301Y0026319D02*
X0018573Y0026319D01*
X0014620Y0026319D02*
X0013820Y0026319D01*
X0013820Y0025796D02*
X0013820Y0029749D01*
X0013820Y0032870D01*
X0014620Y0032870D01*
X0014620Y0025796D01*
X0013820Y0025796D01*
X0013820Y0027117D02*
X0014620Y0027117D01*
X0014620Y0027916D02*
X0013820Y0027916D01*
X0013820Y0028714D02*
X0014620Y0028714D01*
X0014620Y0029513D02*
X0013820Y0029513D01*
X0013820Y0030312D02*
X0014620Y0030312D01*
X0014620Y0031110D02*
X0013820Y0031110D01*
X0013820Y0031909D02*
X0014620Y0031909D01*
X0014620Y0032707D02*
X0013820Y0032707D01*
D29*
X0020500Y0048833D02*
X0018000Y0051333D01*
X0018000Y0054833D01*
X0025000Y0061833D01*
X0029500Y0061833D01*
X0033500Y0065833D01*
X0187500Y0065833D01*
X0190500Y0052333D02*
X0190500Y0051333D01*
X0189500Y0050333D01*
X0174500Y0050333D02*
X0172500Y0050333D01*
X0160500Y0045333D02*
X0154000Y0051833D01*
X0147500Y0051833D01*
X0148000Y0051833D01*
X0160500Y0045333D02*
X0160500Y0036833D01*
X0148500Y0028333D02*
X0148000Y0027833D01*
X0162000Y0027833D01*
X0162500Y0027333D01*
X0148000Y0027833D02*
X0148000Y0018833D01*
X0141000Y0018833D02*
X0135000Y0018833D01*
X0129500Y0024333D01*
X0129000Y0023833D01*
X0123500Y0023833D01*
X0120740Y0026593D01*
X0118119Y0026593D01*
X0116000Y0024475D01*
X0116000Y0017333D01*
X0110000Y0017333D02*
X0110000Y0024475D01*
X0107881Y0026593D01*
X0101000Y0033333D02*
X0102000Y0034333D01*
X0107622Y0034333D01*
X0107881Y0034073D01*
X0118119Y0034073D01*
X0118119Y0030333D02*
X0128500Y0030333D01*
X0129500Y0031333D01*
X0126000Y0043833D02*
X0126000Y0048333D01*
X0114500Y0048333D01*
X0126000Y0048333D02*
X0126000Y0051833D01*
X0129500Y0055833D02*
X0134500Y0060833D01*
X0213500Y0060833D01*
X0218000Y0058333D01*
X0218000Y0053833D01*
X0101000Y0033333D02*
X0096500Y0033333D01*
X0058500Y0041054D02*
X0040280Y0041054D01*
X0032500Y0048833D01*
X0020500Y0048833D01*
X0028000Y0054833D02*
X0040000Y0054833D01*
X0041000Y0053833D01*
D30*
X0039000Y0055833D01*
X0039000Y0059833D01*
X0029614Y0042719D02*
X0026319Y0042719D01*
X0029614Y0042719D02*
X0033000Y0039333D01*
X0036882Y0034451D02*
X0039000Y0032333D01*
X0031618Y0024215D02*
X0027016Y0024215D01*
X0031618Y0024215D02*
X0036000Y0019833D01*
X0036000Y0015333D01*
X0035000Y0014333D01*
X0027933Y0014333D01*
X0026319Y0015948D01*
X0096500Y0026333D02*
X0100500Y0026333D01*
X0104500Y0030333D01*
X0118119Y0030333D01*
X0140000Y0030833D02*
X0140000Y0028833D01*
X0140500Y0028333D01*
X0140000Y0030833D02*
X0145500Y0036333D01*
X0150000Y0036333D01*
X0154000Y0040333D01*
X0154000Y0044333D01*
X0151000Y0047333D01*
X0144000Y0047333D01*
X0141500Y0044833D01*
X0141500Y0043333D01*
X0148000Y0051833D02*
X0153500Y0057333D01*
X0185500Y0057333D01*
X0190500Y0052333D01*
X0149500Y0008833D02*
X0141000Y0016833D01*
D31*
X0149000Y0027833D02*
X0148500Y0028333D01*
X0172500Y0027333D02*
X0174500Y0027333D01*
X0182500Y0027333D01*
X0188500Y0021333D01*
X0188500Y0016333D01*
X0229000Y0039896D02*
X0241437Y0039896D01*
X0241500Y0039833D01*
X0240937Y0047770D02*
X0241000Y0047833D01*
X0241000Y0054333D01*
X0236000Y0059333D01*
X0224000Y0059333D01*
X0218000Y0053833D02*
X0212000Y0047833D01*
X0211500Y0047833D01*
X0208000Y0055833D02*
X0198500Y0055833D01*
X0229000Y0047770D02*
X0240937Y0047770D01*
X0059780Y0017333D02*
X0058500Y0018613D01*
D32*
X0039000Y0032333D03*
X0045500Y0047333D03*
X0075500Y0052333D03*
X0089000Y0041333D03*
X0114500Y0048333D03*
X0135500Y0047333D03*
X0160500Y0036833D03*
X0164500Y0040833D03*
X0193500Y0030333D03*
X0219500Y0030333D03*
X0241500Y0039833D03*
X0241000Y0047833D03*
X0224000Y0059333D03*
X0198500Y0055833D03*
X0187500Y0065833D03*
D33*
X0039000Y0059833D03*
X0033000Y0039333D03*
D34*
X0036882Y0034451D02*
X0027016Y0034451D01*
X0045500Y0047333D02*
X0045500Y0052333D01*
X0047000Y0053833D01*
X0068250Y0052833D02*
X0072703Y0048381D01*
X0079750Y0041333D01*
X0089000Y0041333D01*
X0091112Y0048333D02*
X0091065Y0048381D01*
X0091112Y0048333D02*
X0093500Y0048333D01*
X0102000Y0039833D01*
X0128500Y0039833D01*
X0130500Y0041833D01*
X0133500Y0038833D01*
X0144000Y0038833D01*
X0147500Y0042333D01*
X0147500Y0043333D01*
X0141500Y0051833D02*
X0140000Y0051833D01*
X0135500Y0047333D01*
X0130500Y0041833D02*
X0130500Y0054833D01*
X0129500Y0055833D01*
X0129000Y0056333D01*
X0095000Y0056333D01*
X0093000Y0054333D01*
X0091112Y0054333D01*
X0091065Y0054286D01*
X0091065Y0052318D02*
X0105516Y0052318D01*
X0103000Y0051833D01*
X0109000Y0051833D02*
X0120000Y0051833D01*
X0119500Y0044333D02*
X0109000Y0044333D01*
X0103000Y0044333D02*
X0096984Y0050349D01*
X0091065Y0050349D01*
X0079935Y0048381D02*
X0072703Y0048381D01*
X0075516Y0052318D02*
X0075500Y0052333D01*
X0075516Y0052318D02*
X0079935Y0052318D01*
X0119500Y0044333D02*
X0120000Y0043833D01*
X0124000Y0043833D01*
X0141000Y0018833D02*
X0141000Y0016833D01*
X0149500Y0008833D02*
X0184500Y0008833D01*
X0188500Y0012333D01*
X0188500Y0016333D01*
X0193500Y0030333D02*
X0219500Y0030333D01*
X0228500Y0023333D02*
X0228500Y0016333D01*
X0228500Y0023333D02*
X0232000Y0026833D01*
X0243000Y0026833D01*
X0248500Y0032333D01*
X0248500Y0054833D01*
X0238500Y0065333D01*
X0201000Y0065333D01*
X0197000Y0068833D01*
X0197000Y0074833D01*
X0195000Y0076833D01*
X0127500Y0076833D01*
X0122669Y0072003D01*
X0122047Y0072003D01*
X0164500Y0040833D02*
X0166000Y0039333D01*
X0172500Y0039333D01*
D35*
X0191000Y0048833D02*
X0203500Y0048833D01*
M02*
